<?xml version="1.0" encoding="utf-8" standalone="no"?>
<!DOCTYPE svg PUBLIC "-//W3C//DTD SVG 1.1//EN"
  "http://www.w3.org/Graphics/SVG/1.1/DTD/svg11.dtd">
<!-- Created with matplotlib (https://matplotlib.org/) -->
<svg height="45.735716pt" version="1.1" viewBox="0 0 128.373469 45.735716" width="128.373469pt" xmlns="http://www.w3.org/2000/svg" xmlns:xlink="http://www.w3.org/1999/xlink">
 <defs>
  <style type="text/css">
*{stroke-linecap:butt;stroke-linejoin:round;}
  </style>
 </defs>
 <g id="figure_1">
  <g id="patch_1">
   <path d="M 0 45.735716 
L 128.373469 45.735716 
L 128.373469 0 
L 0 0 
z
" style="fill:#ffffff;"/>
  </g>
  <g id="axes_1">
   <g id="patch_2">
    <path clip-path="url(#p9dc5b6a189)" d="M 11.87145 44.920316 
L 34.72155 44.920316 
L 34.72155 22.659896 
L 11.87145 22.659896 
z
" style="fill:#cfe2d4;stroke:#808080;stroke-linejoin:miter;stroke-width:0.7;"/>
   </g>
   <g id="patch_3">
    <path clip-path="url(#p9dc5b6a189)" d="M 60.8778 43.289516 
L 83.7279 43.289516 
L 83.7279 21.029096 
L 60.8778 21.029096 
z
" style="fill:#cfe2d4;stroke:#808080;stroke-linejoin:miter;stroke-width:0.7;"/>
   </g>
   <g id="patch_4">
    <path clip-path="url(#p9dc5b6a189)" d="M 59.2038 44.920316 
L 82.0539 44.920316 
L 82.0539 22.659896 
L 59.2038 22.659896 
z
" style="fill:#cfe2d4;stroke:#808080;stroke-linejoin:miter;stroke-width:0.7;"/>
   </g>
   <g id="line2d_1">
    <path clip-path="url(#p9dc5b6a189)" d="M 6.32214 12.932653 
L 40.27086 12.932653 
" style="fill:none;stroke:#c2c2c2;stroke-linecap:square;stroke-width:0.5;"/>
   </g>
   <g id="line2d_2">
    <path clip-path="url(#p9dc5b6a189)" d="M 66.71169 12.932653 
L 74.54601 12.932653 
" style="fill:none;stroke:#c2c2c2;stroke-linecap:square;stroke-width:0.5;"/>
   </g>
   <g id="text_1">
    <!-- b -->
    <defs>
     <path d="M 49.703125 25.390625 
Q 49.703125 19.28125 48.015625 14.46875 
Q 46.34375 9.671875 43.234375 6.328125 
Q 40.140625 2.984375 35.6875 1.1875 
Q 31.25 -0.59375 25.6875 -0.59375 
Q 21.34375 -0.59375 16.796875 0.234375 
Q 12.25 1.078125 7.8125 2.875 
L 7.8125 69 
L 16.3125 69 
L 16.3125 50 
L 15.921875 40.921875 
Q 19.578125 45.84375 23.75 47.875 
Q 27.9375 49.90625 32.71875 49.90625 
Q 36.921875 49.90625 40.09375 48.140625 
Q 43.265625 46.390625 45.40625 43.1875 
Q 47.5625 39.984375 48.625 35.46875 
Q 49.703125 30.953125 49.703125 25.390625 
z
M 41.015625 25 
Q 41.015625 28.859375 40.453125 32.078125 
Q 39.890625 35.296875 38.671875 37.59375 
Q 37.453125 39.890625 35.546875 41.1875 
Q 33.640625 42.484375 31 42.484375 
Q 29.390625 42.484375 27.734375 41.96875 
Q 26.078125 41.453125 24.296875 40.25 
Q 22.515625 39.0625 20.53125 37.078125 
Q 18.5625 35.109375 16.3125 32.171875 
L 16.3125 8.40625 
Q 18.796875 7.421875 21.375 6.859375 
Q 23.96875 6.296875 26.3125 6.296875 
Q 29.25 6.296875 31.90625 7.21875 
Q 34.578125 8.15625 36.59375 10.328125 
Q 38.625 12.5 39.8125 16.078125 
Q 41.015625 19.671875 41.015625 25 
z
" id="Consolas-98"/>
    </defs>
    <g style="fill:#444443;" transform="translate(6.975 9.191406)scale(0.13 -0.13)">
     <use xlink:href="#Consolas-98"/>
    </g>
   </g>
   <g id="text_2">
    <!-- a -->
    <defs>
     <path d="M 39.3125 0 
L 39.109375 6.59375 
Q 35.109375 2.640625 30.984375 0.875 
Q 26.859375 -0.875 22.3125 -0.875 
Q 18.109375 -0.875 15.125 0.1875 
Q 12.15625 1.265625 10.21875 3.140625 
Q 8.296875 5.03125 7.390625 7.5625 
Q 6.5 10.109375 6.5 13.09375 
Q 6.5 20.453125 11.984375 24.625 
Q 17.484375 28.8125 28.21875 28.8125 
L 38.375 28.8125 
L 38.375 33.109375 
Q 38.375 37.453125 35.59375 40.0625 
Q 32.8125 42.671875 27.09375 42.671875 
Q 22.953125 42.671875 18.921875 41.75 
Q 14.890625 40.828125 10.59375 39.109375 
L 10.59375 46.78125 
Q 12.203125 47.359375 14.171875 47.921875 
Q 16.15625 48.484375 18.359375 48.921875 
Q 20.5625 49.359375 22.953125 49.625 
Q 25.34375 49.90625 27.78125 49.90625 
Q 32.234375 49.90625 35.796875 48.921875 
Q 39.359375 47.953125 41.8125 45.953125 
Q 44.28125 43.953125 45.59375 40.921875 
Q 46.921875 37.890625 46.921875 33.796875 
L 46.921875 0 
z
M 38.375 22.3125 
L 27.59375 22.3125 
Q 24.421875 22.3125 22.125 21.671875 
Q 19.828125 21.046875 18.359375 19.875 
Q 16.890625 18.703125 16.1875 17.0625 
Q 15.484375 15.4375 15.484375 13.375 
Q 15.484375 11.96875 15.921875 10.671875 
Q 16.359375 9.375 17.328125 8.375 
Q 18.3125 7.375 19.875 6.78125 
Q 21.4375 6.203125 23.6875 6.203125 
Q 26.609375 6.203125 30.390625 7.984375 
Q 34.1875 9.765625 38.375 13.625 
z
" id="Consolas-97"/>
    </defs>
    <g style="fill:#444443;" transform="translate(13.5036 9.191406)scale(0.13 -0.13)">
     <use xlink:href="#Consolas-97"/>
    </g>
   </g>
   <g id="text_3">
    <!-- t -->
    <defs>
     <path d="M 47.3125 0.6875 
Q 44.4375 -0.046875 41.359375 -0.359375 
Q 38.28125 -0.6875 35.109375 -0.6875 
Q 25.875 -0.6875 21.328125 3.484375 
Q 16.796875 7.671875 16.796875 16.3125 
L 16.796875 41.890625 
L 3.078125 41.890625 
L 3.078125 49.03125 
L 16.796875 49.03125 
L 16.796875 62.5 
L 25.296875 64.703125 
L 25.296875 49.03125 
L 47.3125 49.03125 
L 47.3125 41.890625 
L 25.296875 41.890625 
L 25.296875 17 
Q 25.296875 11.71875 28.09375 9.109375 
Q 30.90625 6.5 36.375 6.5 
Q 38.71875 6.5 41.5 6.859375 
Q 44.28125 7.234375 47.3125 8.015625 
z
" id="Consolas-116"/>
    </defs>
    <g style="fill:#444443;" transform="translate(20.0322 9.191406)scale(0.13 -0.13)">
     <use xlink:href="#Consolas-116"/>
    </g>
   </g>
   <g id="text_4">
    <!-- c -->
    <defs>
     <path d="M 45.90625 1.8125 
Q 42.578125 0.53125 39.078125 -0.078125 
Q 35.59375 -0.6875 31.890625 -0.6875 
Q 20.265625 -0.6875 13.984375 5.609375 
Q 7.71875 11.921875 7.71875 24.03125 
Q 7.71875 29.828125 9.515625 34.5625 
Q 11.328125 39.3125 14.59375 42.671875 
Q 17.875 46.046875 22.40625 47.875 
Q 26.953125 49.703125 32.421875 49.703125 
Q 36.234375 49.703125 39.546875 49.171875 
Q 42.875 48.640625 45.90625 47.40625 
L 45.90625 39.3125 
Q 42.71875 40.96875 39.421875 41.71875 
Q 36.140625 42.484375 32.625 42.484375 
Q 29.34375 42.484375 26.4375 41.234375 
Q 23.53125 39.984375 21.328125 37.640625 
Q 19.140625 35.296875 17.875 31.921875 
Q 16.609375 28.5625 16.609375 24.3125 
Q 16.609375 15.4375 20.921875 11.015625 
Q 25.25 6.59375 32.90625 6.59375 
Q 36.375 6.59375 39.625 7.375 
Q 42.875 8.15625 45.90625 9.71875 
z
" id="Consolas-99"/>
    </defs>
    <g style="fill:#444443;" transform="translate(26.5608 9.191406)scale(0.13 -0.13)">
     <use xlink:href="#Consolas-99"/>
    </g>
   </g>
   <g id="text_5">
    <!-- h -->
    <defs>
     <path d="M 47.21875 0 
L 38.71875 0 
L 38.71875 31.296875 
Q 38.71875 36.96875 36.59375 39.765625 
Q 34.46875 42.578125 30.515625 42.578125 
Q 28.8125 42.578125 27.3125 42.109375 
Q 25.828125 41.65625 24.21875 40.5 
Q 22.609375 39.359375 20.703125 37.40625 
Q 18.796875 35.453125 16.3125 32.515625 
L 16.3125 0 
L 7.8125 0 
L 7.8125 69 
L 16.3125 69 
L 16.3125 49.03125 
L 16.015625 41.3125 
Q 18.015625 43.703125 19.9375 45.328125 
Q 21.875 46.96875 23.796875 48 
Q 25.734375 49.03125 27.734375 49.46875 
Q 29.734375 49.90625 31.890625 49.90625 
Q 39.203125 49.90625 43.203125 45.4375 
Q 47.21875 40.96875 47.21875 31.984375 
z
" id="Consolas-104"/>
    </defs>
    <g style="fill:#444443;" transform="translate(33.0894 9.191406)scale(0.13 -0.13)">
     <use xlink:href="#Consolas-104"/>
    </g>
   </g>
   <g id="text_6">
    <!--   -->
    <defs>
     <path id="Consolas-32"/>
    </defs>
    <g style="fill:#444443;" transform="translate(39.618 9.191406)scale(0.13 -0.13)">
     <use xlink:href="#Consolas-32"/>
    </g>
   </g>
   <g id="text_7">
    <!-- = -->
    <defs>
     <path d="M 48.484375 31.546875 
L 6.5 31.546875 
L 6.5 38.71875 
L 48.484375 38.71875 
z
M 48.484375 14.546875 
L 6.5 14.546875 
L 6.5 21.734375 
L 48.484375 21.734375 
z
" id="Consolas-61"/>
    </defs>
    <g style="fill:#444443;" transform="translate(46.1466 9.191406)scale(0.13 -0.13)">
     <use xlink:href="#Consolas-61"/>
    </g>
   </g>
   <g id="text_8">
    <!--   -->
    <g style="fill:#444443;" transform="translate(52.6752 9.191406)scale(0.13 -0.13)">
     <use xlink:href="#Consolas-32"/>
    </g>
   </g>
   <g id="text_9">
    <!-- X -->
    <defs>
     <path d="M 53.8125 0 
L 42.828125 0 
L 27.296875 25.78125 
L 11.71875 0 
L 0.875 0 
L 22.125 32.625 
L 2.59375 63.8125 
L 12.890625 63.8125 
L 27.484375 39.796875 
L 42.1875 63.8125 
L 52.203125 63.8125 
L 32.625 33.015625 
z
" id="Consolas-88"/>
    </defs>
    <g style="fill:#444443;" transform="translate(67.36455 9.191406)scale(0.13 -0.13)">
     <use xlink:href="#Consolas-88"/>
    </g>
   </g>
   <g id="text_10">
    <!-- [ -->
    <defs>
     <path d="M 40.921875 -20.015625 
L 16.84375 -20.015625 
L 16.84375 70.703125 
L 40.921875 70.703125 
L 40.921875 63.875 
L 24.953125 63.875 
L 24.953125 -13.1875 
L 40.921875 -13.1875 
z
" id="Consolas-91"/>
    </defs>
    <g style="fill:#444443;" transform="translate(82.0539 9.191406)scale(0.13 -0.13)">
     <use xlink:href="#Consolas-91"/>
    </g>
   </g>
   <g id="text_11">
    <!-- i -->
    <defs>
     <path d="M 24.515625 42 
L 10.015625 42 
L 10.015625 49.03125 
L 33.109375 49.03125 
L 33.109375 7.078125 
L 47.703125 7.078125 
L 47.703125 0 
L 8.40625 0 
L 8.40625 7.078125 
L 24.515625 7.078125 
z
M 27.484375 69.578125 
Q 28.90625 69.578125 30.125 69.0625 
Q 31.34375 68.5625 32.25 67.625 
Q 33.15625 66.703125 33.671875 65.5 
Q 34.1875 64.3125 34.1875 62.890625 
Q 34.1875 61.53125 33.671875 60.296875 
Q 33.15625 59.078125 32.25 58.15625 
Q 31.34375 57.234375 30.125 56.71875 
Q 28.90625 56.203125 27.484375 56.203125 
Q 26.078125 56.203125 24.859375 56.71875 
Q 23.640625 57.234375 22.734375 58.15625 
Q 21.828125 59.078125 21.3125 60.296875 
Q 20.796875 61.53125 20.796875 62.890625 
Q 20.796875 64.3125 21.3125 65.5 
Q 21.828125 66.703125 22.734375 67.625 
Q 23.640625 68.5625 24.859375 69.0625 
Q 26.078125 69.578125 27.484375 69.578125 
z
" id="Consolas-105"/>
    </defs>
    <g style="fill:#444443;" transform="translate(88.5825 9.191406)scale(0.13 -0.13)">
     <use xlink:href="#Consolas-105"/>
    </g>
   </g>
   <g id="text_12">
    <!-- , -->
    <defs>
     <path d="M 11.625 -10.015625 
Q 14.109375 -10.109375 16.453125 -9.5625 
Q 18.796875 -9.03125 20.578125 -7.984375 
Q 22.359375 -6.9375 23.4375 -5.375 
Q 24.515625 -3.8125 24.515625 -1.8125 
Q 24.515625 0.25 23.796875 1.515625 
Q 23.09375 2.78125 22.21875 3.859375 
Q 21.34375 4.9375 20.625 6.15625 
Q 19.921875 7.375 19.921875 9.421875 
Q 19.921875 10.453125 20.3125 11.578125 
Q 20.703125 12.703125 21.5 13.625 
Q 22.3125 14.546875 23.5625 15.125 
Q 24.8125 15.71875 26.515625 15.71875 
Q 28.21875 15.71875 29.796875 15.015625 
Q 31.390625 14.3125 32.59375 12.84375 
Q 33.796875 11.375 34.5 9.171875 
Q 35.203125 6.984375 35.203125 4 
Q 35.203125 -0.046875 33.71875 -3.78125 
Q 32.234375 -7.515625 29.265625 -10.390625 
Q 26.3125 -13.28125 21.890625 -14.984375 
Q 17.484375 -16.703125 11.625 -16.703125 
z
" id="Consolas-44"/>
    </defs>
    <g style="fill:#444443;" transform="translate(95.1111 9.191406)scale(0.13 -0.13)">
     <use xlink:href="#Consolas-44"/>
    </g>
   </g>
   <g id="text_13">
    <!-- : -->
    <defs>
     <path d="M 27.484375 49.90625 
Q 29 49.90625 30.359375 49.296875 
Q 31.734375 48.6875 32.765625 47.65625 
Q 33.796875 46.625 34.40625 45.25 
Q 35.015625 43.890625 35.015625 42.390625 
Q 35.015625 40.828125 34.40625 39.484375 
Q 33.796875 38.140625 32.765625 37.109375 
Q 31.734375 36.078125 30.359375 35.484375 
Q 29 34.90625 27.484375 34.90625 
Q 25.921875 34.90625 24.578125 35.484375 
Q 23.25 36.078125 22.21875 37.109375 
Q 21.1875 38.140625 20.59375 39.484375 
Q 20.015625 40.828125 20.015625 42.390625 
Q 20.015625 43.890625 20.59375 45.25 
Q 21.1875 46.625 22.21875 47.65625 
Q 23.25 48.6875 24.578125 49.296875 
Q 25.921875 49.90625 27.484375 49.90625 
z
M 27.484375 14.109375 
Q 29 14.109375 30.359375 13.5 
Q 31.734375 12.890625 32.765625 11.859375 
Q 33.796875 10.84375 34.40625 9.46875 
Q 35.015625 8.109375 35.015625 6.59375 
Q 35.015625 5.03125 34.40625 3.6875 
Q 33.796875 2.34375 32.765625 1.3125 
Q 31.734375 0.296875 30.359375 -0.28125 
Q 29 -0.875 27.484375 -0.875 
Q 25.921875 -0.875 24.578125 -0.28125 
Q 23.25 0.296875 22.21875 1.3125 
Q 21.1875 2.34375 20.59375 3.6875 
Q 20.015625 5.03125 20.015625 6.59375 
Q 20.015625 8.109375 20.59375 9.46875 
Q 21.1875 10.84375 22.21875 11.859375 
Q 23.25 12.890625 24.578125 13.5 
Q 25.921875 14.109375 27.484375 14.109375 
z
" id="Consolas-58"/>
    </defs>
    <g style="fill:#444443;" transform="translate(101.6397 9.191406)scale(0.13 -0.13)">
     <use xlink:href="#Consolas-58"/>
    </g>
   </g>
   <g id="text_14">
    <!-- , -->
    <g style="fill:#444443;" transform="translate(108.1683 9.191406)scale(0.13 -0.13)">
     <use xlink:href="#Consolas-44"/>
    </g>
   </g>
   <g id="text_15">
    <!-- : -->
    <g style="fill:#444443;" transform="translate(114.6969 9.191406)scale(0.13 -0.13)">
     <use xlink:href="#Consolas-58"/>
    </g>
   </g>
   <g id="text_16">
    <!-- ] -->
    <defs>
     <path d="M 38.140625 -20.015625 
L 14.0625 -20.015625 
L 14.0625 -13.1875 
L 29.9375 -13.1875 
L 29.9375 63.875 
L 14.0625 63.875 
L 14.0625 70.703125 
L 38.140625 70.703125 
z
" id="Consolas-93"/>
    </defs>
    <g style="fill:#444443;" transform="translate(121.2255 9.191406)scale(0.13 -0.13)">
     <use xlink:href="#Consolas-93"/>
    </g>
   </g>
   <g id="text_17">
    <!-- 10 -->
    <defs>
     <path d="M 37.25 0 
L 28.46875 0 
L 28.46875 56 
Q 25.296875 52.984375 20.140625 49.953125 
Q 14.984375 46.921875 10.890625 45.40625 
L 10.890625 53.90625 
Q 18.265625 57.375 23.78125 62.296875 
Q 29.296875 67.234375 31.59375 71.875 
L 37.25 71.875 
z
" id="ArialMT-49"/>
     <path d="M 4.15625 35.296875 
Q 4.15625 48 6.765625 55.734375 
Q 9.375 63.484375 14.515625 67.671875 
Q 19.671875 71.875 27.484375 71.875 
Q 33.25 71.875 37.59375 69.546875 
Q 41.9375 67.234375 44.765625 62.859375 
Q 47.609375 58.5 49.21875 52.21875 
Q 50.828125 45.953125 50.828125 35.296875 
Q 50.828125 22.703125 48.234375 14.96875 
Q 45.65625 7.234375 40.5 3 
Q 35.359375 -1.21875 27.484375 -1.21875 
Q 17.140625 -1.21875 11.234375 6.203125 
Q 4.15625 15.140625 4.15625 35.296875 
z
M 13.1875 35.296875 
Q 13.1875 17.671875 17.3125 11.828125 
Q 21.4375 6 27.484375 6 
Q 33.546875 6 37.671875 11.859375 
Q 41.796875 17.71875 41.796875 35.296875 
Q 41.796875 52.984375 37.671875 58.78125 
Q 33.546875 64.59375 27.390625 64.59375 
Q 21.34375 64.59375 17.71875 59.46875 
Q 13.1875 52.9375 13.1875 35.296875 
z
" id="ArialMT-48"/>
    </defs>
    <g transform="translate(10.0827 38.794949)rotate(-90)scale(0.09 -0.09)">
     <use xlink:href="#ArialMT-49"/>
     <use x="55.615234" xlink:href="#ArialMT-48"/>
    </g>
   </g>
   <g id="text_18">
    <!-- 764 -->
    <defs>
     <path d="M 4.734375 62.203125 
L 4.734375 70.65625 
L 51.078125 70.65625 
L 51.078125 63.8125 
Q 44.234375 56.546875 37.515625 44.484375 
Q 30.8125 32.421875 27.15625 19.671875 
Q 24.515625 10.6875 23.78125 0 
L 14.75 0 
Q 14.890625 8.453125 18.0625 20.40625 
Q 21.234375 32.375 27.171875 43.484375 
Q 33.109375 54.59375 39.796875 62.203125 
z
" id="ArialMT-55"/>
     <path d="M 49.75 54.046875 
L 41.015625 53.375 
Q 39.84375 58.546875 37.703125 60.890625 
Q 34.125 64.65625 28.90625 64.65625 
Q 24.703125 64.65625 21.53125 62.3125 
Q 17.390625 59.28125 14.984375 53.46875 
Q 12.59375 47.65625 12.5 36.921875 
Q 15.671875 41.75 20.265625 44.09375 
Q 24.859375 46.4375 29.890625 46.4375 
Q 38.671875 46.4375 44.84375 39.96875 
Q 51.03125 33.5 51.03125 23.25 
Q 51.03125 16.5 48.125 10.71875 
Q 45.21875 4.9375 40.140625 1.859375 
Q 35.0625 -1.21875 28.609375 -1.21875 
Q 17.625 -1.21875 10.6875 6.859375 
Q 3.765625 14.9375 3.765625 33.5 
Q 3.765625 54.25 11.421875 63.671875 
Q 18.109375 71.875 29.4375 71.875 
Q 37.890625 71.875 43.28125 67.140625 
Q 48.6875 62.40625 49.75 54.046875 
z
M 13.875 23.1875 
Q 13.875 18.65625 15.796875 14.5 
Q 17.71875 10.359375 21.1875 8.171875 
Q 24.65625 6 28.46875 6 
Q 34.03125 6 38.03125 10.484375 
Q 42.046875 14.984375 42.046875 22.703125 
Q 42.046875 30.125 38.078125 34.390625 
Q 34.125 38.671875 28.125 38.671875 
Q 22.171875 38.671875 18.015625 34.390625 
Q 13.875 30.125 13.875 23.1875 
z
" id="ArialMT-54"/>
     <path d="M 32.328125 0 
L 32.328125 17.140625 
L 1.265625 17.140625 
L 1.265625 25.203125 
L 33.9375 71.578125 
L 41.109375 71.578125 
L 41.109375 25.203125 
L 50.78125 25.203125 
L 50.78125 17.140625 
L 41.109375 17.140625 
L 41.109375 0 
z
M 32.328125 25.203125 
L 32.328125 57.46875 
L 9.90625 25.203125 
z
" id="ArialMT-52"/>
    </defs>
    <g transform="translate(15.789234 21.300896)scale(0.09 -0.09)">
     <use xlink:href="#ArialMT-55"/>
     <use x="55.615234" xlink:href="#ArialMT-54"/>
     <use x="111.230469" xlink:href="#ArialMT-52"/>
    </g>
   </g>
   <g id="text_19">
    <!-- 20 -->
    <defs>
     <path d="M 50.34375 8.453125 
L 50.34375 0 
L 3.03125 0 
Q 2.9375 3.171875 4.046875 6.109375 
Q 5.859375 10.9375 9.828125 15.625 
Q 13.8125 20.3125 21.34375 26.46875 
Q 33.015625 36.03125 37.109375 41.625 
Q 41.21875 47.21875 41.21875 52.203125 
Q 41.21875 57.421875 37.46875 61 
Q 33.734375 64.59375 27.734375 64.59375 
Q 21.390625 64.59375 17.578125 60.78125 
Q 13.765625 56.984375 13.71875 50.25 
L 4.6875 51.171875 
Q 5.609375 61.28125 11.65625 66.578125 
Q 17.71875 71.875 27.9375 71.875 
Q 38.234375 71.875 44.234375 66.15625 
Q 50.25 60.453125 50.25 52 
Q 50.25 47.703125 48.484375 43.546875 
Q 46.734375 39.40625 42.65625 34.8125 
Q 38.578125 30.21875 29.109375 22.21875 
Q 21.1875 15.578125 18.9375 13.203125 
Q 16.703125 10.84375 15.234375 8.453125 
z
" id="ArialMT-50"/>
    </defs>
    <g transform="translate(57.41505 38.794949)rotate(-90)scale(0.09 -0.09)">
     <use xlink:href="#ArialMT-50"/>
     <use x="55.615234" xlink:href="#ArialMT-48"/>
    </g>
   </g>
   <g id="text_20">
    <!-- 10 -->
    <g transform="translate(67.298006 19.941896)scale(0.09 -0.09)">
     <use xlink:href="#ArialMT-49"/>
     <use x="55.615234" xlink:href="#ArialMT-48"/>
    </g>
   </g>
   <g id="text_21">
    <!-- 764 -->
    <g transform="translate(78.390645 40.743727)rotate(-45)scale(0.09 -0.09)">
     <use xlink:href="#ArialMT-55"/>
     <use x="55.615234" xlink:href="#ArialMT-54"/>
     <use x="111.230469" xlink:href="#ArialMT-52"/>
    </g>
   </g>
  </g>
 </g>
 <defs>
  <clipPath id="p9dc5b6a189">
   <rect height="41.491069" width="127.7541" x="0" y="4.244646"/>
  </clipPath>
 </defs>
</svg>
