<?xml version="1.0" encoding="utf-8" standalone="no"?>
<!DOCTYPE svg PUBLIC "-//W3C//DTD SVG 1.1//EN"
  "http://www.w3.org/Graphics/SVG/1.1/DTD/svg11.dtd">
<!-- Created with matplotlib (https://matplotlib.org/) -->
<svg height="54.510097pt" version="1.1" viewBox="0 0 157.752169 54.510097" width="157.752169pt" xmlns="http://www.w3.org/2000/svg" xmlns:xlink="http://www.w3.org/1999/xlink">
 <defs>
  <style type="text/css">
*{stroke-linecap:butt;stroke-linejoin:round;}
  </style>
 </defs>
 <g id="figure_1">
  <g id="patch_1">
   <path d="M 0 54.510097 
L 157.752169 54.510097 
L 157.752169 0 
L 0 0 
z
" style="fill:#ffffff;"/>
  </g>
  <g id="axes_1">
   <g id="patch_2">
    <path clip-path="url(#p61e6b11ffb)" d="M 33.0894 44.920316 
L 55.9395 44.920316 
L 55.9395 22.659896 
L 33.0894 22.659896 
z
" style="fill:#cfe2d4;stroke:#808080;stroke-linejoin:miter;stroke-width:0.7;"/>
   </g>
   <g id="patch_3">
    <path clip-path="url(#p61e6b11ffb)" d="M 77.1993 43.289516 
L 100.0494 43.289516 
L 100.0494 21.029096 
L 77.1993 21.029096 
z
" style="fill:#cfe2d4;stroke:#808080;stroke-linejoin:miter;stroke-width:0.7;"/>
   </g>
   <g id="patch_4">
    <path clip-path="url(#p61e6b11ffb)" d="M 75.5253 44.920316 
L 98.3754 44.920316 
L 98.3754 22.659896 
L 75.5253 22.659896 
z
" style="fill:#cfe2d4;stroke:#808080;stroke-linejoin:miter;stroke-width:0.7;"/>
   </g>
   <g id="line2d_1">
    <path clip-path="url(#p61e6b11ffb)" d="M 40.59729 12.932653 
L 48.43161 12.932653 
" style="fill:none;stroke:#c2c2c2;stroke-linecap:square;stroke-width:0.5;"/>
   </g>
   <g id="line2d_2">
    <path clip-path="url(#p61e6b11ffb)" d="M 83.03319 12.932653 
L 90.86751 12.932653 
" style="fill:none;stroke:#c2c2c2;stroke-linecap:square;stroke-width:0.5;"/>
   </g>
   <g id="text_1">
    <!-- Y -->
    <defs>
     <path d="M 54.984375 63.8125 
L 31.890625 22.796875 
L 31.890625 0 
L 23.09375 0 
L 23.09375 23 
L 0 63.8125 
L 10.5 63.8125 
L 23.1875 40.484375 
L 27.875 31.109375 
L 32.171875 39.59375 
L 45.015625 63.8125 
z
" id="Consolas-89"/>
    </defs>
    <g style="fill:#b4b4b4;" transform="translate(6.975 9.191406)scale(0.13 -0.13)">
     <use xlink:href="#Consolas-89"/>
    </g>
   </g>
   <g id="text_2">
    <!--   -->
    <defs>
     <path id="Consolas-32"/>
    </defs>
    <g style="fill:#b4b4b4;" transform="translate(13.5036 9.191406)scale(0.13 -0.13)">
     <use xlink:href="#Consolas-32"/>
    </g>
   </g>
   <g id="text_3">
    <!-- = -->
    <defs>
     <path d="M 48.484375 31.546875 
L 6.5 31.546875 
L 6.5 38.71875 
L 48.484375 38.71875 
z
M 48.484375 14.546875 
L 6.5 14.546875 
L 6.5 21.734375 
L 48.484375 21.734375 
z
" id="Consolas-61"/>
    </defs>
    <g style="fill:#b4b4b4;" transform="translate(20.0322 9.191406)scale(0.13 -0.13)">
     <use xlink:href="#Consolas-61"/>
    </g>
   </g>
   <g id="text_4">
    <!--   -->
    <g style="fill:#b4b4b4;" transform="translate(26.5608 9.191406)scale(0.13 -0.13)">
     <use xlink:href="#Consolas-32"/>
    </g>
   </g>
   <g id="text_5">
    <!-- W -->
    <defs>
     <path d="M 52.78125 63.8125 
L 48.484375 0 
L 37.203125 0 
L 29.296875 22.703125 
L 27.09375 29.984375 
L 24.8125 22.125 
L 17.484375 0 
L 6.59375 0 
L 2.203125 63.8125 
L 10.40625 63.8125 
L 12.890625 20.40625 
L 13.625 8.5 
L 16.703125 18.609375 
L 24.421875 42.28125 
L 30.421875 42.28125 
L 39.3125 16.890625 
L 42.28125 8.5 
L 42.484375 17.28125 
L 45.015625 63.8125 
z
" id="Consolas-87"/>
    </defs>
    <g style="fill:#444443;" transform="translate(41.25015 9.191406)scale(0.13 -0.13)">
     <use xlink:href="#Consolas-87"/>
    </g>
   </g>
   <g id="text_6">
    <!--   -->
    <g style="fill:#b4b4b4;" transform="translate(55.9395 9.191406)scale(0.13 -0.13)">
     <use xlink:href="#Consolas-32"/>
    </g>
   </g>
   <g id="text_7">
    <!-- @ -->
    <defs>
     <path d="M 38.09375 19.921875 
Q 37.640625 16.796875 37.59375 14.75 
Q 37.546875 12.703125 37.859375 11.53125 
Q 38.1875 10.359375 38.859375 9.890625 
Q 39.546875 9.421875 40.578125 9.421875 
Q 41.9375 9.421875 43.15625 10.859375 
Q 44.390625 12.3125 45.34375 15.3125 
Q 46.296875 18.3125 46.84375 22.890625 
Q 47.40625 27.484375 47.40625 33.796875 
Q 47.40625 40.828125 46.53125 46.34375 
Q 45.65625 51.859375 43.75 55.71875 
Q 41.84375 59.578125 38.796875 61.59375 
Q 35.75 63.625 31.390625 63.625 
Q 28.078125 63.625 24.96875 61.9375 
Q 21.875 60.25 19.203125 57.203125 
Q 16.546875 54.15625 14.375 49.875 
Q 12.203125 45.609375 10.65625 40.421875 
Q 9.125 35.25 8.265625 29.296875 
Q 7.421875 23.34375 7.421875 16.890625 
Q 7.421875 1.171875 12.15625 -6.5625 
Q 16.890625 -14.3125 25.484375 -14.3125 
Q 29.828125 -14.3125 33.59375 -13.3125 
Q 37.359375 -12.3125 41.40625 -10.296875 
L 41.40625 -16.609375 
Q 37.40625 -18.453125 33.390625 -19.375 
Q 29.390625 -20.3125 25 -20.3125 
Q 12.546875 -20.3125 6.5625 -10.984375 
Q 0.59375 -1.65625 0.484375 16.796875 
Q 0.4375 24.171875 1.453125 30.9375 
Q 2.484375 37.703125 4.40625 43.5625 
Q 6.34375 49.421875 9.09375 54.21875 
Q 11.859375 59.03125 15.34375 62.421875 
Q 18.84375 65.828125 22.9375 67.703125 
Q 27.046875 69.578125 31.6875 69.578125 
Q 37.5 69.578125 41.765625 67.203125 
Q 46.046875 64.84375 48.828125 60.375 
Q 51.609375 55.90625 52.953125 49.40625 
Q 54.296875 42.921875 54.296875 34.625 
Q 54.25 26.21875 53.203125 20.234375 
Q 52.15625 14.265625 50.25 10.453125 
Q 48.34375 6.640625 45.625 4.859375 
Q 42.921875 3.078125 39.59375 3.078125 
Q 35.796875 3.078125 33.9375 5.03125 
Q 32.078125 6.984375 32.078125 10.296875 
Q 30.21875 6.546875 28.0625 4.8125 
Q 25.921875 3.078125 22.90625 3.078125 
Q 18.3125 3.078125 16.015625 6.515625 
Q 13.71875 9.96875 13.71875 17.390625 
Q 13.71875 20.0625 14.03125 23.140625 
Q 14.359375 26.21875 15.109375 29.3125 
Q 15.875 32.421875 17.09375 35.28125 
Q 18.3125 38.140625 20.09375 40.3125 
Q 21.875 42.484375 24.3125 43.796875 
Q 26.765625 45.125 29.890625 45.125 
Q 31.734375 45.125 33.34375 44.671875 
Q 34.96875 44.234375 35.6875 43.796875 
L 42 45.3125 
z
M 33.109375 37.3125 
Q 32.671875 37.890625 31.765625 38.34375 
Q 30.859375 38.8125 29.5 38.8125 
Q 28.03125 38.8125 26.859375 37.78125 
Q 25.6875 36.765625 24.78125 35.046875 
Q 23.875 33.34375 23.265625 31.171875 
Q 22.65625 29 22.234375 26.703125 
Q 21.828125 24.421875 21.65625 22.1875 
Q 21.484375 19.96875 21.484375 18.21875 
Q 21.484375 13.53125 22.0625 11.46875 
Q 22.65625 9.421875 24.3125 9.421875 
Q 24.90625 9.421875 25.484375 9.65625 
Q 26.078125 9.90625 26.734375 10.609375 
Q 27.390625 11.328125 28.171875 12.59375 
Q 28.953125 13.875 29.890625 15.921875 
z
" id="Consolas-64"/>
    </defs>
    <g style="fill:#a40227;" transform="translate(62.4681 9.191406)scale(0.13 -0.13)">
     <use xlink:href="#Consolas-64"/>
    </g>
   </g>
   <g id="text_8">
    <!--   -->
    <g style="fill:#b4b4b4;" transform="translate(68.9967 9.191406)scale(0.13 -0.13)">
     <use xlink:href="#Consolas-32"/>
    </g>
   </g>
   <g id="text_9">
    <!-- X -->
    <defs>
     <path d="M 53.8125 0 
L 42.828125 0 
L 27.296875 25.78125 
L 11.71875 0 
L 0.875 0 
L 22.125 32.625 
L 2.59375 63.8125 
L 12.890625 63.8125 
L 27.484375 39.796875 
L 42.1875 63.8125 
L 52.203125 63.8125 
L 32.625 33.015625 
z
" id="Consolas-88"/>
    </defs>
    <g style="fill:#444443;" transform="translate(83.68605 9.191406)scale(0.13 -0.13)">
     <use xlink:href="#Consolas-88"/>
    </g>
   </g>
   <g id="text_10">
    <!-- [ -->
    <defs>
     <path d="M 40.921875 -20.015625 
L 16.84375 -20.015625 
L 16.84375 70.703125 
L 40.921875 70.703125 
L 40.921875 63.875 
L 24.953125 63.875 
L 24.953125 -13.1875 
L 40.921875 -13.1875 
z
" id="Consolas-91"/>
    </defs>
    <g style="fill:#444443;" transform="translate(98.3754 9.191406)scale(0.13 -0.13)">
     <use xlink:href="#Consolas-91"/>
    </g>
   </g>
   <g id="text_11">
    <!-- : -->
    <defs>
     <path d="M 27.484375 49.90625 
Q 29 49.90625 30.359375 49.296875 
Q 31.734375 48.6875 32.765625 47.65625 
Q 33.796875 46.625 34.40625 45.25 
Q 35.015625 43.890625 35.015625 42.390625 
Q 35.015625 40.828125 34.40625 39.484375 
Q 33.796875 38.140625 32.765625 37.109375 
Q 31.734375 36.078125 30.359375 35.484375 
Q 29 34.90625 27.484375 34.90625 
Q 25.921875 34.90625 24.578125 35.484375 
Q 23.25 36.078125 22.21875 37.109375 
Q 21.1875 38.140625 20.59375 39.484375 
Q 20.015625 40.828125 20.015625 42.390625 
Q 20.015625 43.890625 20.59375 45.25 
Q 21.1875 46.625 22.21875 47.65625 
Q 23.25 48.6875 24.578125 49.296875 
Q 25.921875 49.90625 27.484375 49.90625 
z
M 27.484375 14.109375 
Q 29 14.109375 30.359375 13.5 
Q 31.734375 12.890625 32.765625 11.859375 
Q 33.796875 10.84375 34.40625 9.46875 
Q 35.015625 8.109375 35.015625 6.59375 
Q 35.015625 5.03125 34.40625 3.6875 
Q 33.796875 2.34375 32.765625 1.3125 
Q 31.734375 0.296875 30.359375 -0.28125 
Q 29 -0.875 27.484375 -0.875 
Q 25.921875 -0.875 24.578125 -0.28125 
Q 23.25 0.296875 22.21875 1.3125 
Q 21.1875 2.34375 20.59375 3.6875 
Q 20.015625 5.03125 20.015625 6.59375 
Q 20.015625 8.109375 20.59375 9.46875 
Q 21.1875 10.84375 22.21875 11.859375 
Q 23.25 12.890625 24.578125 13.5 
Q 25.921875 14.109375 27.484375 14.109375 
z
" id="Consolas-58"/>
    </defs>
    <g style="fill:#444443;" transform="translate(104.904 9.191406)scale(0.13 -0.13)">
     <use xlink:href="#Consolas-58"/>
    </g>
   </g>
   <g id="text_12">
    <!-- ] -->
    <defs>
     <path d="M 38.140625 -20.015625 
L 14.0625 -20.015625 
L 14.0625 -13.1875 
L 29.9375 -13.1875 
L 29.9375 63.875 
L 14.0625 63.875 
L 14.0625 70.703125 
L 38.140625 70.703125 
z
" id="Consolas-93"/>
    </defs>
    <g style="fill:#444443;" transform="translate(111.4326 9.191406)scale(0.13 -0.13)">
     <use xlink:href="#Consolas-93"/>
    </g>
   </g>
   <g id="text_13">
    <!-- . -->
    <defs>
     <path d="M 27.09375 15.375 
Q 28.765625 15.375 30.25 14.734375 
Q 31.734375 14.109375 32.828125 12.984375 
Q 33.9375 11.859375 34.5625 10.375 
Q 35.203125 8.890625 35.203125 7.171875 
Q 35.203125 5.515625 34.5625 4.046875 
Q 33.9375 2.59375 32.828125 1.484375 
Q 31.734375 0.390625 30.25 -0.234375 
Q 28.765625 -0.875 27.09375 -0.875 
Q 25.390625 -0.875 23.921875 -0.234375 
Q 22.46875 0.390625 21.359375 1.484375 
Q 20.265625 2.59375 19.625 4.046875 
Q 19 5.515625 19 7.171875 
Q 19 8.890625 19.625 10.375 
Q 20.265625 11.859375 21.359375 12.984375 
Q 22.46875 14.109375 23.921875 14.734375 
Q 25.390625 15.375 27.09375 15.375 
z
" id="Consolas-46"/>
    </defs>
    <g style="fill:#444443;" transform="translate(117.9612 9.191406)scale(0.13 -0.13)">
     <use xlink:href="#Consolas-46"/>
    </g>
   </g>
   <g id="text_14">
    <!-- T -->
    <defs>
     <path d="M 50.78125 56.390625 
L 31.890625 56.390625 
L 31.890625 0 
L 23.09375 0 
L 23.09375 56.390625 
L 4.203125 56.390625 
L 4.203125 63.8125 
L 50.78125 63.8125 
z
" id="Consolas-84"/>
    </defs>
    <g style="fill:#444443;" transform="translate(124.4898 9.191406)scale(0.13 -0.13)">
     <use xlink:href="#Consolas-84"/>
    </g>
   </g>
   <g id="text_15">
    <!--   -->
    <g style="fill:#b4b4b4;" transform="translate(131.0184 9.191406)scale(0.13 -0.13)">
     <use xlink:href="#Consolas-32"/>
    </g>
   </g>
   <g id="text_16">
    <!-- + -->
    <defs>
     <path d="M 50.875 22.90625 
L 31.6875 22.90625 
L 31.6875 2.984375 
L 23.296875 2.984375 
L 23.296875 22.90625 
L 4.109375 22.90625 
L 4.109375 30.328125 
L 23.296875 30.328125 
L 23.296875 50.09375 
L 31.6875 50.09375 
L 31.6875 30.328125 
L 50.875 30.328125 
z
" id="Consolas-43"/>
    </defs>
    <g style="fill:#b4b4b4;" transform="translate(137.547 9.191406)scale(0.13 -0.13)">
     <use xlink:href="#Consolas-43"/>
    </g>
   </g>
   <g id="text_17">
    <!--   -->
    <g style="fill:#b4b4b4;" transform="translate(144.0756 9.191406)scale(0.13 -0.13)">
     <use xlink:href="#Consolas-32"/>
    </g>
   </g>
   <g id="text_18">
    <!-- b -->
    <defs>
     <path d="M 49.703125 25.390625 
Q 49.703125 19.28125 48.015625 14.46875 
Q 46.34375 9.671875 43.234375 6.328125 
Q 40.140625 2.984375 35.6875 1.1875 
Q 31.25 -0.59375 25.6875 -0.59375 
Q 21.34375 -0.59375 16.796875 0.234375 
Q 12.25 1.078125 7.8125 2.875 
L 7.8125 69 
L 16.3125 69 
L 16.3125 50 
L 15.921875 40.921875 
Q 19.578125 45.84375 23.75 47.875 
Q 27.9375 49.90625 32.71875 49.90625 
Q 36.921875 49.90625 40.09375 48.140625 
Q 43.265625 46.390625 45.40625 43.1875 
Q 47.5625 39.984375 48.625 35.46875 
Q 49.703125 30.953125 49.703125 25.390625 
z
M 41.015625 25 
Q 41.015625 28.859375 40.453125 32.078125 
Q 39.890625 35.296875 38.671875 37.59375 
Q 37.453125 39.890625 35.546875 41.1875 
Q 33.640625 42.484375 31 42.484375 
Q 29.390625 42.484375 27.734375 41.96875 
Q 26.078125 41.453125 24.296875 40.25 
Q 22.515625 39.0625 20.53125 37.078125 
Q 18.5625 35.109375 16.3125 32.171875 
L 16.3125 8.40625 
Q 18.796875 7.421875 21.375 6.859375 
Q 23.96875 6.296875 26.3125 6.296875 
Q 29.25 6.296875 31.90625 7.21875 
Q 34.578125 8.15625 36.59375 10.328125 
Q 38.625 12.5 39.8125 16.078125 
Q 41.015625 19.671875 41.015625 25 
z
" id="Consolas-98"/>
    </defs>
    <g style="fill:#b4b4b4;" transform="translate(150.6042 9.191406)scale(0.13 -0.13)">
     <use xlink:href="#Consolas-98"/>
    </g>
   </g>
   <g id="text_19">
    <!-- 100 -->
    <defs>
     <path d="M 37.25 0 
L 28.46875 0 
L 28.46875 56 
Q 25.296875 52.984375 20.140625 49.953125 
Q 14.984375 46.921875 10.890625 45.40625 
L 10.890625 53.90625 
Q 18.265625 57.375 23.78125 62.296875 
Q 29.296875 67.234375 31.59375 71.875 
L 37.25 71.875 
z
" id="ArialMT-49"/>
     <path d="M 4.15625 35.296875 
Q 4.15625 48 6.765625 55.734375 
Q 9.375 63.484375 14.515625 67.671875 
Q 19.671875 71.875 27.484375 71.875 
Q 33.25 71.875 37.59375 69.546875 
Q 41.9375 67.234375 44.765625 62.859375 
Q 47.609375 58.5 49.21875 52.21875 
Q 50.828125 45.953125 50.828125 35.296875 
Q 50.828125 22.703125 48.234375 14.96875 
Q 45.65625 7.234375 40.5 3 
Q 35.359375 -1.21875 27.484375 -1.21875 
Q 17.140625 -1.21875 11.234375 6.203125 
Q 4.15625 15.140625 4.15625 35.296875 
z
M 13.1875 35.296875 
Q 13.1875 17.671875 17.3125 11.828125 
Q 21.4375 6 27.484375 6 
Q 33.546875 6 37.671875 11.859375 
Q 41.796875 17.71875 41.796875 35.296875 
Q 41.796875 52.984375 37.671875 58.78125 
Q 33.546875 64.59375 27.390625 64.59375 
Q 21.34375 64.59375 17.71875 59.46875 
Q 13.1875 52.9375 13.1875 35.296875 
z
" id="ArialMT-48"/>
    </defs>
    <g transform="translate(31.30065 41.297371)rotate(-90)scale(0.09 -0.09)">
     <use xlink:href="#ArialMT-49"/>
     <use x="55.615234" xlink:href="#ArialMT-48"/>
     <use x="111.230469" xlink:href="#ArialMT-48"/>
    </g>
   </g>
   <g id="text_20">
    <!-- 764 -->
    <defs>
     <path d="M 4.734375 62.203125 
L 4.734375 70.65625 
L 51.078125 70.65625 
L 51.078125 63.8125 
Q 44.234375 56.546875 37.515625 44.484375 
Q 30.8125 32.421875 27.15625 19.671875 
Q 24.515625 10.6875 23.78125 0 
L 14.75 0 
Q 14.890625 8.453125 18.0625 20.40625 
Q 21.234375 32.375 27.171875 43.484375 
Q 33.109375 54.59375 39.796875 62.203125 
z
" id="ArialMT-55"/>
     <path d="M 49.75 54.046875 
L 41.015625 53.375 
Q 39.84375 58.546875 37.703125 60.890625 
Q 34.125 64.65625 28.90625 64.65625 
Q 24.703125 64.65625 21.53125 62.3125 
Q 17.390625 59.28125 14.984375 53.46875 
Q 12.59375 47.65625 12.5 36.921875 
Q 15.671875 41.75 20.265625 44.09375 
Q 24.859375 46.4375 29.890625 46.4375 
Q 38.671875 46.4375 44.84375 39.96875 
Q 51.03125 33.5 51.03125 23.25 
Q 51.03125 16.5 48.125 10.71875 
Q 45.21875 4.9375 40.140625 1.859375 
Q 35.0625 -1.21875 28.609375 -1.21875 
Q 17.625 -1.21875 10.6875 6.859375 
Q 3.765625 14.9375 3.765625 33.5 
Q 3.765625 54.25 11.421875 63.671875 
Q 18.109375 71.875 29.4375 71.875 
Q 37.890625 71.875 43.28125 67.140625 
Q 48.6875 62.40625 49.75 54.046875 
z
M 13.875 23.1875 
Q 13.875 18.65625 15.796875 14.5 
Q 17.71875 10.359375 21.1875 8.171875 
Q 24.65625 6 28.46875 6 
Q 34.03125 6 38.03125 10.484375 
Q 42.046875 14.984375 42.046875 22.703125 
Q 42.046875 30.125 38.078125 34.390625 
Q 34.125 38.671875 28.125 38.671875 
Q 22.171875 38.671875 18.015625 34.390625 
Q 13.875 30.125 13.875 23.1875 
z
" id="ArialMT-54"/>
     <path d="M 32.328125 0 
L 32.328125 17.140625 
L 1.265625 17.140625 
L 1.265625 25.203125 
L 33.9375 71.578125 
L 41.109375 71.578125 
L 41.109375 25.203125 
L 50.78125 25.203125 
L 50.78125 17.140625 
L 41.109375 17.140625 
L 41.109375 0 
z
M 32.328125 25.203125 
L 32.328125 57.46875 
L 9.90625 25.203125 
z
" id="ArialMT-52"/>
    </defs>
    <g transform="translate(37.007184 21.300896)scale(0.09 -0.09)">
     <use xlink:href="#ArialMT-55"/>
     <use x="55.615234" xlink:href="#ArialMT-54"/>
     <use x="111.230469" xlink:href="#ArialMT-52"/>
    </g>
   </g>
   <g id="text_21">
    <!-- 20 -->
    <defs>
     <path d="M 50.34375 8.453125 
L 50.34375 0 
L 3.03125 0 
Q 2.9375 3.171875 4.046875 6.109375 
Q 5.859375 10.9375 9.828125 15.625 
Q 13.8125 20.3125 21.34375 26.46875 
Q 33.015625 36.03125 37.109375 41.625 
Q 41.21875 47.21875 41.21875 52.203125 
Q 41.21875 57.421875 37.46875 61 
Q 33.734375 64.59375 27.734375 64.59375 
Q 21.390625 64.59375 17.578125 60.78125 
Q 13.765625 56.984375 13.71875 50.25 
L 4.6875 51.171875 
Q 5.609375 61.28125 11.65625 66.578125 
Q 17.71875 71.875 27.9375 71.875 
Q 38.234375 71.875 44.234375 66.15625 
Q 50.25 60.453125 50.25 52 
Q 50.25 47.703125 48.484375 43.546875 
Q 46.734375 39.40625 42.65625 34.8125 
Q 38.578125 30.21875 29.109375 22.21875 
Q 21.1875 15.578125 18.9375 13.203125 
Q 16.703125 10.84375 15.234375 8.453125 
z
" id="ArialMT-50"/>
    </defs>
    <g transform="translate(73.73655 38.794949)rotate(-90)scale(0.09 -0.09)">
     <use xlink:href="#ArialMT-50"/>
     <use x="55.615234" xlink:href="#ArialMT-48"/>
    </g>
   </g>
   <g id="text_22">
    <!-- 10 -->
    <g transform="translate(83.619506 19.941896)scale(0.09 -0.09)">
     <use xlink:href="#ArialMT-49"/>
     <use x="55.615234" xlink:href="#ArialMT-48"/>
    </g>
   </g>
   <g id="text_23">
    <!-- 764 -->
    <g transform="translate(94.712145 40.743727)rotate(-45)scale(0.09 -0.09)">
     <use xlink:href="#ArialMT-55"/>
     <use x="55.615234" xlink:href="#ArialMT-54"/>
     <use x="111.230469" xlink:href="#ArialMT-52"/>
    </g>
   </g>
   <g id="text_24">
    <!-- $\cdots$x3 -->
    <defs>
     <path d="M 11.53125 37.3125 
L 21.828125 37.3125 
L 21.828125 24.90625 
L 11.53125 24.90625 
z
M 44.828125 37.3125 
L 55.125 37.3125 
L 55.125 24.90625 
L 44.828125 24.90625 
z
M 78.125 37.3125 
L 88.421875 37.3125 
L 88.421875 24.90625 
L 78.125 24.90625 
z
" id="DejaVuSans-8943"/>
     <path d="M 0.734375 0 
L 19.671875 26.953125 
L 2.15625 51.859375 
L 13.140625 51.859375 
L 21.09375 39.703125 
Q 23.34375 36.234375 24.703125 33.890625 
Q 26.859375 37.109375 28.65625 39.59375 
L 37.40625 51.859375 
L 47.90625 51.859375 
L 29.984375 27.4375 
L 49.265625 0 
L 38.484375 0 
L 27.828125 16.109375 
L 25 20.453125 
L 11.375 0 
z
" id="ArialMT-120"/>
     <path d="M 4.203125 18.890625 
L 12.984375 20.0625 
Q 14.5 12.59375 18.140625 9.296875 
Q 21.78125 6 27 6 
Q 33.203125 6 37.46875 10.296875 
Q 41.75 14.59375 41.75 20.953125 
Q 41.75 27 37.796875 30.921875 
Q 33.84375 34.859375 27.734375 34.859375 
Q 25.25 34.859375 21.53125 33.890625 
L 22.515625 41.609375 
Q 23.390625 41.5 23.921875 41.5 
Q 29.546875 41.5 34.03125 44.421875 
Q 38.53125 47.359375 38.53125 53.46875 
Q 38.53125 58.296875 35.25 61.46875 
Q 31.984375 64.65625 26.8125 64.65625 
Q 21.6875 64.65625 18.265625 61.421875 
Q 14.84375 58.203125 13.875 51.765625 
L 5.078125 53.328125 
Q 6.6875 62.15625 12.390625 67.015625 
Q 18.109375 71.875 26.609375 71.875 
Q 32.46875 71.875 37.390625 69.359375 
Q 42.328125 66.84375 44.9375 62.5 
Q 47.5625 58.15625 47.5625 53.265625 
Q 47.5625 48.640625 45.0625 44.828125 
Q 42.578125 41.015625 37.703125 38.765625 
Q 44.046875 37.3125 47.5625 32.6875 
Q 51.078125 28.078125 51.078125 21.140625 
Q 51.078125 11.765625 44.234375 5.25 
Q 37.40625 -1.265625 26.953125 -1.265625 
Q 17.53125 -1.265625 11.296875 4.34375 
Q 5.078125 9.96875 4.203125 18.890625 
z
" id="ArialMT-51"/>
    </defs>
    <g transform="translate(77.68035 52.721347)scale(0.09 -0.09)">
     <use transform="translate(0 0.125)" xlink:href="#DejaVuSans-8943"/>
     <use transform="translate(100 0.125)" xlink:href="#ArialMT-120"/>
     <use transform="translate(150 0.125)" xlink:href="#ArialMT-51"/>
    </g>
   </g>
  </g>
 </g>
 <defs>
  <clipPath id="p61e6b11ffb">
   <rect height="41.491069" width="157.1328" x="0" y="4.244646"/>
  </clipPath>
 </defs>
</svg>
