<?xml version="1.0" encoding="utf-8" standalone="no"?>
<!DOCTYPE svg PUBLIC "-//W3C//DTD SVG 1.1//EN"
  "http://www.w3.org/Graphics/SVG/1.1/DTD/svg11.dtd">
<!-- Created with matplotlib (https://matplotlib.org/) -->
<svg height="45.589466pt" version="1.1" viewBox="0 0 193.659469 45.589466" width="193.659469pt" xmlns="http://www.w3.org/2000/svg" xmlns:xlink="http://www.w3.org/1999/xlink">
 <defs>
  <style type="text/css">
*{stroke-linecap:butt;stroke-linejoin:round;}
  </style>
 </defs>
 <g id="figure_1">
  <g id="patch_1">
   <path d="M 0 45.589466 
L 193.659469 45.589466 
L 193.659469 0 
L 0 0 
z
" style="fill:#ffffff;"/>
  </g>
  <g id="axes_1">
   <g id="patch_2">
    <path clip-path="url(#p0a52c333d8)" d="M 60.83595 44.774066 
L 83.68605 44.774066 
L 83.68605 22.513646 
L 60.83595 22.513646 
z
" style="fill:#cfe2d4;stroke:#808080;stroke-linejoin:miter;stroke-width:0.7;"/>
   </g>
   <g id="patch_3">
    <path clip-path="url(#p0a52c333d8)" d="M 111.4326 44.774066 
L 134.2827 44.774066 
L 134.2827 22.513646 
L 111.4326 22.513646 
z
" style="fill:#cfe2d4;stroke:#808080;stroke-linejoin:miter;stroke-width:0.7;"/>
   </g>
   <g id="line2d_1">
    <path clip-path="url(#p0a52c333d8)" d="M 52.02234 12.786403 
L 92.49966 12.786403 
" style="fill:none;stroke:#c2c2c2;stroke-linecap:square;stroke-width:0.5;"/>
   </g>
   <g id="line2d_2">
    <path clip-path="url(#p0a52c333d8)" d="M 118.94049 12.786403 
L 126.77481 12.786403 
" style="fill:none;stroke:#c2c2c2;stroke-linecap:square;stroke-width:0.5;"/>
   </g>
   <g id="text_1">
    <!-- r -->
    <defs>
     <path d="M 9.8125 49.03125 
L 17.578125 49.03125 
L 17.828125 39.984375 
Q 22.171875 45.21875 26.390625 47.5625 
Q 30.609375 49.90625 34.90625 49.90625 
Q 42.53125 49.90625 46.453125 44.96875 
Q 50.390625 40.046875 50.09375 30.328125 
L 41.5 30.328125 
Q 41.65625 36.765625 39.625 39.671875 
Q 37.59375 42.578125 33.6875 42.578125 
Q 31.984375 42.578125 30.25 41.96875 
Q 28.515625 41.359375 26.6875 40.015625 
Q 24.859375 38.671875 22.796875 36.5625 
Q 20.75 34.46875 18.40625 31.5 
L 18.40625 0 
L 9.8125 0 
z
" id="Consolas-114"/>
    </defs>
    <g style="fill:#b4b4b4;" transform="translate(6.975 9.045156)scale(0.13 -0.13)">
     <use xlink:href="#Consolas-114"/>
    </g>
   </g>
   <g id="text_2">
    <!-- e -->
    <defs>
     <path d="M 49.21875 27.09375 
Q 49.21875 25.296875 49.171875 24.078125 
Q 49.125 22.859375 49.03125 21.78125 
L 14.59375 21.78125 
Q 14.59375 14.265625 18.796875 10.234375 
Q 23 6.203125 30.90625 6.203125 
Q 33.0625 6.203125 35.203125 6.375 
Q 37.359375 6.546875 39.359375 6.828125 
Q 41.359375 7.125 43.1875 7.484375 
Q 45.015625 7.859375 46.578125 8.296875 
L 46.578125 1.3125 
Q 43.109375 0.34375 38.734375 -0.265625 
Q 34.375 -0.875 29.6875 -0.875 
Q 23.390625 -0.875 18.84375 0.828125 
Q 14.3125 2.546875 11.40625 5.78125 
Q 8.5 9.03125 7.109375 13.734375 
Q 5.71875 18.453125 5.71875 24.421875 
Q 5.71875 29.59375 7.203125 34.203125 
Q 8.6875 38.8125 11.546875 42.296875 
Q 14.40625 45.796875 18.546875 47.84375 
Q 22.703125 49.90625 27.984375 49.90625 
Q 33.109375 49.90625 37.0625 48.296875 
Q 41.015625 46.6875 43.71875 43.71875 
Q 46.4375 40.765625 47.828125 36.546875 
Q 49.21875 32.328125 49.21875 27.09375 
z
M 40.375 28.328125 
Q 40.53125 31.59375 39.75 34.296875 
Q 38.96875 37.015625 37.328125 38.96875 
Q 35.6875 40.921875 33.25 42.015625 
Q 30.8125 43.109375 27.59375 43.109375 
Q 24.8125 43.109375 22.515625 42.03125 
Q 20.21875 40.96875 18.546875 39.015625 
Q 16.890625 37.0625 15.859375 34.328125 
Q 14.84375 31.59375 14.59375 28.328125 
z
" id="Consolas-101"/>
    </defs>
    <g style="fill:#b4b4b4;" transform="translate(13.5036 9.045156)scale(0.13 -0.13)">
     <use xlink:href="#Consolas-101"/>
    </g>
   </g>
   <g id="text_3">
    <!-- t -->
    <defs>
     <path d="M 47.3125 0.6875 
Q 44.4375 -0.046875 41.359375 -0.359375 
Q 38.28125 -0.6875 35.109375 -0.6875 
Q 25.875 -0.6875 21.328125 3.484375 
Q 16.796875 7.671875 16.796875 16.3125 
L 16.796875 41.890625 
L 3.078125 41.890625 
L 3.078125 49.03125 
L 16.796875 49.03125 
L 16.796875 62.5 
L 25.296875 64.703125 
L 25.296875 49.03125 
L 47.3125 49.03125 
L 47.3125 41.890625 
L 25.296875 41.890625 
L 25.296875 17 
Q 25.296875 11.71875 28.09375 9.109375 
Q 30.90625 6.5 36.375 6.5 
Q 38.71875 6.5 41.5 6.859375 
Q 44.28125 7.234375 47.3125 8.015625 
z
" id="Consolas-116"/>
    </defs>
    <g style="fill:#b4b4b4;" transform="translate(20.0322 9.045156)scale(0.13 -0.13)">
     <use xlink:href="#Consolas-116"/>
    </g>
   </g>
   <g id="text_4">
    <!-- u -->
    <defs>
     <path d="M 47.21875 0 
L 39.59375 0 
L 39.3125 7.90625 
Q 37.109375 5.375 35.125 3.6875 
Q 33.15625 2 31.203125 0.96875 
Q 29.25 -0.046875 27.265625 -0.453125 
Q 25.296875 -0.875 23.09375 -0.875 
Q 15.53125 -0.875 11.671875 3.5625 
Q 7.8125 8.015625 7.8125 17 
L 7.8125 49.03125 
L 16.3125 49.03125 
L 16.3125 17.671875 
Q 16.3125 6.390625 24.8125 6.390625 
Q 26.375 6.390625 27.859375 6.859375 
Q 29.34375 7.328125 30.984375 8.46875 
Q 32.625 9.625 34.5 11.578125 
Q 36.375 13.53125 38.71875 16.5 
L 38.71875 49.03125 
L 47.21875 49.03125 
z
" id="Consolas-117"/>
    </defs>
    <g style="fill:#b4b4b4;" transform="translate(26.5608 9.045156)scale(0.13 -0.13)">
     <use xlink:href="#Consolas-117"/>
    </g>
   </g>
   <g id="text_5">
    <!-- r -->
    <g style="fill:#b4b4b4;" transform="translate(33.0894 9.045156)scale(0.13 -0.13)">
     <use xlink:href="#Consolas-114"/>
    </g>
   </g>
   <g id="text_6">
    <!-- n -->
    <defs>
     <path d="M 7.8125 49.03125 
L 15.375 49.03125 
L 15.71875 41.109375 
Q 17.875 43.65625 19.875 45.328125 
Q 21.875 47.015625 23.796875 48.046875 
Q 25.734375 49.078125 27.734375 49.484375 
Q 29.734375 49.90625 31.890625 49.90625 
Q 39.453125 49.90625 43.328125 45.4375 
Q 47.21875 40.96875 47.21875 31.984375 
L 47.21875 0 
L 38.71875 0 
L 38.71875 31.296875 
Q 38.71875 37.0625 36.5625 39.8125 
Q 34.421875 42.578125 30.171875 42.578125 
Q 28.609375 42.578125 27.125 42.109375 
Q 25.640625 41.65625 24.015625 40.5 
Q 22.40625 39.359375 20.53125 37.40625 
Q 18.65625 35.453125 16.3125 32.515625 
L 16.3125 0 
L 7.8125 0 
z
" id="Consolas-110"/>
    </defs>
    <g style="fill:#b4b4b4;" transform="translate(39.618 9.045156)scale(0.13 -0.13)">
     <use xlink:href="#Consolas-110"/>
    </g>
   </g>
   <g id="text_7">
    <!--   -->
    <defs>
     <path id="Consolas-32"/>
    </defs>
    <g style="fill:#b4b4b4;" transform="translate(46.1466 9.045156)scale(0.13 -0.13)">
     <use xlink:href="#Consolas-32"/>
    </g>
   </g>
   <g id="text_8">
    <!-- s -->
    <defs>
     <path d="M 46.625 13.375 
Q 46.625 10.796875 45.75 8.734375 
Q 44.875 6.6875 43.359375 5.09375 
Q 41.84375 3.515625 39.84375 2.390625 
Q 37.84375 1.265625 35.5625 0.53125 
Q 33.296875 -0.203125 30.90625 -0.53125 
Q 28.515625 -0.875 26.21875 -0.875 
Q 21.234375 -0.875 17.0625 -0.4375 
Q 12.890625 0 8.890625 0.984375 
L 8.890625 8.796875 
Q 13.1875 7.5625 17.4375 6.921875 
Q 21.6875 6.296875 25.875 6.296875 
Q 31.984375 6.296875 34.90625 7.953125 
Q 37.84375 9.625 37.84375 12.703125 
Q 37.84375 14.015625 37.375 15.0625 
Q 36.921875 16.109375 35.6875 17.0625 
Q 34.46875 18.015625 31.90625 19.03125 
Q 29.34375 20.0625 24.90625 21.390625 
Q 21.578125 22.359375 18.765625 23.609375 
Q 15.96875 24.859375 13.90625 26.5625 
Q 11.859375 28.265625 10.6875 30.5625 
Q 9.515625 32.859375 9.515625 35.984375 
Q 9.515625 38.03125 10.46875 40.46875 
Q 11.421875 42.921875 13.71875 45.015625 
Q 16.015625 47.125 19.921875 48.515625 
Q 23.828125 49.90625 29.6875 49.90625 
Q 32.5625 49.90625 36.078125 49.578125 
Q 39.59375 49.265625 43.40625 48.484375 
L 43.40625 40.921875 
Q 39.40625 41.890625 35.8125 42.359375 
Q 32.234375 42.828125 29.59375 42.828125 
Q 26.421875 42.828125 24.25 42.328125 
Q 22.078125 41.84375 20.734375 40.984375 
Q 19.390625 40.140625 18.796875 38.984375 
Q 18.21875 37.84375 18.21875 36.53125 
Q 18.21875 35.203125 18.71875 34.125 
Q 19.234375 33.0625 20.625 32.0625 
Q 22.015625 31.0625 24.5 30.046875 
Q 27 29.046875 31 27.875 
Q 35.359375 26.609375 38.328125 25.21875 
Q 41.3125 23.828125 43.15625 22.109375 
Q 45.015625 20.40625 45.8125 18.25 
Q 46.625 16.109375 46.625 13.375 
z
" id="Consolas-115"/>
    </defs>
    <g style="fill:#444443;" transform="translate(52.6752 9.045156)scale(0.13 -0.13)">
     <use xlink:href="#Consolas-115"/>
    </g>
   </g>
   <g id="text_9">
    <!-- e -->
    <g style="fill:#444443;" transform="translate(59.2038 9.045156)scale(0.13 -0.13)">
     <use xlink:href="#Consolas-101"/>
    </g>
   </g>
   <g id="text_10">
    <!-- l -->
    <defs>
     <path d="M 24.515625 62.015625 
L 10.015625 62.015625 
L 10.015625 69 
L 33.109375 69 
L 33.109375 7.078125 
L 47.703125 7.078125 
L 47.703125 0 
L 8.40625 0 
L 8.40625 7.078125 
L 24.515625 7.078125 
z
" id="Consolas-108"/>
    </defs>
    <g style="fill:#444443;" transform="translate(65.7324 9.045156)scale(0.13 -0.13)">
     <use xlink:href="#Consolas-108"/>
    </g>
   </g>
   <g id="text_11">
    <!-- f -->
    <defs>
     <path d="M 51.3125 61.078125 
Q 44.625 62.5 39.796875 62.5 
Q 28.328125 62.5 28.328125 50.484375 
L 28.328125 41.890625 
L 49.8125 41.890625 
L 49.8125 34.8125 
L 28.328125 34.8125 
L 28.328125 0 
L 19.671875 0 
L 19.671875 34.8125 
L 3.90625 34.8125 
L 3.90625 41.890625 
L 19.671875 41.890625 
L 19.671875 50 
Q 19.671875 69.578125 40.09375 69.578125 
Q 45.171875 69.578125 51.3125 68.40625 
z
M 0 49.03125 
z
" id="Consolas-102"/>
    </defs>
    <g style="fill:#444443;" transform="translate(72.261 9.045156)scale(0.13 -0.13)">
     <use xlink:href="#Consolas-102"/>
    </g>
   </g>
   <g id="text_12">
    <!-- . -->
    <defs>
     <path d="M 27.09375 15.375 
Q 28.765625 15.375 30.25 14.734375 
Q 31.734375 14.109375 32.828125 12.984375 
Q 33.9375 11.859375 34.5625 10.375 
Q 35.203125 8.890625 35.203125 7.171875 
Q 35.203125 5.515625 34.5625 4.046875 
Q 33.9375 2.59375 32.828125 1.484375 
Q 31.734375 0.390625 30.25 -0.234375 
Q 28.765625 -0.875 27.09375 -0.875 
Q 25.390625 -0.875 23.921875 -0.234375 
Q 22.46875 0.390625 21.359375 1.484375 
Q 20.265625 2.59375 19.625 4.046875 
Q 19 5.515625 19 7.171875 
Q 19 8.890625 19.625 10.375 
Q 20.265625 11.859375 21.359375 12.984375 
Q 22.46875 14.109375 23.921875 14.734375 
Q 25.390625 15.375 27.09375 15.375 
z
" id="Consolas-46"/>
    </defs>
    <g style="fill:#444443;" transform="translate(78.7896 9.045156)scale(0.13 -0.13)">
     <use xlink:href="#Consolas-46"/>
    </g>
   </g>
   <g id="text_13">
    <!-- W -->
    <defs>
     <path d="M 52.78125 63.8125 
L 48.484375 0 
L 37.203125 0 
L 29.296875 22.703125 
L 27.09375 29.984375 
L 24.8125 22.125 
L 17.484375 0 
L 6.59375 0 
L 2.203125 63.8125 
L 10.40625 63.8125 
L 12.890625 20.40625 
L 13.625 8.5 
L 16.703125 18.609375 
L 24.421875 42.28125 
L 30.421875 42.28125 
L 39.3125 16.890625 
L 42.28125 8.5 
L 42.484375 17.28125 
L 45.015625 63.8125 
z
" id="Consolas-87"/>
    </defs>
    <g style="fill:#444443;" transform="translate(85.3182 9.045156)scale(0.13 -0.13)">
     <use xlink:href="#Consolas-87"/>
    </g>
   </g>
   <g id="text_14">
    <!--   -->
    <g style="fill:#b4b4b4;" transform="translate(91.8468 9.045156)scale(0.13 -0.13)">
     <use xlink:href="#Consolas-32"/>
    </g>
   </g>
   <g id="text_15">
    <!-- @ -->
    <defs>
     <path d="M 38.09375 19.921875 
Q 37.640625 16.796875 37.59375 14.75 
Q 37.546875 12.703125 37.859375 11.53125 
Q 38.1875 10.359375 38.859375 9.890625 
Q 39.546875 9.421875 40.578125 9.421875 
Q 41.9375 9.421875 43.15625 10.859375 
Q 44.390625 12.3125 45.34375 15.3125 
Q 46.296875 18.3125 46.84375 22.890625 
Q 47.40625 27.484375 47.40625 33.796875 
Q 47.40625 40.828125 46.53125 46.34375 
Q 45.65625 51.859375 43.75 55.71875 
Q 41.84375 59.578125 38.796875 61.59375 
Q 35.75 63.625 31.390625 63.625 
Q 28.078125 63.625 24.96875 61.9375 
Q 21.875 60.25 19.203125 57.203125 
Q 16.546875 54.15625 14.375 49.875 
Q 12.203125 45.609375 10.65625 40.421875 
Q 9.125 35.25 8.265625 29.296875 
Q 7.421875 23.34375 7.421875 16.890625 
Q 7.421875 1.171875 12.15625 -6.5625 
Q 16.890625 -14.3125 25.484375 -14.3125 
Q 29.828125 -14.3125 33.59375 -13.3125 
Q 37.359375 -12.3125 41.40625 -10.296875 
L 41.40625 -16.609375 
Q 37.40625 -18.453125 33.390625 -19.375 
Q 29.390625 -20.3125 25 -20.3125 
Q 12.546875 -20.3125 6.5625 -10.984375 
Q 0.59375 -1.65625 0.484375 16.796875 
Q 0.4375 24.171875 1.453125 30.9375 
Q 2.484375 37.703125 4.40625 43.5625 
Q 6.34375 49.421875 9.09375 54.21875 
Q 11.859375 59.03125 15.34375 62.421875 
Q 18.84375 65.828125 22.9375 67.703125 
Q 27.046875 69.578125 31.6875 69.578125 
Q 37.5 69.578125 41.765625 67.203125 
Q 46.046875 64.84375 48.828125 60.375 
Q 51.609375 55.90625 52.953125 49.40625 
Q 54.296875 42.921875 54.296875 34.625 
Q 54.25 26.21875 53.203125 20.234375 
Q 52.15625 14.265625 50.25 10.453125 
Q 48.34375 6.640625 45.625 4.859375 
Q 42.921875 3.078125 39.59375 3.078125 
Q 35.796875 3.078125 33.9375 5.03125 
Q 32.078125 6.984375 32.078125 10.296875 
Q 30.21875 6.546875 28.0625 4.8125 
Q 25.921875 3.078125 22.90625 3.078125 
Q 18.3125 3.078125 16.015625 6.515625 
Q 13.71875 9.96875 13.71875 17.390625 
Q 13.71875 20.0625 14.03125 23.140625 
Q 14.359375 26.21875 15.109375 29.3125 
Q 15.875 32.421875 17.09375 35.28125 
Q 18.3125 38.140625 20.09375 40.3125 
Q 21.875 42.484375 24.3125 43.796875 
Q 26.765625 45.125 29.890625 45.125 
Q 31.734375 45.125 33.34375 44.671875 
Q 34.96875 44.234375 35.6875 43.796875 
L 42 45.3125 
z
M 33.109375 37.3125 
Q 32.671875 37.890625 31.765625 38.34375 
Q 30.859375 38.8125 29.5 38.8125 
Q 28.03125 38.8125 26.859375 37.78125 
Q 25.6875 36.765625 24.78125 35.046875 
Q 23.875 33.34375 23.265625 31.171875 
Q 22.65625 29 22.234375 26.703125 
Q 21.828125 24.421875 21.65625 22.1875 
Q 21.484375 19.96875 21.484375 18.21875 
Q 21.484375 13.53125 22.0625 11.46875 
Q 22.65625 9.421875 24.3125 9.421875 
Q 24.90625 9.421875 25.484375 9.65625 
Q 26.078125 9.90625 26.734375 10.609375 
Q 27.390625 11.328125 28.171875 12.59375 
Q 28.953125 13.875 29.890625 15.921875 
z
" id="Consolas-64"/>
    </defs>
    <g style="fill:#a40227;" transform="translate(98.3754 9.045156)scale(0.13 -0.13)">
     <use xlink:href="#Consolas-64"/>
    </g>
   </g>
   <g id="text_16">
    <!--   -->
    <g style="fill:#b4b4b4;" transform="translate(104.904 9.045156)scale(0.13 -0.13)">
     <use xlink:href="#Consolas-32"/>
    </g>
   </g>
   <g id="text_17">
    <!-- x -->
    <defs>
     <path d="M 52 0 
L 40.71875 0 
L 27.484375 18.703125 
L 14.40625 0 
L 3.421875 0 
L 22.40625 24.609375 
L 4.296875 49.03125 
L 15.1875 49.03125 
L 28.078125 30.171875 
L 40.71875 49.03125 
L 51.21875 49.03125 
L 32.8125 24.421875 
z
" id="Consolas-120"/>
    </defs>
    <g style="fill:#444443;" transform="translate(119.59335 9.045156)scale(0.13 -0.13)">
     <use xlink:href="#Consolas-120"/>
    </g>
   </g>
   <g id="text_18">
    <!--   -->
    <g style="fill:#b4b4b4;" transform="translate(134.2827 9.045156)scale(0.13 -0.13)">
     <use xlink:href="#Consolas-32"/>
    </g>
   </g>
   <g id="text_19">
    <!-- + -->
    <defs>
     <path d="M 50.875 22.90625 
L 31.6875 22.90625 
L 31.6875 2.984375 
L 23.296875 2.984375 
L 23.296875 22.90625 
L 4.109375 22.90625 
L 4.109375 30.328125 
L 23.296875 30.328125 
L 23.296875 50.09375 
L 31.6875 50.09375 
L 31.6875 30.328125 
L 50.875 30.328125 
z
" id="Consolas-43"/>
    </defs>
    <g style="fill:#b4b4b4;" transform="translate(140.8113 9.045156)scale(0.13 -0.13)">
     <use xlink:href="#Consolas-43"/>
    </g>
   </g>
   <g id="text_20">
    <!--   -->
    <g style="fill:#b4b4b4;" transform="translate(147.3399 9.045156)scale(0.13 -0.13)">
     <use xlink:href="#Consolas-32"/>
    </g>
   </g>
   <g id="text_21">
    <!-- s -->
    <g style="fill:#b4b4b4;" transform="translate(153.8685 9.045156)scale(0.13 -0.13)">
     <use xlink:href="#Consolas-115"/>
    </g>
   </g>
   <g id="text_22">
    <!-- e -->
    <g style="fill:#b4b4b4;" transform="translate(160.3971 9.045156)scale(0.13 -0.13)">
     <use xlink:href="#Consolas-101"/>
    </g>
   </g>
   <g id="text_23">
    <!-- l -->
    <g style="fill:#b4b4b4;" transform="translate(166.9257 9.045156)scale(0.13 -0.13)">
     <use xlink:href="#Consolas-108"/>
    </g>
   </g>
   <g id="text_24">
    <!-- f -->
    <g style="fill:#b4b4b4;" transform="translate(173.4543 9.045156)scale(0.13 -0.13)">
     <use xlink:href="#Consolas-102"/>
    </g>
   </g>
   <g id="text_25">
    <!-- . -->
    <g style="fill:#b4b4b4;" transform="translate(179.9829 9.045156)scale(0.13 -0.13)">
     <use xlink:href="#Consolas-46"/>
    </g>
   </g>
   <g id="text_26">
    <!-- b -->
    <defs>
     <path d="M 49.703125 25.390625 
Q 49.703125 19.28125 48.015625 14.46875 
Q 46.34375 9.671875 43.234375 6.328125 
Q 40.140625 2.984375 35.6875 1.1875 
Q 31.25 -0.59375 25.6875 -0.59375 
Q 21.34375 -0.59375 16.796875 0.234375 
Q 12.25 1.078125 7.8125 2.875 
L 7.8125 69 
L 16.3125 69 
L 16.3125 50 
L 15.921875 40.921875 
Q 19.578125 45.84375 23.75 47.875 
Q 27.9375 49.90625 32.71875 49.90625 
Q 36.921875 49.90625 40.09375 48.140625 
Q 43.265625 46.390625 45.40625 43.1875 
Q 47.5625 39.984375 48.625 35.46875 
Q 49.703125 30.953125 49.703125 25.390625 
z
M 41.015625 25 
Q 41.015625 28.859375 40.453125 32.078125 
Q 39.890625 35.296875 38.671875 37.59375 
Q 37.453125 39.890625 35.546875 41.1875 
Q 33.640625 42.484375 31 42.484375 
Q 29.390625 42.484375 27.734375 41.96875 
Q 26.078125 41.453125 24.296875 40.25 
Q 22.515625 39.0625 20.53125 37.078125 
Q 18.5625 35.109375 16.3125 32.171875 
L 16.3125 8.40625 
Q 18.796875 7.421875 21.375 6.859375 
Q 23.96875 6.296875 26.3125 6.296875 
Q 29.25 6.296875 31.90625 7.21875 
Q 34.578125 8.15625 36.59375 10.328125 
Q 38.625 12.5 39.8125 16.078125 
Q 41.015625 19.671875 41.015625 25 
z
" id="Consolas-98"/>
    </defs>
    <g style="fill:#b4b4b4;" transform="translate(186.5115 9.045156)scale(0.13 -0.13)">
     <use xlink:href="#Consolas-98"/>
    </g>
   </g>
   <g id="text_27">
    <!-- 100 -->
    <defs>
     <path d="M 37.25 0 
L 28.46875 0 
L 28.46875 56 
Q 25.296875 52.984375 20.140625 49.953125 
Q 14.984375 46.921875 10.890625 45.40625 
L 10.890625 53.90625 
Q 18.265625 57.375 23.78125 62.296875 
Q 29.296875 67.234375 31.59375 71.875 
L 37.25 71.875 
z
" id="ArialMT-49"/>
     <path d="M 4.15625 35.296875 
Q 4.15625 48 6.765625 55.734375 
Q 9.375 63.484375 14.515625 67.671875 
Q 19.671875 71.875 27.484375 71.875 
Q 33.25 71.875 37.59375 69.546875 
Q 41.9375 67.234375 44.765625 62.859375 
Q 47.609375 58.5 49.21875 52.21875 
Q 50.828125 45.953125 50.828125 35.296875 
Q 50.828125 22.703125 48.234375 14.96875 
Q 45.65625 7.234375 40.5 3 
Q 35.359375 -1.21875 27.484375 -1.21875 
Q 17.140625 -1.21875 11.234375 6.203125 
Q 4.15625 15.140625 4.15625 35.296875 
z
M 13.1875 35.296875 
Q 13.1875 17.671875 17.3125 11.828125 
Q 21.4375 6 27.484375 6 
Q 33.546875 6 37.671875 11.859375 
Q 41.796875 17.71875 41.796875 35.296875 
Q 41.796875 52.984375 37.671875 58.78125 
Q 33.546875 64.59375 27.390625 64.59375 
Q 21.34375 64.59375 17.71875 59.46875 
Q 13.1875 52.9375 13.1875 35.296875 
z
" id="ArialMT-48"/>
    </defs>
    <g transform="translate(59.0472 41.151121)rotate(-90)scale(0.09 -0.09)">
     <use xlink:href="#ArialMT-49"/>
     <use x="55.615234" xlink:href="#ArialMT-48"/>
     <use x="111.230469" xlink:href="#ArialMT-48"/>
    </g>
   </g>
   <g id="text_28">
    <!-- 764 -->
    <defs>
     <path d="M 4.734375 62.203125 
L 4.734375 70.65625 
L 51.078125 70.65625 
L 51.078125 63.8125 
Q 44.234375 56.546875 37.515625 44.484375 
Q 30.8125 32.421875 27.15625 19.671875 
Q 24.515625 10.6875 23.78125 0 
L 14.75 0 
Q 14.890625 8.453125 18.0625 20.40625 
Q 21.234375 32.375 27.171875 43.484375 
Q 33.109375 54.59375 39.796875 62.203125 
z
" id="ArialMT-55"/>
     <path d="M 49.75 54.046875 
L 41.015625 53.375 
Q 39.84375 58.546875 37.703125 60.890625 
Q 34.125 64.65625 28.90625 64.65625 
Q 24.703125 64.65625 21.53125 62.3125 
Q 17.390625 59.28125 14.984375 53.46875 
Q 12.59375 47.65625 12.5 36.921875 
Q 15.671875 41.75 20.265625 44.09375 
Q 24.859375 46.4375 29.890625 46.4375 
Q 38.671875 46.4375 44.84375 39.96875 
Q 51.03125 33.5 51.03125 23.25 
Q 51.03125 16.5 48.125 10.71875 
Q 45.21875 4.9375 40.140625 1.859375 
Q 35.0625 -1.21875 28.609375 -1.21875 
Q 17.625 -1.21875 10.6875 6.859375 
Q 3.765625 14.9375 3.765625 33.5 
Q 3.765625 54.25 11.421875 63.671875 
Q 18.109375 71.875 29.4375 71.875 
Q 37.890625 71.875 43.28125 67.140625 
Q 48.6875 62.40625 49.75 54.046875 
z
M 13.875 23.1875 
Q 13.875 18.65625 15.796875 14.5 
Q 17.71875 10.359375 21.1875 8.171875 
Q 24.65625 6 28.46875 6 
Q 34.03125 6 38.03125 10.484375 
Q 42.046875 14.984375 42.046875 22.703125 
Q 42.046875 30.125 38.078125 34.390625 
Q 34.125 38.671875 28.125 38.671875 
Q 22.171875 38.671875 18.015625 34.390625 
Q 13.875 30.125 13.875 23.1875 
z
" id="ArialMT-54"/>
     <path d="M 32.328125 0 
L 32.328125 17.140625 
L 1.265625 17.140625 
L 1.265625 25.203125 
L 33.9375 71.578125 
L 41.109375 71.578125 
L 41.109375 25.203125 
L 50.78125 25.203125 
L 50.78125 17.140625 
L 41.109375 17.140625 
L 41.109375 0 
z
M 32.328125 25.203125 
L 32.328125 57.46875 
L 9.90625 25.203125 
z
" id="ArialMT-52"/>
    </defs>
    <g transform="translate(64.753734 21.154646)scale(0.09 -0.09)">
     <use xlink:href="#ArialMT-55"/>
     <use x="55.615234" xlink:href="#ArialMT-54"/>
     <use x="111.230469" xlink:href="#ArialMT-52"/>
    </g>
   </g>
   <g id="text_29">
    <!-- 200 -->
    <defs>
     <path d="M 50.34375 8.453125 
L 50.34375 0 
L 3.03125 0 
Q 2.9375 3.171875 4.046875 6.109375 
Q 5.859375 10.9375 9.828125 15.625 
Q 13.8125 20.3125 21.34375 26.46875 
Q 33.015625 36.03125 37.109375 41.625 
Q 41.21875 47.21875 41.21875 52.203125 
Q 41.21875 57.421875 37.46875 61 
Q 33.734375 64.59375 27.734375 64.59375 
Q 21.390625 64.59375 17.578125 60.78125 
Q 13.765625 56.984375 13.71875 50.25 
L 4.6875 51.171875 
Q 5.609375 61.28125 11.65625 66.578125 
Q 17.71875 71.875 27.9375 71.875 
Q 38.234375 71.875 44.234375 66.15625 
Q 50.25 60.453125 50.25 52 
Q 50.25 47.703125 48.484375 43.546875 
Q 46.734375 39.40625 42.65625 34.8125 
Q 38.578125 30.21875 29.109375 22.21875 
Q 21.1875 15.578125 18.9375 13.203125 
Q 16.703125 10.84375 15.234375 8.453125 
z
" id="ArialMT-50"/>
    </defs>
    <g transform="translate(109.64385 41.151121)rotate(-90)scale(0.09 -0.09)">
     <use xlink:href="#ArialMT-50"/>
     <use x="55.615234" xlink:href="#ArialMT-48"/>
     <use x="111.230469" xlink:href="#ArialMT-48"/>
    </g>
   </g>
   <g id="text_30">
    <!-- 764 -->
    <g transform="translate(115.350384 21.154646)scale(0.09 -0.09)">
     <use xlink:href="#ArialMT-55"/>
     <use x="55.615234" xlink:href="#ArialMT-54"/>
     <use x="111.230469" xlink:href="#ArialMT-52"/>
    </g>
   </g>
  </g>
 </g>
 <defs>
  <clipPath id="p0a52c333d8">
   <rect height="41.491069" width="193.0401" x="0" y="4.098396"/>
  </clipPath>
 </defs>
</svg>
