<?xml version="1.0" encoding="UTF-8" standalone="no"?>
<!DOCTYPE svg PUBLIC "-//W3C//DTD SVG 1.1//EN"
 "http://www.w3.org/Graphics/SVG/1.1/DTD/svg11.dtd">
<!-- Generated by graphviz version 2.44.1 (20200629.0846)
 -->
<!-- Title: G Pages: 1 -->
<svg width="375pt" height="345pt"
 viewBox="0.00 0.00 374.50 345.00" xmlns="http://www.w3.org/2000/svg" xmlns:xlink="http://www.w3.org/1999/xlink">
<g id="graph0" class="graph" transform="scale(1 1) rotate(0) translate(4 341)">
<title>G</title>
<polygon fill="white" stroke="transparent" points="-4,4 -4,-341 370.5,-341 370.5,4 -4,4"/>
<!-- leaf140423021373616 -->
<g id="node1" class="node">
<title>leaf140423021373616</title>
<polygon fill="none" stroke="black" stroke-width="0" points="14,-337 0,-337 0,-301 14,-301 14,-337"/>
<text text-anchor="start" x="0" y="-315.9" font-family="Consolas" font-size="12.00" fill="#444443">h_</text>
</g>
<!-- leaf140423021373760 -->
<g id="node2" class="node">
<title>leaf140423021373760</title>
<polygon fill="none" stroke="black" stroke-width="0" points="33,-337 15,-337 15,-301 33,-301 33,-337"/>
<text text-anchor="start" x="20.5" y="-315.9" font-family="Consolas" font-size="12.00" fill="#444443">=</text>
</g>
<!-- leaf140423021373616&#45;&gt;leaf140423021373760 -->
<!-- leaf140423021373952 -->
<g id="node3" class="node">
<title>leaf140423021373952</title>
<polygon fill="none" stroke="black" stroke-width="0" points="68,-337 34,-337 34,-301 68,-301 68,-337"/>
<text text-anchor="start" x="34" y="-315.9" font-family="Consolas" font-size="12.00" fill="#444443">torch</text>
</g>
<!-- leaf140423021373760&#45;&gt;leaf140423021373952 -->
<!-- leaf140423021374096 -->
<g id="node4" class="node">
<title>leaf140423021374096</title>
<polygon fill="none" stroke="black" stroke-width="0" points="76.5,-337 69.5,-337 69.5,-301 76.5,-301 76.5,-337"/>
<text text-anchor="start" x="69.5" y="-315.9" font-family="Consolas" font-size="12.00" fill="#444443">.</text>
</g>
<!-- leaf140423021373952&#45;&gt;leaf140423021374096 -->
<!-- leaf140423021374144 -->
<g id="node5" class="node">
<title>leaf140423021374144</title>
<polygon fill="none" stroke="black" stroke-width="0" points="106,-337 78,-337 78,-301 106,-301 106,-337"/>
<text text-anchor="start" x="78" y="-315.9" font-family="Consolas" font-size="12.00" fill="#444443">tanh</text>
</g>
<!-- leaf140423021374096&#45;&gt;leaf140423021374144 -->
<!-- leaf140423021374000 -->
<g id="node6" class="node">
<title>leaf140423021374000</title>
<polygon fill="none" stroke="black" stroke-width="0" points="114.5,-337 107.5,-337 107.5,-301 114.5,-301 114.5,-337"/>
<text text-anchor="start" x="107.5" y="-315.9" font-family="Consolas" font-size="12.00" fill="#444443">(</text>
</g>
<!-- leaf140423021374144&#45;&gt;leaf140423021374000 -->
<!-- leaf140423021374048 -->
<g id="node7" class="node">
<title>leaf140423021374048</title>
<polygon fill="none" stroke="black" stroke-width="0" points="144,-337 116,-337 116,-301 144,-301 144,-337"/>
<text text-anchor="start" x="116" y="-315.9" font-family="Consolas" font-size="12.00" fill="#444443">Whh_</text>
</g>
<!-- leaf140423021374000&#45;&gt;leaf140423021374048 -->
<!-- leaf140423021373856 -->
<g id="node8" class="node">
<title>leaf140423021373856</title>
<polygon fill="none" stroke="black" stroke-width="0" points="159,-337 145,-337 145,-301 159,-301 159,-337"/>
<text text-anchor="start" x="148.5" y="-315.9" font-family="Consolas" font-size="12.00" fill="#444443">@</text>
</g>
<!-- leaf140423021374048&#45;&gt;leaf140423021373856 -->
<!-- leaf140423021374240 -->
<g id="node9" class="node">
<title>leaf140423021374240</title>
<polygon fill="none" stroke="black" stroke-width="0" points="167.5,-337 160.5,-337 160.5,-301 167.5,-301 167.5,-337"/>
<text text-anchor="start" x="160.5" y="-315.9" font-family="Consolas" font-size="12.00" fill="#444443">(</text>
</g>
<!-- leaf140423021373856&#45;&gt;leaf140423021374240 -->
<!-- leaf140423021374432 -->
<g id="node10" class="node">
<title>leaf140423021374432</title>
<polygon fill="none" stroke="black" stroke-width="0" points="175.5,-337 168.5,-337 168.5,-301 175.5,-301 175.5,-337"/>
<text text-anchor="start" x="168.5" y="-315.9" font-family="Consolas" font-size="12.00" fill="#444443">r</text>
</g>
<!-- leaf140423021374240&#45;&gt;leaf140423021374432 -->
<!-- leaf140423021374480 -->
<g id="node11" class="node">
<title>leaf140423021374480</title>
<polygon fill="none" stroke="black" stroke-width="0" points="191,-337 177,-337 177,-301 191,-301 191,-337"/>
<text text-anchor="start" x="180.5" y="-315.9" font-family="Consolas" font-size="12.00" fill="#444443">*</text>
</g>
<!-- leaf140423021374432&#45;&gt;leaf140423021374480 -->
<!-- leaf140423021374288 -->
<g id="node12" class="node">
<title>leaf140423021374288</title>
<polygon fill="none" stroke="black" stroke-width="0" points="199.5,-337 192.5,-337 192.5,-301 199.5,-301 199.5,-337"/>
<text text-anchor="start" x="192.5" y="-315.9" font-family="Consolas" font-size="12.00" fill="#444443">h</text>
</g>
<!-- leaf140423021374480&#45;&gt;leaf140423021374288 -->
<!-- leaf140423021374384 -->
<g id="node13" class="node">
<title>leaf140423021374384</title>
<polygon fill="none" stroke="black" stroke-width="0" points="207.5,-337 200.5,-337 200.5,-301 207.5,-301 207.5,-337"/>
<text text-anchor="start" x="200.5" y="-315.9" font-family="Consolas" font-size="12.00" fill="#444443">)</text>
</g>
<!-- leaf140423021374288&#45;&gt;leaf140423021374384 -->
<!-- leaf140423021374336 -->
<g id="node14" class="node">
<title>leaf140423021374336</title>
<polygon fill="none" stroke="black" stroke-width="0" points="237.5,-337 208.5,-337 208.5,-301 237.5,-301 237.5,-337"/>
<text text-anchor="start" x="219.5" y="-315.9" font-family="Consolas" font-size="12.00" fill="#444443">+</text>
</g>
<!-- leaf140423021374384&#45;&gt;leaf140423021374336 -->
<!-- leaf140423021374672 -->
<g id="node15" class="node">
<title>leaf140423021374672</title>
<polygon fill="none" stroke="black" stroke-width="0" points="267,-337 239,-337 239,-301 267,-301 267,-337"/>
<text text-anchor="start" x="239" y="-315.9" font-family="Consolas" font-size="12.00" fill="#444443">Uxh_</text>
</g>
<!-- leaf140423021374336&#45;&gt;leaf140423021374672 -->
<!-- leaf140423021374528 -->
<g id="node16" class="node">
<title>leaf140423021374528</title>
<polygon fill="none" stroke="black" stroke-width="0" points="282,-337 268,-337 268,-301 282,-301 282,-337"/>
<text text-anchor="start" x="271.5" y="-315.9" font-family="Consolas" font-size="12.00" fill="#444443">@</text>
</g>
<!-- leaf140423021374672&#45;&gt;leaf140423021374528 -->
<!-- leaf140423021374576 -->
<g id="node17" class="node">
<title>leaf140423021374576</title>
<polygon fill="none" stroke="black" stroke-width="0" points="290.5,-337 283.5,-337 283.5,-301 290.5,-301 290.5,-337"/>
<text text-anchor="start" x="283.5" y="-315.9" font-family="Consolas" font-size="12.00" fill="#444443">X</text>
</g>
<!-- leaf140423021374528&#45;&gt;leaf140423021374576 -->
<!-- leaf140423021371840 -->
<g id="node18" class="node">
<title>leaf140423021371840</title>
<polygon fill="none" stroke="black" stroke-width="0" points="298.5,-337 291.5,-337 291.5,-301 298.5,-301 298.5,-337"/>
<text text-anchor="start" x="291.5" y="-315.9" font-family="Consolas" font-size="12.00" fill="#444443">.</text>
</g>
<!-- leaf140423021374576&#45;&gt;leaf140423021371840 -->
<!-- leaf140423021374624 -->
<g id="node19" class="node">
<title>leaf140423021374624</title>
<polygon fill="none" stroke="black" stroke-width="0" points="306.5,-337 299.5,-337 299.5,-301 306.5,-301 306.5,-337"/>
<text text-anchor="start" x="299.5" y="-315.9" font-family="Consolas" font-size="12.00" fill="#444443">T</text>
</g>
<!-- leaf140423021371840&#45;&gt;leaf140423021374624 -->
<!-- leaf140423021372032 -->
<g id="node20" class="node">
<title>leaf140423021372032</title>
<polygon fill="none" stroke="black" stroke-width="0" points="336.5,-337 307.5,-337 307.5,-301 336.5,-301 336.5,-337"/>
<text text-anchor="start" x="318.5" y="-315.9" font-family="Consolas" font-size="12.00" fill="#444443">+</text>
</g>
<!-- leaf140423021374624&#45;&gt;leaf140423021372032 -->
<!-- leaf140423827589056 -->
<g id="node21" class="node">
<title>leaf140423827589056</title>
<polygon fill="none" stroke="black" stroke-width="0" points="358.5,-337 337.5,-337 337.5,-301 358.5,-301 358.5,-337"/>
<text text-anchor="start" x="337.5" y="-315.9" font-family="Consolas" font-size="12.00" fill="#444443">bh_</text>
</g>
<!-- leaf140423021372032&#45;&gt;leaf140423827589056 -->
<!-- leaf140423827590400 -->
<g id="node22" class="node">
<title>leaf140423827590400</title>
<polygon fill="none" stroke="black" stroke-width="0" points="366.5,-337 359.5,-337 359.5,-301 366.5,-301 366.5,-337"/>
<text text-anchor="start" x="359.5" y="-315.9" font-family="Consolas" font-size="12.00" fill="#444443">)</text>
</g>
<!-- leaf140423827589056&#45;&gt;leaf140423827590400 -->
<!-- node140423827590448 -->
<g id="node23" class="node">
<title>node140423827590448</title>
<polygon fill="none" stroke="black" stroke-width="0" points="86,-275.5 68,-275.5 68,-261.5 86,-261.5 86,-275.5"/>
<text text-anchor="start" x="73.5" y="-265.4" font-family="Consolas" font-size="12.00" fill="#444443">.</text>
</g>
<!-- node140423827590448&#45;&gt;leaf140423021373952 -->
<g id="edge22" class="edge">
<title>node140423827590448&#45;&gt;leaf140423021373952</title>
<path fill="none" stroke="#6b6b6b" stroke-width="0.5" d="M72.08,-278.68C68.77,-284.86 64.3,-293.19 60.33,-300.59"/>
<polygon fill="#6b6b6b" stroke="#6b6b6b" stroke-width="0.5" points="73.11,-278.98 73.6,-275.84 71.26,-277.99 73.11,-278.98"/>
</g>
<!-- node140423827590448&#45;&gt;leaf140423021374144 -->
<g id="edge23" class="edge">
<title>node140423827590448&#45;&gt;leaf140423021374144</title>
<path fill="none" stroke="#6b6b6b" stroke-width="0.5" d="M79.95,-279.02C81.84,-285.16 84.37,-293.32 86.62,-300.59"/>
<polygon fill="#6b6b6b" stroke="#6b6b6b" stroke-width="0.5" points="80.85,-278.4 78.96,-275.84 78.84,-279.02 80.85,-278.4"/>
</g>
<!-- node140423827590736 -->
<g id="node24" class="node">
<title>node140423827590736</title>
<polygon fill="#cfe2d4" stroke="black" stroke-width="0" points="195,-279 169,-279 169,-258 195,-258 195,-279"/>
<text text-anchor="start" x="178.5" y="-270.4" font-family="Consolas" font-size="12.00" fill="#444443">*</text>
<text text-anchor="start" x="169" y="-260.8" font-family="Arial" font-size="9.00" fill="#444443">256x1</text>
</g>
<!-- node140423827590736&#45;&gt;leaf140423021374432 -->
<g id="edge24" class="edge">
<title>node140423827590736&#45;&gt;leaf140423021374432</title>
<path fill="none" stroke="#6b6b6b" stroke-width="0.5" d="M179.35,-282.35C178.18,-288.05 176.78,-294.83 175.52,-300.93"/>
<polygon fill="#6b6b6b" stroke="#6b6b6b" stroke-width="0.5" points="180.4,-282.46 179.98,-279.31 178.34,-282.04 180.4,-282.46"/>
</g>
<!-- node140423827590736&#45;&gt;leaf140423021374288 -->
<g id="edge25" class="edge">
<title>node140423827590736&#45;&gt;leaf140423021374288</title>
<path fill="none" stroke="#6b6b6b" stroke-width="0.5" d="M185.7,-282.31C187.8,-289.58 190.41,-298.62 192.48,-305.79"/>
<polygon fill="#6b6b6b" stroke="#6b6b6b" stroke-width="0.5" points="186.67,-281.91 184.83,-279.31 184.66,-282.49 186.67,-281.91"/>
</g>
<!-- node140423827590688 -->
<g id="node25" class="node">
<title>node140423827590688</title>
<polygon fill="#cfe2d4" stroke="black" stroke-width="0" points="195,-236 169,-236 169,-215 195,-215 195,-236"/>
<text text-anchor="start" x="175" y="-227.4" font-family="Consolas" font-size="12.00" fill="#444443">()</text>
<text text-anchor="start" x="169" y="-217.8" font-family="Arial" font-size="9.00" fill="#444443">256x1</text>
</g>
<!-- node140423827590688&#45;&gt;node140423827590736 -->
<g id="edge26" class="edge">
<title>node140423827590688&#45;&gt;node140423827590736</title>
<path fill="none" stroke="#6b6b6b" stroke-width="0.5" d="M182,-239.21C182,-245.19 182,-252.21 182,-257.76"/>
<polygon fill="#6b6b6b" stroke="#6b6b6b" stroke-width="0.5" points="183.05,-239.01 182,-236.01 180.95,-239.01 183.05,-239.01"/>
</g>
<!-- node140423827590256 -->
<g id="node26" class="node">
<title>node140423827590256</title>
<polygon fill="#cfe2d4" stroke="black" stroke-width="0" points="195,-193 169,-193 169,-172 195,-172 195,-193"/>
<text text-anchor="start" x="178.5" y="-184.4" font-family="Consolas" font-size="12.00" fill="#444443">@</text>
<text text-anchor="start" x="169" y="-174.8" font-family="Arial" font-size="9.00" fill="#444443">256x1</text>
</g>
<!-- node140423827590256&#45;&gt;leaf140423021374048 -->
<g id="edge27" class="edge">
<title>node140423827590256&#45;&gt;leaf140423021374048</title>
<path fill="none" stroke="#6b6b6b" stroke-width="0.5" d="M176.31,-195.81C173.69,-201.6 170.59,-208.62 168,-215 155.88,-244.84 143.2,-280.17 135.98,-300.74"/>
<polygon fill="#6b6b6b" stroke="#6b6b6b" stroke-width="0.5" points="177.26,-196.25 177.55,-193.08 175.35,-195.38 177.26,-196.25"/>
</g>
<!-- node140423827590256&#45;&gt;node140423827590688 -->
<g id="edge28" class="edge">
<title>node140423827590256&#45;&gt;node140423827590688</title>
<path fill="none" stroke="#6b6b6b" stroke-width="0.5" d="M182,-196.21C182,-202.19 182,-209.21 182,-214.76"/>
<polygon fill="#6b6b6b" stroke="#6b6b6b" stroke-width="0.5" points="183.05,-196.01 182,-193.01 180.95,-196.01 183.05,-196.01"/>
</g>
<!-- node140423027411600 -->
<g id="node27" class="node">
<title>node140423027411600</title>
<polygon fill="#cfe2d4" stroke="black" stroke-width="0" points="305.5,-279 268.5,-279 268.5,-258 305.5,-258 305.5,-279"/>
<text text-anchor="start" x="283.5" y="-270.4" font-family="Consolas" font-size="12.00" fill="#444443">.</text>
<text text-anchor="start" x="268.5" y="-260.8" font-family="Arial" font-size="9.00" fill="#444443">764x200</text>
</g>
<!-- node140423027411600&#45;&gt;leaf140423021374576 -->
<g id="edge29" class="edge">
<title>node140423027411600&#45;&gt;leaf140423021374576</title>
<path fill="none" stroke="#6b6b6b" stroke-width="0.5" d="M287,-282.35C287,-288.05 287,-294.83 287,-300.93"/>
<polygon fill="#6b6b6b" stroke="#6b6b6b" stroke-width="0.5" points="288.05,-282.31 287,-279.31 285.95,-282.31 288.05,-282.31"/>
</g>
<!-- node140423027411600&#45;&gt;leaf140423021374624 -->
<g id="edge30" class="edge">
<title>node140423027411600&#45;&gt;leaf140423021374624</title>
<path fill="none" stroke="#6b6b6b" stroke-width="0.5" d="M291.29,-282.49C293.83,-290.21 297.02,-299.89 299.43,-307.19"/>
<polygon fill="#6b6b6b" stroke="#6b6b6b" stroke-width="0.5" points="292.17,-281.83 290.24,-279.31 290.18,-282.49 292.17,-281.83"/>
</g>
<!-- node140423027411456 -->
<g id="node28" class="node">
<title>node140423027411456</title>
<polygon fill="#cfe2d4" stroke="black" stroke-width="0" points="271.5,-236 234.5,-236 234.5,-215 271.5,-215 271.5,-236"/>
<text text-anchor="start" x="249.5" y="-227.4" font-family="Consolas" font-size="12.00" fill="#444443">@</text>
<text text-anchor="start" x="234.5" y="-217.8" font-family="Arial" font-size="9.00" fill="#444443">256x200</text>
</g>
<!-- node140423027411456&#45;&gt;leaf140423021374672 -->
<g id="edge31" class="edge">
<title>node140423027411456&#45;&gt;leaf140423021374672</title>
<path fill="none" stroke="#6b6b6b" stroke-width="0.5" d="M253,-239.35C253,-255.41 253,-282.96 253,-300.82"/>
<polygon fill="#6b6b6b" stroke="#6b6b6b" stroke-width="0.5" points="254.05,-239.29 253,-236.29 251.95,-239.29 254.05,-239.29"/>
</g>
<!-- node140423027411456&#45;&gt;node140423027411600 -->
<g id="edge32" class="edge">
<title>node140423027411456&#45;&gt;node140423027411600</title>
<path fill="none" stroke="#6b6b6b" stroke-width="0.5" d="M262.99,-238.55C268.06,-244.67 274.15,-252 278.92,-257.76"/>
<polygon fill="#6b6b6b" stroke="#6b6b6b" stroke-width="0.5" points="263.61,-237.65 260.89,-236.01 261.99,-238.99 263.61,-237.65"/>
</g>
<!-- node140423027411168 -->
<g id="node29" class="node">
<title>node140423027411168</title>
<polygon fill="#cfe2d4" stroke="black" stroke-width="0" points="240.5,-150 203.5,-150 203.5,-129 240.5,-129 240.5,-150"/>
<text text-anchor="start" x="218.5" y="-141.4" font-family="Consolas" font-size="12.00" fill="#444443">+</text>
<text text-anchor="start" x="203.5" y="-131.8" font-family="Arial" font-size="9.00" fill="#444443">256x200</text>
</g>
<!-- node140423027411168&#45;&gt;node140423827590256 -->
<g id="edge33" class="edge">
<title>node140423027411168&#45;&gt;node140423827590256</title>
<path fill="none" stroke="#6b6b6b" stroke-width="0.5" d="M210.56,-152.22C204.53,-158.4 197.22,-165.9 191.5,-171.76"/>
<polygon fill="#6b6b6b" stroke="#6b6b6b" stroke-width="0.5" points="211.38,-152.89 212.72,-150.01 209.88,-151.42 211.38,-152.89"/>
</g>
<!-- node140423027411168&#45;&gt;node140423027411456 -->
<g id="edge34" class="edge">
<title>node140423027411168&#45;&gt;node140423027411456</title>
<path fill="none" stroke="#6b6b6b" stroke-width="0.5" d="M226.74,-153.36C233.01,-170.34 243.91,-199.86 249.49,-214.98"/>
<polygon fill="#6b6b6b" stroke="#6b6b6b" stroke-width="0.5" points="227.58,-152.59 225.56,-150.14 225.61,-153.31 227.58,-152.59"/>
</g>
<!-- node140423027411312 -->
<g id="node30" class="node">
<title>node140423027411312</title>
<polygon fill="#cfe2d4" stroke="black" stroke-width="0" points="240.5,-107 203.5,-107 203.5,-86 240.5,-86 240.5,-107"/>
<text text-anchor="start" x="218.5" y="-98.4" font-family="Consolas" font-size="12.00" fill="#444443">+</text>
<text text-anchor="start" x="203.5" y="-88.8" font-family="Arial" font-size="9.00" fill="#444443">256x200</text>
</g>
<!-- node140423027411312&#45;&gt;leaf140423827589056 -->
<g id="edge36" class="edge">
<title>node140423027411312&#45;&gt;leaf140423827589056</title>
<path fill="none" stroke="#6b6b6b" stroke-width="0.5" d="M243.88,-103.93C274.92,-114.56 328,-138.96 328,-181.5 328,-181.5 328,-181.5 328,-226.5 328,-252.84 336.01,-282.49 341.89,-300.7"/>
<polygon fill="#6b6b6b" stroke="#6b6b6b" stroke-width="0.5" points="244.13,-102.91 240.95,-102.95 243.46,-104.9 244.13,-102.91"/>
</g>
<!-- node140423027411312&#45;&gt;node140423027411168 -->
<g id="edge35" class="edge">
<title>node140423027411312&#45;&gt;node140423027411168</title>
<path fill="none" stroke="#6b6b6b" stroke-width="0.5" d="M222,-110.21C222,-116.19 222,-123.21 222,-128.76"/>
<polygon fill="#6b6b6b" stroke="#6b6b6b" stroke-width="0.5" points="223.05,-110.01 222,-107.01 220.95,-110.01 223.05,-110.01"/>
</g>
<!-- node140423027411264 -->
<g id="node31" class="node">
<title>node140423027411264</title>
<polygon fill="#cfe2d4" stroke="black" stroke-width="0" points="97.5,-64 56.5,-64 56.5,-43 97.5,-43 97.5,-64"/>
<text text-anchor="start" x="56.5" y="-55.4" font-family="Consolas" font-size="12.00" fill="#444443">tanh()</text>
<text text-anchor="start" x="58.5" y="-45.8" font-family="Arial" font-size="9.00" fill="#444443">256x200</text>
</g>
<!-- node140423027411264&#45;&gt;node140423827590448 -->
<g id="edge37" class="edge">
<title>node140423027411264&#45;&gt;node140423827590448</title>
<path fill="none" stroke="#6b6b6b" stroke-width="0.5" d="M77,-67.45C77,-83.95 77,-113.34 77,-138.5 77,-138.5 77,-138.5 77,-183.5 77,-212.67 77,-247.53 77,-261.39"/>
<polygon fill="#6b6b6b" stroke="#6b6b6b" stroke-width="0.5" points="78.05,-67.33 77,-64.33 75.95,-67.33 78.05,-67.33"/>
</g>
<!-- node140423027411264&#45;&gt;node140423027411312 -->
<g id="edge38" class="edge">
<title>node140423027411264&#45;&gt;node140423027411312</title>
<path fill="none" stroke="#6b6b6b" stroke-width="0.5" d="M100.83,-61.24C129.45,-69.33 176.88,-82.74 203.11,-90.16"/>
<polygon fill="#6b6b6b" stroke="#6b6b6b" stroke-width="0.5" points="100.95,-60.18 97.77,-60.37 100.38,-62.2 100.95,-60.18"/>
</g>
<!-- node140423027411360 -->
<g id="node32" class="node">
<title>node140423027411360</title>
<polygon fill="#cfe2d4" stroke="black" stroke-width="0" points="52.5,-21 15.5,-21 15.5,0 52.5,0 52.5,-21"/>
<text text-anchor="start" x="30.5" y="-12.4" font-family="Consolas" font-size="12.00" fill="#444443">=</text>
<text text-anchor="start" x="15.5" y="-2.8" font-family="Arial" font-size="9.00" fill="#444443">256x200</text>
</g>
<!-- node140423027411360&#45;&gt;leaf140423021373616 -->
<g id="edge39" class="edge">
<title>node140423027411360&#45;&gt;leaf140423021373616</title>
<path fill="none" stroke="#6b6b6b" stroke-width="0.5" d="M31.25,-24.38C27.99,-40.81 23,-70.13 23,-95.5 23,-95.5 23,-95.5 23,-226.5 23,-252.79 16.51,-282.69 11.8,-300.95"/>
<polygon fill="#6b6b6b" stroke="#6b6b6b" stroke-width="0.5" points="32.32,-24.42 31.88,-21.27 30.26,-24.01 32.32,-24.42"/>
</g>
<!-- node140423027411360&#45;&gt;node140423027411264 -->
<g id="edge40" class="edge">
<title>node140423027411360&#45;&gt;node140423027411264</title>
<path fill="none" stroke="#6b6b6b" stroke-width="0.5" d="M46.29,-23.22C52.78,-29.4 60.64,-36.9 66.78,-42.76"/>
<polygon fill="#6b6b6b" stroke="#6b6b6b" stroke-width="0.5" points="46.87,-22.32 43.97,-21.01 45.42,-23.84 46.87,-22.32"/>
</g>
</g>
</svg>
