<?xml version="1.0" encoding="UTF-8" standalone="no"?>
<!DOCTYPE svg PUBLIC "-//W3C//DTD SVG 1.1//EN"
 "http://www.w3.org/Graphics/SVG/1.1/DTD/svg11.dtd">
<!-- Generated by graphviz version 2.44.1 (20200629.0846)
 -->
<!-- Title: G Pages: 1 -->
<svg width="375pt" height="296pt"
 viewBox="0.00 0.00 374.50 296.00" xmlns="http://www.w3.org/2000/svg" xmlns:xlink="http://www.w3.org/1999/xlink">
<g id="graph0" class="graph" transform="scale(1 1) rotate(0) translate(4 292)">
<title>G</title>
<polygon fill="white" stroke="transparent" points="-4,4 -4,-292 370.5,-292 370.5,4 -4,4"/>
<!-- leaf140423021372752 -->
<g id="node1" class="node">
<title>leaf140423021372752</title>
<polygon fill="none" stroke="black" stroke-width="0" points="14,-288 0,-288 0,-252 14,-252 14,-288"/>
<text text-anchor="start" x="0" y="-266.9" font-family="Consolas" font-size="12.00" fill="#444443">h_</text>
</g>
<!-- leaf140423021372704 -->
<g id="node2" class="node">
<title>leaf140423021372704</title>
<polygon fill="none" stroke="black" stroke-width="0" points="33,-288 15,-288 15,-252 33,-252 33,-288"/>
<text text-anchor="start" x="20.5" y="-266.9" font-family="Consolas" font-size="12.00" fill="#444443">=</text>
</g>
<!-- leaf140423021372752&#45;&gt;leaf140423021372704 -->
<!-- leaf140423021373568 -->
<g id="node3" class="node">
<title>leaf140423021373568</title>
<polygon fill="none" stroke="black" stroke-width="0" points="68,-288 34,-288 34,-252 68,-252 68,-288"/>
<text text-anchor="start" x="34" y="-266.9" font-family="Consolas" font-size="12.00" fill="#444443">torch</text>
</g>
<!-- leaf140423021372704&#45;&gt;leaf140423021373568 -->
<!-- leaf140423021373616 -->
<g id="node4" class="node">
<title>leaf140423021373616</title>
<polygon fill="none" stroke="black" stroke-width="0" points="76.5,-288 69.5,-288 69.5,-252 76.5,-252 76.5,-288"/>
<text text-anchor="start" x="69.5" y="-266.9" font-family="Consolas" font-size="12.00" fill="#444443">.</text>
</g>
<!-- leaf140423021373568&#45;&gt;leaf140423021373616 -->
<!-- leaf140423021373664 -->
<g id="node5" class="node">
<title>leaf140423021373664</title>
<polygon fill="none" stroke="black" stroke-width="0" points="106,-288 78,-288 78,-252 106,-252 106,-288"/>
<text text-anchor="start" x="78" y="-266.9" font-family="Consolas" font-size="12.00" fill="#444443">tanh</text>
</g>
<!-- leaf140423021373616&#45;&gt;leaf140423021373664 -->
<!-- leaf140423021374480 -->
<g id="node6" class="node">
<title>leaf140423021374480</title>
<polygon fill="none" stroke="black" stroke-width="0" points="114.5,-288 107.5,-288 107.5,-252 114.5,-252 114.5,-288"/>
<text text-anchor="start" x="107.5" y="-266.9" font-family="Consolas" font-size="12.00" fill="#444443">(</text>
</g>
<!-- leaf140423021373664&#45;&gt;leaf140423021374480 -->
<!-- leaf140423021374240 -->
<g id="node7" class="node">
<title>leaf140423021374240</title>
<polygon fill="none" stroke="black" stroke-width="0" points="144,-288 116,-288 116,-252 144,-252 144,-288"/>
<text text-anchor="start" x="116" y="-266.9" font-family="Consolas" font-size="12.00" fill="#444443">Whh_</text>
</g>
<!-- leaf140423021374480&#45;&gt;leaf140423021374240 -->
<!-- leaf140423021374432 -->
<g id="node8" class="node">
<title>leaf140423021374432</title>
<polygon fill="none" stroke="black" stroke-width="0" points="159,-288 145,-288 145,-252 159,-252 159,-288"/>
<text text-anchor="start" x="148.5" y="-266.9" font-family="Consolas" font-size="12.00" fill="#444443">@</text>
</g>
<!-- leaf140423021374240&#45;&gt;leaf140423021374432 -->
<!-- leaf140423021374336 -->
<g id="node9" class="node">
<title>leaf140423021374336</title>
<polygon fill="none" stroke="black" stroke-width="0" points="167.5,-288 160.5,-288 160.5,-252 167.5,-252 167.5,-288"/>
<text text-anchor="start" x="160.5" y="-266.9" font-family="Consolas" font-size="12.00" fill="#444443">(</text>
</g>
<!-- leaf140423021374432&#45;&gt;leaf140423021374336 -->
<!-- leaf140423021374144 -->
<g id="node10" class="node">
<title>leaf140423021374144</title>
<polygon fill="none" stroke="black" stroke-width="0" points="175.5,-288 168.5,-288 168.5,-252 175.5,-252 175.5,-288"/>
<text text-anchor="start" x="168.5" y="-266.9" font-family="Consolas" font-size="12.00" fill="#444443">r</text>
</g>
<!-- leaf140423021374336&#45;&gt;leaf140423021374144 -->
<!-- leaf140423021374000 -->
<g id="node11" class="node">
<title>leaf140423021374000</title>
<polygon fill="none" stroke="black" stroke-width="0" points="191,-288 177,-288 177,-252 191,-252 191,-288"/>
<text text-anchor="start" x="180.5" y="-266.9" font-family="Consolas" font-size="12.00" fill="#444443">*</text>
</g>
<!-- leaf140423021374144&#45;&gt;leaf140423021374000 -->
<!-- leaf140423021372032 -->
<g id="node12" class="node">
<title>leaf140423021372032</title>
<polygon fill="none" stroke="black" stroke-width="0" points="199.5,-288 192.5,-288 192.5,-252 199.5,-252 199.5,-288"/>
<text text-anchor="start" x="192.5" y="-266.9" font-family="Consolas" font-size="12.00" fill="#444443">h</text>
</g>
<!-- leaf140423021374000&#45;&gt;leaf140423021372032 -->
<!-- leaf140423021373472 -->
<g id="node13" class="node">
<title>leaf140423021373472</title>
<polygon fill="none" stroke="black" stroke-width="0" points="207.5,-288 200.5,-288 200.5,-252 207.5,-252 207.5,-288"/>
<text text-anchor="start" x="200.5" y="-266.9" font-family="Consolas" font-size="12.00" fill="#444443">)</text>
</g>
<!-- leaf140423021372032&#45;&gt;leaf140423021373472 -->
<!-- leaf140423021371552 -->
<g id="node14" class="node">
<title>leaf140423021371552</title>
<polygon fill="none" stroke="black" stroke-width="0" points="237.5,-288 208.5,-288 208.5,-252 237.5,-252 237.5,-288"/>
<text text-anchor="start" x="219.5" y="-266.9" font-family="Consolas" font-size="12.00" fill="#444443">+</text>
</g>
<!-- leaf140423021373472&#45;&gt;leaf140423021371552 -->
<!-- leaf140423021371888 -->
<g id="node15" class="node">
<title>leaf140423021371888</title>
<polygon fill="none" stroke="black" stroke-width="0" points="267,-288 239,-288 239,-252 267,-252 267,-288"/>
<text text-anchor="start" x="239" y="-266.9" font-family="Consolas" font-size="12.00" fill="#444443">Uxh_</text>
</g>
<!-- leaf140423021371552&#45;&gt;leaf140423021371888 -->
<!-- leaf140423021371600 -->
<g id="node16" class="node">
<title>leaf140423021371600</title>
<polygon fill="none" stroke="black" stroke-width="0" points="282,-288 268,-288 268,-252 282,-252 282,-288"/>
<text text-anchor="start" x="271.5" y="-266.9" font-family="Consolas" font-size="12.00" fill="#444443">@</text>
</g>
<!-- leaf140423021371888&#45;&gt;leaf140423021371600 -->
<!-- leaf140423021374096 -->
<g id="node17" class="node">
<title>leaf140423021374096</title>
<polygon fill="none" stroke="black" stroke-width="0" points="290.5,-288 283.5,-288 283.5,-252 290.5,-252 290.5,-288"/>
<text text-anchor="start" x="283.5" y="-266.9" font-family="Consolas" font-size="12.00" fill="#444443">X</text>
</g>
<!-- leaf140423021371600&#45;&gt;leaf140423021374096 -->
<!-- leaf140423021371696 -->
<g id="node18" class="node">
<title>leaf140423021371696</title>
<polygon fill="none" stroke="black" stroke-width="0" points="298.5,-288 291.5,-288 291.5,-252 298.5,-252 298.5,-288"/>
<text text-anchor="start" x="291.5" y="-266.9" font-family="Consolas" font-size="12.00" fill="#444443">.</text>
</g>
<!-- leaf140423021374096&#45;&gt;leaf140423021371696 -->
<!-- leaf140423021371936 -->
<g id="node19" class="node">
<title>leaf140423021371936</title>
<polygon fill="none" stroke="black" stroke-width="0" points="306.5,-288 299.5,-288 299.5,-252 306.5,-252 306.5,-288"/>
<text text-anchor="start" x="299.5" y="-266.9" font-family="Consolas" font-size="12.00" fill="#444443">T</text>
</g>
<!-- leaf140423021371696&#45;&gt;leaf140423021371936 -->
<!-- leaf140423021371792 -->
<g id="node20" class="node">
<title>leaf140423021371792</title>
<polygon fill="none" stroke="black" stroke-width="0" points="336.5,-288 307.5,-288 307.5,-252 336.5,-252 336.5,-288"/>
<text text-anchor="start" x="318.5" y="-266.9" font-family="Consolas" font-size="12.00" fill="#444443">+</text>
</g>
<!-- leaf140423021371936&#45;&gt;leaf140423021371792 -->
<!-- leaf140423021374192 -->
<g id="node21" class="node">
<title>leaf140423021374192</title>
<polygon fill="none" stroke="black" stroke-width="0" points="358.5,-288 337.5,-288 337.5,-252 358.5,-252 358.5,-288"/>
<text text-anchor="start" x="337.5" y="-266.9" font-family="Consolas" font-size="12.00" fill="#444443">bh_</text>
</g>
<!-- leaf140423021371792&#45;&gt;leaf140423021374192 -->
<!-- leaf140423021373760 -->
<g id="node22" class="node">
<title>leaf140423021373760</title>
<polygon fill="none" stroke="black" stroke-width="0" points="366.5,-288 359.5,-288 359.5,-252 366.5,-252 366.5,-288"/>
<text text-anchor="start" x="359.5" y="-266.9" font-family="Consolas" font-size="12.00" fill="#444443">)</text>
</g>
<!-- leaf140423021374192&#45;&gt;leaf140423021373760 -->
<!-- node140423021371840 -->
<g id="node23" class="node">
<title>node140423021371840</title>
<polygon fill="none" stroke="black" stroke-width="0" points="86,-230 68,-230 68,-216 86,-216 86,-230"/>
<text text-anchor="start" x="73.5" y="-219.9" font-family="Consolas" font-size="12.00" fill="#444443">.</text>
</g>
<!-- node140423021371840&#45;&gt;leaf140423021373568 -->
<g id="edge22" class="edge">
<title>node140423021371840&#45;&gt;leaf140423021373568</title>
<path fill="none" stroke="#6b6b6b" stroke-width="0.5" d="M71.75,-233.08C68.63,-238.49 64.56,-245.53 60.86,-251.94"/>
<polygon fill="#6b6b6b" stroke="#6b6b6b" stroke-width="0.5" points="72.79,-233.38 73.38,-230.26 70.97,-232.33 72.79,-233.38"/>
</g>
<!-- node140423021371840&#45;&gt;leaf140423021373664 -->
<g id="edge23" class="edge">
<title>node140423021371840&#45;&gt;leaf140423021373664</title>
<path fill="none" stroke="#6b6b6b" stroke-width="0.5" d="M80.13,-233.38C81.92,-238.75 84.22,-245.65 86.31,-251.94"/>
<polygon fill="#6b6b6b" stroke="#6b6b6b" stroke-width="0.5" points="81.03,-232.77 79.09,-230.26 79.04,-233.44 81.03,-232.77"/>
</g>
<!-- node140423027411168 -->
<g id="node24" class="node">
<title>node140423027411168</title>
<polygon fill="none" stroke="black" stroke-width="0" points="191,-230 173,-230 173,-216 191,-216 191,-230"/>
<text text-anchor="start" x="178.5" y="-219.9" font-family="Consolas" font-size="12.00" fill="#444443">*</text>
</g>
<!-- node140423027411168&#45;&gt;leaf140423021374144 -->
<g id="edge24" class="edge">
<title>node140423027411168&#45;&gt;leaf140423021374144</title>
<path fill="none" stroke="#6b6b6b" stroke-width="0.5" d="M179.95,-233.24C178.68,-238.96 177.01,-246.46 175.53,-253.11"/>
<polygon fill="#6b6b6b" stroke="#6b6b6b" stroke-width="0.5" points="180.98,-233.41 180.61,-230.26 178.93,-232.96 180.98,-233.41"/>
</g>
<!-- node140423027411168&#45;&gt;leaf140423021372032 -->
<g id="edge25" class="edge">
<title>node140423027411168&#45;&gt;leaf140423021372032</title>
<path fill="none" stroke="#6b6b6b" stroke-width="0.5" d="M184.95,-233.48C187.14,-240.52 190.13,-250.14 192.45,-257.59"/>
<polygon fill="#6b6b6b" stroke="#6b6b6b" stroke-width="0.5" points="185.84,-232.81 183.95,-230.26 183.84,-233.43 185.84,-232.81"/>
</g>
<!-- node140423027411456 -->
<g id="node25" class="node">
<title>node140423027411456</title>
<polygon fill="none" stroke="black" stroke-width="0" points="191,-194 173,-194 173,-180 191,-180 191,-194"/>
<text text-anchor="start" x="175" y="-183.9" font-family="Consolas" font-size="12.00" fill="#444443">()</text>
</g>
<!-- node140423027411456&#45;&gt;node140423027411168 -->
<g id="edge26" class="edge">
<title>node140423027411456&#45;&gt;node140423027411168</title>
<path fill="none" stroke="#6b6b6b" stroke-width="0.5" d="M182,-197.32C182,-203.2 182,-210.64 182,-215.8"/>
<polygon fill="#6b6b6b" stroke="#6b6b6b" stroke-width="0.5" points="183.05,-197.24 182,-194.24 180.95,-197.24 183.05,-197.24"/>
</g>
<!-- node140423027411696 -->
<g id="node26" class="node">
<title>node140423027411696</title>
<polygon fill="none" stroke="black" stroke-width="0" points="191,-158 173,-158 173,-144 191,-144 191,-158"/>
<text text-anchor="start" x="178.5" y="-147.9" font-family="Consolas" font-size="12.00" fill="#444443">@</text>
</g>
<!-- node140423027411696&#45;&gt;leaf140423021374240 -->
<g id="edge27" class="edge">
<title>node140423027411696&#45;&gt;leaf140423021374240</title>
<path fill="none" stroke="#6b6b6b" stroke-width="0.5" d="M177.81,-161.43C169.06,-181.11 148.77,-226.76 137.64,-251.8"/>
<polygon fill="#6b6b6b" stroke="#6b6b6b" stroke-width="0.5" points="178.95,-161.46 179.2,-158.29 177.03,-160.61 178.95,-161.46"/>
</g>
<!-- node140423027411696&#45;&gt;node140423027411456 -->
<g id="edge28" class="edge">
<title>node140423027411696&#45;&gt;node140423027411456</title>
<path fill="none" stroke="#6b6b6b" stroke-width="0.5" d="M182,-161.32C182,-167.2 182,-174.64 182,-179.8"/>
<polygon fill="#6b6b6b" stroke="#6b6b6b" stroke-width="0.5" points="183.05,-161.24 182,-158.24 180.95,-161.24 183.05,-161.24"/>
</g>
<!-- node140423027410256 -->
<g id="node27" class="node">
<title>node140423027410256</title>
<polygon fill="none" stroke="black" stroke-width="0" points="296,-230 278,-230 278,-216 296,-216 296,-230"/>
<text text-anchor="start" x="283.5" y="-219.9" font-family="Consolas" font-size="12.00" fill="#444443">.</text>
</g>
<!-- node140423027410256&#45;&gt;leaf140423021374096 -->
<g id="edge29" class="edge">
<title>node140423027410256&#45;&gt;leaf140423021374096</title>
<path fill="none" stroke="#6b6b6b" stroke-width="0.5" d="M287,-233.38C287,-238.75 287,-245.65 287,-251.94"/>
<polygon fill="#6b6b6b" stroke="#6b6b6b" stroke-width="0.5" points="288.05,-233.26 287,-230.26 285.95,-233.26 288.05,-233.26"/>
</g>
<!-- node140423027410256&#45;&gt;leaf140423021371936 -->
<g id="edge30" class="edge">
<title>node140423027410256&#45;&gt;leaf140423021371936</title>
<path fill="none" stroke="#6b6b6b" stroke-width="0.5" d="M290.29,-233.27C292.96,-240.76 296.71,-251.3 299.44,-258.99"/>
<polygon fill="#6b6b6b" stroke="#6b6b6b" stroke-width="0.5" points="291.22,-232.73 289.22,-230.26 289.24,-233.44 291.22,-232.73"/>
</g>
<!-- node140423027412176 -->
<g id="node28" class="node">
<title>node140423027412176</title>
<polygon fill="none" stroke="black" stroke-width="0" points="262,-194 244,-194 244,-180 262,-180 262,-194"/>
<text text-anchor="start" x="249.5" y="-183.9" font-family="Consolas" font-size="12.00" fill="#444443">@</text>
</g>
<!-- node140423027412176&#45;&gt;leaf140423021371888 -->
<g id="edge31" class="edge">
<title>node140423027412176&#45;&gt;leaf140423021371888</title>
<path fill="none" stroke="#6b6b6b" stroke-width="0.5" d="M253,-197.21C253,-210.49 253,-235.25 253,-251.93"/>
<polygon fill="#6b6b6b" stroke="#6b6b6b" stroke-width="0.5" points="254.05,-197.09 253,-194.09 251.95,-197.09 254.05,-197.09"/>
</g>
<!-- node140423027412176&#45;&gt;node140423027410256 -->
<g id="edge32" class="edge">
<title>node140423027412176&#45;&gt;node140423027410256</title>
<path fill="none" stroke="#6b6b6b" stroke-width="0.5" d="M261.67,-196.67C267.65,-202.65 275.45,-210.45 280.8,-215.8"/>
<polygon fill="#6b6b6b" stroke="#6b6b6b" stroke-width="0.5" points="262.1,-195.61 259.24,-194.24 260.61,-197.1 262.1,-195.61"/>
</g>
<!-- node140423027411936 -->
<g id="node29" class="node">
<title>node140423027411936</title>
<polygon fill="none" stroke="black" stroke-width="0" points="231,-122 213,-122 213,-108 231,-108 231,-122"/>
<text text-anchor="start" x="218.5" y="-111.9" font-family="Consolas" font-size="12.00" fill="#444443">+</text>
</g>
<!-- node140423027411936&#45;&gt;node140423027411696 -->
<g id="edge33" class="edge">
<title>node140423027411936&#45;&gt;node140423027411696</title>
<path fill="none" stroke="#6b6b6b" stroke-width="0.5" d="M212.17,-124.35C205.09,-130.37 195.7,-138.35 189.29,-143.8"/>
<polygon fill="#6b6b6b" stroke="#6b6b6b" stroke-width="0.5" points="213.06,-124.98 214.66,-122.24 211.7,-123.38 213.06,-124.98"/>
</g>
<!-- node140423027411936&#45;&gt;node140423027412176 -->
<g id="edge34" class="edge">
<title>node140423027411936&#45;&gt;node140423027412176</title>
<path fill="none" stroke="#6b6b6b" stroke-width="0.5" d="M226.22,-125.53C232.67,-140.09 244.79,-167.47 250.24,-179.76"/>
<polygon fill="#6b6b6b" stroke="#6b6b6b" stroke-width="0.5" points="227.04,-124.78 224.86,-122.46 225.12,-125.63 227.04,-124.78"/>
</g>
<!-- node140423027412224 -->
<g id="node30" class="node">
<title>node140423027412224</title>
<polygon fill="none" stroke="black" stroke-width="0" points="231,-86 213,-86 213,-72 231,-72 231,-86"/>
<text text-anchor="start" x="218.5" y="-75.9" font-family="Consolas" font-size="12.00" fill="#444443">+</text>
</g>
<!-- node140423027412224&#45;&gt;leaf140423021374192 -->
<g id="edge36" class="edge">
<title>node140423027412224&#45;&gt;leaf140423021374192</title>
<path fill="none" stroke="#6b6b6b" stroke-width="0.5" d="M234.44,-82.47C261.43,-88.63 323,-107.36 323,-150 323,-150 323,-150 323,-188 323,-210.81 332.16,-235.69 339.4,-251.78"/>
<polygon fill="#6b6b6b" stroke="#6b6b6b" stroke-width="0.5" points="234.48,-81.4 231.32,-81.78 234.02,-83.45 234.48,-81.4"/>
</g>
<!-- node140423027412224&#45;&gt;node140423027411936 -->
<g id="edge35" class="edge">
<title>node140423027412224&#45;&gt;node140423027411936</title>
<path fill="none" stroke="#6b6b6b" stroke-width="0.5" d="M222,-89.32C222,-95.2 222,-102.64 222,-107.8"/>
<polygon fill="#6b6b6b" stroke="#6b6b6b" stroke-width="0.5" points="223.05,-89.24 222,-86.24 220.95,-89.24 223.05,-89.24"/>
</g>
<!-- node140423027412368 -->
<g id="node31" class="node">
<title>node140423027412368</title>
<polygon fill="none" stroke="black" stroke-width="0" points="97.5,-50 56.5,-50 56.5,-36 97.5,-36 97.5,-50"/>
<text text-anchor="start" x="56.5" y="-39.9" font-family="Consolas" font-size="12.00" fill="#444443">tanh()</text>
</g>
<!-- node140423027412368&#45;&gt;node140423021371840 -->
<g id="edge37" class="edge">
<title>node140423027412368&#45;&gt;node140423021371840</title>
<path fill="none" stroke="#6b6b6b" stroke-width="0.5" d="M77,-53.32C77,-66.74 77,-92.27 77,-114 77,-114 77,-114 77,-152 77,-175.58 77,-203.62 77,-215.82"/>
<polygon fill="#6b6b6b" stroke="#6b6b6b" stroke-width="0.5" points="78.05,-53.18 77,-50.18 75.95,-53.18 78.05,-53.18"/>
</g>
<!-- node140423027412368&#45;&gt;node140423027412224 -->
<g id="edge38" class="edge">
<title>node140423027412368&#45;&gt;node140423027412224</title>
<path fill="none" stroke="#6b6b6b" stroke-width="0.5" d="M100.87,-49.6C133.62,-57.28 190.94,-70.72 213,-75.89"/>
<polygon fill="#6b6b6b" stroke="#6b6b6b" stroke-width="0.5" points="100.94,-48.53 97.77,-48.87 100.46,-50.58 100.94,-48.53"/>
</g>
<!-- node140423027412320 -->
<g id="node32" class="node">
<title>node140423027412320</title>
<polygon fill="none" stroke="black" stroke-width="0" points="43,-14 25,-14 25,0 43,0 43,-14"/>
<text text-anchor="start" x="30.5" y="-3.9" font-family="Consolas" font-size="12.00" fill="#444443">=</text>
</g>
<!-- node140423027412320&#45;&gt;leaf140423021372752 -->
<g id="edge39" class="edge">
<title>node140423027412320&#45;&gt;leaf140423021372752</title>
<path fill="none" stroke="#6b6b6b" stroke-width="0.5" d="M31.6,-17.25C28.37,-30.57 23,-56 23,-78 23,-78 23,-78 23,-188 23,-210.36 17.06,-235.55 12.42,-251.81"/>
<polygon fill="#6b6b6b" stroke="#6b6b6b" stroke-width="0.5" points="32.67,-17.29 32.38,-14.13 30.64,-16.79 32.67,-17.29"/>
</g>
<!-- node140423027412320&#45;&gt;node140423027412368 -->
<g id="edge40" class="edge">
<title>node140423027412320&#45;&gt;node140423027412368</title>
<path fill="none" stroke="#6b6b6b" stroke-width="0.5" d="M44.57,-16.35C52.17,-22.37 62.27,-30.35 69.16,-35.8"/>
<polygon fill="#6b6b6b" stroke="#6b6b6b" stroke-width="0.5" points="44.89,-15.27 41.89,-14.24 43.59,-16.92 44.89,-15.27"/>
</g>
</g>
</svg>
