<?xml version="1.0" encoding="utf-8" standalone="no"?>
<!DOCTYPE svg PUBLIC "-//W3C//DTD SVG 1.1//EN"
  "http://www.w3.org/Graphics/SVG/1.1/DTD/svg11.dtd">
<!-- Created with matplotlib (https://matplotlib.org/) -->
<svg height="45.995716pt" version="1.1" viewBox="0 0 76.144669 45.995716" width="76.144669pt" xmlns="http://www.w3.org/2000/svg" xmlns:xlink="http://www.w3.org/1999/xlink">
 <defs>
  <style type="text/css">
*{stroke-linecap:butt;stroke-linejoin:round;}
  </style>
 </defs>
 <g id="figure_1">
  <g id="patch_1">
   <path d="M 0 45.995716 
L 76.144669 45.995716 
L 76.144669 0 
L 0 0 
z
" style="fill:#ffffff;"/>
  </g>
  <g id="axes_1">
   <g id="patch_2">
    <path clip-path="url(#p15e19976b5)" d="M 46.1466 45.180316 
L 68.9967 45.180316 
L 68.9967 22.919896 
L 46.1466 22.919896 
z
" style="fill:#cfe2d4;stroke:#808080;stroke-linejoin:miter;stroke-width:0.7;"/>
   </g>
   <g id="line2d_1">
    <path clip-path="url(#p15e19976b5)" d="M 53.65449 13.192653 
L 61.48881 13.192653 
" style="fill:none;stroke:#c2c2c2;stroke-linecap:square;stroke-width:0.5;"/>
   </g>
   <g id="text_1">
    <!-- Y -->
    <defs>
     <path d="M 54.984375 63.8125 
L 31.890625 22.796875 
L 31.890625 0 
L 23.09375 0 
L 23.09375 23 
L 0 63.8125 
L 10.5 63.8125 
L 23.1875 40.484375 
L 27.875 31.109375 
L 32.171875 39.59375 
L 45.015625 63.8125 
z
" id="Consolas-89"/>
    </defs>
    <g style="fill:#b4b4b4;" transform="translate(6.975 9.451406)scale(0.13 -0.13)">
     <use xlink:href="#Consolas-89"/>
    </g>
   </g>
   <g id="text_2">
    <!--   -->
    <defs>
     <path id="Consolas-32"/>
    </defs>
    <g style="fill:#b4b4b4;" transform="translate(13.5036 9.451406)scale(0.13 -0.13)">
     <use xlink:href="#Consolas-32"/>
    </g>
   </g>
   <g id="text_3">
    <!-- = -->
    <defs>
     <path d="M 48.484375 31.546875 
L 6.5 31.546875 
L 6.5 38.71875 
L 48.484375 38.71875 
z
M 48.484375 14.546875 
L 6.5 14.546875 
L 6.5 21.734375 
L 48.484375 21.734375 
z
" id="Consolas-61"/>
    </defs>
    <g style="fill:#b4b4b4;" transform="translate(20.0322 9.451406)scale(0.13 -0.13)">
     <use xlink:href="#Consolas-61"/>
    </g>
   </g>
   <g id="text_4">
    <!--   -->
    <g style="fill:#b4b4b4;" transform="translate(26.5608 9.451406)scale(0.13 -0.13)">
     <use xlink:href="#Consolas-32"/>
    </g>
   </g>
   <g id="text_5">
    <!-- L -->
    <defs>
     <path d="M 48.09375 0 
L 11.375 0 
L 11.375 63.8125 
L 20.21875 63.8125 
L 20.21875 7.421875 
L 48.09375 7.421875 
z
" id="Consolas-76"/>
    </defs>
    <g style="fill:#a40227;" transform="translate(33.0894 9.451406)scale(0.13 -0.13)">
     <use xlink:href="#Consolas-76"/>
    </g>
   </g>
   <g id="text_6">
    <!-- ( -->
    <defs>
     <path d="M 37.15625 -20.515625 
Q 14.65625 0.34375 14.65625 25.59375 
Q 14.65625 31.5 15.84375 37.375 
Q 17.046875 43.265625 19.703125 49.171875 
Q 22.359375 55.078125 26.734375 60.984375 
Q 31.109375 66.890625 37.359375 72.703125 
L 42.28125 67.671875 
Q 23.34375 48.96875 23.34375 26.21875 
Q 23.34375 14.890625 28.125 4.4375 
Q 32.90625 -6 42.28125 -15.28125 
z
" id="Consolas-40"/>
    </defs>
    <g style="fill:#a40227;" transform="translate(39.618 9.451406)scale(0.13 -0.13)">
     <use xlink:href="#Consolas-40"/>
    </g>
   </g>
   <g id="text_7">
    <!-- X -->
    <defs>
     <path d="M 53.8125 0 
L 42.828125 0 
L 27.296875 25.78125 
L 11.71875 0 
L 0.875 0 
L 22.125 32.625 
L 2.59375 63.8125 
L 12.890625 63.8125 
L 27.484375 39.796875 
L 42.1875 63.8125 
L 52.203125 63.8125 
L 32.625 33.015625 
z
" id="Consolas-88"/>
    </defs>
    <g style="fill:#444443;" transform="translate(54.30735 9.451406)scale(0.13 -0.13)">
     <use xlink:href="#Consolas-88"/>
    </g>
   </g>
   <g id="text_8">
    <!-- ) -->
    <defs>
     <path d="M 17.828125 72.703125 
Q 40.328125 51.859375 40.328125 26.3125 
Q 40.328125 21.046875 39.25 15.375 
Q 38.1875 9.71875 35.59375 3.78125 
Q 33.015625 -2.15625 28.640625 -8.25 
Q 24.265625 -14.359375 17.625 -20.515625 
L 12.703125 -15.484375 
Q 22.21875 -6.0625 26.90625 4.1875 
Q 31.59375 14.453125 31.59375 25.6875 
Q 31.59375 48.921875 12.703125 67.484375 
z
" id="Consolas-41"/>
    </defs>
    <g style="fill:#a40227;" transform="translate(68.9967 9.451406)scale(0.13 -0.13)">
     <use xlink:href="#Consolas-41"/>
    </g>
   </g>
   <g id="text_9">
    <!-- 200 -->
    <defs>
     <path d="M 50.34375 8.453125 
L 50.34375 0 
L 3.03125 0 
Q 2.9375 3.171875 4.046875 6.109375 
Q 5.859375 10.9375 9.828125 15.625 
Q 13.8125 20.3125 21.34375 26.46875 
Q 33.015625 36.03125 37.109375 41.625 
Q 41.21875 47.21875 41.21875 52.203125 
Q 41.21875 57.421875 37.46875 61 
Q 33.734375 64.59375 27.734375 64.59375 
Q 21.390625 64.59375 17.578125 60.78125 
Q 13.765625 56.984375 13.71875 50.25 
L 4.6875 51.171875 
Q 5.609375 61.28125 11.65625 66.578125 
Q 17.71875 71.875 27.9375 71.875 
Q 38.234375 71.875 44.234375 66.15625 
Q 50.25 60.453125 50.25 52 
Q 50.25 47.703125 48.484375 43.546875 
Q 46.734375 39.40625 42.65625 34.8125 
Q 38.578125 30.21875 29.109375 22.21875 
Q 21.1875 15.578125 18.9375 13.203125 
Q 16.703125 10.84375 15.234375 8.453125 
z
" id="ArialMT-50"/>
     <path d="M 4.15625 35.296875 
Q 4.15625 48 6.765625 55.734375 
Q 9.375 63.484375 14.515625 67.671875 
Q 19.671875 71.875 27.484375 71.875 
Q 33.25 71.875 37.59375 69.546875 
Q 41.9375 67.234375 44.765625 62.859375 
Q 47.609375 58.5 49.21875 52.21875 
Q 50.828125 45.953125 50.828125 35.296875 
Q 50.828125 22.703125 48.234375 14.96875 
Q 45.65625 7.234375 40.5 3 
Q 35.359375 -1.21875 27.484375 -1.21875 
Q 17.140625 -1.21875 11.234375 6.203125 
Q 4.15625 15.140625 4.15625 35.296875 
z
M 13.1875 35.296875 
Q 13.1875 17.671875 17.3125 11.828125 
Q 21.4375 6 27.484375 6 
Q 33.546875 6 37.671875 11.859375 
Q 41.796875 17.71875 41.796875 35.296875 
Q 41.796875 52.984375 37.671875 58.78125 
Q 33.546875 64.59375 27.390625 64.59375 
Q 21.34375 64.59375 17.71875 59.46875 
Q 13.1875 52.9375 13.1875 35.296875 
z
" id="ArialMT-48"/>
    </defs>
    <g transform="translate(44.35785 41.557371)rotate(-90)scale(0.09 -0.09)">
     <use xlink:href="#ArialMT-50"/>
     <use x="55.615234" xlink:href="#ArialMT-48"/>
     <use x="111.230469" xlink:href="#ArialMT-48"/>
    </g>
   </g>
   <g id="text_10">
    <!-- 200 -->
    <g transform="translate(50.064384 21.560896)scale(0.09 -0.09)">
     <use xlink:href="#ArialMT-50"/>
     <use x="55.615234" xlink:href="#ArialMT-48"/>
     <use x="111.230469" xlink:href="#ArialMT-48"/>
    </g>
   </g>
  </g>
 </g>
 <defs>
  <clipPath id="p15e19976b5">
   <rect height="41.491069" width="75.5253" x="0" y="4.504646"/>
  </clipPath>
 </defs>
</svg>
