<?xml version="1.0" encoding="utf-8" standalone="no"?>
<!DOCTYPE svg PUBLIC "-//W3C//DTD SVG 1.1//EN"
  "http://www.w3.org/Graphics/SVG/1.1/DTD/svg11.dtd">
<!-- Created with matplotlib (https://matplotlib.org/) -->
<svg height="45.589466pt" version="1.1" viewBox="0 0 98.94483 45.589466" width="98.94483pt" xmlns="http://www.w3.org/2000/svg" xmlns:xlink="http://www.w3.org/1999/xlink">
 <defs>
  <style type="text/css">
*{stroke-linecap:butt;stroke-linejoin:round;}
  </style>
 </defs>
 <g id="figure_1">
  <g id="patch_1">
   <path d="M 0 45.589466 
L 98.94483 45.589466 
L 98.94483 0 
L 0 0 
z
" style="fill:#ffffff;"/>
  </g>
  <g id="axes_1">
   <g id="patch_2">
    <path clip-path="url(#pa7523caa8b)" d="M 8.230781 32.689838 
L 18.676541 32.689838 
L 18.676541 22.513646 
L 8.230781 22.513646 
z
" style="fill:#cfe2d4;stroke:#808080;stroke-linejoin:miter;stroke-width:0.7;"/>
   </g>
   <g id="patch_3">
    <path clip-path="url(#pa7523caa8b)" d="M 36.303761 27.601742 
L 59.153861 27.601742 
L 59.153861 22.513646 
L 36.303761 22.513646 
z
" style="fill:#cfe2d4;stroke:#808080;stroke-linejoin:miter;stroke-width:0.7;"/>
   </g>
   <g id="patch_4">
    <path clip-path="url(#pa7523caa8b)" d="M 85.921121 44.774066 
L 91.144001 44.774066 
L 91.144001 22.513646 
L 85.921121 22.513646 
z
" style="fill:#cfe2d4;stroke:#808080;stroke-linejoin:miter;stroke-width:0.7;"/>
   </g>
   <g id="line2d_1">
    <path clip-path="url(#pa7523caa8b)" d="M 9.536501 12.786403 
L 17.370821 12.786403 
" style="fill:none;stroke:#c2c2c2;stroke-linecap:square;stroke-width:0.5;"/>
   </g>
   <g id="line2d_2">
    <path clip-path="url(#pa7523caa8b)" d="M 43.811651 12.786403 
L 51.645971 12.786403 
" style="fill:none;stroke:#c2c2c2;stroke-linecap:square;stroke-width:0.5;"/>
   </g>
   <g id="line2d_3">
    <path clip-path="url(#pa7523caa8b)" d="M 78.086801 12.786403 
L 98.978321 12.786403 
" style="fill:none;stroke:#c2c2c2;stroke-linecap:square;stroke-width:0.5;"/>
   </g>
   <g id="text_1">
    <!-- y -->
    <defs>
     <path d="M 51.421875 49.03125 
L 34.71875 5.171875 
Q 32.125 -1.515625 29.359375 -6.34375 
Q 26.609375 -11.1875 23.328125 -14.28125 
Q 20.0625 -17.390625 16.15625 -18.84375 
Q 12.25 -20.3125 7.421875 -20.3125 
Q 6.15625 -20.3125 5.125 -20.265625 
Q 4.109375 -20.21875 2.875 -20.125 
L 2.875 -12.40625 
Q 3.953125 -12.546875 5.21875 -12.671875 
Q 6.5 -12.796875 7.90625 -12.796875 
Q 10.25 -12.796875 12.28125 -12.109375 
Q 14.3125 -11.421875 16.109375 -9.875 
Q 17.921875 -8.34375 19.578125 -5.90625 
Q 21.234375 -3.46875 22.796875 0 
L 3.21875 49.03125 
L 12.890625 49.03125 
L 25.296875 16.609375 
L 27.78125 8.984375 
L 30.609375 16.796875 
L 42.09375 49.03125 
z
" id="Consolas-121"/>
    </defs>
    <g style="fill:#444443;" transform="translate(10.189361 9.045156)scale(0.13 -0.13)">
     <use xlink:href="#Consolas-121"/>
    </g>
   </g>
   <g id="text_2">
    <!--   -->
    <defs>
     <path id="Consolas-32"/>
    </defs>
    <g style="fill:#444443;" transform="translate(16.717961 9.045156)scale(0.13 -0.13)">
     <use xlink:href="#Consolas-32"/>
    </g>
   </g>
   <g id="text_3">
    <!-- = -->
    <defs>
     <path d="M 48.484375 31.546875 
L 6.5 31.546875 
L 6.5 38.71875 
L 48.484375 38.71875 
z
M 48.484375 14.546875 
L 6.5 14.546875 
L 6.5 21.734375 
L 48.484375 21.734375 
z
" id="Consolas-61"/>
    </defs>
    <g style="fill:#444443;" transform="translate(23.246561 9.045156)scale(0.13 -0.13)">
     <use xlink:href="#Consolas-61"/>
    </g>
   </g>
   <g id="text_4">
    <!--   -->
    <g style="fill:#444443;" transform="translate(29.775161 9.045156)scale(0.13 -0.13)">
     <use xlink:href="#Consolas-32"/>
    </g>
   </g>
   <g id="text_5">
    <!-- b -->
    <defs>
     <path d="M 49.703125 25.390625 
Q 49.703125 19.28125 48.015625 14.46875 
Q 46.34375 9.671875 43.234375 6.328125 
Q 40.140625 2.984375 35.6875 1.1875 
Q 31.25 -0.59375 25.6875 -0.59375 
Q 21.34375 -0.59375 16.796875 0.234375 
Q 12.25 1.078125 7.8125 2.875 
L 7.8125 69 
L 16.3125 69 
L 16.3125 50 
L 15.921875 40.921875 
Q 19.578125 45.84375 23.75 47.875 
Q 27.9375 49.90625 32.71875 49.90625 
Q 36.921875 49.90625 40.09375 48.140625 
Q 43.265625 46.390625 45.40625 43.1875 
Q 47.5625 39.984375 48.625 35.46875 
Q 49.703125 30.953125 49.703125 25.390625 
z
M 41.015625 25 
Q 41.015625 28.859375 40.453125 32.078125 
Q 39.890625 35.296875 38.671875 37.59375 
Q 37.453125 39.890625 35.546875 41.1875 
Q 33.640625 42.484375 31 42.484375 
Q 29.390625 42.484375 27.734375 41.96875 
Q 26.078125 41.453125 24.296875 40.25 
Q 22.515625 39.0625 20.53125 37.078125 
Q 18.5625 35.109375 16.3125 32.171875 
L 16.3125 8.40625 
Q 18.796875 7.421875 21.375 6.859375 
Q 23.96875 6.296875 26.3125 6.296875 
Q 29.25 6.296875 31.90625 7.21875 
Q 34.578125 8.15625 36.59375 10.328125 
Q 38.625 12.5 39.8125 16.078125 
Q 41.015625 19.671875 41.015625 25 
z
" id="Consolas-98"/>
    </defs>
    <g style="fill:#444443;" transform="translate(44.464511 9.045156)scale(0.13 -0.13)">
     <use xlink:href="#Consolas-98"/>
    </g>
   </g>
   <g id="text_6">
    <!--   -->
    <g style="fill:#444443;" transform="translate(59.153861 9.045156)scale(0.13 -0.13)">
     <use xlink:href="#Consolas-32"/>
    </g>
   </g>
   <g id="text_7">
    <!-- @ -->
    <defs>
     <path d="M 38.09375 19.921875 
Q 37.640625 16.796875 37.59375 14.75 
Q 37.546875 12.703125 37.859375 11.53125 
Q 38.1875 10.359375 38.859375 9.890625 
Q 39.546875 9.421875 40.578125 9.421875 
Q 41.9375 9.421875 43.15625 10.859375 
Q 44.390625 12.3125 45.34375 15.3125 
Q 46.296875 18.3125 46.84375 22.890625 
Q 47.40625 27.484375 47.40625 33.796875 
Q 47.40625 40.828125 46.53125 46.34375 
Q 45.65625 51.859375 43.75 55.71875 
Q 41.84375 59.578125 38.796875 61.59375 
Q 35.75 63.625 31.390625 63.625 
Q 28.078125 63.625 24.96875 61.9375 
Q 21.875 60.25 19.203125 57.203125 
Q 16.546875 54.15625 14.375 49.875 
Q 12.203125 45.609375 10.65625 40.421875 
Q 9.125 35.25 8.265625 29.296875 
Q 7.421875 23.34375 7.421875 16.890625 
Q 7.421875 1.171875 12.15625 -6.5625 
Q 16.890625 -14.3125 25.484375 -14.3125 
Q 29.828125 -14.3125 33.59375 -13.3125 
Q 37.359375 -12.3125 41.40625 -10.296875 
L 41.40625 -16.609375 
Q 37.40625 -18.453125 33.390625 -19.375 
Q 29.390625 -20.3125 25 -20.3125 
Q 12.546875 -20.3125 6.5625 -10.984375 
Q 0.59375 -1.65625 0.484375 16.796875 
Q 0.4375 24.171875 1.453125 30.9375 
Q 2.484375 37.703125 4.40625 43.5625 
Q 6.34375 49.421875 9.09375 54.21875 
Q 11.859375 59.03125 15.34375 62.421875 
Q 18.84375 65.828125 22.9375 67.703125 
Q 27.046875 69.578125 31.6875 69.578125 
Q 37.5 69.578125 41.765625 67.203125 
Q 46.046875 64.84375 48.828125 60.375 
Q 51.609375 55.90625 52.953125 49.40625 
Q 54.296875 42.921875 54.296875 34.625 
Q 54.25 26.21875 53.203125 20.234375 
Q 52.15625 14.265625 50.25 10.453125 
Q 48.34375 6.640625 45.625 4.859375 
Q 42.921875 3.078125 39.59375 3.078125 
Q 35.796875 3.078125 33.9375 5.03125 
Q 32.078125 6.984375 32.078125 10.296875 
Q 30.21875 6.546875 28.0625 4.8125 
Q 25.921875 3.078125 22.90625 3.078125 
Q 18.3125 3.078125 16.015625 6.515625 
Q 13.71875 9.96875 13.71875 17.390625 
Q 13.71875 20.0625 14.03125 23.140625 
Q 14.359375 26.21875 15.109375 29.3125 
Q 15.875 32.421875 17.09375 35.28125 
Q 18.3125 38.140625 20.09375 40.3125 
Q 21.875 42.484375 24.3125 43.796875 
Q 26.765625 45.125 29.890625 45.125 
Q 31.734375 45.125 33.34375 44.671875 
Q 34.96875 44.234375 35.6875 43.796875 
L 42 45.3125 
z
M 33.109375 37.3125 
Q 32.671875 37.890625 31.765625 38.34375 
Q 30.859375 38.8125 29.5 38.8125 
Q 28.03125 38.8125 26.859375 37.78125 
Q 25.6875 36.765625 24.78125 35.046875 
Q 23.875 33.34375 23.265625 31.171875 
Q 22.65625 29 22.234375 26.703125 
Q 21.828125 24.421875 21.65625 22.1875 
Q 21.484375 19.96875 21.484375 18.21875 
Q 21.484375 13.53125 22.0625 11.46875 
Q 22.65625 9.421875 24.3125 9.421875 
Q 24.90625 9.421875 25.484375 9.65625 
Q 26.078125 9.90625 26.734375 10.609375 
Q 27.390625 11.328125 28.171875 12.59375 
Q 28.953125 13.875 29.890625 15.921875 
z
" id="Consolas-64"/>
    </defs>
    <g style="fill:#444443;" transform="translate(65.682461 9.045156)scale(0.13 -0.13)">
     <use xlink:href="#Consolas-64"/>
    </g>
   </g>
   <g id="text_8">
    <!--   -->
    <g style="fill:#444443;" transform="translate(72.211061 9.045156)scale(0.13 -0.13)">
     <use xlink:href="#Consolas-32"/>
    </g>
   </g>
   <g id="text_9">
    <!-- b -->
    <g style="fill:#444443;" transform="translate(78.739661 9.045156)scale(0.13 -0.13)">
     <use xlink:href="#Consolas-98"/>
    </g>
   </g>
   <g id="text_10">
    <!-- . -->
    <defs>
     <path d="M 27.09375 15.375 
Q 28.765625 15.375 30.25 14.734375 
Q 31.734375 14.109375 32.828125 12.984375 
Q 33.9375 11.859375 34.5625 10.375 
Q 35.203125 8.890625 35.203125 7.171875 
Q 35.203125 5.515625 34.5625 4.046875 
Q 33.9375 2.59375 32.828125 1.484375 
Q 31.734375 0.390625 30.25 -0.234375 
Q 28.765625 -0.875 27.09375 -0.875 
Q 25.390625 -0.875 23.921875 -0.234375 
Q 22.46875 0.390625 21.359375 1.484375 
Q 20.265625 2.59375 19.625 4.046875 
Q 19 5.515625 19 7.171875 
Q 19 8.890625 19.625 10.375 
Q 20.265625 11.859375 21.359375 12.984375 
Q 22.46875 14.109375 23.921875 14.734375 
Q 25.390625 15.375 27.09375 15.375 
z
" id="Consolas-46"/>
    </defs>
    <g style="fill:#444443;" transform="translate(85.268261 9.045156)scale(0.13 -0.13)">
     <use xlink:href="#Consolas-46"/>
    </g>
   </g>
   <g id="text_11">
    <!-- T -->
    <defs>
     <path d="M 50.78125 56.390625 
L 31.890625 56.390625 
L 31.890625 0 
L 23.09375 0 
L 23.09375 56.390625 
L 4.203125 56.390625 
L 4.203125 63.8125 
L 50.78125 63.8125 
z
" id="Consolas-84"/>
    </defs>
    <g style="fill:#444443;" transform="translate(91.796861 9.045156)scale(0.13 -0.13)">
     <use xlink:href="#Consolas-84"/>
    </g>
   </g>
   <g id="text_12">
    <!-- 1 -->
    <defs>
     <path d="M 37.25 0 
L 28.46875 0 
L 28.46875 56 
Q 25.296875 52.984375 20.140625 49.953125 
Q 14.984375 46.921875 10.890625 45.40625 
L 10.890625 53.90625 
Q 18.265625 57.375 23.78125 62.296875 
Q 29.296875 67.234375 31.59375 71.875 
L 37.25 71.875 
z
" id="ArialMT-49"/>
    </defs>
    <g transform="translate(6.442031 30.104164)rotate(-90)scale(0.09 -0.09)">
     <use xlink:href="#ArialMT-49"/>
    </g>
   </g>
   <g id="text_13">
    <!-- 1 -->
    <g transform="translate(10.951239 21.154646)scale(0.09 -0.09)">
     <use xlink:href="#ArialMT-49"/>
    </g>
   </g>
   <g id="text_14">
    <!-- 1 -->
    <g transform="translate(34.515011 27.560116)rotate(-90)scale(0.09 -0.09)">
     <use xlink:href="#ArialMT-49"/>
    </g>
   </g>
   <g id="text_15">
    <!-- 100 -->
    <defs>
     <path d="M 4.15625 35.296875 
Q 4.15625 48 6.765625 55.734375 
Q 9.375 63.484375 14.515625 67.671875 
Q 19.671875 71.875 27.484375 71.875 
Q 33.25 71.875 37.59375 69.546875 
Q 41.9375 67.234375 44.765625 62.859375 
Q 47.609375 58.5 49.21875 52.21875 
Q 50.828125 45.953125 50.828125 35.296875 
Q 50.828125 22.703125 48.234375 14.96875 
Q 45.65625 7.234375 40.5 3 
Q 35.359375 -1.21875 27.484375 -1.21875 
Q 17.140625 -1.21875 11.234375 6.203125 
Q 4.15625 15.140625 4.15625 35.296875 
z
M 13.1875 35.296875 
Q 13.1875 17.671875 17.3125 11.828125 
Q 21.4375 6 27.484375 6 
Q 33.546875 6 37.671875 11.859375 
Q 41.796875 17.71875 41.796875 35.296875 
Q 41.796875 52.984375 37.671875 58.78125 
Q 33.546875 64.59375 27.390625 64.59375 
Q 21.34375 64.59375 17.71875 59.46875 
Q 13.1875 52.9375 13.1875 35.296875 
z
" id="ArialMT-48"/>
    </defs>
    <g transform="translate(40.221546 21.154646)scale(0.09 -0.09)">
     <use xlink:href="#ArialMT-49"/>
     <use x="55.615234" xlink:href="#ArialMT-48"/>
     <use x="111.230469" xlink:href="#ArialMT-48"/>
    </g>
   </g>
   <g id="text_16">
    <!-- 100 -->
    <g transform="translate(84.132371 41.151121)rotate(-90)scale(0.09 -0.09)">
     <use xlink:href="#ArialMT-49"/>
     <use x="55.615234" xlink:href="#ArialMT-48"/>
     <use x="111.230469" xlink:href="#ArialMT-48"/>
    </g>
   </g>
   <g id="text_17">
    <!-- 1 -->
    <g transform="translate(86.030139 21.154646)scale(0.09 -0.09)">
     <use xlink:href="#ArialMT-49"/>
    </g>
   </g>
  </g>
 </g>
 <defs>
  <clipPath id="pa7523caa8b">
   <rect height="41.491069" width="95.1111" x="3.214361" y="4.098396"/>
  </clipPath>
 </defs>
</svg>
