<?xml version="1.0" encoding="utf-8" standalone="no"?>
<!DOCTYPE svg PUBLIC "-//W3C//DTD SVG 1.1//EN"
  "http://www.w3.org/Graphics/SVG/1.1/DTD/svg11.dtd">
<!-- Created with matplotlib (http://matplotlib.org/) -->
<svg height="209.270937pt" version="1.1" viewBox="0 0 676.242344 209.270937" width="676.242344pt" xmlns="http://www.w3.org/2000/svg" xmlns:xlink="http://www.w3.org/1999/xlink">
 <defs>
  <style type="text/css">
*{stroke-linecap:butt;stroke-linejoin:round;}
  </style>
 </defs>
 <g id="figure_1">
  <g id="patch_1">
   <path d="M 0 209.270937 
L 676.242344 209.270937 
L 676.242344 0 
L 0 0 
z
" style="fill:#ffffff;"/>
  </g>
  <g id="axes_1">
   <g id="patch_2">
    <path d="M 66.063594 172.14 
L 250.529844 172.14 
L 250.529844 3.5 
L 66.063594 3.5 
z
" style="fill:#ffffff;"/>
   </g>
   <g id="matplotlib.axis_1">
    <g id="xtick_1">
     <g id="line2d_1">
      <defs>
       <path d="M 0 0 
L 0 3.5 
" id="m519a0c7e0d" style="stroke:#000000;stroke-width:0.8;"/>
      </defs>
      <g>
       <use style="stroke:#000000;stroke-width:0.8;" x="116.372571" xlink:href="#m519a0c7e0d" y="172.14"/>
      </g>
     </g>
     <g id="text_1">
      <!-- 800 -->
      <defs>
       <path d="M 31.78125 34.625 
Q 24.75 34.625 20.71875 30.859375 
Q 16.703125 27.09375 16.703125 20.515625 
Q 16.703125 13.921875 20.71875 10.15625 
Q 24.75 6.390625 31.78125 6.390625 
Q 38.8125 6.390625 42.859375 10.171875 
Q 46.921875 13.96875 46.921875 20.515625 
Q 46.921875 27.09375 42.890625 30.859375 
Q 38.875 34.625 31.78125 34.625 
z
M 21.921875 38.8125 
Q 15.578125 40.375 12.03125 44.71875 
Q 8.5 49.078125 8.5 55.328125 
Q 8.5 64.0625 14.71875 69.140625 
Q 20.953125 74.21875 31.78125 74.21875 
Q 42.671875 74.21875 48.875 69.140625 
Q 55.078125 64.0625 55.078125 55.328125 
Q 55.078125 49.078125 51.53125 44.71875 
Q 48 40.375 41.703125 38.8125 
Q 48.828125 37.15625 52.796875 32.3125 
Q 56.78125 27.484375 56.78125 20.515625 
Q 56.78125 9.90625 50.3125 4.234375 
Q 43.84375 -1.421875 31.78125 -1.421875 
Q 19.734375 -1.421875 13.25 4.234375 
Q 6.78125 9.90625 6.78125 20.515625 
Q 6.78125 27.484375 10.78125 32.3125 
Q 14.796875 37.15625 21.921875 38.8125 
z
M 18.3125 54.390625 
Q 18.3125 48.734375 21.84375 45.5625 
Q 25.390625 42.390625 31.78125 42.390625 
Q 38.140625 42.390625 41.71875 45.5625 
Q 45.3125 48.734375 45.3125 54.390625 
Q 45.3125 60.0625 41.71875 63.234375 
Q 38.140625 66.40625 31.78125 66.40625 
Q 25.390625 66.40625 21.84375 63.234375 
Q 18.3125 60.0625 18.3125 54.390625 
z
" id="DejaVuSans-38"/>
       <path d="M 31.78125 66.40625 
Q 24.171875 66.40625 20.328125 58.90625 
Q 16.5 51.421875 16.5 36.375 
Q 16.5 21.390625 20.328125 13.890625 
Q 24.171875 6.390625 31.78125 6.390625 
Q 39.453125 6.390625 43.28125 13.890625 
Q 47.125 21.390625 47.125 36.375 
Q 47.125 51.421875 43.28125 58.90625 
Q 39.453125 66.40625 31.78125 66.40625 
z
M 31.78125 74.21875 
Q 44.046875 74.21875 50.515625 64.515625 
Q 56.984375 54.828125 56.984375 36.375 
Q 56.984375 17.96875 50.515625 8.265625 
Q 44.046875 -1.421875 31.78125 -1.421875 
Q 19.53125 -1.421875 13.0625 8.265625 
Q 6.59375 17.96875 6.59375 36.375 
Q 6.59375 54.828125 13.0625 64.515625 
Q 19.53125 74.21875 31.78125 74.21875 
z
" id="DejaVuSans-30"/>
      </defs>
      <g transform="translate(103.965696 189.017969)scale(0.13 -0.13)">
       <use xlink:href="#DejaVuSans-38"/>
       <use x="63.623047" xlink:href="#DejaVuSans-30"/>
       <use x="127.246094" xlink:href="#DejaVuSans-30"/>
      </g>
     </g>
    </g>
    <g id="xtick_2">
     <g id="line2d_2">
      <g>
       <use style="stroke:#000000;stroke-width:0.8;" x="200.220866" xlink:href="#m519a0c7e0d" y="172.14"/>
      </g>
     </g>
     <g id="text_2">
      <!-- 900 -->
      <defs>
       <path d="M 10.984375 1.515625 
L 10.984375 10.5 
Q 14.703125 8.734375 18.5 7.8125 
Q 22.3125 6.890625 25.984375 6.890625 
Q 35.75 6.890625 40.890625 13.453125 
Q 46.046875 20.015625 46.78125 33.40625 
Q 43.953125 29.203125 39.59375 26.953125 
Q 35.25 24.703125 29.984375 24.703125 
Q 19.046875 24.703125 12.671875 31.3125 
Q 6.296875 37.9375 6.296875 49.421875 
Q 6.296875 60.640625 12.9375 67.421875 
Q 19.578125 74.21875 30.609375 74.21875 
Q 43.265625 74.21875 49.921875 64.515625 
Q 56.59375 54.828125 56.59375 36.375 
Q 56.59375 19.140625 48.40625 8.859375 
Q 40.234375 -1.421875 26.421875 -1.421875 
Q 22.703125 -1.421875 18.890625 -0.6875 
Q 15.09375 0.046875 10.984375 1.515625 
z
M 30.609375 32.421875 
Q 37.25 32.421875 41.125 36.953125 
Q 45.015625 41.5 45.015625 49.421875 
Q 45.015625 57.28125 41.125 61.84375 
Q 37.25 66.40625 30.609375 66.40625 
Q 23.96875 66.40625 20.09375 61.84375 
Q 16.21875 57.28125 16.21875 49.421875 
Q 16.21875 41.5 20.09375 36.953125 
Q 23.96875 32.421875 30.609375 32.421875 
z
" id="DejaVuSans-39"/>
      </defs>
      <g transform="translate(187.813991 189.017969)scale(0.13 -0.13)">
       <use xlink:href="#DejaVuSans-39"/>
       <use x="63.623047" xlink:href="#DejaVuSans-30"/>
       <use x="127.246094" xlink:href="#DejaVuSans-30"/>
      </g>
     </g>
    </g>
    <g id="text_3">
     <!-- SqFeet -->
     <defs>
      <path d="M 53.515625 70.515625 
L 53.515625 60.890625 
Q 47.90625 63.578125 42.921875 64.890625 
Q 37.9375 66.21875 33.296875 66.21875 
Q 25.25 66.21875 20.875 63.09375 
Q 16.5 59.96875 16.5 54.203125 
Q 16.5 49.359375 19.40625 46.890625 
Q 22.3125 44.4375 30.421875 42.921875 
L 36.375 41.703125 
Q 47.40625 39.59375 52.65625 34.296875 
Q 57.90625 29 57.90625 20.125 
Q 57.90625 9.515625 50.796875 4.046875 
Q 43.703125 -1.421875 29.984375 -1.421875 
Q 24.8125 -1.421875 18.96875 -0.25 
Q 13.140625 0.921875 6.890625 3.21875 
L 6.890625 13.375 
Q 12.890625 10.015625 18.65625 8.296875 
Q 24.421875 6.59375 29.984375 6.59375 
Q 38.421875 6.59375 43.015625 9.90625 
Q 47.609375 13.234375 47.609375 19.390625 
Q 47.609375 24.75 44.3125 27.78125 
Q 41.015625 30.8125 33.5 32.328125 
L 27.484375 33.5 
Q 16.453125 35.6875 11.515625 40.375 
Q 6.59375 45.0625 6.59375 53.421875 
Q 6.59375 63.09375 13.40625 68.65625 
Q 20.21875 74.21875 32.171875 74.21875 
Q 37.3125 74.21875 42.625 73.28125 
Q 47.953125 72.359375 53.515625 70.515625 
z
" id="DejaVuSans-53"/>
      <path d="M 14.796875 27.296875 
Q 14.796875 17.390625 18.875 11.75 
Q 22.953125 6.109375 30.078125 6.109375 
Q 37.203125 6.109375 41.296875 11.75 
Q 45.40625 17.390625 45.40625 27.296875 
Q 45.40625 37.203125 41.296875 42.84375 
Q 37.203125 48.484375 30.078125 48.484375 
Q 22.953125 48.484375 18.875 42.84375 
Q 14.796875 37.203125 14.796875 27.296875 
z
M 45.40625 8.203125 
Q 42.578125 3.328125 38.25 0.953125 
Q 33.9375 -1.421875 27.875 -1.421875 
Q 17.96875 -1.421875 11.734375 6.484375 
Q 5.515625 14.40625 5.515625 27.296875 
Q 5.515625 40.1875 11.734375 48.09375 
Q 17.96875 56 27.875 56 
Q 33.9375 56 38.25 53.625 
Q 42.578125 51.265625 45.40625 46.390625 
L 45.40625 54.6875 
L 54.390625 54.6875 
L 54.390625 -20.796875 
L 45.40625 -20.796875 
z
" id="DejaVuSans-71"/>
      <path d="M 9.8125 72.90625 
L 51.703125 72.90625 
L 51.703125 64.59375 
L 19.671875 64.59375 
L 19.671875 43.109375 
L 48.578125 43.109375 
L 48.578125 34.8125 
L 19.671875 34.8125 
L 19.671875 0 
L 9.8125 0 
z
" id="DejaVuSans-46"/>
      <path d="M 56.203125 29.59375 
L 56.203125 25.203125 
L 14.890625 25.203125 
Q 15.484375 15.921875 20.484375 11.0625 
Q 25.484375 6.203125 34.421875 6.203125 
Q 39.59375 6.203125 44.453125 7.46875 
Q 49.3125 8.734375 54.109375 11.28125 
L 54.109375 2.78125 
Q 49.265625 0.734375 44.1875 -0.34375 
Q 39.109375 -1.421875 33.890625 -1.421875 
Q 20.796875 -1.421875 13.15625 6.1875 
Q 5.515625 13.8125 5.515625 26.8125 
Q 5.515625 40.234375 12.765625 48.109375 
Q 20.015625 56 32.328125 56 
Q 43.359375 56 49.78125 48.890625 
Q 56.203125 41.796875 56.203125 29.59375 
z
M 47.21875 32.234375 
Q 47.125 39.59375 43.09375 43.984375 
Q 39.0625 48.390625 32.421875 48.390625 
Q 24.90625 48.390625 20.390625 44.140625 
Q 15.875 39.890625 15.1875 32.171875 
z
" id="DejaVuSans-65"/>
      <path d="M 18.3125 70.21875 
L 18.3125 54.6875 
L 36.8125 54.6875 
L 36.8125 47.703125 
L 18.3125 47.703125 
L 18.3125 18.015625 
Q 18.3125 11.328125 20.140625 9.421875 
Q 21.96875 7.515625 27.59375 7.515625 
L 36.8125 7.515625 
L 36.8125 0 
L 27.59375 0 
Q 17.1875 0 13.234375 3.875 
Q 9.28125 7.765625 9.28125 18.015625 
L 9.28125 47.703125 
L 2.6875 47.703125 
L 2.6875 54.6875 
L 9.28125 54.6875 
L 9.28125 70.21875 
z
" id="DejaVuSans-74"/>
     </defs>
     <g transform="translate(134.029688 206.359375)scale(0.14 -0.14)">
      <use xlink:href="#DejaVuSans-53"/>
      <use x="63.476562" xlink:href="#DejaVuSans-71"/>
      <use x="126.953125" xlink:href="#DejaVuSans-46"/>
      <use x="184.394531" xlink:href="#DejaVuSans-65"/>
      <use x="245.917969" xlink:href="#DejaVuSans-65"/>
      <use x="307.441406" xlink:href="#DejaVuSans-74"/>
     </g>
    </g>
   </g>
   <g id="matplotlib.axis_2">
    <g id="ytick_1">
     <g id="line2d_3">
      <defs>
       <path d="M 0 0 
L -3.5 0 
" id="m3c94423c92" style="stroke:#000000;stroke-width:0.8;"/>
      </defs>
      <g>
       <use style="stroke:#000000;stroke-width:0.8;" x="66.063594" xlink:href="#m3c94423c92" y="153.888918"/>
      </g>
     </g>
     <g id="text_4">
      <!-- −200 -->
      <defs>
       <path d="M 10.59375 35.5 
L 73.1875 35.5 
L 73.1875 27.203125 
L 10.59375 27.203125 
z
" id="DejaVuSans-2212"/>
       <path d="M 19.1875 8.296875 
L 53.609375 8.296875 
L 53.609375 0 
L 7.328125 0 
L 7.328125 8.296875 
Q 12.9375 14.109375 22.625 23.890625 
Q 32.328125 33.6875 34.8125 36.53125 
Q 39.546875 41.84375 41.421875 45.53125 
Q 43.3125 49.21875 43.3125 52.78125 
Q 43.3125 58.59375 39.234375 62.25 
Q 35.15625 65.921875 28.609375 65.921875 
Q 23.96875 65.921875 18.8125 64.3125 
Q 13.671875 62.703125 7.8125 59.421875 
L 7.8125 69.390625 
Q 13.765625 71.78125 18.9375 73 
Q 24.125 74.21875 28.421875 74.21875 
Q 39.75 74.21875 46.484375 68.546875 
Q 53.21875 62.890625 53.21875 53.421875 
Q 53.21875 48.921875 51.53125 44.890625 
Q 49.859375 40.875 45.40625 35.40625 
Q 44.1875 33.984375 37.640625 27.21875 
Q 31.109375 20.453125 19.1875 8.296875 
z
" id="DejaVuSans-32"/>
      </defs>
      <g transform="translate(23.35625 158.827902)scale(0.13 -0.13)">
       <use xlink:href="#DejaVuSans-2212"/>
       <use x="83.789062" xlink:href="#DejaVuSans-32"/>
       <use x="147.412109" xlink:href="#DejaVuSans-30"/>
       <use x="211.035156" xlink:href="#DejaVuSans-30"/>
      </g>
     </g>
    </g>
    <g id="ytick_2">
     <g id="line2d_4">
      <g>
       <use style="stroke:#000000;stroke-width:0.8;" x="66.063594" xlink:href="#m3c94423c92" y="117.386753"/>
      </g>
     </g>
     <g id="text_5">
      <!-- 0 -->
      <g transform="translate(50.792344 122.325738)scale(0.13 -0.13)">
       <use xlink:href="#DejaVuSans-30"/>
      </g>
     </g>
    </g>
    <g id="ytick_3">
     <g id="line2d_5">
      <g>
       <use style="stroke:#000000;stroke-width:0.8;" x="66.063594" xlink:href="#m3c94423c92" y="80.884589"/>
      </g>
     </g>
     <g id="text_6">
      <!-- 200 -->
      <g transform="translate(34.249844 85.823573)scale(0.13 -0.13)">
       <use xlink:href="#DejaVuSans-32"/>
       <use x="63.623047" xlink:href="#DejaVuSans-30"/>
       <use x="127.246094" xlink:href="#DejaVuSans-30"/>
      </g>
     </g>
    </g>
    <g id="ytick_4">
     <g id="line2d_6">
      <g>
       <use style="stroke:#000000;stroke-width:0.8;" x="66.063594" xlink:href="#m3c94423c92" y="44.382424"/>
      </g>
     </g>
     <g id="text_7">
      <!-- 400 -->
      <defs>
       <path d="M 37.796875 64.3125 
L 12.890625 25.390625 
L 37.796875 25.390625 
z
M 35.203125 72.90625 
L 47.609375 72.90625 
L 47.609375 25.390625 
L 58.015625 25.390625 
L 58.015625 17.1875 
L 47.609375 17.1875 
L 47.609375 0 
L 37.796875 0 
L 37.796875 17.1875 
L 4.890625 17.1875 
L 4.890625 26.703125 
z
" id="DejaVuSans-34"/>
      </defs>
      <g transform="translate(34.249844 49.321409)scale(0.13 -0.13)">
       <use xlink:href="#DejaVuSans-34"/>
       <use x="63.623047" xlink:href="#DejaVuSans-30"/>
       <use x="127.246094" xlink:href="#DejaVuSans-30"/>
      </g>
     </g>
    </g>
    <g id="ytick_5">
     <g id="line2d_7">
      <g>
       <use style="stroke:#000000;stroke-width:0.8;" x="66.063594" xlink:href="#m3c94423c92" y="7.88026"/>
      </g>
     </g>
     <g id="text_8">
      <!-- 600 -->
      <defs>
       <path d="M 33.015625 40.375 
Q 26.375 40.375 22.484375 35.828125 
Q 18.609375 31.296875 18.609375 23.390625 
Q 18.609375 15.53125 22.484375 10.953125 
Q 26.375 6.390625 33.015625 6.390625 
Q 39.65625 6.390625 43.53125 10.953125 
Q 47.40625 15.53125 47.40625 23.390625 
Q 47.40625 31.296875 43.53125 35.828125 
Q 39.65625 40.375 33.015625 40.375 
z
M 52.59375 71.296875 
L 52.59375 62.3125 
Q 48.875 64.0625 45.09375 64.984375 
Q 41.3125 65.921875 37.59375 65.921875 
Q 27.828125 65.921875 22.671875 59.328125 
Q 17.53125 52.734375 16.796875 39.40625 
Q 19.671875 43.65625 24.015625 45.921875 
Q 28.375 48.1875 33.59375 48.1875 
Q 44.578125 48.1875 50.953125 41.515625 
Q 57.328125 34.859375 57.328125 23.390625 
Q 57.328125 12.15625 50.6875 5.359375 
Q 44.046875 -1.421875 33.015625 -1.421875 
Q 20.359375 -1.421875 13.671875 8.265625 
Q 6.984375 17.96875 6.984375 36.375 
Q 6.984375 53.65625 15.1875 63.9375 
Q 23.390625 74.21875 37.203125 74.21875 
Q 40.921875 74.21875 44.703125 73.484375 
Q 48.484375 72.75 52.59375 71.296875 
z
" id="DejaVuSans-36"/>
      </defs>
      <g transform="translate(34.249844 12.819244)scale(0.13 -0.13)">
       <use xlink:href="#DejaVuSans-36"/>
       <use x="63.623047" xlink:href="#DejaVuSans-30"/>
       <use x="127.246094" xlink:href="#DejaVuSans-30"/>
      </g>
     </g>
    </g>
    <g id="text_9">
     <!-- $y-\hat y$ -->
     <defs>
      <path d="M 8.40625 -14.3125 
Q 10.5 -17.921875 15.71875 -17.921875 
Q 20.453125 -17.921875 23.921875 -14.59375 
Q 27.390625 -11.28125 29.515625 -6.5625 
Q 31.640625 -1.859375 32.8125 3.078125 
Q 28.375 -1.125 23.1875 -1.125 
Q 19.234375 -1.125 16.453125 0.234375 
Q 13.671875 1.609375 12.125 4.3125 
Q 10.59375 7.03125 10.59375 10.890625 
Q 10.59375 14.15625 11.46875 17.59375 
Q 12.359375 21.046875 13.9375 25.265625 
Q 15.53125 29.5 16.703125 32.625 
Q 18.015625 36.28125 18.015625 38.625 
Q 18.015625 41.609375 15.828125 41.609375 
Q 11.859375 41.609375 9.296875 37.53125 
Q 6.734375 33.453125 5.515625 28.421875 
Q 5.328125 27.78125 4.6875 27.78125 
L 3.515625 27.78125 
Q 2.6875 27.78125 2.6875 28.71875 
L 2.6875 29 
Q 4.296875 34.96875 7.609375 39.578125 
Q 10.9375 44.1875 16.015625 44.1875 
Q 19.578125 44.1875 22.046875 41.84375 
Q 24.515625 39.5 24.515625 35.890625 
Q 24.515625 34.03125 23.6875 31.984375 
Q 23.25 30.765625 21.6875 26.65625 
Q 20.125 22.5625 19.28125 19.875 
Q 18.453125 17.1875 17.921875 14.59375 
Q 17.390625 12.015625 17.390625 9.421875 
Q 17.390625 6.109375 18.796875 3.8125 
Q 20.21875 1.515625 23.296875 1.515625 
Q 29.5 1.515625 34.421875 9.078125 
L 42 39.890625 
Q 42.328125 41.21875 43.546875 42.15625 
Q 44.78125 43.109375 46.1875 43.109375 
Q 47.40625 43.109375 48.3125 42.328125 
Q 49.21875 41.546875 49.21875 40.28125 
Q 49.21875 39.703125 49.125 39.5 
L 39.203125 -0.296875 
Q 37.890625 -5.421875 34.375 -10.109375 
Q 30.859375 -14.796875 25.90625 -17.65625 
Q 20.953125 -20.515625 15.578125 -20.515625 
Q 12.984375 -20.515625 10.4375 -19.5 
Q 7.90625 -18.5 6.34375 -16.5 
Q 4.78125 -14.5 4.78125 -11.8125 
Q 4.78125 -9.078125 6.390625 -7.078125 
Q 8.015625 -5.078125 10.6875 -5.078125 
Q 12.3125 -5.078125 13.40625 -6.078125 
Q 14.5 -7.078125 14.5 -8.6875 
Q 14.5 -10.984375 12.78125 -12.6875 
Q 11.078125 -14.40625 8.796875 -14.40625 
Q 8.6875 -14.359375 8.59375 -14.328125 
Q 8.5 -14.3125 8.40625 -14.3125 
z
" id="Cmmi10-79"/>
      <path d="M 10.203125 23 
Q 9.375 23 8.828125 23.625 
Q 8.296875 24.265625 8.296875 25 
Q 8.296875 25.734375 8.828125 26.359375 
Q 9.375 27 10.203125 27 
L 67.578125 27 
Q 68.359375 27 68.875 26.359375 
Q 69.390625 25.734375 69.390625 25 
Q 69.390625 24.265625 68.875 23.625 
Q 68.359375 23 67.578125 23 
z
" id="Cmsy10-a1"/>
      <path d="M 13.484375 53.8125 
L 11.53125 55.90625 
L 25 69.390625 
L 38.375 55.90625 
L 36.375 53.8125 
L 25 63.8125 
z
" id="Cmr10-5e"/>
     </defs>
     <g transform="translate(15.15625 108.92)rotate(-90)scale(0.2 -0.2)">
      <use transform="translate(0 0.734375)" xlink:href="#Cmmi10-79"/>
      <use transform="translate(66.582031 0.734375)" xlink:href="#Cmsy10-a1"/>
      <use transform="translate(165.927734 3.609375)" xlink:href="#Cmr10-5e"/>
      <use transform="translate(161.826172 0.734375)" xlink:href="#Cmmi10-79"/>
     </g>
    </g>
   </g>
   <g id="line2d_8">
    <defs>
     <path d="M 0 2 
C 0.530406 2 1.03916 1.789267 1.414214 1.414214 
C 1.789267 1.03916 2 0.530406 2 0 
C 2 -0.530406 1.789267 -1.03916 1.414214 -1.414214 
C 1.03916 -1.789267 0.530406 -2 0 -2 
C -0.530406 -2 -1.03916 -1.789267 -1.414214 -1.414214 
C -1.789267 -1.03916 -2 -0.530406 -2 0 
C -2 0.530406 -1.789267 1.03916 -1.414214 1.414214 
C -1.03916 1.789267 -0.530406 2 0 2 
z
" id="mcf1b2504e3" style="stroke:#0072b2;"/>
    </defs>
    <g clip-path="url(#pa63c671ca9)">
     <use style="fill:#0072b2;stroke:#0072b2;" x="74.448423" xlink:href="#mcf1b2504e3" y="164.474545"/>
     <use style="fill:#0072b2;stroke:#0072b2;" x="116.372571" xlink:href="#mcf1b2504e3" y="157.174113"/>
     <use style="fill:#0072b2;stroke:#0072b2;" x="158.296719" xlink:href="#mcf1b2504e3" y="142.573247"/>
     <use style="fill:#0072b2;stroke:#0072b2;" x="200.220866" xlink:href="#mcf1b2504e3" y="111.546407"/>
     <use style="fill:#0072b2;stroke:#0072b2;" x="242.145014" xlink:href="#mcf1b2504e3" y="11.165455"/>
    </g>
   </g>
   <g id="line2d_9">
    <path clip-path="url(#pa63c671ca9)" d="M 66.063594 143.942078 
L 221.18294 143.942078 
" style="fill:none;stroke:#000000;stroke-dasharray:2.96,1.28;stroke-dashoffset:0;stroke-width:0.8;"/>
   </g>
   <g id="line2d_10">
    <path clip-path="url(#pa63c671ca9)" d="M 221.18294 11.165455 
L 250.529844 11.165455 
" style="fill:none;stroke:#000000;stroke-dasharray:2.96,1.28;stroke-dashoffset:0;stroke-width:0.8;"/>
   </g>
   <g id="line2d_11">
    <path clip-path="url(#pa63c671ca9)" d="M 221.18294 143.942078 
L 221.18294 11.165455 
" style="fill:none;stroke:#000000;stroke-dasharray:2.96,1.28;stroke-dashoffset:0;stroke-width:0.8;"/>
   </g>
   <g id="line2d_12">
    <path clip-path="url(#pa63c671ca9)" d="M 66.063594 117.386753 
L 250.529844 117.386753 
" style="fill:none;stroke:#000000;stroke-dasharray:0.8,1.32;stroke-dashoffset:0;stroke-width:0.8;"/>
   </g>
   <g id="patch_3">
    <path d="M 66.063594 172.14 
L 66.063594 3.5 
" style="fill:none;stroke:#000000;stroke-linecap:square;stroke-linejoin:miter;stroke-width:0.8;"/>
   </g>
   <g id="patch_4">
    <path d="M 250.529844 172.14 
L 250.529844 3.5 
" style="fill:none;stroke:#000000;stroke-linecap:square;stroke-linejoin:miter;stroke-width:0.8;"/>
   </g>
   <g id="patch_5">
    <path d="M 66.063594 172.14 
L 250.529844 172.14 
" style="fill:none;stroke:#000000;stroke-linecap:square;stroke-linejoin:miter;stroke-width:0.8;"/>
   </g>
   <g id="patch_6">
    <path d="M 66.063594 3.5 
L 250.529844 3.5 
" style="fill:none;stroke:#000000;stroke-linecap:square;stroke-linejoin:miter;stroke-width:0.8;"/>
   </g>
   <g id="legend_1">
    <g id="patch_7">
     <path d="M 77.263594 58.215 
L 161.743594 58.215 
Q 164.943594 58.215 164.943594 55.015 
L 164.943594 14.7 
Q 164.943594 11.5 161.743594 11.5 
L 77.263594 11.5 
Q 74.063594 11.5 74.063594 14.7 
L 74.063594 55.015 
Q 74.063594 58.215 77.263594 58.215 
z
" style="fill:#ffffff;opacity:0.8;stroke:#cccccc;stroke-linejoin:miter;"/>
    </g>
    <g id="line2d_13"/>
    <g id="line2d_14">
     <g>
      <use style="fill:#0072b2;stroke:#0072b2;" x="86.063594" xlink:href="#mcf1b2504e3" y="24.4575"/>
     </g>
    </g>
    <g id="text_10">
     <!-- $y-F_0({\bf x})$ -->
     <defs>
      <path d="M 4.6875 0 
Q 3.71875 0 3.71875 1.3125 
Q 3.765625 1.5625 3.90625 2.171875 
Q 4.046875 2.78125 4.3125 3.140625 
Q 4.59375 3.515625 4.984375 3.515625 
Q 11.078125 3.515625 13.484375 4.203125 
Q 14.796875 4.640625 15.375 6.890625 
L 29.109375 61.8125 
Q 29.296875 62.796875 29.296875 63.1875 
Q 29.296875 64.265625 28.078125 64.40625 
Q 26.21875 64.796875 20.90625 64.796875 
Q 19.921875 64.796875 19.921875 66.109375 
Q 19.96875 66.359375 20.109375 66.96875 
Q 20.265625 67.578125 20.53125 67.9375 
Q 20.796875 68.3125 21.1875 68.3125 
L 74.03125 68.3125 
Q 75 68.3125 75 67 
L 72.609375 46.296875 
Q 72.609375 46 72.265625 45.703125 
Q 71.921875 45.40625 71.578125 45.40625 
L 70.703125 45.40625 
Q 69.671875 45.40625 69.671875 46.6875 
Q 70.3125 51.21875 70.3125 54.109375 
Q 70.3125 59.078125 68.15625 61.421875 
Q 66.015625 63.765625 62.734375 64.28125 
Q 59.46875 64.796875 53.71875 64.796875 
L 43.015625 64.796875 
Q 40.28125 64.796875 39.40625 64.328125 
Q 38.53125 63.875 37.796875 61.375 
L 31.390625 35.890625 
L 38.921875 35.890625 
Q 42.625 35.890625 44.921875 36.28125 
Q 47.21875 36.671875 48.734375 37.796875 
Q 50.25 38.921875 51.25 41.046875 
Q 52.25 43.171875 53.078125 46.6875 
Q 53.375 47.609375 54.109375 47.609375 
L 54.984375 47.609375 
Q 56 47.609375 56 46.296875 
L 49.90625 21.578125 
Q 49.46875 20.703125 48.875 20.703125 
L 48 20.703125 
Q 47.015625 20.703125 47.015625 22.015625 
Q 47.265625 23.046875 47.40625 23.734375 
Q 47.5625 24.421875 47.78125 25.703125 
Q 48 27 48 27.984375 
Q 48 30.859375 45.453125 31.640625 
Q 42.921875 32.421875 38.8125 32.421875 
L 30.609375 32.421875 
L 24.125 6.5 
Q 23.875 5.515625 23.875 5.515625 
Q 23.875 4.34375 24.609375 4.203125 
Q 27.203125 3.515625 34.8125 3.515625 
Q 35.796875 3.515625 35.796875 2.203125 
Q 35.453125 0.78125 35.25 0.390625 
Q 35.0625 0 34.078125 0 
z
" id="Cmmi10-46"/>
      <path d="M 25 -2.203125 
Q 12.75 -2.203125 8.328125 7.875 
Q 3.90625 17.96875 3.90625 31.890625 
Q 3.90625 40.578125 5.484375 48.234375 
Q 7.078125 55.90625 11.78125 61.25 
Q 16.5 66.609375 25 66.609375 
Q 31.59375 66.609375 35.78125 63.375 
Q 39.984375 60.15625 42.1875 55.046875 
Q 44.390625 49.953125 45.1875 44.109375 
Q 46 38.28125 46 31.890625 
Q 46 23.296875 44.40625 15.796875 
Q 42.828125 8.296875 38.1875 3.046875 
Q 33.546875 -2.203125 25 -2.203125 
z
M 25 0.390625 
Q 30.5625 0.390625 33.296875 6.09375 
Q 36.03125 11.8125 36.671875 18.75 
Q 37.3125 25.6875 37.3125 33.5 
Q 37.3125 41.015625 36.671875 47.359375 
Q 36.03125 53.71875 33.3125 58.859375 
Q 30.609375 64.015625 25 64.015625 
Q 19.34375 64.015625 16.609375 58.828125 
Q 13.875 53.65625 13.234375 47.328125 
Q 12.59375 41.015625 12.59375 33.5 
Q 12.59375 27.9375 12.859375 23 
Q 13.140625 18.0625 14.3125 12.8125 
Q 15.484375 7.5625 18.09375 3.96875 
Q 20.703125 0.390625 25 0.390625 
z
" id="Cmr10-30"/>
      <path d="M 31 -24.8125 
Q 25.4375 -20.40625 21.40625 -14.71875 
Q 17.390625 -9.03125 14.8125 -2.578125 
Q 12.25 3.859375 10.984375 10.890625 
Q 9.71875 17.921875 9.71875 25 
Q 9.71875 32.171875 10.984375 39.203125 
Q 12.25 46.234375 14.859375 52.734375 
Q 17.484375 59.234375 21.53125 64.890625 
Q 25.59375 70.5625 31 74.8125 
Q 31 75 31.5 75 
L 32.421875 75 
Q 32.71875 75 32.953125 74.734375 
Q 33.203125 74.46875 33.203125 74.125 
Q 33.203125 73.6875 33.015625 73.484375 
Q 28.125 68.703125 24.875 63.234375 
Q 21.625 57.765625 19.640625 51.578125 
Q 17.671875 45.40625 16.796875 38.78125 
Q 15.921875 32.171875 15.921875 25 
Q 15.921875 -6.78125 32.90625 -23.296875 
Q 33.203125 -23.578125 33.203125 -24.125 
Q 33.203125 -24.359375 32.9375 -24.671875 
Q 32.671875 -25 32.421875 -25 
L 31.5 -25 
Q 31 -25 31 -24.8125 
z
" id="Cmr10-28"/>
      <path d="M 1.703125 0 
L 1.703125 5.078125 
Q 9.8125 5.078125 10.59375 6 
L 21.578125 21.09375 
L 9.1875 39.3125 
L 2.203125 39.3125 
L 2.203125 44.390625 
L 25.09375 44.390625 
L 25.09375 39.3125 
L 20.796875 39.3125 
L 27.59375 29.390625 
L 34.078125 38.484375 
Q 34.078125 38.921875 32.375 39.109375 
Q 30.671875 39.3125 29.5 39.3125 
L 29.5 44.390625 
L 49.3125 44.390625 
L 49.3125 39.3125 
Q 41.21875 39.3125 40.375 38.375 
L 30.609375 24.90625 
L 44 5.078125 
L 51.125 5.078125 
L 51.125 0 
L 28.078125 0 
L 28.078125 5.078125 
L 32.421875 5.078125 
L 24.609375 16.609375 
L 16.890625 5.90625 
Q 16.890625 5.5625 18.640625 5.3125 
Q 20.40625 5.078125 21.578125 5.078125 
L 21.578125 0 
z
" id="Cmb10-78"/>
      <path d="M 6.5 -25 
Q 5.609375 -25 5.609375 -24.125 
Q 5.609375 -23.6875 5.8125 -23.484375 
Q 22.90625 -6.78125 22.90625 25 
Q 22.90625 56.78125 6 73.296875 
Q 5.609375 73.53125 5.609375 74.125 
Q 5.609375 74.46875 5.875 74.734375 
Q 6.15625 75 6.5 75 
L 7.421875 75 
Q 7.71875 75 7.90625 74.8125 
Q 15.09375 69.140625 19.875 61.03125 
Q 24.65625 52.9375 26.875 43.75 
Q 29.109375 34.578125 29.109375 25 
Q 29.109375 17.921875 27.90625 11.0625 
Q 26.703125 4.203125 24.09375 -2.453125 
Q 21.484375 -9.125 17.484375 -14.765625 
Q 13.484375 -20.40625 7.90625 -24.8125 
Q 7.71875 -25 7.421875 -25 
z
" id="Cmr10-29"/>
     </defs>
     <g transform="translate(94.863594 30.0575)scale(0.16 -0.16)">
      <use xlink:href="#Cmmi10-79"/>
      <use transform="translate(66.582031 0)" xlink:href="#Cmsy10-a1"/>
      <use transform="translate(161.826172 0)" xlink:href="#Cmmi10-46"/>
      <use transform="translate(226.132812 -17.00625)scale(0.7)" xlink:href="#Cmr10-30"/>
      <use transform="translate(267.510156 0)" xlink:href="#Cmr10-28"/>
      <use transform="translate(306.328516 0)" xlink:href="#Cmb10-78"/>
      <use transform="translate(359.014063 0)" xlink:href="#Cmr10-29"/>
     </g>
    </g>
    <g id="line2d_15">
     <path d="M 80.463594 42.215 
L 91.663594 42.215 
" style="fill:none;stroke:#000000;stroke-dasharray:2.96,1.28;stroke-dashoffset:0;stroke-width:0.8;"/>
    </g>
    <g id="line2d_16"/>
    <g id="text_11">
     <!-- $\Delta_1({\bf x})$ -->
     <defs>
      <path d="M 5.421875 0 
Q 4.59375 0 4.59375 0.78125 
Q 4.640625 0.875 4.65625 0.921875 
Q 4.6875 0.984375 4.6875 1.125 
L 39.109375 70.515625 
Q 39.546875 71.578125 40.921875 71.578125 
L 42.28125 71.578125 
Q 43.65625 71.578125 44.09375 70.515625 
L 78.515625 1.125 
Q 78.5625 1.03125 78.578125 0.953125 
Q 78.609375 0.875 78.609375 0.78125 
Q 78.609375 0 77.78125 0 
z
M 12.015625 8.015625 
L 64.703125 8.015625 
L 38.375 61.078125 
z
" id="Cmr10-a2"/>
      <path d="M 9.28125 0 
L 9.28125 3.515625 
Q 21.78125 3.515625 21.78125 6.6875 
L 21.78125 59.1875 
Q 16.609375 56.6875 8.6875 56.6875 
L 8.6875 60.203125 
Q 20.953125 60.203125 27.203125 66.609375 
L 28.609375 66.609375 
Q 28.953125 66.609375 29.265625 66.328125 
Q 29.59375 66.0625 29.59375 65.71875 
L 29.59375 6.6875 
Q 29.59375 3.515625 42.09375 3.515625 
L 42.09375 0 
z
" id="Cmr10-31"/>
     </defs>
     <g transform="translate(94.863594 47.815)scale(0.16 -0.16)">
      <use xlink:href="#Cmr10-a2"/>
      <use transform="translate(87.764922 -17.00625)scale(0.7)" xlink:href="#Cmr10-31"/>
      <use transform="translate(129.142266 0)" xlink:href="#Cmr10-28"/>
      <use transform="translate(167.960625 0)" xlink:href="#Cmb10-78"/>
      <use transform="translate(220.646172 0)" xlink:href="#Cmr10-29"/>
     </g>
    </g>
   </g>
  </g>
  <g id="axes_2">
   <g id="patch_8">
    <path d="M 277.169844 172.14 
L 461.636094 172.14 
L 461.636094 3.5 
L 277.169844 3.5 
z
" style="fill:#ffffff;"/>
   </g>
   <g id="matplotlib.axis_3">
    <g id="xtick_3">
     <g id="line2d_17">
      <g>
       <use style="stroke:#000000;stroke-width:0.8;" x="327.478821" xlink:href="#m519a0c7e0d" y="172.14"/>
      </g>
     </g>
     <g id="text_12">
      <!-- 800 -->
      <g transform="translate(315.071946 189.017969)scale(0.13 -0.13)">
       <use xlink:href="#DejaVuSans-38"/>
       <use x="63.623047" xlink:href="#DejaVuSans-30"/>
       <use x="127.246094" xlink:href="#DejaVuSans-30"/>
      </g>
     </g>
    </g>
    <g id="xtick_4">
     <g id="line2d_18">
      <g>
       <use style="stroke:#000000;stroke-width:0.8;" x="411.327116" xlink:href="#m519a0c7e0d" y="172.14"/>
      </g>
     </g>
     <g id="text_13">
      <!-- 900 -->
      <g transform="translate(398.920241 189.017969)scale(0.13 -0.13)">
       <use xlink:href="#DejaVuSans-39"/>
       <use x="63.623047" xlink:href="#DejaVuSans-30"/>
       <use x="127.246094" xlink:href="#DejaVuSans-30"/>
      </g>
     </g>
    </g>
    <g id="text_14">
     <!-- SqFeet -->
     <g transform="translate(345.135938 206.359375)scale(0.14 -0.14)">
      <use xlink:href="#DejaVuSans-53"/>
      <use x="63.476562" xlink:href="#DejaVuSans-71"/>
      <use x="126.953125" xlink:href="#DejaVuSans-46"/>
      <use x="184.394531" xlink:href="#DejaVuSans-65"/>
      <use x="245.917969" xlink:href="#DejaVuSans-65"/>
      <use x="307.441406" xlink:href="#DejaVuSans-74"/>
     </g>
    </g>
   </g>
   <g id="matplotlib.axis_4">
    <g id="ytick_6">
     <g id="line2d_19">
      <g>
       <use style="stroke:#000000;stroke-width:0.8;" x="277.169844" xlink:href="#m3c94423c92" y="153.888918"/>
      </g>
     </g>
    </g>
    <g id="ytick_7">
     <g id="line2d_20">
      <g>
       <use style="stroke:#000000;stroke-width:0.8;" x="277.169844" xlink:href="#m3c94423c92" y="117.386753"/>
      </g>
     </g>
    </g>
    <g id="ytick_8">
     <g id="line2d_21">
      <g>
       <use style="stroke:#000000;stroke-width:0.8;" x="277.169844" xlink:href="#m3c94423c92" y="80.884589"/>
      </g>
     </g>
    </g>
    <g id="ytick_9">
     <g id="line2d_22">
      <g>
       <use style="stroke:#000000;stroke-width:0.8;" x="277.169844" xlink:href="#m3c94423c92" y="44.382424"/>
      </g>
     </g>
    </g>
    <g id="ytick_10">
     <g id="line2d_23">
      <g>
       <use style="stroke:#000000;stroke-width:0.8;" x="277.169844" xlink:href="#m3c94423c92" y="7.88026"/>
      </g>
     </g>
    </g>
   </g>
   <g id="line2d_24">
    <g clip-path="url(#p2ac9d26fe9)">
     <use style="fill:#0072b2;stroke:#0072b2;" x="285.554673" xlink:href="#mcf1b2504e3" y="137.919221"/>
     <use style="fill:#0072b2;stroke:#0072b2;" x="327.478821" xlink:href="#mcf1b2504e3" y="130.618788"/>
     <use style="fill:#0072b2;stroke:#0072b2;" x="369.402969" xlink:href="#mcf1b2504e3" y="116.017922"/>
     <use style="fill:#0072b2;stroke:#0072b2;" x="411.327116" xlink:href="#mcf1b2504e3" y="84.991082"/>
     <use style="fill:#0072b2;stroke:#0072b2;" x="453.251264" xlink:href="#mcf1b2504e3" y="117.386753"/>
    </g>
   </g>
   <g id="line2d_25">
    <path clip-path="url(#p2ac9d26fe9)" d="M 277.169844 134.269004 
L 348.440895 134.269004 
" style="fill:none;stroke:#000000;stroke-dasharray:2.96,1.28;stroke-dashoffset:0;stroke-width:0.8;"/>
   </g>
   <g id="line2d_26">
    <path clip-path="url(#p2ac9d26fe9)" d="M 348.440895 106.131919 
L 461.636094 106.131919 
" style="fill:none;stroke:#000000;stroke-dasharray:2.96,1.28;stroke-dashoffset:0;stroke-width:0.8;"/>
   </g>
   <g id="line2d_27">
    <path clip-path="url(#p2ac9d26fe9)" d="M 348.440895 134.269004 
L 348.440895 106.131919 
" style="fill:none;stroke:#000000;stroke-dasharray:2.96,1.28;stroke-dashoffset:0;stroke-width:0.8;"/>
   </g>
   <g id="line2d_28">
    <path clip-path="url(#p2ac9d26fe9)" d="M 277.169844 117.386753 
L 461.636094 117.386753 
" style="fill:none;stroke:#000000;stroke-dasharray:0.8,1.32;stroke-dashoffset:0;stroke-width:0.8;"/>
   </g>
   <g id="patch_9">
    <path d="M 277.169844 172.14 
L 277.169844 3.5 
" style="fill:none;stroke:#000000;stroke-linecap:square;stroke-linejoin:miter;stroke-width:0.8;"/>
   </g>
   <g id="patch_10">
    <path d="M 461.636094 172.14 
L 461.636094 3.5 
" style="fill:none;stroke:#000000;stroke-linecap:square;stroke-linejoin:miter;stroke-width:0.8;"/>
   </g>
   <g id="patch_11">
    <path d="M 277.169844 172.14 
L 461.636094 172.14 
" style="fill:none;stroke:#000000;stroke-linecap:square;stroke-linejoin:miter;stroke-width:0.8;"/>
   </g>
   <g id="patch_12">
    <path d="M 277.169844 3.5 
L 461.636094 3.5 
" style="fill:none;stroke:#000000;stroke-linecap:square;stroke-linejoin:miter;stroke-width:0.8;"/>
   </g>
   <g id="legend_2">
    <g id="patch_13">
     <path d="M 288.369844 58.215 
L 372.849844 58.215 
Q 376.049844 58.215 376.049844 55.015 
L 376.049844 14.7 
Q 376.049844 11.5 372.849844 11.5 
L 288.369844 11.5 
Q 285.169844 11.5 285.169844 14.7 
L 285.169844 55.015 
Q 285.169844 58.215 288.369844 58.215 
z
" style="fill:#ffffff;opacity:0.8;stroke:#cccccc;stroke-linejoin:miter;"/>
    </g>
    <g id="line2d_29"/>
    <g id="line2d_30">
     <g>
      <use style="fill:#0072b2;stroke:#0072b2;" x="297.169844" xlink:href="#mcf1b2504e3" y="24.4575"/>
     </g>
    </g>
    <g id="text_15">
     <!-- $y-F_1({\bf x})$ -->
     <g transform="translate(305.969844 30.0575)scale(0.16 -0.16)">
      <use xlink:href="#Cmmi10-79"/>
      <use transform="translate(66.582031 0)" xlink:href="#Cmsy10-a1"/>
      <use transform="translate(161.826172 0)" xlink:href="#Cmmi10-46"/>
      <use transform="translate(226.132812 -17.00625)scale(0.7)" xlink:href="#Cmr10-31"/>
      <use transform="translate(267.510156 0)" xlink:href="#Cmr10-28"/>
      <use transform="translate(306.328516 0)" xlink:href="#Cmb10-78"/>
      <use transform="translate(359.014063 0)" xlink:href="#Cmr10-29"/>
     </g>
    </g>
    <g id="line2d_31">
     <path d="M 291.569844 42.215 
L 302.769844 42.215 
" style="fill:none;stroke:#000000;stroke-dasharray:2.96,1.28;stroke-dashoffset:0;stroke-width:0.8;"/>
    </g>
    <g id="line2d_32"/>
    <g id="text_16">
     <!-- $\Delta_2({\bf x})$ -->
     <defs>
      <path d="M 4.984375 0 
L 4.984375 2.6875 
Q 4.984375 2.9375 5.171875 3.21875 
L 20.703125 20.40625 
Q 24.21875 24.21875 26.40625 26.796875 
Q 28.609375 29.390625 30.75 32.765625 
Q 32.90625 36.140625 34.15625 39.625 
Q 35.40625 43.109375 35.40625 47.015625 
Q 35.40625 51.125 33.890625 54.859375 
Q 32.375 58.59375 29.375 60.84375 
Q 26.375 63.09375 22.125 63.09375 
Q 17.78125 63.09375 14.3125 60.46875 
Q 10.84375 57.859375 9.421875 53.71875 
Q 9.8125 53.8125 10.5 53.8125 
Q 12.75 53.8125 14.328125 52.296875 
Q 15.921875 50.78125 15.921875 48.390625 
Q 15.921875 46.09375 14.328125 44.5 
Q 12.75 42.921875 10.5 42.921875 
Q 8.15625 42.921875 6.5625 44.546875 
Q 4.984375 46.1875 4.984375 48.390625 
Q 4.984375 52.15625 6.390625 55.4375 
Q 7.8125 58.734375 10.46875 61.296875 
Q 13.140625 63.875 16.484375 65.234375 
Q 19.828125 66.609375 23.578125 66.609375 
Q 29.296875 66.609375 34.21875 64.1875 
Q 39.15625 61.765625 42.03125 57.34375 
Q 44.921875 52.9375 44.921875 47.015625 
Q 44.921875 42.671875 43.015625 38.765625 
Q 41.109375 34.859375 38.125 31.65625 
Q 35.15625 28.46875 30.515625 24.40625 
Q 25.875 20.359375 24.421875 19 
L 13.09375 8.109375 
L 22.703125 8.109375 
Q 29.78125 8.109375 34.546875 8.21875 
Q 39.3125 8.34375 39.59375 8.59375 
Q 40.765625 9.859375 42 17.828125 
L 44.921875 17.828125 
L 42.09375 0 
z
" id="Cmr10-32"/>
     </defs>
     <g transform="translate(305.969844 47.815)scale(0.16 -0.16)">
      <use xlink:href="#Cmr10-a2"/>
      <use transform="translate(87.764922 -17.00625)scale(0.7)" xlink:href="#Cmr10-32"/>
      <use transform="translate(129.142266 0)" xlink:href="#Cmr10-28"/>
      <use transform="translate(167.960625 0)" xlink:href="#Cmb10-78"/>
      <use transform="translate(220.646172 0)" xlink:href="#Cmr10-29"/>
     </g>
    </g>
   </g>
  </g>
  <g id="axes_3">
   <g id="patch_14">
    <path d="M 488.276094 172.14 
L 672.742344 172.14 
L 672.742344 3.5 
L 488.276094 3.5 
z
" style="fill:#ffffff;"/>
   </g>
   <g id="matplotlib.axis_5">
    <g id="xtick_5">
     <g id="line2d_33">
      <g>
       <use style="stroke:#000000;stroke-width:0.8;" x="538.585071" xlink:href="#m519a0c7e0d" y="172.14"/>
      </g>
     </g>
     <g id="text_17">
      <!-- 800 -->
      <g transform="translate(526.178196 189.017969)scale(0.13 -0.13)">
       <use xlink:href="#DejaVuSans-38"/>
       <use x="63.623047" xlink:href="#DejaVuSans-30"/>
       <use x="127.246094" xlink:href="#DejaVuSans-30"/>
      </g>
     </g>
    </g>
    <g id="xtick_6">
     <g id="line2d_34">
      <g>
       <use style="stroke:#000000;stroke-width:0.8;" x="622.433366" xlink:href="#m519a0c7e0d" y="172.14"/>
      </g>
     </g>
     <g id="text_18">
      <!-- 900 -->
      <g transform="translate(610.026491 189.017969)scale(0.13 -0.13)">
       <use xlink:href="#DejaVuSans-39"/>
       <use x="63.623047" xlink:href="#DejaVuSans-30"/>
       <use x="127.246094" xlink:href="#DejaVuSans-30"/>
      </g>
     </g>
    </g>
    <g id="text_19">
     <!-- SqFeet -->
     <g transform="translate(556.242188 206.359375)scale(0.14 -0.14)">
      <use xlink:href="#DejaVuSans-53"/>
      <use x="63.476562" xlink:href="#DejaVuSans-71"/>
      <use x="126.953125" xlink:href="#DejaVuSans-46"/>
      <use x="184.394531" xlink:href="#DejaVuSans-65"/>
      <use x="245.917969" xlink:href="#DejaVuSans-65"/>
      <use x="307.441406" xlink:href="#DejaVuSans-74"/>
     </g>
    </g>
   </g>
   <g id="matplotlib.axis_6">
    <g id="ytick_11">
     <g id="line2d_35">
      <g>
       <use style="stroke:#000000;stroke-width:0.8;" x="488.276094" xlink:href="#m3c94423c92" y="153.888918"/>
      </g>
     </g>
    </g>
    <g id="ytick_12">
     <g id="line2d_36">
      <g>
       <use style="stroke:#000000;stroke-width:0.8;" x="488.276094" xlink:href="#m3c94423c92" y="117.386753"/>
      </g>
     </g>
    </g>
    <g id="ytick_13">
     <g id="line2d_37">
      <g>
       <use style="stroke:#000000;stroke-width:0.8;" x="488.276094" xlink:href="#m3c94423c92" y="80.884589"/>
      </g>
     </g>
    </g>
    <g id="ytick_14">
     <g id="line2d_38">
      <g>
       <use style="stroke:#000000;stroke-width:0.8;" x="488.276094" xlink:href="#m3c94423c92" y="44.382424"/>
      </g>
     </g>
    </g>
    <g id="ytick_15">
     <g id="line2d_39">
      <g>
       <use style="stroke:#000000;stroke-width:0.8;" x="488.276094" xlink:href="#m3c94423c92" y="7.88026"/>
      </g>
     </g>
    </g>
   </g>
   <g id="line2d_40">
    <g clip-path="url(#p91728cb255)">
     <use style="fill:#0072b2;stroke:#0072b2;" x="496.660923" xlink:href="#mcf1b2504e3" y="121.03697"/>
     <use style="fill:#0072b2;stroke:#0072b2;" x="538.585071" xlink:href="#mcf1b2504e3" y="113.736537"/>
     <use style="fill:#0072b2;stroke:#0072b2;" x="580.509219" xlink:href="#mcf1b2504e3" y="127.272756"/>
     <use style="fill:#0072b2;stroke:#0072b2;" x="622.433366" xlink:href="#mcf1b2504e3" y="96.245916"/>
     <use style="fill:#0072b2;stroke:#0072b2;" x="664.357514" xlink:href="#mcf1b2504e3" y="128.641587"/>
    </g>
   </g>
   <g id="line2d_41">
    <path clip-path="url(#p91728cb255)" d="M 488.276094 114.573045 
L 643.39544 114.573045 
" style="fill:none;stroke:#000000;stroke-dasharray:2.96,1.28;stroke-dashoffset:0;stroke-width:0.8;"/>
   </g>
   <g id="line2d_42">
    <path clip-path="url(#p91728cb255)" d="M 643.39544 128.641587 
L 672.742344 128.641587 
" style="fill:none;stroke:#000000;stroke-dasharray:2.96,1.28;stroke-dashoffset:0;stroke-width:0.8;"/>
   </g>
   <g id="line2d_43">
    <path clip-path="url(#p91728cb255)" d="M 643.39544 114.573045 
L 643.39544 128.641587 
" style="fill:none;stroke:#000000;stroke-dasharray:2.96,1.28;stroke-dashoffset:0;stroke-width:0.8;"/>
   </g>
   <g id="line2d_44">
    <path clip-path="url(#p91728cb255)" d="M 488.276094 117.386753 
L 672.742344 117.386753 
" style="fill:none;stroke:#000000;stroke-dasharray:0.8,1.32;stroke-dashoffset:0;stroke-width:0.8;"/>
   </g>
   <g id="patch_15">
    <path d="M 488.276094 172.14 
L 488.276094 3.5 
" style="fill:none;stroke:#000000;stroke-linecap:square;stroke-linejoin:miter;stroke-width:0.8;"/>
   </g>
   <g id="patch_16">
    <path d="M 672.742344 172.14 
L 672.742344 3.5 
" style="fill:none;stroke:#000000;stroke-linecap:square;stroke-linejoin:miter;stroke-width:0.8;"/>
   </g>
   <g id="patch_17">
    <path d="M 488.276094 172.14 
L 672.742344 172.14 
" style="fill:none;stroke:#000000;stroke-linecap:square;stroke-linejoin:miter;stroke-width:0.8;"/>
   </g>
   <g id="patch_18">
    <path d="M 488.276094 3.5 
L 672.742344 3.5 
" style="fill:none;stroke:#000000;stroke-linecap:square;stroke-linejoin:miter;stroke-width:0.8;"/>
   </g>
   <g id="legend_3">
    <g id="patch_19">
     <path d="M 499.476094 58.215 
L 583.956094 58.215 
Q 587.156094 58.215 587.156094 55.015 
L 587.156094 14.7 
Q 587.156094 11.5 583.956094 11.5 
L 499.476094 11.5 
Q 496.276094 11.5 496.276094 14.7 
L 496.276094 55.015 
Q 496.276094 58.215 499.476094 58.215 
z
" style="fill:#ffffff;opacity:0.8;stroke:#cccccc;stroke-linejoin:miter;"/>
    </g>
    <g id="line2d_45"/>
    <g id="line2d_46">
     <g>
      <use style="fill:#0072b2;stroke:#0072b2;" x="508.276094" xlink:href="#mcf1b2504e3" y="24.4575"/>
     </g>
    </g>
    <g id="text_20">
     <!-- $y-F_2({\bf x})$ -->
     <g transform="translate(517.076094 30.0575)scale(0.16 -0.16)">
      <use xlink:href="#Cmmi10-79"/>
      <use transform="translate(66.582031 0)" xlink:href="#Cmsy10-a1"/>
      <use transform="translate(161.826172 0)" xlink:href="#Cmmi10-46"/>
      <use transform="translate(226.132812 -17.00625)scale(0.7)" xlink:href="#Cmr10-32"/>
      <use transform="translate(267.510156 0)" xlink:href="#Cmr10-28"/>
      <use transform="translate(306.328516 0)" xlink:href="#Cmb10-78"/>
      <use transform="translate(359.014063 0)" xlink:href="#Cmr10-29"/>
     </g>
    </g>
    <g id="line2d_47">
     <path d="M 502.676094 42.215 
L 513.876094 42.215 
" style="fill:none;stroke:#000000;stroke-dasharray:2.96,1.28;stroke-dashoffset:0;stroke-width:0.8;"/>
    </g>
    <g id="line2d_48"/>
    <g id="text_21">
     <!-- $\Delta_3({\bf x})$ -->
     <defs>
      <path d="M 9.515625 7.71875 
Q 11.859375 4.296875 15.8125 2.640625 
Q 19.78125 0.984375 24.3125 0.984375 
Q 30.125 0.984375 32.5625 5.9375 
Q 35.015625 10.890625 35.015625 17.1875 
Q 35.015625 20.015625 34.5 22.84375 
Q 33.984375 25.6875 32.765625 28.125 
Q 31.546875 30.5625 29.421875 32.03125 
Q 27.296875 33.5 24.21875 33.5 
L 17.578125 33.5 
Q 16.703125 33.5 16.703125 34.421875 
L 16.703125 35.296875 
Q 16.703125 36.078125 17.578125 36.078125 
L 23.09375 36.53125 
Q 26.609375 36.53125 28.921875 39.15625 
Q 31.25 41.796875 32.328125 45.578125 
Q 33.40625 49.359375 33.40625 52.78125 
Q 33.40625 57.5625 31.15625 60.640625 
Q 28.90625 63.71875 24.3125 63.71875 
Q 20.515625 63.71875 17.046875 62.28125 
Q 13.578125 60.84375 11.53125 57.90625 
Q 11.71875 57.953125 11.859375 57.984375 
Q 12.015625 58.015625 12.203125 58.015625 
Q 14.453125 58.015625 15.96875 56.453125 
Q 17.484375 54.890625 17.484375 52.6875 
Q 17.484375 50.53125 15.96875 48.96875 
Q 14.453125 47.40625 12.203125 47.40625 
Q 10.015625 47.40625 8.453125 48.96875 
Q 6.890625 50.53125 6.890625 52.6875 
Q 6.890625 56.984375 9.46875 60.15625 
Q 12.0625 63.328125 16.140625 64.96875 
Q 20.21875 66.609375 24.3125 66.609375 
Q 27.34375 66.609375 30.703125 65.703125 
Q 34.078125 64.796875 36.8125 63.109375 
Q 39.546875 61.421875 41.28125 58.78125 
Q 43.015625 56.15625 43.015625 52.78125 
Q 43.015625 48.578125 41.140625 45.015625 
Q 39.265625 41.453125 35.984375 38.859375 
Q 32.71875 36.28125 28.8125 35.015625 
Q 33.15625 34.1875 37.0625 31.734375 
Q 40.96875 29.296875 43.328125 25.484375 
Q 45.703125 21.6875 45.703125 17.28125 
Q 45.703125 11.765625 42.671875 7.296875 
Q 39.65625 2.828125 34.71875 0.3125 
Q 29.78125 -2.203125 24.3125 -2.203125 
Q 19.625 -2.203125 14.90625 -0.40625 
Q 10.203125 1.375 7.203125 4.9375 
Q 4.203125 8.5 4.203125 13.484375 
Q 4.203125 15.96875 5.859375 17.625 
Q 7.515625 19.28125 10.015625 19.28125 
Q 11.625 19.28125 12.96875 18.53125 
Q 14.3125 17.78125 15.0625 16.40625 
Q 15.828125 15.046875 15.828125 13.484375 
Q 15.828125 11.03125 14.109375 9.375 
Q 12.40625 7.71875 10.015625 7.71875 
z
" id="Cmr10-33"/>
     </defs>
     <g transform="translate(517.076094 47.815)scale(0.16 -0.16)">
      <use xlink:href="#Cmr10-a2"/>
      <use transform="translate(87.764922 -17.00625)scale(0.7)" xlink:href="#Cmr10-33"/>
      <use transform="translate(129.142266 0)" xlink:href="#Cmr10-28"/>
      <use transform="translate(167.960625 0)" xlink:href="#Cmb10-78"/>
      <use transform="translate(220.646172 0)" xlink:href="#Cmr10-29"/>
     </g>
    </g>
   </g>
  </g>
 </g>
 <defs>
  <clipPath id="pa63c671ca9">
   <rect height="168.64" width="184.46625" x="66.063594" y="3.5"/>
  </clipPath>
  <clipPath id="p2ac9d26fe9">
   <rect height="168.64" width="184.46625" x="277.169844" y="3.5"/>
  </clipPath>
  <clipPath id="p91728cb255">
   <rect height="168.64" width="184.46625" x="488.276094" y="3.5"/>
  </clipPath>
 </defs>
</svg>
