<?xml version="1.0" encoding="utf-8" standalone="no"?>
<!DOCTYPE svg PUBLIC "-//W3C//DTD SVG 1.1//EN"
  "http://www.w3.org/Graphics/SVG/1.1/DTD/svg11.dtd">
<!-- Created with matplotlib (https://matplotlib.org/) -->
<svg height="273.6pt" version="1.1" viewBox="0 0 273.6 273.6" width="273.6pt" xmlns="http://www.w3.org/2000/svg" xmlns:xlink="http://www.w3.org/1999/xlink">
 <defs>
  <style type="text/css">
*{stroke-linecap:butt;stroke-linejoin:round;}
  </style>
 </defs>
 <g id="figure_1">
  <g id="patch_1">
   <path d="M 0 273.6 
L 273.6 273.6 
L 273.6 0 
L 0 0 
z
" style="fill:#ffffff;"/>
  </g>
  <g id="axes_1">
   <g id="patch_2">
    <path d="M 42.54 232.04 
L 256.455 232.04 
L 256.455 25.44 
L 42.54 25.44 
z
" style="fill:#ffffff;"/>
   </g>
   <g id="PathCollection_1">
    <defs>
     <path d="M 0 4.743416 
C 1.257969 4.743416 2.464584 4.24362 3.354102 3.354102 
C 4.24362 2.464584 4.743416 1.257969 4.743416 0 
C 4.743416 -1.257969 4.24362 -2.464584 3.354102 -3.354102 
C 2.464584 -4.24362 1.257969 -4.743416 0 -4.743416 
C -1.257969 -4.743416 -2.464584 -4.24362 -3.354102 -3.354102 
C -4.24362 -2.464584 -4.743416 -1.257969 -4.743416 0 
C -4.743416 1.257969 -4.24362 2.464584 -3.354102 3.354102 
C -2.464584 4.24362 -1.257969 4.743416 0 4.743416 
z
" id="m4a4e4544d4" style="stroke:#000000;"/>
    </defs>
    <g clip-path="url(#pe68a69fbb6)">
     <use style="stroke:#000000;" x="209.289863" xlink:href="#m4a4e4544d4" y="227.302023"/>
    </g>
   </g>
   <g id="PathCollection_2">
    <defs>
     <path d="M 0 4.743416 
C 1.257969 4.743416 2.464584 4.24362 3.354102 3.354102 
C 4.24362 2.464584 4.743416 1.257969 4.743416 0 
C 4.743416 -1.257969 4.24362 -2.464584 3.354102 -3.354102 
C 2.464584 -4.24362 1.257969 -4.743416 0 -4.743416 
C -1.257969 -4.743416 -2.464584 -4.24362 -3.354102 -3.354102 
C -4.24362 -2.464584 -4.743416 -1.257969 -4.743416 0 
C -4.743416 1.257969 -4.24362 2.464584 -3.354102 3.354102 
C -2.464584 4.24362 -1.257969 4.743416 0 4.743416 
z
" id="mfb2e4974b9" style="stroke:#d73028;"/>
    </defs>
    <g clip-path="url(#pe68a69fbb6)">
     <use style="fill:#d73028;stroke:#d73028;" x="143.960972" xlink:href="#mfb2e4974b9" y="148.696028"/>
    </g>
   </g>
   <g id="matplotlib.axis_1">
    <g id="xtick_1">
     <g id="line2d_1">
      <defs>
       <path d="M 0 0 
L 0 3.5 
" id="mc0568cfd0e" style="stroke:#000000;stroke-width:0.8;"/>
      </defs>
      <g>
       <use style="stroke:#000000;stroke-width:0.8;" x="42.54" xlink:href="#mc0568cfd0e" y="232.04"/>
      </g>
     </g>
     <g id="text_1">
      <!-- −10 -->
      <defs>
       <path d="M 10.59375 35.5 
L 73.1875 35.5 
L 73.1875 27.203125 
L 10.59375 27.203125 
z
" id="DejaVuSans-8722"/>
       <path d="M 12.40625 8.296875 
L 28.515625 8.296875 
L 28.515625 63.921875 
L 10.984375 60.40625 
L 10.984375 69.390625 
L 28.421875 72.90625 
L 38.28125 72.90625 
L 38.28125 8.296875 
L 54.390625 8.296875 
L 54.390625 0 
L 12.40625 0 
z
" id="DejaVuSans-49"/>
       <path d="M 31.78125 66.40625 
Q 24.171875 66.40625 20.328125 58.90625 
Q 16.5 51.421875 16.5 36.375 
Q 16.5 21.390625 20.328125 13.890625 
Q 24.171875 6.390625 31.78125 6.390625 
Q 39.453125 6.390625 43.28125 13.890625 
Q 47.125 21.390625 47.125 36.375 
Q 47.125 51.421875 43.28125 58.90625 
Q 39.453125 66.40625 31.78125 66.40625 
z
M 31.78125 74.21875 
Q 44.046875 74.21875 50.515625 64.515625 
Q 56.984375 54.828125 56.984375 36.375 
Q 56.984375 17.96875 50.515625 8.265625 
Q 44.046875 -1.421875 31.78125 -1.421875 
Q 19.53125 -1.421875 13.0625 8.265625 
Q 6.59375 17.96875 6.59375 36.375 
Q 6.59375 54.828125 13.0625 64.515625 
Q 19.53125 74.21875 31.78125 74.21875 
z
" id="DejaVuSans-48"/>
      </defs>
      <g transform="translate(31.987656 246.638437)scale(0.1 -0.1)">
       <use xlink:href="#DejaVuSans-8722"/>
       <use x="83.789062" xlink:href="#DejaVuSans-49"/>
       <use x="147.412109" xlink:href="#DejaVuSans-48"/>
      </g>
     </g>
    </g>
    <g id="xtick_2">
     <g id="line2d_2">
      <g>
       <use style="stroke:#000000;stroke-width:0.8;" x="96.01875" xlink:href="#mc0568cfd0e" y="232.04"/>
      </g>
     </g>
     <g id="text_2">
      <!-- −5 -->
      <defs>
       <path d="M 10.796875 72.90625 
L 49.515625 72.90625 
L 49.515625 64.59375 
L 19.828125 64.59375 
L 19.828125 46.734375 
Q 21.96875 47.46875 24.109375 47.828125 
Q 26.265625 48.1875 28.421875 48.1875 
Q 40.625 48.1875 47.75 41.5 
Q 54.890625 34.8125 54.890625 23.390625 
Q 54.890625 11.625 47.5625 5.09375 
Q 40.234375 -1.421875 26.90625 -1.421875 
Q 22.3125 -1.421875 17.546875 -0.640625 
Q 12.796875 0.140625 7.71875 1.703125 
L 7.71875 11.625 
Q 12.109375 9.234375 16.796875 8.0625 
Q 21.484375 6.890625 26.703125 6.890625 
Q 35.15625 6.890625 40.078125 11.328125 
Q 45.015625 15.765625 45.015625 23.390625 
Q 45.015625 31 40.078125 35.4375 
Q 35.15625 39.890625 26.703125 39.890625 
Q 22.75 39.890625 18.8125 39.015625 
Q 14.890625 38.140625 10.796875 36.28125 
z
" id="DejaVuSans-53"/>
      </defs>
      <g transform="translate(88.647656 246.638437)scale(0.1 -0.1)">
       <use xlink:href="#DejaVuSans-8722"/>
       <use x="83.789062" xlink:href="#DejaVuSans-53"/>
      </g>
     </g>
    </g>
    <g id="xtick_3">
     <g id="line2d_3">
      <g>
       <use style="stroke:#000000;stroke-width:0.8;" x="149.4975" xlink:href="#mc0568cfd0e" y="232.04"/>
      </g>
     </g>
     <g id="text_3">
      <!-- 0 -->
      <g transform="translate(146.31625 246.638437)scale(0.1 -0.1)">
       <use xlink:href="#DejaVuSans-48"/>
      </g>
     </g>
    </g>
    <g id="xtick_4">
     <g id="line2d_4">
      <g>
       <use style="stroke:#000000;stroke-width:0.8;" x="202.97625" xlink:href="#mc0568cfd0e" y="232.04"/>
      </g>
     </g>
     <g id="text_4">
      <!-- 5 -->
      <g transform="translate(199.795 246.638437)scale(0.1 -0.1)">
       <use xlink:href="#DejaVuSans-53"/>
      </g>
     </g>
    </g>
    <g id="xtick_5">
     <g id="line2d_5">
      <g>
       <use style="stroke:#000000;stroke-width:0.8;" x="256.455" xlink:href="#mc0568cfd0e" y="232.04"/>
      </g>
     </g>
     <g id="text_5">
      <!-- 10 -->
      <g transform="translate(250.0925 246.638437)scale(0.1 -0.1)">
       <use xlink:href="#DejaVuSans-49"/>
       <use x="63.623047" xlink:href="#DejaVuSans-48"/>
      </g>
     </g>
    </g>
    <g id="text_6">
     <!-- $\beta_1$ -->
     <defs>
      <path d="M 13.625 3.375 
L 8.9375 -20.796875 
L -0.09375 -20.796875 
L 14.5 54.34375 
Q 18.84375 76.609375 39.65625 76.609375 
Q 60.75 76.609375 57.171875 57.8125 
Q 54.734375 44.4375 45.21875 39.546875 
Q 58.015625 35.15625 55.515625 22.125 
Q 51.125 -1.078125 27.484375 -1.03125 
Q 17.140625 -0.984375 13.625 3.375 
z
M 15.921875 15.09375 
Q 19.671875 6.59375 29.296875 6.640625 
Q 43.359375 6.640625 46.34375 21.96875 
Q 49.03125 35.75 26.171875 34.671875 
L 27.78125 42.96875 
Q 45.453125 42.671875 48.53125 58.59375 
Q 50.640625 69.34375 39.203125 69.28125 
Q 26.421875 69.28125 23.484375 54.046875 
z
" id="DejaVuSans-Oblique-946"/>
     </defs>
     <g transform="translate(142.7775 257.958125)scale(0.12 -0.12)">
      <use transform="translate(0 0.390625)" xlink:href="#DejaVuSans-Oblique-946"/>
      <use transform="translate(63.818359 -16.015625)scale(0.7)" xlink:href="#DejaVuSans-49"/>
     </g>
    </g>
   </g>
   <g id="matplotlib.axis_2">
    <g id="ytick_1">
     <g id="line2d_6">
      <defs>
       <path d="M 0 0 
L -3.5 0 
" id="m67cf2577a5" style="stroke:#000000;stroke-width:0.8;"/>
      </defs>
      <g>
       <use style="stroke:#000000;stroke-width:0.8;" x="42.54" xlink:href="#m67cf2577a5" y="232.04"/>
      </g>
     </g>
     <g id="text_7">
      <!-- −10 -->
      <g transform="translate(14.435312 235.839219)scale(0.1 -0.1)">
       <use xlink:href="#DejaVuSans-8722"/>
       <use x="83.789062" xlink:href="#DejaVuSans-49"/>
       <use x="147.412109" xlink:href="#DejaVuSans-48"/>
      </g>
     </g>
    </g>
    <g id="ytick_2">
     <g id="line2d_7">
      <g>
       <use style="stroke:#000000;stroke-width:0.8;" x="42.54" xlink:href="#m67cf2577a5" y="180.39"/>
      </g>
     </g>
     <g id="text_8">
      <!-- −5 -->
      <g transform="translate(20.797812 184.189219)scale(0.1 -0.1)">
       <use xlink:href="#DejaVuSans-8722"/>
       <use x="83.789062" xlink:href="#DejaVuSans-53"/>
      </g>
     </g>
    </g>
    <g id="ytick_3">
     <g id="line2d_8">
      <g>
       <use style="stroke:#000000;stroke-width:0.8;" x="42.54" xlink:href="#m67cf2577a5" y="128.74"/>
      </g>
     </g>
     <g id="text_9">
      <!-- 0 -->
      <g transform="translate(29.1775 132.539219)scale(0.1 -0.1)">
       <use xlink:href="#DejaVuSans-48"/>
      </g>
     </g>
    </g>
    <g id="ytick_4">
     <g id="line2d_9">
      <g>
       <use style="stroke:#000000;stroke-width:0.8;" x="42.54" xlink:href="#m67cf2577a5" y="77.09"/>
      </g>
     </g>
     <g id="text_10">
      <!-- 5 -->
      <g transform="translate(29.1775 80.889219)scale(0.1 -0.1)">
       <use xlink:href="#DejaVuSans-53"/>
      </g>
     </g>
    </g>
    <g id="ytick_5">
     <g id="line2d_10">
      <g>
       <use style="stroke:#000000;stroke-width:0.8;" x="42.54" xlink:href="#m67cf2577a5" y="25.44"/>
      </g>
     </g>
     <g id="text_11">
      <!-- 10 -->
      <g transform="translate(22.815 29.239219)scale(0.1 -0.1)">
       <use xlink:href="#DejaVuSans-49"/>
       <use x="63.623047" xlink:href="#DejaVuSans-48"/>
      </g>
     </g>
    </g>
    <g id="text_12">
     <!-- $\beta_2$ -->
     <defs>
      <path d="M 19.1875 8.296875 
L 53.609375 8.296875 
L 53.609375 0 
L 7.328125 0 
L 7.328125 8.296875 
Q 12.9375 14.109375 22.625 23.890625 
Q 32.328125 33.6875 34.8125 36.53125 
Q 39.546875 41.84375 41.421875 45.53125 
Q 43.3125 49.21875 43.3125 52.78125 
Q 43.3125 58.59375 39.234375 62.25 
Q 35.15625 65.921875 28.609375 65.921875 
Q 23.96875 65.921875 18.8125 64.3125 
Q 13.671875 62.703125 7.8125 59.421875 
L 7.8125 69.390625 
Q 13.765625 71.78125 18.9375 73 
Q 24.125 74.21875 28.421875 74.21875 
Q 39.75 74.21875 46.484375 68.546875 
Q 53.21875 62.890625 53.21875 53.421875 
Q 53.21875 48.921875 51.53125 44.890625 
Q 49.859375 40.875 45.40625 35.40625 
Q 44.1875 33.984375 37.640625 27.21875 
Q 31.109375 20.453125 19.1875 8.296875 
z
" id="DejaVuSans-50"/>
     </defs>
     <g transform="translate(21.915312 135.46)rotate(-90)scale(0.12 -0.12)">
      <use transform="translate(0 0.390625)" xlink:href="#DejaVuSans-Oblique-946"/>
      <use transform="translate(63.818359 -16.015625)scale(0.7)" xlink:href="#DejaVuSans-50"/>
     </g>
    </g>
   </g>
   <g id="LineCollection_1"/>
   <g id="LineCollection_2">
    <path clip-path="url(#pe68a69fbb6)" d="M 125.545277 232.04 
L 124.648788 231.716109 
L 122.48803 230.942531 
L 120.327273 230.185348 
L 119.660673 229.953131 
L 118.166515 229.407552 
L 116.005758 228.630715 
L 113.845 227.870465 
L 113.833062 227.866263 
L 111.684242 227.073303 
L 109.523485 226.293751 
L 108.076841 225.779394 
L 107.362727 225.512891 
L 105.20197 224.713104 
L 103.041212 223.931392 
L 102.376452 223.692525 
L 100.880455 223.128209 
L 98.719697 222.326692 
L 96.734288 221.605657 
L 96.558939 221.538718 
L 94.398182 220.716445 
L 92.237424 219.913802 
L 91.161322 219.518788 
L 90.076667 219.100196 
L 87.915909 218.277319 
L 85.755152 217.474166 
L 85.641283 217.431919 
L 83.594394 216.633365 
L 81.433636 215.810544 
L 80.19332 215.345051 
L 79.272879 214.981307 
L 77.112121 214.137925 
L 74.951364 213.315831 
L 74.799412 213.258182 
L 72.790606 212.455542 
L 70.629848 211.613565 
L 69.478271 211.171313 
L 68.469091 210.762538 
L 66.308333 209.899809 
L 64.212048 209.084444 
L 64.147576 209.057954 
L 61.986818 208.173549 
L 59.826061 207.313776 
L 59.022184 206.997576 
L 57.665303 206.43365 
L 55.504545 205.553112 
L 53.893288 204.910707 
L 53.343788 204.678837 
L 51.18303 203.776667 
L 49.022273 202.900868 
L 48.83126 202.823838 
L 46.861515 201.982957 
L 44.700758 201.086618 
L 43.846101 200.73697 
L 42.54 200.170308 
" style="fill:none;stroke:#4055c8;"/>
    <path clip-path="url(#pe68a69fbb6)" d="M 42.54 152.133999 
L 53.343788 154.261341 
L 64.147576 156.513578 
L 75.521382 158.999596 
L 102.129509 165.260202 
L 128.970303 172.095584 
L 150.577879 177.901618 
L 182.989242 187.130533 
L 200.708323 192.389495 
L 237.008182 203.720418 
L 254.294242 209.343251 
L 256.455 210.068247 
L 256.455 210.068247 
" style="fill:none;stroke:#4055c8;"/>
   </g>
   <g id="LineCollection_3">
    <path clip-path="url(#pe68a69fbb6)" d="M 85.308656 232.04 
L 83.594394 231.420634 
L 81.433636 230.649514 
L 79.455087 229.953131 
L 79.272879 229.886799 
L 77.112121 229.101318 
L 74.951364 228.328069 
L 73.649053 227.866263 
L 72.790606 227.55138 
L 70.629848 226.763952 
L 68.469091 225.988845 
L 67.882813 225.779394 
L 66.308333 225.197503 
L 64.147576 224.408411 
L 62.158439 223.692525 
L 61.986818 223.628589 
L 59.826061 222.825035 
L 57.665303 222.034565 
L 56.482484 221.605657 
L 55.504545 221.238552 
L 53.343788 220.433842 
L 51.18303 219.642286 
L 50.845 219.518788 
L 49.022273 218.82935 
L 46.861515 218.023791 
L 45.254038 217.431919 
L 44.700758 217.220871 
L 42.54 216.400845 
" style="fill:none;stroke:#485fd1;"/>
    <path clip-path="url(#pe68a69fbb6)" d="M 42.54 135.892845 
L 55.504545 139.024018 
L 77.112121 144.399923 
L 111.684242 153.473874 
L 135.452576 159.995251 
L 157.060152 166.115185 
L 180.828485 173.049765 
L 196.669704 177.781414 
L 237.123628 190.302626 
L 256.455 196.500929 
L 256.455 196.500929 
" style="fill:none;stroke:#485fd1;"/>
   </g>
   <g id="LineCollection_4">
    <path clip-path="url(#pe68a69fbb6)" d="M 54.452059 232.04 
L 53.343788 231.639573 
L 51.18303 230.86396 
L 49.022273 230.098008 
L 48.612703 229.953131 
L 46.861515 229.316536 
L 44.700758 228.539212 
L 42.809407 227.866263 
L 42.54 227.767713 
" style="fill:none;stroke:#4f69d9;"/>
    <path clip-path="url(#pe68a69fbb6)" d="M 42.54 124.544508 
L 64.147576 130.085456 
L 96.558939 138.719177 
L 126.809545 147.090843 
L 157.060152 155.753886 
L 182.989242 163.395506 
L 221.882879 175.24902 
L 239.168939 180.664175 
L 256.455 186.15811 
L 256.455 186.15811 
" style="fill:none;stroke:#4f69d9;"/>
   </g>
   <g id="LineCollection_5">
    <path clip-path="url(#pe68a69fbb6)" d="M 42.54 115.26213 
L 81.433636 125.636155 
L 122.48803 137.067131 
L 148.417121 144.512209 
L 190.264205 156.912727 
L 234.847424 170.63365 
L 256.455 177.462107 
L 256.455 177.462107 
" style="fill:none;stroke:#5572df;"/>
   </g>
   <g id="LineCollection_6">
    <path clip-path="url(#pe68a69fbb6)" d="M 42.54 107.228842 
L 79.569002 117.262222 
L 124.648788 129.949813 
L 167.863939 142.571065 
L 208.918333 154.963746 
L 252.133485 168.438669 
L 256.455 169.806414 
L 256.455 169.806414 
" style="fill:none;stroke:#5d7ce6;"/>
   </g>
   <g id="LineCollection_7">
    <path clip-path="url(#pe68a69fbb6)" d="M 42.54 100.036436 
L 64.147576 105.92842 
L 90.076667 113.132709 
L 135.452576 126.116847 
L 172.185455 136.953076 
L 203.722161 146.478384 
L 250.761354 161.086465 
L 256.455 162.889012 
L 256.455 162.889012 
" style="fill:none;stroke:#6485ec;"/>
   </g>
   <g id="LineCollection_8">
    <path clip-path="url(#pe68a69fbb6)" d="M 42.54 93.467749 
L 68.469091 100.612145 
L 113.845 113.466253 
L 155.440279 125.609697 
L 204.596818 140.407526 
L 251.054419 154.825859 
L 256.455 156.532681 
L 256.455 156.532681 
" style="fill:none;stroke:#6b8df0;"/>
   </g>
   <g id="LineCollection_9">
    <path clip-path="url(#pe68a69fbb6)" d="M 42.54 87.381991 
L 68.469091 94.58425 
L 111.684242 106.879774 
L 161.381667 121.457373 
L 211.079091 136.495496 
L 252.133485 149.258186 
L 256.455 150.614646 
L 256.455 150.614646 
" style="fill:none;stroke:#7396f5;"/>
   </g>
   <g id="LineCollection_10">
    <path clip-path="url(#pe68a69fbb6)" d="M 42.54 81.684095 
L 68.469091 88.938199 
L 103.041212 98.791985 
L 146.256364 111.412455 
L 189.471515 124.360521 
L 224.043636 134.950533 
L 256.455 145.065557 
L 256.455 145.065557 
" style="fill:none;stroke:#7b9ff9;"/>
   </g>
   <g id="LineCollection_11">
    <path clip-path="url(#pe68a69fbb6)" d="M 42.54 76.318707 
L 77.112121 86.056588 
L 127.319838 100.567273 
L 178.667727 115.847025 
L 217.561364 127.701698 
L 256.455 139.812431 
L 256.455 139.812431 
" style="fill:none;stroke:#82a6fb;"/>
   </g>
   <g id="LineCollection_12">
    <path clip-path="url(#pe68a69fbb6)" d="M 42.54 71.219724 
L 70.629848 79.156736 
L 98.719697 87.220695 
L 130.167332 96.393535 
L 180.828485 111.509866 
L 224.043636 124.720952 
L 254.294242 134.138303 
L 256.455 134.820024 
L 256.455 134.820024 
" style="fill:none;stroke:#8badfd;"/>
   </g>
   <g id="LineCollection_13">
    <path clip-path="url(#pe68a69fbb6)" d="M 42.54 66.36434 
L 72.790606 74.945608 
L 100.880455 83.042823 
L 132.23783 92.219798 
L 185.15 108.053162 
L 215.400606 117.287178 
L 256.455 130.046233 
L 256.455 130.046233 
" style="fill:none;stroke:#93b5fe;"/>
   </g>
   <g id="LineCollection_14">
    <path clip-path="url(#pe68a69fbb6)" d="M 42.54 61.711336 
L 81.433636 72.806234 
L 111.684242 81.588919 
L 140.675507 90.132929 
L 193.79303 106.108657 
L 224.043636 115.38382 
L 256.455 125.469816 
L 256.455 125.469816 
" style="fill:none;stroke:#9abbff;"/>
   </g>
   <g id="LineCollection_15">
    <path clip-path="url(#pe68a69fbb6)" d="M 42.54 57.239303 
L 85.755152 69.614777 
L 134.435418 83.872323 
L 189.471515 100.393835 
L 219.722121 109.656239 
L 256.455 121.06913 
L 256.455 121.06913 
" style="fill:none;stroke:#a2c1ff;"/>
   </g>
   <g id="LineCollection_16">
    <path clip-path="url(#pe68a69fbb6)" d="M 42.54 52.929751 
L 90.076667 66.592423 
L 120.599895 75.524848 
L 176.511435 92.219798 
L 232.686667 109.419358 
L 256.455 116.822282 
L 256.455 116.822282 
" style="fill:none;stroke:#aac7fd;"/>
   </g>
   <g id="LineCollection_17">
    <path clip-path="url(#pe68a69fbb6)" d="M 42.54 48.766622 
L 91.957018 63.003636 
L 144.095606 78.381298 
L 185.15 90.736259 
L 230.840988 104.74101 
L 256.455 112.714424 
L 256.455 112.714424 
" style="fill:none;stroke:#b2ccfb;"/>
   </g>
   <g id="LineCollection_18">
    <path clip-path="url(#pe68a69fbb6)" d="M 42.54 44.73591 
L 87.915909 57.825685 
L 124.648788 68.614646 
L 157.060152 78.277292 
L 202.436061 92.025455 
L 232.686667 101.33867 
L 256.455 108.732558 
L 256.455 108.732558 
" style="fill:none;stroke:#b9d0f9;"/>
   </g>
   <g id="LineCollection_19">
    <path clip-path="url(#pe68a69fbb6)" d="M 42.54 40.825338 
L 83.594394 52.674998 
L 139.874663 69.264242 
L 198.114545 86.845971 
L 239.168939 99.486343 
L 256.455 104.867165 
L 256.455 104.867165 
" style="fill:none;stroke:#c0d4f5;"/>
   </g>
   <g id="LineCollection_20">
    <path clip-path="url(#pe68a69fbb6)" d="M 42.54 37.024102 
L 79.272879 47.637168 
L 113.845 57.776327 
L 152.738636 69.351181 
L 208.918333 86.395865 
L 256.455 101.110408 
L 256.455 101.110408 
" style="fill:none;stroke:#c7d7f0;"/>
   </g>
   <g id="LineCollection_21">
    <path clip-path="url(#pe68a69fbb6)" d="M 42.54 33.322656 
L 74.951364 42.694269 
L 122.764955 56.74303 
L 180.828485 74.169557 
L 226.204394 88.054797 
L 256.455 97.450229 
L 256.455 97.450229 
" style="fill:none;stroke:#cdd9ec;"/>
   </g>
   <g id="LineCollection_22">
    <path clip-path="url(#pe68a69fbb6)" d="M 42.54 29.71395 
L 99.569309 46.308687 
L 157.060152 63.417726 
L 208.918333 79.171205 
L 243.490455 89.841299 
L 256.455 93.878485 
L 256.455 93.878485 
" style="fill:none;stroke:#d4dbe6;"/>
   </g>
   <g id="LineCollection_23">
    <path clip-path="url(#pe68a69fbb6)" d="M 42.54 26.196604 
L 87.915909 39.387229 
L 122.48803 49.593234 
L 161.381667 61.232066 
L 215.400606 77.676047 
L 256.455 90.391458 
L 256.455 90.391458 
" style="fill:none;stroke:#dadce0;"/>
   </g>
   <g id="LineCollection_24">
    <path clip-path="url(#pe68a69fbb6)" d="M 51.830931 25.44 
L 53.343788 25.880225 
L 55.504545 26.50774 
L 57.665303 27.133217 
L 59.027433 27.526869 
L 59.826061 27.75982 
L 61.986818 28.389733 
L 64.147576 29.017588 
L 66.205464 29.613737 
L 66.308333 29.643815 
L 68.469091 30.276113 
L 70.629848 30.906329 
L 72.790606 31.534491 
L 73.362062 31.700606 
L 74.951364 32.166886 
L 77.112121 32.799448 
L 79.272879 33.429935 
L 80.499943 33.787475 
L 81.433636 34.062061 
L 83.594394 34.696953 
L 85.755152 35.329748 
L 87.61975 35.874343 
L 87.915909 35.961647 
L 90.076667 36.598853 
L 92.237424 37.233941 
L 94.398182 37.866938 
L 94.719873 37.961212 
L 96.558939 38.505156 
L 98.719697 39.142521 
L 100.880455 39.777774 
L 101.800653 40.048081 
L 103.041212 40.415871 
L 105.20197 41.055497 
L 107.362727 41.692989 
L 108.863742 42.134949 
L 109.523485 42.331007 
L 111.684242 42.972876 
L 113.845 43.612593 
L 115.909233 44.221818 
L 116.005758 44.25057 
L 118.166515 44.894668 
L 120.327273 45.536593 
L 122.48803 46.176372 
L 122.934877 46.308687 
L 124.648788 46.820882 
L 126.809545 47.464998 
L 128.970303 48.106949 
L 129.9427 48.395556 
L 131.131061 48.751524 
L 133.291818 49.397816 
L 135.452576 50.041922 
L 136.933292 50.482424 
L 137.613333 50.686605 
L 139.774091 51.335056 
L 141.934848 51.981302 
L 143.906742 52.569293 
L 144.095606 52.626132 
L 146.256364 53.276726 
L 148.417121 53.925095 
L 150.577879 54.571267 
L 150.861668 54.656162 
L 152.738636 55.222834 
L 154.899394 55.87331 
L 157.060152 56.52157 
L 157.798747 56.74303 
L 159.220909 57.17339 
L 161.381667 57.825956 
L 163.542424 58.476288 
L 164.719037 58.829899 
L 165.703182 59.128401 
L 167.863939 59.783042 
L 170.024697 60.435428 
L 171.622622 60.916768 
L 172.185455 61.087877 
L 174.346212 61.744575 
L 176.50697 62.399 
L 178.509586 63.003636 
L 178.667727 63.051825 
L 180.828485 63.710564 
L 182.989242 64.367011 
L 185.15 65.021195 
L 185.378844 65.090505 
L 187.310758 65.681018 
L 189.471515 66.339471 
L 191.632273 66.995642 
L 192.230933 67.177374 
L 193.79303 67.655946 
L 195.953788 68.316388 
L 198.114545 68.974529 
L 199.066737 69.264242 
L 200.275303 69.635355 
L 202.436061 70.297769 
L 204.596818 70.957865 
L 205.886338 71.351111 
L 206.757576 71.619254 
L 208.918333 72.283624 
L 211.079091 72.945658 
L 212.689815 73.43798 
L 213.239848 73.607653 
L 215.400606 74.273962 
L 217.561364 74.937917 
L 219.477248 75.524848 
L 219.722121 75.600559 
L 221.882879 76.26879 
L 224.043636 76.934649 
L 226.204394 77.598166 
L 226.248495 77.611717 
L 228.365152 78.268118 
L 230.525909 78.935864 
L 232.686667 79.601251 
L 233.002714 79.698586 
L 234.847424 80.271954 
L 237.008182 80.941571 
L 239.168939 81.60881 
L 239.741207 81.785455 
L 241.329697 82.280306 
L 243.490455 82.951776 
L 245.651212 83.620852 
L 246.464052 83.872323 
L 247.81197 84.293184 
L 249.972727 84.966491 
L 252.133485 85.637386 
L 253.171325 85.959192 
L 254.294242 86.310595 
L 256.455 86.985722 
" style="fill:none;stroke:#dfdbd9;"/>
   </g>
   <g id="LineCollection_25">
    <path clip-path="url(#pe68a69fbb6)" d="M 63.395261 25.44 
L 64.147576 25.660038 
L 66.308333 26.291717 
L 68.469091 26.921368 
L 70.553301 27.526869 
L 70.629848 27.54931 
L 72.790606 28.1833 
L 74.951364 28.81524 
L 77.112121 29.445156 
L 77.690464 29.613737 
L 79.272879 30.079187 
L 81.433636 30.713402 
L 83.594394 31.345572 
L 84.809566 31.700606 
L 85.755152 31.979387 
L 87.915909 32.615861 
L 90.076667 33.25027 
L 91.911095 33.787475 
L 92.237424 33.883908 
L 94.398182 34.522626 
L 96.558939 35.159258 
L 98.719697 35.793832 
L 98.993724 35.874343 
L 100.880455 36.433704 
L 103.041212 37.072545 
L 105.20197 37.709308 
L 106.057376 37.961212 
L 107.362727 38.349105 
L 109.523485 38.990139 
L 111.684242 39.629074 
L 113.10382 40.048081 
L 113.845 40.268835 
L 116.005758 40.912046 
L 118.166515 41.55314 
L 120.133141 42.134949 
L 120.327273 42.192903 
L 122.48803 42.838277 
L 124.648788 43.481513 
L 126.809545 44.122638 
L 127.143719 44.221818 
L 128.970303 44.768838 
L 131.131061 45.414201 
L 133.291818 46.057434 
L 134.136452 46.308687 
L 135.452576 46.703737 
L 137.613333 47.351212 
L 139.774091 47.996538 
L 141.112413 48.395556 
L 141.934848 48.642984 
L 144.095606 49.292555 
L 146.256364 49.939958 
L 148.071684 50.482424 
L 148.417121 50.586586 
L 150.577879 51.238237 
L 152.738636 51.887701 
L 154.899394 52.535007 
L 155.013771 52.569293 
L 157.060152 53.188266 
L 159.220909 53.839777 
L 161.381667 54.48911 
L 161.937686 54.656162 
L 163.542424 55.142651 
L 165.703182 55.796192 
L 167.863939 56.447537 
L 168.845247 56.74303 
L 170.024697 57.101401 
L 172.185455 57.756955 
L 174.346212 58.410296 
L 175.736535 58.829899 
L 176.50697 59.064522 
L 178.667727 59.722075 
L 180.828485 60.377397 
L 182.61163 60.916768 
L 182.989242 61.032023 
L 185.15 61.691559 
L 187.310758 62.348845 
L 189.47061 63.003636 
L 189.471515 63.003913 
L 191.632273 63.665416 
L 193.79303 64.324651 
L 195.953788 64.981646 
L 196.311773 65.090505 
L 198.114545 65.643653 
L 200.275303 66.304821 
L 202.436061 66.963732 
L 203.137059 67.177374 
L 204.596818 67.62628 
L 206.757576 68.289364 
L 208.918333 68.950175 
L 209.946549 69.264242 
L 211.079091 69.613303 
L 213.239848 70.278289 
L 215.400606 70.940983 
L 216.740319 71.351111 
L 217.561364 71.604732 
L 219.722121 72.271602 
L 221.882879 72.936164 
L 223.518445 73.43798 
L 224.043636 73.600575 
L 226.204394 74.269314 
L 228.365152 74.935727 
L 230.281001 75.524848 
L 230.525909 75.600839 
L 232.686667 76.271431 
L 234.847424 76.93968 
L 237.008182 77.605615 
L 237.027967 77.611717 
L 239.168939 78.277962 
L 241.329697 78.94803 
L 243.490455 79.615768 
L 243.758397 79.698586 
L 245.651212 80.288915 
L 247.81197 80.960786 
L 249.972727 81.630311 
L 250.473559 81.785455 
L 252.133485 82.304299 
L 254.294242 82.977957 
L 256.455 83.649252 
" style="fill:none;stroke:#e5d8d1;"/>
   </g>
   <g id="LineCollection_26">
    <path clip-path="url(#pe68a69fbb6)" d="M 74.644981 25.44 
L 74.951364 25.530049 
L 77.112121 26.165349 
L 79.272879 26.798631 
L 81.433636 27.429921 
L 81.765354 27.526869 
L 83.594394 28.066178 
L 85.755152 28.701667 
L 87.915909 29.335144 
L 88.866985 29.613737 
L 90.076667 29.971235 
L 92.237424 30.608916 
L 94.398182 31.244565 
L 95.951516 31.700606 
L 96.558939 31.880526 
L 98.719697 32.520384 
L 100.880455 33.158192 
L 103.019031 33.787475 
L 103.041212 33.79406 
L 105.20197 34.43608 
L 107.362727 35.076032 
L 109.523485 35.713939 
L 110.066877 35.874343 
L 111.684242 36.356012 
L 113.845 36.998092 
L 116.005758 37.638109 
L 117.097858 37.961212 
L 118.166515 38.280187 
L 120.327273 38.924381 
L 122.48803 39.566493 
L 124.112167 40.048081 
L 124.648788 40.208613 
L 126.809545 40.854906 
L 128.970303 41.499098 
L 131.109884 42.134949 
L 131.131061 42.141299 
L 133.291818 42.789675 
L 135.452576 43.435933 
L 137.613333 44.080099 
L 138.088725 44.221818 
L 139.774091 44.728696 
L 141.934848 45.377004 
L 144.095606 46.023202 
L 145.051122 46.308687 
L 146.256364 46.671976 
L 148.417121 47.32232 
L 150.577879 47.970536 
L 151.997257 48.395556 
L 152.738636 48.619524 
L 154.899394 49.271888 
L 157.060152 49.922107 
L 158.927211 50.482424 
L 159.220909 50.571347 
L 161.381667 51.225717 
L 163.542424 51.877923 
L 165.703182 52.527992 
L 165.840386 52.569293 
L 167.863939 53.183814 
L 170.024697 53.837992 
L 172.185455 54.490016 
L 172.736179 54.656162 
L 174.346212 55.146186 
L 176.50697 55.802322 
L 178.667727 56.456285 
L 179.616107 56.74303 
L 180.828485 57.112842 
L 182.989242 57.77092 
L 185.15 58.426808 
L 186.480247 58.829899 
L 187.310758 59.08379 
L 189.471515 59.743794 
L 191.632273 60.401593 
L 193.328674 60.916768 
L 193.79303 61.059037 
L 195.953788 61.720953 
L 198.114545 62.380646 
L 200.161463 63.003636 
L 200.275303 63.038592 
L 202.436061 63.702404 
L 204.596818 64.363976 
L 206.757576 65.023336 
L 206.97762 65.090505 
L 208.918333 65.688155 
L 211.079091 66.351591 
L 213.239848 67.012797 
L 213.777817 67.177374 
L 215.400606 67.678213 
L 217.561364 68.343497 
L 219.722121 69.006536 
L 220.562676 69.264242 
L 221.882879 69.672587 
L 224.043636 70.339705 
L 226.204394 71.00456 
L 227.332271 71.351111 
L 228.365152 71.671285 
L 230.525909 72.34022 
L 232.686667 73.006877 
L 234.086673 73.43798 
L 234.847424 73.674314 
L 237.008182 74.345051 
L 239.168939 75.013494 
L 240.825953 75.524848 
L 241.329697 75.681683 
L 243.490455 76.354206 
L 245.651212 77.024419 
L 247.550183 77.611717 
L 247.81197 77.693399 
L 249.972727 78.367693 
L 252.133485 79.039661 
L 254.259433 79.698586 
L 254.294242 79.709471 
L 256.455 80.38552 
" style="fill:none;stroke:#ead4c8;"/>
   </g>
   <g id="LineCollection_27">
    <path clip-path="url(#pe68a69fbb6)" d="M 85.603584 25.44 
L 85.755152 25.484755 
L 87.915909 26.123185 
L 90.076667 26.759613 
L 92.237424 27.394063 
L 92.689684 27.526869 
L 94.398182 28.032937 
L 96.558939 28.671493 
L 98.719697 29.308053 
L 99.758381 29.613737 
L 100.880455 29.946842 
L 103.041212 30.587511 
L 105.20197 31.226167 
L 106.810505 31.700606 
L 107.362727 31.864905 
L 109.523485 32.507675 
L 111.684242 33.148411 
L 113.845 33.78714 
L 113.84613 33.787475 
L 116.005758 34.431991 
L 118.166515 35.074795 
L 120.327273 35.715573 
L 120.862723 35.874343 
L 122.48803 36.360467 
L 124.648788 37.005324 
L 126.809545 37.648137 
L 127.86307 37.961212 
L 128.970303 38.293111 
L 131.131061 38.940006 
L 133.291818 39.584841 
L 134.847248 40.048081 
L 135.452576 40.22993 
L 137.613333 40.878849 
L 139.774091 41.525691 
L 141.815336 42.134949 
L 141.934848 42.170932 
L 144.095606 42.821861 
L 146.256364 43.470694 
L 148.417121 44.117457 
L 148.765716 44.221818 
L 150.577879 44.769048 
L 152.738636 45.41986 
L 154.899394 46.068583 
L 155.699662 46.308687 
L 157.060152 46.720419 
L 159.220909 47.373194 
L 161.381667 48.023864 
L 162.61783 48.395556 
L 163.542424 48.675981 
L 165.703182 49.330704 
L 167.863939 49.983306 
L 169.520294 50.482424 
L 170.024697 50.635741 
L 172.185455 51.292398 
L 174.346212 51.946918 
L 176.407127 52.569293 
L 176.50697 52.599707 
L 178.667727 53.258284 
L 180.828485 53.914706 
L 182.989242 54.568999 
L 183.277023 54.656162 
L 185.15 55.228369 
L 187.310758 55.886679 
L 189.471515 56.542843 
L 190.131037 56.74303 
L 191.632273 57.20266 
L 193.79303 57.862843 
L 195.953788 58.520865 
L 196.96972 58.829899 
L 198.114545 59.181165 
L 200.275303 59.843207 
L 202.436061 60.503072 
L 203.793141 60.916768 
L 204.596818 61.163891 
L 206.757576 61.827778 
L 208.918333 62.489471 
L 210.601373 63.003636 
L 211.079091 63.150847 
L 213.239848 63.816563 
L 215.400606 64.480069 
L 217.394486 65.090505 
L 217.561364 65.14204 
L 219.722121 65.80957 
L 221.882879 66.474875 
L 224.043636 67.13798 
L 224.171944 67.177374 
L 226.204394 67.806807 
L 228.365152 68.473895 
L 230.525909 69.138768 
L 230.93371 69.264242 
L 232.686667 69.808281 
L 234.847424 70.477138 
L 237.008182 71.143764 
L 237.680641 71.351111 
L 239.168939 71.814 
L 241.329697 72.48461 
L 243.490455 73.152974 
L 244.412804 73.43798 
L 245.651212 73.823971 
L 247.81197 74.49632 
L 249.972727 75.166408 
L 251.130267 75.524848 
L 252.133485 75.838202 
L 254.294242 76.512275 
L 256.455 77.184071 
" style="fill:none;stroke:#eed0c0;"/>
   </g>
   <g id="LineCollection_28">
    <path clip-path="url(#pe68a69fbb6)" d="M 96.292281 25.44 
L 96.558939 25.519091 
L 98.719697 26.16021 
L 100.880455 26.799346 
L 103.041212 27.436522 
L 103.347491 27.526869 
L 105.20197 28.078577 
L 107.362727 28.719767 
L 109.523485 29.358978 
L 110.38526 29.613737 
L 111.684242 30.001024 
L 113.845 30.644253 
L 116.005758 31.285487 
L 117.406952 31.700606 
L 118.166515 31.927558 
L 120.327273 32.572813 
L 122.48803 33.216056 
L 124.412644 33.787475 
L 124.648788 33.858186 
L 126.809545 34.505453 
L 128.970303 35.150691 
L 131.131061 35.793923 
L 131.401114 35.874343 
L 133.291818 36.44218 
L 135.452576 37.089399 
L 137.613333 37.734596 
L 138.372688 37.961212 
L 139.774091 38.383002 
L 141.934848 39.032189 
L 144.095606 39.679336 
L 145.328569 40.048081 
L 146.256364 40.327926 
L 148.417121 40.979066 
L 150.577879 41.628151 
L 152.268828 42.134949 
L 152.738636 42.276959 
L 154.899394 42.930039 
L 157.060152 43.581046 
L 159.193539 44.221818 
L 159.220909 44.230109 
L 161.381667 44.885114 
L 163.542424 45.53803 
L 165.703182 46.188884 
L 166.100891 46.308687 
L 167.863939 46.844299 
L 170.024697 47.49911 
L 172.185455 48.151842 
L 172.992788 48.395556 
L 174.346212 48.8076 
L 176.50697 49.464293 
L 178.667727 50.11889 
L 179.869431 50.482424 
L 180.828485 50.775027 
L 182.989242 51.433586 
L 185.15 52.090034 
L 186.730889 52.569293 
L 187.310758 52.746584 
L 189.471515 53.406996 
L 191.632273 54.065281 
L 193.577232 54.656162 
L 193.79303 54.722281 
L 195.953788 55.384531 
L 198.114545 56.044639 
L 200.275303 56.702629 
L 200.40791 56.74303 
L 202.436061 57.366198 
L 204.596818 58.028115 
L 206.757576 58.687898 
L 207.22268 58.829899 
L 208.918333 59.352005 
L 211.079091 60.015716 
L 213.239848 60.677278 
L 214.022617 60.916768 
L 215.400606 61.341958 
L 217.561364 62.007448 
L 219.722121 62.670776 
L 220.807787 63.003636 
L 221.882879 63.336064 
L 224.043636 64.003321 
L 226.204394 64.668399 
L 227.578257 65.090505 
L 228.365152 65.334332 
L 230.525909 66.00334 
L 232.686667 66.670155 
L 234.334095 67.177374 
L 234.847424 67.336769 
L 237.008182 68.007514 
L 239.168939 68.67605 
L 241.075367 69.264242 
L 241.329697 69.343381 
L 243.490455 70.015849 
L 245.651212 70.686093 
L 247.802137 71.351111 
L 247.81197 71.354177 
L 249.972727 72.028353 
L 252.133485 72.70029 
L 254.294242 73.370015 
L 254.513465 73.43798 
L 256.455 74.045033 
" style="fill:none;stroke:#f2cbb7;"/>
   </g>
   <g id="LineCollection_29">
    <path clip-path="url(#pe68a69fbb6)" d="M 106.73027 25.44 
L 107.362727 25.628386 
L 109.523485 26.271799 
L 111.684242 26.913248 
L 113.757201 27.526869 
L 113.845 27.553077 
L 116.005758 28.198488 
L 118.166515 28.841921 
L 120.327273 29.483396 
L 120.766292 29.613737 
L 122.48803 30.129188 
L 124.648788 30.774589 
L 126.809545 31.418018 
L 127.75936 31.700606 
L 128.970303 32.063904 
L 131.131061 32.711262 
L 133.291818 33.35663 
L 134.736891 33.787475 
L 135.452576 34.002644 
L 137.613333 34.651944 
L 139.774091 35.299239 
L 141.698955 35.874343 
L 141.934848 35.945414 
L 144.095606 36.596644 
L 146.256364 37.245852 
L 148.417121 37.893061 
L 148.64456 37.961212 
L 150.577879 38.545368 
L 152.738636 39.196475 
L 154.899394 39.845569 
L 155.573818 40.048081 
L 157.060152 40.498123 
L 159.220909 41.151117 
L 161.381667 41.802081 
L 162.487899 42.134949 
L 163.542424 42.454916 
L 165.703182 43.109783 
L 167.863939 43.762604 
L 169.386871 44.221818 
L 170.024697 44.415755 
L 172.185455 45.072481 
L 174.346212 45.727145 
L 176.270803 46.308687 
L 176.50697 46.380646 
L 178.667727 47.039217 
L 180.828485 47.695712 
L 182.989242 48.350154 
L 183.139072 48.395556 
L 185.15 49.009999 
L 187.310758 49.668311 
L 189.471515 50.324554 
L 189.991422 50.482424 
L 191.632273 50.984834 
L 193.79303 51.644948 
L 195.953788 52.30298 
L 196.829009 52.569293 
L 198.114545 52.963729 
L 200.275303 53.625632 
L 202.436061 54.285438 
L 203.651899 54.656162 
L 204.596818 54.94669 
L 206.757576 55.610369 
L 208.918333 56.271935 
L 210.460158 56.74303 
L 211.079091 56.933725 
L 213.239848 57.599166 
L 215.400606 58.262479 
L 217.253851 58.829899 
L 217.561364 58.924841 
L 219.722121 59.59203 
L 221.882879 60.257076 
L 224.033043 60.916768 
L 224.043636 60.920045 
L 226.204394 61.588968 
L 228.365152 62.255734 
L 230.525909 62.920368 
L 230.796568 63.003636 
L 232.686667 63.589987 
L 234.847424 64.258459 
L 237.008182 64.924784 
L 237.545742 65.090505 
L 239.168939 65.595095 
L 241.329697 66.265258 
L 243.490455 66.93326 
L 244.280677 67.177374 
L 245.651212 67.604297 
L 247.81197 68.276138 
L 249.972727 68.945805 
L 251.001436 69.264242 
L 252.133485 69.617603 
L 254.294242 70.291108 
L 256.455 70.962423 
" style="fill:none;stroke:#f4c5ad;"/>
   </g>
   <g id="LineCollection_30">
    <path clip-path="url(#pe68a69fbb6)" d="M 116.934973 25.44 
L 118.166515 25.808331 
L 120.327273 26.453679 
L 122.48803 27.097087 
L 123.933868 27.526869 
L 124.648788 27.741134 
L 126.809545 28.388413 
L 128.970303 29.033736 
L 130.917448 29.613737 
L 131.131061 29.677892 
L 133.291818 30.327089 
L 135.452576 30.974315 
L 137.613333 31.619591 
L 137.884531 31.700606 
L 139.774091 32.269714 
L 141.934848 32.91883 
L 144.095606 33.56598 
L 144.835532 33.787475 
L 146.256364 34.216295 
L 148.417121 34.867287 
L 150.577879 35.516299 
L 151.771499 35.874343 
L 152.738636 36.166838 
L 154.899394 36.819694 
L 157.060152 37.470554 
L 158.692502 37.961212 
L 159.220909 38.121351 
L 161.381667 38.776057 
L 163.542424 39.428753 
L 165.598605 40.048081 
L 165.703182 40.079839 
L 167.863939 40.736383 
L 170.024697 41.390901 
L 172.185455 42.043416 
L 172.488496 42.134949 
L 174.346212 42.700679 
L 176.50697 43.357006 
L 178.667727 44.011316 
L 179.363218 44.221818 
L 180.828485 44.668951 
L 182.989242 45.327074 
L 185.15 45.983165 
L 186.223313 46.308687 
L 187.310758 46.641206 
L 189.471515 47.301113 
L 191.632273 47.958972 
L 193.068844 48.395556 
L 193.79303 48.617451 
L 195.953788 49.279128 
L 198.114545 49.938743 
L 199.899876 50.482424 
L 200.275303 50.597693 
L 202.436061 51.261126 
L 204.596818 51.922483 
L 206.716473 52.569293 
L 206.757576 52.581939 
L 208.918333 53.247115 
L 211.079091 53.910201 
L 213.239848 54.57122 
L 213.517451 54.656162 
L 215.400606 55.237101 
L 217.561364 55.901903 
L 219.722121 56.564624 
L 220.304006 56.74303 
L 221.882879 57.231091 
L 224.043636 57.897595 
L 226.204394 58.562004 
L 227.076382 58.829899 
L 228.365152 59.229092 
L 230.525909 59.897285 
L 232.686667 60.563369 
L 233.834644 60.916768 
L 234.847424 61.23111 
L 237.008182 61.900979 
L 239.168939 62.568725 
L 240.578851 63.003636 
L 241.329697 63.237153 
L 243.490455 63.908684 
L 245.651212 64.578078 
L 247.309066 65.090505 
L 247.81197 65.247227 
L 249.972727 65.920407 
L 252.133485 66.591436 
L 254.02535 67.177374 
L 254.294242 67.26134 
L 256.455 67.936154 
" style="fill:none;stroke:#f6bfa6;"/>
   </g>
   <g id="LineCollection_31">
    <path clip-path="url(#pe68a69fbb6)" d="M 126.922231 25.44 
L 128.970303 26.054937 
L 131.131061 26.701899 
L 133.291818 27.346944 
L 133.89468 27.526869 
L 135.452576 27.995584 
L 137.613333 28.644412 
L 139.774091 29.291309 
L 140.852237 29.613737 
L 141.934848 29.940121 
L 144.095606 30.590803 
L 146.256364 31.239538 
L 147.794968 31.700606 
L 148.417121 31.888554 
L 150.577879 32.541077 
L 152.738636 33.191639 
L 154.72294 33.787475 
L 154.899394 33.840889 
L 157.060152 34.495241 
L 159.220909 35.147617 
L 161.381667 35.798039 
L 161.635077 35.874343 
L 163.542424 36.453301 
L 165.703182 37.107478 
L 167.863939 37.759688 
L 168.531865 37.961212 
L 170.024697 38.415264 
L 172.185455 39.07123 
L 174.346212 39.725214 
L 175.414157 40.048081 
L 176.50697 40.381137 
L 178.667727 41.038879 
L 180.828485 41.694625 
L 182.282016 42.134949 
L 182.989242 42.350926 
L 185.15 43.010431 
L 187.310758 43.667926 
L 189.135507 44.221818 
L 189.471515 44.324637 
L 191.632273 44.985894 
L 193.79303 45.645125 
L 195.953788 46.302353 
L 195.974598 46.308687 
L 198.114545 46.965272 
L 200.275303 47.626227 
L 202.436061 48.285165 
L 202.798025 48.395556 
L 204.596818 48.948574 
L 206.757576 49.611239 
L 208.918333 50.271874 
L 209.607336 50.482424 
L 211.079091 50.935805 
L 213.239848 51.600169 
L 215.400606 52.262488 
L 216.402593 52.569293 
L 217.561364 52.926972 
L 219.722121 53.593021 
L 221.882879 54.257012 
L 223.183856 54.656162 
L 224.043636 54.922082 
L 226.204394 55.589803 
L 228.365152 56.255453 
L 229.951185 56.74303 
L 230.525909 56.921141 
L 232.686667 57.590522 
L 234.847424 58.257818 
L 236.70464 58.829899 
L 237.008182 58.924156 
L 239.168939 59.595184 
L 241.329697 60.264112 
L 243.444282 60.916768 
L 243.490455 60.931134 
L 245.651212 61.603795 
L 247.81197 62.274344 
L 249.972727 62.942804 
L 250.169309 63.003636 
L 252.133485 63.616362 
L 254.294242 64.288518 
L 256.455 64.958572 
" style="fill:none;stroke:#f7b89c;"/>
   </g>
   <g id="LineCollection_32">
    <path clip-path="url(#pe68a69fbb6)" d="M 136.702453 25.44 
L 137.613333 25.714318 
L 139.774091 26.364514 
L 141.934848 27.012797 
L 143.651989 27.526869 
L 144.095606 27.660735 
L 146.256364 28.31275 
L 148.417121 28.962838 
L 150.577879 29.611022 
L 150.586924 29.613737 
L 152.738636 30.264812 
L 154.899394 30.916693 
L 157.060152 31.566655 
L 157.50547 31.700606 
L 159.220909 32.220706 
L 161.381667 32.874368 
L 163.542424 33.526097 
L 164.409651 33.787475 
L 165.703182 34.180439 
L 167.863939 34.835869 
L 170.024697 35.489352 
L 171.299528 35.874343 
L 172.185455 36.144017 
L 174.346212 36.801203 
L 176.50697 37.456428 
L 178.175162 37.961212 
L 178.667727 38.111445 
L 180.828485 38.770376 
L 182.989242 39.427331 
L 185.036616 40.048081 
L 185.15 40.082732 
L 187.310758 40.743394 
L 189.471515 41.402066 
L 191.632273 42.058772 
L 191.882854 42.134949 
L 193.79303 42.720263 
L 195.953788 43.380641 
L 198.114545 44.039038 
L 198.714603 44.221818 
L 200.275303 44.70099 
L 202.436061 45.363061 
L 204.596818 46.023138 
L 205.532417 46.308687 
L 206.757576 46.685582 
L 208.918333 47.349334 
L 211.079091 48.011078 
L 212.336358 48.395556 
L 213.239848 48.674044 
L 215.400606 49.339464 
L 217.561364 50.002863 
L 219.126483 50.482424 
L 219.722121 50.666383 
L 221.882879 51.333459 
L 224.043636 51.998501 
L 225.90285 52.569293 
L 226.204394 52.662606 
L 228.365152 53.331325 
L 230.525909 53.997997 
L 232.665519 54.656162 
L 232.686667 54.662719 
L 234.847424 55.333068 
L 237.008182 56.001357 
L 239.168939 56.667608 
L 239.413493 56.74303 
L 241.329697 57.338695 
L 243.490455 58.008589 
L 245.651212 58.676432 
L 246.147853 58.829899 
L 247.81197 59.348212 
L 249.972727 60.019698 
L 252.133485 60.689121 
L 252.86875 60.916768 
L 254.294242 61.361625 
L 256.455 62.034692 
" style="fill:none;stroke:#f7b093;"/>
   </g>
   <g id="LineCollection_33">
    <path clip-path="url(#pe68a69fbb6)" d="M 146.29172 25.44 
L 148.417121 26.082408 
L 150.577879 26.733635 
L 152.738636 27.382978 
L 153.217481 27.526869 
L 154.899394 28.03623 
L 157.060152 28.689217 
L 159.220909 29.340306 
L 160.129064 29.613737 
L 161.381667 29.993828 
L 163.542424 30.648564 
L 165.703182 31.301387 
L 167.02653 31.700606 
L 167.863939 31.955208 
L 170.024697 32.61168 
L 172.185455 33.266227 
L 173.909939 33.787475 
L 174.346212 33.920377 
L 176.50697 34.578574 
L 178.667727 35.234831 
L 180.77935 35.874343 
L 180.828485 35.889341 
L 182.989242 36.54925 
L 185.15 37.207206 
L 187.310758 37.863231 
L 187.63343 37.961212 
L 189.471515 38.523715 
L 191.632273 39.183359 
L 193.79303 39.841057 
L 194.473484 40.048081 
L 195.953788 40.501975 
L 198.114545 41.163294 
L 200.275303 41.822655 
L 201.29978 42.134949 
L 202.436061 42.484036 
L 204.596818 43.147018 
L 206.757576 43.808029 
L 208.112376 44.221818 
L 208.918333 44.469904 
L 211.079091 45.134537 
L 213.239848 45.797187 
L 214.91133 46.308687 
L 215.400606 46.459586 
L 217.561364 47.125858 
L 219.722121 47.790134 
L 221.696698 48.395556 
L 221.882879 48.453087 
L 224.043636 49.120987 
L 226.204394 49.786877 
L 228.365152 50.450778 
L 228.4681 50.482424 
L 230.525909 51.119929 
L 232.686667 51.787421 
L 234.847424 52.452912 
L 235.225299 52.569293 
L 237.008182 53.122691 
L 239.168939 53.791773 
L 241.329697 54.458842 
L 241.969142 54.656162 
L 243.490455 55.129279 
L 245.651212 55.799939 
L 247.81197 56.468573 
L 248.699685 56.74303 
L 249.972727 57.1397 
L 252.133485 57.811925 
L 254.294242 58.482112 
L 255.416982 58.829899 
L 256.455 59.153959 
" style="fill:none;stroke:#f7a889;"/>
   </g>
   <g id="LineCollection_34">
    <path clip-path="url(#pe68a69fbb6)" d="M 155.696901 25.44 
L 157.060152 25.853201 
L 159.220909 26.507099 
L 161.381667 27.159121 
L 162.601952 27.526869 
L 163.542424 27.812477 
L 165.703182 28.468092 
L 167.863939 29.121817 
L 169.493124 29.613737 
L 170.024697 29.77548 
L 172.185455 30.432801 
L 174.346212 31.088218 
L 176.370476 31.700606 
L 176.50697 31.742217 
L 178.667727 32.401231 
L 180.828485 33.058329 
L 182.989242 33.713531 
L 183.23303 33.787475 
L 185.15 34.37339 
L 187.310758 35.032157 
L 189.471515 35.689015 
L 190.081362 35.874343 
L 191.632273 36.349283 
L 193.79303 37.009708 
L 195.953788 37.66821 
L 196.916108 37.961212 
L 198.114545 38.328916 
L 200.275303 38.990987 
L 202.436061 39.651123 
L 203.737324 40.048081 
L 204.596818 40.312296 
L 206.757576 40.976 
L 208.918333 41.637758 
L 210.545066 42.134949 
L 211.079091 42.299427 
L 213.239848 42.964754 
L 215.400606 43.628121 
L 217.33939 44.221818 
L 217.561364 44.290316 
L 219.722121 44.957254 
L 221.882879 45.622219 
L 224.043636 46.285234 
L 224.12003 46.308687 
L 226.204394 46.953506 
L 228.365152 47.620058 
L 230.525909 48.284647 
L 230.886491 48.395556 
L 232.686667 48.953516 
L 234.847424 49.621644 
L 237.008182 50.287796 
L 237.639757 50.482424 
L 239.168939 50.957291 
L 241.329697 51.626982 
L 243.490455 52.294684 
L 244.379883 52.569293 
L 245.651212 52.964836 
L 247.81197 53.636078 
L 249.972727 54.30532 
L 251.106921 54.656162 
L 252.133485 54.976158 
L 254.294242 55.648939 
L 256.455 56.319708 
" style="fill:none;stroke:#f5a081;"/>
   </g>
   <g id="LineCollection_35">
    <path clip-path="url(#pe68a69fbb6)" d="M 164.931114 25.44 
L 165.703182 25.67465 
L 167.863939 26.330965 
L 170.024697 26.985413 
L 171.816384 27.526869 
L 172.185455 27.639251 
L 174.346212 28.297242 
L 176.50697 28.953352 
L 178.667727 29.607602 
L 178.687978 29.613737 
L 180.828485 30.267188 
L 182.989242 30.924949 
L 185.15 31.580837 
L 185.544555 31.700606 
L 187.310758 32.240809 
L 189.471515 32.90021 
L 191.632273 33.557726 
L 192.387713 33.787475 
L 193.79303 34.218111 
L 195.953788 34.879141 
L 198.114545 35.538273 
L 199.217506 35.874343 
L 200.275303 36.199099 
L 202.436061 36.861747 
L 204.596818 37.522484 
L 206.033989 37.961212 
L 206.757576 38.183781 
L 208.918333 38.848034 
L 211.079091 39.510365 
L 212.837216 40.048081 
L 213.239848 40.17216 
L 215.400606 40.838008 
L 217.561364 41.501922 
L 219.627241 42.134949 
L 219.722121 42.164244 
L 221.882879 42.831675 
L 224.043636 43.49716 
L 226.204394 44.160719 
L 226.403295 44.221818 
L 228.365152 44.829041 
L 230.525909 45.496086 
L 232.686667 46.161192 
L 233.165919 46.308687 
L 234.847424 46.830111 
L 237.008182 47.498704 
L 239.168939 48.165347 
L 239.915558 48.395556 
L 241.329697 48.834891 
L 243.490455 49.505022 
L 245.651212 50.17319 
L 246.652264 50.482424 
L 247.81197 50.843388 
L 249.972727 51.515043 
L 252.133485 52.184725 
L 253.376089 52.569293 
L 254.294242 52.855606 
L 256.455 53.528776 
" style="fill:none;stroke:#f39778;"/>
   </g>
   <g id="LineCollection_36">
    <path clip-path="url(#pe68a69fbb6)" d="M 174.00284 25.44 
L 174.346212 25.544634 
L 176.50697 26.20313 
L 178.667727 26.85977 
L 180.828485 27.514573 
L 180.869035 27.526869 
L 182.989242 28.174569 
L 185.15 28.832832 
L 187.310758 29.489244 
L 187.72056 29.613737 
L 189.471515 30.149632 
L 191.632273 30.809506 
L 193.79303 31.467518 
L 194.55888 31.700606 
L 195.953788 32.128323 
L 198.114545 32.789798 
L 200.275303 33.449399 
L 201.38405 33.787475 
L 202.436061 34.11065 
L 204.596818 34.773714 
L 206.757576 35.434893 
L 208.196123 35.874343 
L 208.918333 36.096617 
L 211.079091 36.76126 
L 213.239848 37.424006 
L 214.99515 37.961212 
L 215.400606 38.08623 
L 217.561364 38.752441 
L 219.722121 39.416743 
L 221.781184 40.048081 
L 221.882879 40.079495 
L 224.043636 40.747263 
L 226.204394 41.413109 
L 228.365152 42.077054 
L 228.55351 42.134949 
L 230.525909 42.745731 
L 232.686667 43.413111 
L 234.847424 44.078578 
L 235.312588 44.221818 
L 237.008182 44.747851 
L 239.168939 45.416754 
L 241.329697 46.083733 
L 242.058883 46.308687 
L 243.490455 46.753629 
L 245.651212 47.424044 
L 247.81197 48.092522 
L 248.792446 48.395556 
L 249.972727 48.763071 
L 252.133485 49.434986 
L 254.294242 50.104953 
L 255.513327 50.482424 
L 256.455 50.776181 
" style="fill:none;stroke:#f18d6f;"/>
   </g>
   <g id="LineCollection_37">
    <path clip-path="url(#pe68a69fbb6)" d="M 182.92001 25.44 
L 182.989242 25.461151 
L 185.15 26.121609 
L 187.310758 26.780223 
L 189.471515 27.437011 
L 189.767084 27.526869 
L 191.632273 28.098092 
L 193.79303 28.75829 
L 195.953788 29.416651 
L 196.600882 29.613737 
L 198.114545 30.078154 
L 200.275303 30.739926 
L 202.436061 31.399848 
L 203.421737 31.700606 
L 204.596818 32.061801 
L 206.757576 32.725135 
L 208.918333 33.386608 
L 210.229699 33.787475 
L 211.079091 34.049038 
L 213.239848 34.713924 
L 215.400606 35.376938 
L 217.02482 35.874343 
L 217.561364 36.03987 
L 219.722121 36.706297 
L 221.882879 37.370841 
L 223.807149 37.961212 
L 224.043636 38.034303 
L 226.204394 38.702261 
L 228.365152 39.368324 
L 230.525909 40.032511 
L 230.576535 40.048081 
L 232.686667 40.70182 
L 234.847424 41.369392 
L 237.008182 42.035076 
L 237.332338 42.134949 
L 239.168939 42.704981 
L 241.329697 43.37405 
L 243.490455 44.041221 
L 244.075552 44.221818 
L 245.651212 44.711749 
L 247.81197 45.382305 
L 249.972727 46.050951 
L 250.806229 46.308687 
L 252.133485 46.722128 
L 254.294242 47.39416 
L 256.455 48.064272 
" style="fill:none;stroke:#ee8468;"/>
   </g>
   <g id="LineCollection_38">
    <path clip-path="url(#pe68a69fbb6)" d="M 191.689815 25.44 
L 193.79303 26.084523 
L 195.953788 26.744908 
L 198.114545 27.40348 
L 198.519384 27.526869 
L 200.275303 28.065936 
L 202.436061 28.727868 
L 204.596818 29.387975 
L 205.33621 29.613737 
L 206.757576 30.050885 
L 208.918333 30.714353 
L 211.079091 31.375986 
L 212.140342 31.700606 
L 213.239848 32.039374 
L 215.400606 32.704369 
L 217.561364 33.367517 
L 218.93183 33.787475 
L 219.722121 34.03141 
L 221.882879 34.69792 
L 224.043636 35.362573 
L 225.710721 35.874343 
L 226.204394 36.026997 
L 228.365152 36.695013 
L 230.525909 37.361159 
L 232.477066 37.961212 
L 232.686667 38.026141 
L 234.847424 38.695652 
L 237.008182 39.363282 
L 239.168939 40.029051 
L 239.23067 40.048081 
L 241.329697 40.699843 
L 243.490455 41.368946 
L 245.651212 42.036178 
L 245.971049 42.134949 
L 247.81197 42.707591 
L 249.972727 43.378157 
L 252.133485 44.046841 
L 252.699078 44.221818 
L 254.294242 44.718901 
L 256.455 45.39092 
" style="fill:none;stroke:#e97a5f;"/>
   </g>
   <g id="LineCollection_39">
    <path clip-path="url(#pe68a69fbb6)" d="M 200.319725 25.44 
L 202.436061 26.090093 
L 204.596818 26.75206 
L 206.757576 27.412228 
L 207.13279 27.526869 
L 208.918333 28.076326 
L 211.079091 28.739804 
L 213.239848 29.401471 
L 213.933353 29.613737 
L 215.400606 30.066052 
L 217.561364 30.731031 
L 219.722121 31.394188 
L 220.721462 31.700606 
L 221.882879 32.059276 
L 224.043636 32.725746 
L 226.204394 33.390383 
L 227.497164 33.787475 
L 228.365152 34.056003 
L 230.525909 34.723954 
L 232.686667 35.390061 
L 234.260508 35.874343 
L 234.847424 36.056239 
L 237.008182 36.72566 
L 239.168939 37.393228 
L 241.011539 37.961212 
L 241.329697 38.05999 
L 243.490455 38.730871 
L 245.651212 39.399888 
L 247.750307 40.048081 
L 247.81197 40.067259 
L 249.972727 40.73959 
L 252.133485 41.410047 
L 254.294242 42.078647 
L 254.476149 42.134949 
L 256.455 42.751824 
" style="fill:none;stroke:#e46e56;"/>
   </g>
   <g id="LineCollection_40">
    <path clip-path="url(#pe68a69fbb6)" d="M 208.8161 25.44 
L 208.918333 25.471459 
L 211.079091 26.136635 
L 213.239848 26.800008 
L 215.400606 27.461596 
L 215.613732 27.526869 
L 217.561364 28.12758 
L 219.722121 28.79243 
L 221.882879 29.455483 
L 222.398699 29.613737 
L 224.043636 30.121977 
L 226.204394 30.788293 
L 228.365152 31.452803 
L 229.171444 31.700606 
L 230.525909 32.119831 
L 232.686667 32.787604 
L 234.847424 33.45356 
L 235.932012 33.787475 
L 237.008182 34.121146 
L 239.168939 34.790366 
L 241.329697 35.457758 
L 242.680448 35.874343 
L 243.490455 36.125928 
L 245.651212 36.796585 
L 247.81197 37.465404 
L 249.416799 37.961212 
L 249.972727 38.134183 
L 252.133485 38.806266 
L 254.294242 39.476502 
L 256.14111 40.048081 
L 256.455 40.145914 
" style="fill:none;stroke:#e0654f;"/>
   </g>
   <g id="LineCollection_41">
    <path clip-path="url(#pe68a69fbb6)" d="M 217.184767 25.44 
L 217.561364 25.556148 
L 219.722121 26.222551 
L 221.882879 26.887166 
L 223.967961 27.526869 
L 224.043636 27.550249 
L 226.204394 28.218105 
L 228.365152 28.884163 
L 230.525909 29.548441 
L 230.738251 29.613737 
L 232.686667 30.21707 
L 234.847424 30.884562 
L 237.008182 31.550263 
L 237.496254 31.700606 
L 239.168939 32.219452 
L 241.329697 32.888368 
L 243.490455 33.555482 
L 244.2423 33.787475 
L 245.651212 34.225255 
L 247.81197 34.895584 
L 249.972727 35.564103 
L 250.976434 35.874343 
L 252.133485 36.234484 
L 254.294242 36.906217 
L 256.455 37.57613 
" style="fill:none;stroke:#d95847;"/>
   </g>
   <g id="LineCollection_42">
    <path clip-path="url(#pe68a69fbb6)" d="M 225.431659 25.44 
L 226.204394 25.678849 
L 228.365152 26.346325 
L 230.525909 27.01203 
L 232.200197 27.526869 
L 232.686667 27.677491 
L 234.847424 28.346388 
L 237.008182 29.013504 
L 238.956858 29.613737 
L 239.168939 29.679515 
L 241.329697 30.349823 
L 243.490455 31.01834 
L 245.651212 31.685082 
L 245.701498 31.700606 
L 247.81197 32.356634 
L 249.972727 33.026543 
L 252.133485 33.694667 
L 252.433602 33.787475 
L 254.294242 34.366827 
L 256.455 35.038118 
" style="fill:none;stroke:#d24b40;"/>
   </g>
   <g id="LineCollection_43">
    <path clip-path="url(#pe68a69fbb6)" d="M 233.562189 25.44 
L 234.847424 25.838113 
L 237.008182 26.50652 
L 239.168939 27.173172 
L 240.316646 27.526869 
L 241.329697 27.841199 
L 243.490455 28.510995 
L 245.651212 29.179026 
L 247.059437 29.613737 
L 247.81197 29.847627 
L 249.972727 30.518803 
L 252.133485 31.188204 
L 253.790602 31.700606 
L 254.294242 31.857403 
L 256.455 32.529948 
" style="fill:none;stroke:#cc403a;"/>
   </g>
   <g id="LineCollection_44">
    <path clip-path="url(#pe68a69fbb6)" d="M 241.581457 25.44 
L 243.490455 26.032565 
L 245.651212 26.701769 
L 247.81197 27.369235 
L 248.322377 27.526869 
L 249.972727 28.039999 
L 252.133485 28.710561 
L 254.294242 29.379376 
L 255.051832 29.613737 
L 256.455 30.050737 
" style="fill:none;stroke:#c43032;"/>
   </g>
   <g id="LineCollection_45">
    <path clip-path="url(#pe68a69fbb6)" d="M 249.492539 25.44 
L 249.972727 25.589282 
L 252.133485 26.260895 
L 254.294242 26.930772 
L 256.221324 27.526869 
L 256.455 27.599634 
" style="fill:none;stroke:#bb1b2c;"/>
   </g>
   <g id="LineCollection_46"/>
   <g id="line2d_11">
    <path clip-path="url(#pe68a69fbb6)" d="M 42.54 128.74 
L 256.455 128.74 
" style="fill:none;stroke:#000000;stroke-linecap:square;stroke-width:1.5;"/>
   </g>
   <g id="line2d_12">
    <path clip-path="url(#pe68a69fbb6)" d="M 149.4975 232.04 
L 149.4975 25.44 
" style="fill:none;stroke:#000000;stroke-linecap:square;stroke-width:1.5;"/>
   </g>
   <g id="line2d_13">
    <path clip-path="url(#pe68a69fbb6)" d="M 170.889 128.74 
L 170.843199 127.388771 
L 170.705993 126.043329 
L 170.477968 124.709434 
L 170.160102 123.392799 
L 169.753756 122.099061 
L 169.260669 120.83376 
L 168.682953 119.602316 
L 168.023082 118.41 
L 167.283882 117.261919 
L 166.468518 116.162989 
L 165.580481 115.117915 
L 164.623575 114.131174 
L 163.601896 113.20699 
L 162.51982 112.34932 
L 161.381981 111.561838 
L 160.19325 110.847915 
L 158.958719 110.210609 
L 157.683673 109.652649 
L 156.373572 109.176424 
L 155.034028 108.783972 
L 153.670775 108.476976 
L 152.289651 108.256749 
L 150.896571 108.124235 
L 149.4975 108.08 
L 149.4975 108.08 
L 148.098429 108.124235 
L 146.705349 108.256749 
L 145.324225 108.476976 
L 143.960972 108.783972 
L 142.621428 109.176424 
L 141.311327 109.652649 
L 140.036281 110.210609 
L 138.80175 110.847915 
L 137.613019 111.561838 
L 136.47518 112.34932 
L 135.393104 113.20699 
L 134.371425 114.131174 
L 133.414519 115.117915 
L 132.526482 116.162989 
L 131.711118 117.261919 
L 130.971918 118.41 
L 130.312047 119.602316 
L 129.734331 120.83376 
L 129.241244 122.099061 
L 128.834898 123.392799 
L 128.517032 124.709434 
L 128.289007 126.043329 
L 128.151801 127.388771 
L 128.106 128.74 
L 128.106 128.74 
L 128.151801 130.091229 
L 128.289007 131.436671 
L 128.517032 132.770566 
L 128.834898 134.087201 
L 129.241244 135.380939 
L 129.734331 136.64624 
L 130.312047 137.877684 
L 130.971918 139.07 
L 131.711118 140.218081 
L 132.526482 141.317011 
L 133.414519 142.362085 
L 134.371425 143.348826 
L 135.393104 144.27301 
L 136.47518 145.13068 
L 137.613019 145.918162 
L 138.80175 146.632085 
L 140.036281 147.269391 
L 141.311327 147.827351 
L 142.621428 148.303576 
L 143.960972 148.696028 
L 145.324225 149.003024 
L 146.705349 149.223251 
L 148.098429 149.355765 
L 149.4975 149.4 
L 149.4975 149.4 
L 150.896571 149.355765 
L 152.289651 149.223251 
L 153.670775 149.003024 
L 155.034028 148.696028 
L 156.373572 148.303576 
L 157.683673 147.827351 
L 158.958719 147.269391 
L 160.19325 146.632085 
L 161.381981 145.918162 
L 162.51982 145.13068 
L 163.601896 144.27301 
L 164.623575 143.348826 
L 165.580481 142.362085 
L 166.468518 141.317011 
L 167.283882 140.218081 
L 168.023082 139.07 
L 168.682953 137.877684 
L 169.260669 136.64624 
L 169.753756 135.380939 
L 170.160102 134.087201 
L 170.477968 132.770566 
L 170.705993 131.436671 
L 170.843199 130.091229 
L 170.889 128.74 
" style="fill:none;stroke:#a22396;stroke-linecap:square;stroke-width:1.5;"/>
   </g>
   <g id="patch_3">
    <path d="M 42.54 232.04 
L 42.54 25.44 
" style="fill:none;stroke:#000000;stroke-linecap:square;stroke-linejoin:miter;stroke-width:0.8;"/>
   </g>
   <g id="patch_4">
    <path d="M 256.455 232.04 
L 256.455 25.44 
" style="fill:none;stroke:#000000;stroke-linecap:square;stroke-linejoin:miter;stroke-width:0.8;"/>
   </g>
   <g id="patch_5">
    <path d="M 42.54 232.04 
L 256.455 232.04 
" style="fill:none;stroke:#000000;stroke-linecap:square;stroke-linejoin:miter;stroke-width:0.8;"/>
   </g>
   <g id="patch_6">
    <path d="M 42.54 25.44 
L 256.455 25.44 
" style="fill:none;stroke:#000000;stroke-linecap:square;stroke-linejoin:miter;stroke-width:0.8;"/>
   </g>
   <g id="text_13">
    <!-- L2 constraint w/loss function -->
    <defs>
     <path d="M 9.8125 72.90625 
L 19.671875 72.90625 
L 19.671875 8.296875 
L 55.171875 8.296875 
L 55.171875 0 
L 9.8125 0 
z
" id="DejaVuSans-76"/>
     <path id="DejaVuSans-32"/>
     <path d="M 48.78125 52.59375 
L 48.78125 44.1875 
Q 44.96875 46.296875 41.140625 47.34375 
Q 37.3125 48.390625 33.40625 48.390625 
Q 24.65625 48.390625 19.8125 42.84375 
Q 14.984375 37.3125 14.984375 27.296875 
Q 14.984375 17.28125 19.8125 11.734375 
Q 24.65625 6.203125 33.40625 6.203125 
Q 37.3125 6.203125 41.140625 7.25 
Q 44.96875 8.296875 48.78125 10.40625 
L 48.78125 2.09375 
Q 45.015625 0.34375 40.984375 -0.53125 
Q 36.96875 -1.421875 32.421875 -1.421875 
Q 20.0625 -1.421875 12.78125 6.34375 
Q 5.515625 14.109375 5.515625 27.296875 
Q 5.515625 40.671875 12.859375 48.328125 
Q 20.21875 56 33.015625 56 
Q 37.15625 56 41.109375 55.140625 
Q 45.0625 54.296875 48.78125 52.59375 
z
" id="DejaVuSans-99"/>
     <path d="M 30.609375 48.390625 
Q 23.390625 48.390625 19.1875 42.75 
Q 14.984375 37.109375 14.984375 27.296875 
Q 14.984375 17.484375 19.15625 11.84375 
Q 23.34375 6.203125 30.609375 6.203125 
Q 37.796875 6.203125 41.984375 11.859375 
Q 46.1875 17.53125 46.1875 27.296875 
Q 46.1875 37.015625 41.984375 42.703125 
Q 37.796875 48.390625 30.609375 48.390625 
z
M 30.609375 56 
Q 42.328125 56 49.015625 48.375 
Q 55.71875 40.765625 55.71875 27.296875 
Q 55.71875 13.875 49.015625 6.21875 
Q 42.328125 -1.421875 30.609375 -1.421875 
Q 18.84375 -1.421875 12.171875 6.21875 
Q 5.515625 13.875 5.515625 27.296875 
Q 5.515625 40.765625 12.171875 48.375 
Q 18.84375 56 30.609375 56 
z
" id="DejaVuSans-111"/>
     <path d="M 54.890625 33.015625 
L 54.890625 0 
L 45.90625 0 
L 45.90625 32.71875 
Q 45.90625 40.484375 42.875 44.328125 
Q 39.84375 48.1875 33.796875 48.1875 
Q 26.515625 48.1875 22.3125 43.546875 
Q 18.109375 38.921875 18.109375 30.90625 
L 18.109375 0 
L 9.078125 0 
L 9.078125 54.6875 
L 18.109375 54.6875 
L 18.109375 46.1875 
Q 21.34375 51.125 25.703125 53.5625 
Q 30.078125 56 35.796875 56 
Q 45.21875 56 50.046875 50.171875 
Q 54.890625 44.34375 54.890625 33.015625 
z
" id="DejaVuSans-110"/>
     <path d="M 44.28125 53.078125 
L 44.28125 44.578125 
Q 40.484375 46.53125 36.375 47.5 
Q 32.28125 48.484375 27.875 48.484375 
Q 21.1875 48.484375 17.84375 46.4375 
Q 14.5 44.390625 14.5 40.28125 
Q 14.5 37.15625 16.890625 35.375 
Q 19.28125 33.59375 26.515625 31.984375 
L 29.59375 31.296875 
Q 39.15625 29.25 43.1875 25.515625 
Q 47.21875 21.78125 47.21875 15.09375 
Q 47.21875 7.46875 41.1875 3.015625 
Q 35.15625 -1.421875 24.609375 -1.421875 
Q 20.21875 -1.421875 15.453125 -0.5625 
Q 10.6875 0.296875 5.421875 2 
L 5.421875 11.28125 
Q 10.40625 8.6875 15.234375 7.390625 
Q 20.0625 6.109375 24.8125 6.109375 
Q 31.15625 6.109375 34.5625 8.28125 
Q 37.984375 10.453125 37.984375 14.40625 
Q 37.984375 18.0625 35.515625 20.015625 
Q 33.0625 21.96875 24.703125 23.78125 
L 21.578125 24.515625 
Q 13.234375 26.265625 9.515625 29.90625 
Q 5.8125 33.546875 5.8125 39.890625 
Q 5.8125 47.609375 11.28125 51.796875 
Q 16.75 56 26.8125 56 
Q 31.78125 56 36.171875 55.265625 
Q 40.578125 54.546875 44.28125 53.078125 
z
" id="DejaVuSans-115"/>
     <path d="M 18.3125 70.21875 
L 18.3125 54.6875 
L 36.8125 54.6875 
L 36.8125 47.703125 
L 18.3125 47.703125 
L 18.3125 18.015625 
Q 18.3125 11.328125 20.140625 9.421875 
Q 21.96875 7.515625 27.59375 7.515625 
L 36.8125 7.515625 
L 36.8125 0 
L 27.59375 0 
Q 17.1875 0 13.234375 3.875 
Q 9.28125 7.765625 9.28125 18.015625 
L 9.28125 47.703125 
L 2.6875 47.703125 
L 2.6875 54.6875 
L 9.28125 54.6875 
L 9.28125 70.21875 
z
" id="DejaVuSans-116"/>
     <path d="M 41.109375 46.296875 
Q 39.59375 47.171875 37.8125 47.578125 
Q 36.03125 48 33.890625 48 
Q 26.265625 48 22.1875 43.046875 
Q 18.109375 38.09375 18.109375 28.8125 
L 18.109375 0 
L 9.078125 0 
L 9.078125 54.6875 
L 18.109375 54.6875 
L 18.109375 46.1875 
Q 20.953125 51.171875 25.484375 53.578125 
Q 30.03125 56 36.53125 56 
Q 37.453125 56 38.578125 55.875 
Q 39.703125 55.765625 41.0625 55.515625 
z
" id="DejaVuSans-114"/>
     <path d="M 34.28125 27.484375 
Q 23.390625 27.484375 19.1875 25 
Q 14.984375 22.515625 14.984375 16.5 
Q 14.984375 11.71875 18.140625 8.90625 
Q 21.296875 6.109375 26.703125 6.109375 
Q 34.1875 6.109375 38.703125 11.40625 
Q 43.21875 16.703125 43.21875 25.484375 
L 43.21875 27.484375 
z
M 52.203125 31.203125 
L 52.203125 0 
L 43.21875 0 
L 43.21875 8.296875 
Q 40.140625 3.328125 35.546875 0.953125 
Q 30.953125 -1.421875 24.3125 -1.421875 
Q 15.921875 -1.421875 10.953125 3.296875 
Q 6 8.015625 6 15.921875 
Q 6 25.140625 12.171875 29.828125 
Q 18.359375 34.515625 30.609375 34.515625 
L 43.21875 34.515625 
L 43.21875 35.40625 
Q 43.21875 41.609375 39.140625 45 
Q 35.0625 48.390625 27.6875 48.390625 
Q 23 48.390625 18.546875 47.265625 
Q 14.109375 46.140625 10.015625 43.890625 
L 10.015625 52.203125 
Q 14.9375 54.109375 19.578125 55.046875 
Q 24.21875 56 28.609375 56 
Q 40.484375 56 46.34375 49.84375 
Q 52.203125 43.703125 52.203125 31.203125 
z
" id="DejaVuSans-97"/>
     <path d="M 9.421875 54.6875 
L 18.40625 54.6875 
L 18.40625 0 
L 9.421875 0 
z
M 9.421875 75.984375 
L 18.40625 75.984375 
L 18.40625 64.59375 
L 9.421875 64.59375 
z
" id="DejaVuSans-105"/>
     <path d="M 4.203125 54.6875 
L 13.1875 54.6875 
L 24.421875 12.015625 
L 35.59375 54.6875 
L 46.1875 54.6875 
L 57.421875 12.015625 
L 68.609375 54.6875 
L 77.59375 54.6875 
L 63.28125 0 
L 52.6875 0 
L 40.921875 44.828125 
L 29.109375 0 
L 18.5 0 
z
" id="DejaVuSans-119"/>
     <path d="M 25.390625 72.90625 
L 33.6875 72.90625 
L 8.296875 -9.28125 
L 0 -9.28125 
z
" id="DejaVuSans-47"/>
     <path d="M 9.421875 75.984375 
L 18.40625 75.984375 
L 18.40625 0 
L 9.421875 0 
z
" id="DejaVuSans-108"/>
     <path d="M 37.109375 75.984375 
L 37.109375 68.5 
L 28.515625 68.5 
Q 23.6875 68.5 21.796875 66.546875 
Q 19.921875 64.59375 19.921875 59.515625 
L 19.921875 54.6875 
L 34.71875 54.6875 
L 34.71875 47.703125 
L 19.921875 47.703125 
L 19.921875 0 
L 10.890625 0 
L 10.890625 47.703125 
L 2.296875 47.703125 
L 2.296875 54.6875 
L 10.890625 54.6875 
L 10.890625 58.5 
Q 10.890625 67.625 15.140625 71.796875 
Q 19.390625 75.984375 28.609375 75.984375 
z
" id="DejaVuSans-102"/>
     <path d="M 8.5 21.578125 
L 8.5 54.6875 
L 17.484375 54.6875 
L 17.484375 21.921875 
Q 17.484375 14.15625 20.5 10.265625 
Q 23.53125 6.390625 29.59375 6.390625 
Q 36.859375 6.390625 41.078125 11.03125 
Q 45.3125 15.671875 45.3125 23.6875 
L 45.3125 54.6875 
L 54.296875 54.6875 
L 54.296875 0 
L 45.3125 0 
L 45.3125 8.40625 
Q 42.046875 3.421875 37.71875 1 
Q 33.40625 -1.421875 27.6875 -1.421875 
Q 18.265625 -1.421875 13.375 4.4375 
Q 8.5 10.296875 8.5 21.578125 
z
M 31.109375 56 
z
" id="DejaVuSans-117"/>
    </defs>
    <g transform="translate(63.374063 19.44)scale(0.12 -0.12)">
     <use xlink:href="#DejaVuSans-76"/>
     <use x="55.712891" xlink:href="#DejaVuSans-50"/>
     <use x="119.335938" xlink:href="#DejaVuSans-32"/>
     <use x="151.123047" xlink:href="#DejaVuSans-99"/>
     <use x="206.103516" xlink:href="#DejaVuSans-111"/>
     <use x="267.285156" xlink:href="#DejaVuSans-110"/>
     <use x="330.664062" xlink:href="#DejaVuSans-115"/>
     <use x="382.763672" xlink:href="#DejaVuSans-116"/>
     <use x="421.972656" xlink:href="#DejaVuSans-114"/>
     <use x="463.085938" xlink:href="#DejaVuSans-97"/>
     <use x="524.365234" xlink:href="#DejaVuSans-105"/>
     <use x="552.148438" xlink:href="#DejaVuSans-110"/>
     <use x="615.527344" xlink:href="#DejaVuSans-116"/>
     <use x="654.736328" xlink:href="#DejaVuSans-32"/>
     <use x="686.523438" xlink:href="#DejaVuSans-119"/>
     <use x="768.310547" xlink:href="#DejaVuSans-47"/>
     <use x="802.001953" xlink:href="#DejaVuSans-108"/>
     <use x="829.785156" xlink:href="#DejaVuSans-111"/>
     <use x="890.966797" xlink:href="#DejaVuSans-115"/>
     <use x="943.066406" xlink:href="#DejaVuSans-115"/>
     <use x="995.166016" xlink:href="#DejaVuSans-32"/>
     <use x="1026.953125" xlink:href="#DejaVuSans-102"/>
     <use x="1062.158203" xlink:href="#DejaVuSans-117"/>
     <use x="1125.537109" xlink:href="#DejaVuSans-110"/>
     <use x="1188.916016" xlink:href="#DejaVuSans-99"/>
     <use x="1243.896484" xlink:href="#DejaVuSans-116"/>
     <use x="1283.105469" xlink:href="#DejaVuSans-105"/>
     <use x="1310.888672" xlink:href="#DejaVuSans-111"/>
     <use x="1372.070312" xlink:href="#DejaVuSans-110"/>
    </g>
   </g>
  </g>
 </g>
 <defs>
  <clipPath id="pe68a69fbb6">
   <rect height="206.6" width="213.915" x="42.54" y="25.44"/>
  </clipPath>
 </defs>
</svg>
