<?xml version="1.0" encoding="utf-8" standalone="no"?>
<!DOCTYPE svg PUBLIC "-//W3C//DTD SVG 1.1//EN"
  "http://www.w3.org/Graphics/SVG/1.1/DTD/svg11.dtd">
<!-- Created with matplotlib (https://matplotlib.org/) -->
<svg height="273.6pt" version="1.1" viewBox="0 0 273.6 273.6" width="273.6pt" xmlns="http://www.w3.org/2000/svg" xmlns:xlink="http://www.w3.org/1999/xlink">
 <defs>
  <style type="text/css">
*{stroke-linecap:butt;stroke-linejoin:round;}
  </style>
 </defs>
 <g id="figure_1">
  <g id="patch_1">
   <path d="M 0 273.6 
L 273.6 273.6 
L 273.6 0 
L 0 0 
z
" style="fill:#ffffff;"/>
  </g>
  <g id="axes_1">
   <g id="patch_2">
    <path d="M 56.54 228.04 
L 256.455 228.04 
L 256.455 25.44 
L 56.54 25.44 
z
" style="fill:#ffffff;"/>
   </g>
   <g id="PathCollection_1">
    <defs>
     <path d="M 0 4.743416 
C 1.257969 4.743416 2.464584 4.24362 3.354102 3.354102 
C 4.24362 2.464584 4.743416 1.257969 4.743416 0 
C 4.743416 -1.257969 4.24362 -2.464584 3.354102 -3.354102 
C 2.464584 -4.24362 1.257969 -4.743416 0 -4.743416 
C -1.257969 -4.743416 -2.464584 -4.24362 -3.354102 -3.354102 
C -4.24362 -2.464584 -4.743416 -1.257969 -4.743416 0 
C -4.743416 1.257969 -4.24362 2.464584 -3.354102 3.354102 
C -2.464584 4.24362 -1.257969 4.743416 0 4.743416 
z
" id="m2bdecdfc3c" style="stroke:#000000;"/>
    </defs>
    <g clip-path="url(#p524ca39d89)">
     <use style="stroke:#000000;" x="115.874872" xlink:href="#m2bdecdfc3c" y="190.007679"/>
    </g>
   </g>
   <g id="PathCollection_2">
    <defs>
     <path d="M 0 4.743416 
C 1.257969 4.743416 2.464584 4.24362 3.354102 3.354102 
C 4.24362 2.464584 4.743416 1.257969 4.743416 0 
C 4.743416 -1.257969 4.24362 -2.464584 3.354102 -3.354102 
C 2.464584 -4.24362 1.257969 -4.743416 0 -4.743416 
C -1.257969 -4.743416 -2.464584 -4.24362 -3.354102 -3.354102 
C -4.24362 -2.464584 -4.743416 -1.257969 -4.743416 0 
C -4.743416 1.257969 -4.24362 2.464584 -3.354102 3.354102 
C -2.464584 4.24362 -1.257969 4.743416 0 4.743416 
z
" id="m02edfef5a3" style="stroke:#d73028;"/>
    </defs>
    <g clip-path="url(#p524ca39d89)">
     <use style="fill:#d73028;stroke:#d73028;" x="146.50175" xlink:href="#m02edfef5a3" y="144.285675"/>
    </g>
   </g>
   <g id="matplotlib.axis_1">
    <g id="xtick_1">
     <g id="line2d_1">
      <defs>
       <path d="M 0 0 
L 0 3.5 
" id="m7f2ccaba6f" style="stroke:#000000;stroke-width:0.8;"/>
      </defs>
      <g>
       <use style="stroke:#000000;stroke-width:0.8;" x="56.54" xlink:href="#m7f2ccaba6f" y="228.04"/>
      </g>
     </g>
     <g id="text_1">
      <!-- −10 -->
      <defs>
       <path d="M 10.59375 35.5 
L 73.1875 35.5 
L 73.1875 27.203125 
L 10.59375 27.203125 
z
" id="DejaVuSans-8722"/>
       <path d="M 12.40625 8.296875 
L 28.515625 8.296875 
L 28.515625 63.921875 
L 10.984375 60.40625 
L 10.984375 69.390625 
L 28.421875 72.90625 
L 38.28125 72.90625 
L 38.28125 8.296875 
L 54.390625 8.296875 
L 54.390625 0 
L 12.40625 0 
z
" id="DejaVuSans-49"/>
       <path d="M 31.78125 66.40625 
Q 24.171875 66.40625 20.328125 58.90625 
Q 16.5 51.421875 16.5 36.375 
Q 16.5 21.390625 20.328125 13.890625 
Q 24.171875 6.390625 31.78125 6.390625 
Q 39.453125 6.390625 43.28125 13.890625 
Q 47.125 21.390625 47.125 36.375 
Q 47.125 51.421875 43.28125 58.90625 
Q 39.453125 66.40625 31.78125 66.40625 
z
M 31.78125 74.21875 
Q 44.046875 74.21875 50.515625 64.515625 
Q 56.984375 54.828125 56.984375 36.375 
Q 56.984375 17.96875 50.515625 8.265625 
Q 44.046875 -1.421875 31.78125 -1.421875 
Q 19.53125 -1.421875 13.0625 8.265625 
Q 6.59375 17.96875 6.59375 36.375 
Q 6.59375 54.828125 13.0625 64.515625 
Q 19.53125 74.21875 31.78125 74.21875 
z
" id="DejaVuSans-48"/>
      </defs>
      <g transform="translate(45.987656 242.638437)scale(0.1 -0.1)">
       <use xlink:href="#DejaVuSans-8722"/>
       <use x="83.789062" xlink:href="#DejaVuSans-49"/>
       <use x="147.412109" xlink:href="#DejaVuSans-48"/>
      </g>
     </g>
    </g>
    <g id="xtick_2">
     <g id="line2d_2">
      <g>
       <use style="stroke:#000000;stroke-width:0.8;" x="106.51875" xlink:href="#m7f2ccaba6f" y="228.04"/>
      </g>
     </g>
     <g id="text_2">
      <!-- −5 -->
      <defs>
       <path d="M 10.796875 72.90625 
L 49.515625 72.90625 
L 49.515625 64.59375 
L 19.828125 64.59375 
L 19.828125 46.734375 
Q 21.96875 47.46875 24.109375 47.828125 
Q 26.265625 48.1875 28.421875 48.1875 
Q 40.625 48.1875 47.75 41.5 
Q 54.890625 34.8125 54.890625 23.390625 
Q 54.890625 11.625 47.5625 5.09375 
Q 40.234375 -1.421875 26.90625 -1.421875 
Q 22.3125 -1.421875 17.546875 -0.640625 
Q 12.796875 0.140625 7.71875 1.703125 
L 7.71875 11.625 
Q 12.109375 9.234375 16.796875 8.0625 
Q 21.484375 6.890625 26.703125 6.890625 
Q 35.15625 6.890625 40.078125 11.328125 
Q 45.015625 15.765625 45.015625 23.390625 
Q 45.015625 31 40.078125 35.4375 
Q 35.15625 39.890625 26.703125 39.890625 
Q 22.75 39.890625 18.8125 39.015625 
Q 14.890625 38.140625 10.796875 36.28125 
z
" id="DejaVuSans-53"/>
      </defs>
      <g transform="translate(99.147656 242.638437)scale(0.1 -0.1)">
       <use xlink:href="#DejaVuSans-8722"/>
       <use x="83.789062" xlink:href="#DejaVuSans-53"/>
      </g>
     </g>
    </g>
    <g id="xtick_3">
     <g id="line2d_3">
      <g>
       <use style="stroke:#000000;stroke-width:0.8;" x="156.4975" xlink:href="#m7f2ccaba6f" y="228.04"/>
      </g>
     </g>
     <g id="text_3">
      <!-- 0 -->
      <g transform="translate(153.31625 242.638437)scale(0.1 -0.1)">
       <use xlink:href="#DejaVuSans-48"/>
      </g>
     </g>
    </g>
    <g id="xtick_4">
     <g id="line2d_4">
      <g>
       <use style="stroke:#000000;stroke-width:0.8;" x="206.47625" xlink:href="#m7f2ccaba6f" y="228.04"/>
      </g>
     </g>
     <g id="text_4">
      <!-- 5 -->
      <g transform="translate(203.295 242.638437)scale(0.1 -0.1)">
       <use xlink:href="#DejaVuSans-53"/>
      </g>
     </g>
    </g>
    <g id="xtick_5">
     <g id="line2d_5">
      <g>
       <use style="stroke:#000000;stroke-width:0.8;" x="256.455" xlink:href="#m7f2ccaba6f" y="228.04"/>
      </g>
     </g>
     <g id="text_5">
      <!-- 10 -->
      <g transform="translate(250.0925 242.638437)scale(0.1 -0.1)">
       <use xlink:href="#DejaVuSans-49"/>
       <use x="63.623047" xlink:href="#DejaVuSans-48"/>
      </g>
     </g>
    </g>
    <g id="text_6">
     <!-- $\beta_1$ -->
     <defs>
      <path d="M 13.625 3.375 
L 8.9375 -20.796875 
L -0.09375 -20.796875 
L 14.5 54.34375 
Q 18.84375 76.609375 39.65625 76.609375 
Q 60.75 76.609375 57.171875 57.8125 
Q 54.734375 44.4375 45.21875 39.546875 
Q 58.015625 35.15625 55.515625 22.125 
Q 51.125 -1.078125 27.484375 -1.03125 
Q 17.140625 -0.984375 13.625 3.375 
z
M 15.921875 15.09375 
Q 19.671875 6.59375 29.296875 6.640625 
Q 43.359375 6.640625 46.34375 21.96875 
Q 49.03125 35.75 26.171875 34.671875 
L 27.78125 42.96875 
Q 45.453125 42.671875 48.53125 58.59375 
Q 50.640625 69.34375 39.203125 69.28125 
Q 26.421875 69.28125 23.484375 54.046875 
z
" id="DejaVuSans-Oblique-946"/>
     </defs>
     <g transform="translate(149.7775 257.958125)scale(0.12 -0.12)">
      <use transform="translate(0 0.390625)" xlink:href="#DejaVuSans-Oblique-946"/>
      <use transform="translate(63.818359 -16.015625)scale(0.7)" xlink:href="#DejaVuSans-49"/>
     </g>
    </g>
   </g>
   <g id="matplotlib.axis_2">
    <g id="ytick_1">
     <g id="line2d_6">
      <defs>
       <path d="M 0 0 
L -3.5 0 
" id="m545ab1a0b9" style="stroke:#000000;stroke-width:0.8;"/>
      </defs>
      <g>
       <use style="stroke:#000000;stroke-width:0.8;" x="56.54" xlink:href="#m545ab1a0b9" y="228.04"/>
      </g>
     </g>
     <g id="text_7">
      <!-- −10 -->
      <g transform="translate(28.435312 231.839219)scale(0.1 -0.1)">
       <use xlink:href="#DejaVuSans-8722"/>
       <use x="83.789062" xlink:href="#DejaVuSans-49"/>
       <use x="147.412109" xlink:href="#DejaVuSans-48"/>
      </g>
     </g>
    </g>
    <g id="ytick_2">
     <g id="line2d_7">
      <g>
       <use style="stroke:#000000;stroke-width:0.8;" x="56.54" xlink:href="#m545ab1a0b9" y="177.39"/>
      </g>
     </g>
     <g id="text_8">
      <!-- −5 -->
      <g transform="translate(34.797812 181.189219)scale(0.1 -0.1)">
       <use xlink:href="#DejaVuSans-8722"/>
       <use x="83.789062" xlink:href="#DejaVuSans-53"/>
      </g>
     </g>
    </g>
    <g id="ytick_3">
     <g id="line2d_8">
      <g>
       <use style="stroke:#000000;stroke-width:0.8;" x="56.54" xlink:href="#m545ab1a0b9" y="126.74"/>
      </g>
     </g>
     <g id="text_9">
      <!-- 0 -->
      <g transform="translate(43.1775 130.539219)scale(0.1 -0.1)">
       <use xlink:href="#DejaVuSans-48"/>
      </g>
     </g>
    </g>
    <g id="ytick_4">
     <g id="line2d_9">
      <g>
       <use style="stroke:#000000;stroke-width:0.8;" x="56.54" xlink:href="#m545ab1a0b9" y="76.09"/>
      </g>
     </g>
     <g id="text_10">
      <!-- 5 -->
      <g transform="translate(43.1775 79.889219)scale(0.1 -0.1)">
       <use xlink:href="#DejaVuSans-53"/>
      </g>
     </g>
    </g>
    <g id="ytick_5">
     <g id="line2d_10">
      <g>
       <use style="stroke:#000000;stroke-width:0.8;" x="56.54" xlink:href="#m545ab1a0b9" y="25.44"/>
      </g>
     </g>
     <g id="text_11">
      <!-- 10 -->
      <g transform="translate(36.815 29.239219)scale(0.1 -0.1)">
       <use xlink:href="#DejaVuSans-49"/>
       <use x="63.623047" xlink:href="#DejaVuSans-48"/>
      </g>
     </g>
    </g>
    <g id="text_12">
     <!-- $\beta_2$ -->
     <defs>
      <path d="M 19.1875 8.296875 
L 53.609375 8.296875 
L 53.609375 0 
L 7.328125 0 
L 7.328125 8.296875 
Q 12.9375 14.109375 22.625 23.890625 
Q 32.328125 33.6875 34.8125 36.53125 
Q 39.546875 41.84375 41.421875 45.53125 
Q 43.3125 49.21875 43.3125 52.78125 
Q 43.3125 58.59375 39.234375 62.25 
Q 35.15625 65.921875 28.609375 65.921875 
Q 23.96875 65.921875 18.8125 64.3125 
Q 13.671875 62.703125 7.8125 59.421875 
L 7.8125 69.390625 
Q 13.765625 71.78125 18.9375 73 
Q 24.125 74.21875 28.421875 74.21875 
Q 39.75 74.21875 46.484375 68.546875 
Q 53.21875 62.890625 53.21875 53.421875 
Q 53.21875 48.921875 51.53125 44.890625 
Q 49.859375 40.875 45.40625 35.40625 
Q 44.1875 33.984375 37.640625 27.21875 
Q 31.109375 20.453125 19.1875 8.296875 
z
" id="DejaVuSans-50"/>
     </defs>
     <g transform="translate(21.915312 133.46)rotate(-90)scale(0.12 -0.12)">
      <use transform="translate(0 0.390625)" xlink:href="#DejaVuSans-Oblique-946"/>
      <use transform="translate(63.818359 -16.015625)scale(0.7)" xlink:href="#DejaVuSans-50"/>
     </g>
    </g>
   </g>
   <g id="LineCollection_1"/>
   <g id="LineCollection_2">
    <path clip-path="url(#p524ca39d89)" d="M 111.062273 222.263714 
L 109.042929 221.898343 
L 105.004242 220.80467 
L 102.365227 219.854141 
L 98.946212 218.286151 
L 96.926869 217.16224 
L 94.723954 215.761212 
L 92.037768 213.714747 
L 89.772326 211.668283 
L 87.84369 209.621818 
L 86.188858 207.575354 
L 84.759619 205.528889 
L 82.791465 201.972004 
L 82.532753 201.43596 
L 81.689512 199.389495 
L 80.772121 196.538333 
L 80.453839 195.296566 
L 80.067891 193.250101 
L 79.82108 191.203636 
L 79.714501 189.157172 
L 79.749263 187.110707 
L 79.926484 185.064242 
L 80.247295 183.017778 
L 80.772121 180.772413 
L 81.35747 178.924848 
L 82.791465 175.537251 
L 83.144941 174.831919 
L 84.810808 172.074555 
L 86.830152 169.409364 
L 88.849495 167.235618 
L 90.868838 165.419752 
L 92.888182 163.872582 
L 94.907525 162.532284 
L 98.785892 160.506667 
L 100.965556 159.629168 
L 104.671021 158.460202 
L 107.023586 157.940102 
L 111.062273 157.393022 
L 115.10096 157.262271 
L 119.139646 157.541993 
L 123.178333 158.226441 
L 125.197677 158.735801 
L 129.236364 160.101193 
L 131.255707 160.970662 
L 134.311602 162.553131 
L 137.313737 164.454809 
L 139.333081 165.991815 
L 141.352424 167.752473 
L 143.371768 169.79873 
L 145.391111 172.217736 
L 145.818995 172.785455 
L 147.410455 175.176674 
L 148.37091 176.878384 
L 149.429798 179.049823 
L 150.188644 180.971313 
L 150.854762 183.017778 
L 151.449141 185.450747 
L 151.739596 187.110707 
L 151.959955 189.157172 
L 152.041693 191.203636 
L 151.983728 193.250101 
L 151.78497 195.296566 
L 151.444029 197.34303 
L 150.931744 199.389495 
L 150.266608 201.43596 
L 149.429798 203.519365 
L 148.411928 205.528889 
L 147.194593 207.575354 
L 145.391111 210.042229 
L 143.371768 212.307146 
L 141.352424 214.202823 
L 139.333081 215.820113 
L 136.269652 217.807677 
L 133.275051 219.358659 
L 131.255707 220.214349 
L 127.21702 221.5165 
L 125.197677 221.992109 
L 121.15899 222.58185 
L 117.120303 222.759013 
L 113.081616 222.529344 
L 111.062273 222.263714 
L 111.062273 222.263714 
" style="fill:none;stroke:#4055c8;"/>
   </g>
   <g id="LineCollection_3">
    <path clip-path="url(#p524ca39d89)" d="M 88.438724 228.04 
L 84.810808 225.609916 
L 82.642205 223.947071 
L 80.273371 221.900606 
L 78.161315 219.854141 
L 76.270259 217.807677 
L 74.570774 215.761212 
L 72.694747 213.189815 
L 70.471227 209.621818 
L 68.42989 205.528889 
L 66.866714 201.43596 
L 66.253823 199.389495 
L 65.342877 195.296566 
L 64.83104 191.203636 
L 64.722838 187.110707 
L 65.022862 183.017778 
L 65.735776 178.924848 
L 66.636717 175.591587 
L 67.630265 172.785455 
L 68.656061 170.40161 
L 70.675404 166.597977 
L 72.694747 163.552866 
L 74.714091 160.956833 
L 76.733434 158.711378 
L 78.752778 156.744845 
L 80.772121 155.00386 
L 82.791465 153.44785 
L 84.810808 152.045424 
L 88.849495 149.678733 
L 92.888182 147.779586 
L 97.253666 146.181414 
L 100.965556 145.162943 
L 105.004242 144.356619 
L 109.042929 143.868152 
L 113.081616 143.678543 
L 117.120303 143.775202 
L 121.15899 144.156258 
L 125.197677 144.847016 
L 129.236364 145.828104 
L 133.275051 147.139681 
L 137.313737 148.791843 
L 141.352424 150.833345 
L 143.865576 152.320808 
L 147.410455 154.753436 
L 149.530249 156.413737 
L 151.851708 158.460202 
L 153.923878 160.506667 
L 155.781117 162.553131 
L 157.507172 164.676323 
L 159.526515 167.533022 
L 161.545859 170.875068 
L 163.471956 174.831919 
L 164.283226 176.878384 
L 165.59522 180.971313 
L 166.46456 185.064242 
L 166.938062 189.157172 
L 167.011278 193.250101 
L 166.679696 197.34303 
L 165.938733 201.43596 
L 165.406089 203.482424 
L 163.984774 207.575354 
L 163.089561 209.621818 
L 161.545859 212.588419 
L 159.526515 215.814881 
L 157.507172 218.484791 
L 155.487828 220.79735 
L 153.468485 222.82484 
L 151.449141 224.62128 
L 149.429798 226.22785 
L 146.827264 228.04 
L 146.827264 228.04 
" style="fill:none;stroke:#485fd1;"/>
   </g>
   <g id="LineCollection_4">
    <path clip-path="url(#p524ca39d89)" d="M 71.170268 228.04 
L 70.675404 227.558318 
L 69.132429 225.993535 
L 68.656061 225.484543 
L 67.272746 223.947071 
L 66.636717 223.200131 
L 65.571331 221.900606 
L 64.617374 220.66715 
L 64.011149 219.854141 
L 62.59803 217.837979 
L 62.577527 217.807677 
L 61.282472 215.761212 
L 60.578687 214.567393 
L 60.092885 213.714747 
L 59.013252 211.668283 
L 58.559343 210.732901 
L 58.037692 209.621818 
L 57.160837 207.575354 
L 56.54 205.973029 
" style="fill:none;stroke:#4f69d9;"/>
    <path clip-path="url(#p524ca39d89)" d="M 56.54 169.546827 
L 57.743569 166.646061 
L 58.717301 164.599596 
L 61.030169 160.506667 
L 62.59803 158.1415 
L 64.617374 155.458019 
L 67.327447 152.320808 
L 69.339842 150.274343 
L 72.694747 147.287401 
L 74.714091 145.69699 
L 76.889904 144.134949 
L 80.772121 141.708575 
L 84.810808 139.588264 
L 88.849495 137.824049 
L 92.888182 136.389196 
L 96.926869 135.246009 
L 100.965556 134.371207 
L 105.004242 133.751707 
L 109.042929 133.387691 
L 113.081616 133.260279 
L 117.120303 133.367569 
L 121.15899 133.707679 
L 125.197677 134.292631 
L 129.236364 135.122232 
L 133.275051 136.196386 
L 137.313737 137.544325 
L 141.352424 139.177159 
L 145.391111 141.117102 
L 149.429798 143.400363 
L 151.449141 144.684463 
L 155.487828 147.583168 
L 158.732562 150.274343 
L 161.545859 152.925809 
L 164.774118 156.413737 
L 166.451452 158.460202 
L 167.990454 160.506667 
L 170.674876 164.599596 
L 171.849753 166.646061 
L 173.870422 170.73899 
L 175.499226 174.831919 
L 176.171928 176.878384 
L 177.261443 180.971313 
L 178.012856 185.064242 
L 178.429895 189.157172 
L 178.523675 193.250101 
L 178.29126 197.34303 
L 177.700606 201.582985 
L 176.806853 205.528889 
L 175.531285 209.621818 
L 173.854025 213.714747 
L 172.849853 215.761212 
L 171.642576 217.979289 
L 169.132151 221.900606 
L 167.603889 223.975025 
L 165.584545 226.410622 
L 164.09834 228.04 
L 164.09834 228.04 
" style="fill:none;stroke:#4f69d9;"/>
   </g>
   <g id="LineCollection_5">
    <path clip-path="url(#p524ca39d89)" d="M 58.7623 228.04 
L 58.559343 227.793289 
L 57.126281 225.993535 
L 56.54 225.218264 
" style="fill:none;stroke:#5673e0;"/>
    <path clip-path="url(#p524ca39d89)" d="M 56.54 150.280176 
L 58.559343 147.873375 
L 60.578687 145.68619 
L 62.59803 143.687182 
L 64.617374 141.850849 
L 68.656061 138.609862 
L 70.675404 137.170587 
L 74.714091 134.602249 
L 78.752778 132.401674 
L 82.791465 130.526959 
L 86.830152 128.942336 
L 90.868838 127.617084 
L 94.907525 126.55114 
L 98.946212 125.704471 
L 102.984899 125.094551 
L 107.023586 124.693426 
L 111.062273 124.499622 
L 115.10096 124.51168 
L 119.139646 124.728151 
L 123.178333 125.147604 
L 127.21702 125.770284 
L 131.255707 126.617767 
L 135.605669 127.763232 
L 139.333081 128.964556 
L 143.371768 130.492901 
L 147.410455 132.278065 
L 151.449141 134.345895 
L 155.487828 136.725828 
L 159.526515 139.451534 
L 162.966442 142.088485 
L 165.584545 144.317452 
L 167.603889 146.187245 
L 171.526644 150.274343 
L 173.661919 152.803917 
L 176.386979 156.413737 
L 179.05856 160.506667 
L 181.33454 164.599596 
L 183.246925 168.692525 
L 184.824356 172.785455 
L 186.092546 176.878384 
L 187.05418 180.971313 
L 187.797323 185.621023 
L 188.120196 189.157172 
L 188.226179 193.250101 
L 188.0514 197.34303 
L 187.587812 201.43596 
L 186.823486 205.528889 
L 185.762877 209.621818 
L 184.363985 213.714747 
L 182.621222 217.807677 
L 180.49912 221.900606 
L 179.284325 223.947071 
L 176.501494 228.04 
L 176.501494 228.04 
" style="fill:none;stroke:#5673e0;"/>
   </g>
   <g id="LineCollection_6">
    <path clip-path="url(#p524ca39d89)" d="M 56.54 137.993583 
L 60.578687 134.481193 
L 64.019315 131.856162 
L 67.016937 129.809697 
L 70.675404 127.580323 
L 74.714091 125.426657 
L 78.752778 123.556033 
L 83.703039 121.623838 
L 86.830152 120.587086 
L 90.868838 119.438784 
L 94.907525 118.514073 
L 98.946212 117.782322 
L 102.984899 117.250371 
L 107.023586 116.910559 
L 111.062273 116.754665 
L 115.10096 116.781537 
L 119.139646 116.990034 
L 124.349233 117.530909 
L 127.21702 117.95924 
L 131.255707 118.727042 
L 135.294394 119.679833 
L 139.333081 120.843559 
L 143.371768 122.209147 
L 147.410455 123.79068 
L 151.667443 125.716768 
L 155.634484 127.763232 
L 159.526515 130.03257 
L 163.565202 132.692457 
L 167.603889 135.690031 
L 170.390577 137.995556 
L 173.661919 140.978991 
L 176.771368 144.134949 
L 179.719949 147.482361 
L 181.94519 150.274343 
L 184.840051 154.367273 
L 187.362686 158.460202 
L 189.540637 162.553131 
L 191.39879 166.646061 
L 192.959694 170.73899 
L 194.243827 174.831919 
L 195.254463 178.924848 
L 196.009026 183.017778 
L 196.500006 187.110707 
L 196.741023 191.203636 
L 196.730318 195.296566 
L 196.466118 199.389495 
L 195.874697 203.896274 
L 195.151846 207.575354 
L 194.089485 211.668283 
L 192.730257 215.761212 
L 191.067267 219.854141 
L 189.072308 223.947071 
L 186.713572 228.04 
L 186.713572 228.04 
" style="fill:none;stroke:#5e7de7;"/>
   </g>
   <g id="LineCollection_7">
    <path clip-path="url(#p524ca39d89)" d="M 56.54 128.195477 
L 59.900355 125.716768 
L 62.966007 123.670303 
L 66.636717 121.46437 
L 70.675404 119.316459 
L 74.714091 117.427687 
L 79.556659 115.484444 
L 82.791465 114.362742 
L 86.830152 113.144126 
L 90.868838 112.129651 
L 94.907525 111.295999 
L 98.946212 110.654079 
L 102.984899 110.183694 
L 107.023586 109.883848 
L 111.062273 109.753555 
L 115.10096 109.791835 
L 119.139646 109.997716 
L 123.178333 110.370234 
L 127.21702 110.908432 
L 131.255707 111.617115 
L 135.294394 112.506464 
L 139.333081 113.566165 
L 143.371768 114.821213 
L 147.410455 116.266451 
L 151.449141 117.913112 
L 155.487828 119.777329 
L 159.526515 121.877004 
L 163.565202 124.232062 
L 167.603889 126.864737 
L 171.655245 129.809697 
L 175.681263 133.107253 
L 178.814986 135.949091 
L 181.739293 138.863539 
L 184.681964 142.088485 
L 188.022605 146.181414 
L 190.962366 150.274343 
L 193.557389 154.367273 
L 195.874697 158.545733 
L 197.89404 162.756014 
L 199.499054 166.646061 
L 200.930561 170.73899 
L 202.116164 174.831919 
L 203.050613 178.924848 
L 203.755431 183.017778 
L 204.222853 187.110707 
L 204.45843 191.203636 
L 204.465148 195.296566 
L 204.241542 199.389495 
L 203.782255 203.482424 
L 203.077417 207.575354 
L 201.932727 212.393543 
L 200.921224 215.761212 
L 199.444559 219.854141 
L 197.680042 223.947071 
L 195.602974 228.04 
L 195.602974 228.04 
" style="fill:none;stroke:#6687ed;"/>
   </g>
   <g id="LineCollection_8">
    <path clip-path="url(#p524ca39d89)" d="M 56.54 119.788234 
L 60.04924 117.530909 
L 63.569589 115.484444 
L 67.490427 113.43798 
L 71.934215 111.391515 
L 74.714091 110.249954 
L 78.752778 108.763824 
L 83.395968 107.298586 
L 86.830152 106.376037 
L 91.860202 105.252121 
L 94.907525 104.700978 
L 98.946212 104.117223 
L 102.984899 103.692446 
L 107.023586 103.42579 
L 111.062273 103.316407 
L 115.10096 103.363453 
L 119.139646 103.56609 
L 123.178333 103.923488 
L 127.21702 104.434821 
L 132.047965 105.252121 
L 135.294394 105.932102 
L 140.699757 107.298586 
L 143.371768 108.088676 
L 147.410455 109.4219 
L 152.540197 111.391515 
L 157.178946 113.43798 
L 161.290045 115.484444 
L 164.993432 117.530909 
L 168.375255 119.577374 
L 171.642576 121.725459 
L 175.681263 124.654183 
L 179.719949 127.895775 
L 184.111929 131.856162 
L 188.137499 135.949091 
L 191.83601 140.187196 
L 194.898189 144.134949 
L 197.89404 148.468685 
L 200.255773 152.320808 
L 202.480862 156.413737 
L 204.435228 160.506667 
L 206.134976 164.599596 
L 207.586279 168.692525 
L 208.803498 172.785455 
L 210.010101 177.913386 
L 210.56828 180.971313 
L 211.121972 185.064242 
L 211.46332 189.157172 
L 211.591054 193.250101 
L 211.503895 197.34303 
L 211.200552 201.43596 
L 210.679724 205.528889 
L 209.938568 209.621818 
L 208.957765 213.714747 
L 207.745156 217.807677 
L 205.971414 222.664315 
L 204.543666 225.993535 
L 203.573797 228.04 
L 203.573797 228.04 
" style="fill:none;stroke:#6e90f2;"/>
   </g>
   <g id="LineCollection_9">
    <path clip-path="url(#p524ca39d89)" d="M 56.54 112.318498 
L 60.578687 109.998749 
L 64.617374 107.922262 
L 68.656061 106.069447 
L 72.694747 104.422759 
L 76.733434 102.966444 
L 82.669704 101.159192 
L 86.830152 100.11952 
L 91.717004 99.112727 
L 96.926869 98.295327 
L 102.984899 97.660707 
L 109.042929 97.357722 
L 115.10096 97.383881 
L 121.15899 97.73672 
L 127.21702 98.413799 
L 131.631313 99.112727 
L 137.313737 100.282052 
L 141.352424 101.291998 
L 147.410455 103.112457 
L 151.449141 104.539034 
L 155.487828 106.136827 
L 159.526515 107.917504 
L 163.565202 109.893816 
L 167.603889 112.079732 
L 171.642576 114.490578 
L 176.239317 117.530909 
L 179.719949 120.069876 
L 184.199995 123.670303 
L 187.797323 126.875202 
L 190.821162 129.809697 
L 194.651638 133.902626 
L 198.088835 137.995556 
L 201.166284 142.088485 
L 203.952071 146.210236 
L 206.400775 150.274343 
L 208.599575 154.367273 
L 210.54589 158.460202 
L 212.2538 162.553131 
L 214.048788 167.63195 
L 214.984251 170.73899 
L 216.068131 174.994866 
L 216.86363 178.924848 
L 217.496081 183.017778 
L 217.929376 187.110707 
L 218.160928 191.203636 
L 218.191922 195.296566 
L 218.02309 199.389495 
L 217.648487 203.482424 
L 217.06905 207.575354 
L 216.068131 212.606365 
L 215.275003 215.761212 
L 214.048788 219.855454 
L 212.579093 223.947071 
L 210.864398 228.04 
L 210.864398 228.04 
" style="fill:none;stroke:#7699f6;"/>
   </g>
   <g id="LineCollection_10">
    <path clip-path="url(#p524ca39d89)" d="M 56.54 105.517128 
L 60.965382 103.205657 
L 65.370288 101.159192 
L 70.675404 98.998108 
L 76.733434 96.915537 
L 82.791465 95.210669 
L 86.830152 94.275295 
L 92.888182 93.147742 
L 96.926869 92.582962 
L 102.984899 92.001736 
L 109.042929 91.731075 
L 115.10096 91.768793 
L 121.15899 92.112725 
L 127.21702 92.760727 
L 131.255707 93.36881 
L 137.313737 94.543171 
L 141.352424 95.505702 
L 147.410455 97.226132 
L 153.468485 99.298898 
L 159.526515 101.745459 
L 163.565202 103.593284 
L 167.603889 105.630018 
L 171.642576 107.868463 
L 175.681263 110.322608 
L 180.333493 113.43798 
L 183.758636 115.952993 
L 188.263836 119.577374 
L 192.827243 123.670303 
L 195.874697 126.67536 
L 198.814921 129.809697 
L 202.320976 133.902626 
L 205.971414 138.668052 
L 208.340096 142.088485 
L 210.910389 146.181414 
L 213.220578 150.274343 
L 215.284826 154.367273 
L 217.116285 158.460202 
L 218.727184 162.553131 
L 220.128912 166.646061 
L 221.316979 170.73899 
L 222.312975 174.831919 
L 223.107824 178.924848 
L 223.715653 183.017778 
L 224.145505 187.258428 
L 224.362205 191.203636 
L 224.402247 195.296566 
L 224.254811 199.389495 
L 223.914625 203.482424 
L 223.379311 207.575354 
L 222.649902 211.668283 
L 221.717581 215.761212 
L 220.575054 219.854141 
L 219.213979 223.947071 
L 217.628091 228.04 
L 217.628091 228.04 
" style="fill:none;stroke:#7ea1fa;"/>
   </g>
   <g id="LineCollection_11">
    <path clip-path="url(#p524ca39d89)" d="M 56.54 99.238704 
L 61.03953 97.066263 
L 66.636717 94.690461 
L 71.292355 92.973333 
L 76.733434 91.242361 
L 80.772121 90.143948 
L 86.830152 88.768216 
L 92.888182 87.721516 
L 98.946212 86.976139 
L 105.004242 86.536035 
L 111.062273 86.390109 
L 117.120303 86.533624 
L 123.178333 86.967279 
L 129.236364 87.698239 
L 135.294394 88.718537 
L 139.333081 89.572263 
L 145.391111 91.104344 
L 151.488265 92.973333 
L 157.507172 95.157056 
L 163.565202 97.716004 
L 167.603889 99.632228 
L 171.642576 101.731322 
L 175.681263 104.025082 
L 180.90086 107.298586 
L 183.894366 109.345051 
L 187.797323 112.229404 
L 191.849247 115.484444 
L 196.455811 119.577374 
L 200.613261 123.670303 
L 204.37799 127.763232 
L 207.990758 132.106938 
L 210.888179 135.949091 
L 214.048788 140.58085 
L 216.247316 144.134949 
L 218.542895 148.227879 
L 220.607176 152.320808 
L 222.451829 156.413737 
L 224.145505 160.667527 
L 225.513435 164.599596 
L 226.748133 168.692525 
L 227.79309 172.785455 
L 228.650679 176.878384 
L 229.324631 180.971313 
L 229.820981 185.064242 
L 230.203535 190.60109 
L 230.276018 193.250101 
L 230.203535 198.079901 
L 230.012477 201.43596 
L 229.607349 205.528889 
L 229.019189 209.621818 
L 228.184192 213.997558 
L 227.273649 217.807677 
L 226.108734 221.900606 
L 224.729151 225.993535 
L 223.962883 228.04 
L 223.962883 228.04 
" style="fill:none;stroke:#86a9fc;"/>
   </g>
   <g id="LineCollection_12">
    <path clip-path="url(#p524ca39d89)" d="M 56.54 93.380498 
L 60.578687 91.547334 
L 64.617374 89.889979 
L 68.656061 88.396872 
L 74.714091 86.453701 
L 81.010278 84.787475 
L 86.830152 83.555907 
L 92.888182 82.564663 
L 98.946212 81.872811 
L 105.004242 81.462979 
L 111.062273 81.333367 
L 117.120303 81.482192 
L 123.178333 81.907683 
L 129.236364 82.608088 
L 135.294394 83.597747 
L 141.352424 84.868043 
L 147.410455 86.441545 
L 151.449141 87.66124 
L 157.507172 89.754741 
L 161.545859 91.333904 
L 167.603889 94.001407 
L 171.642576 95.986188 
L 175.681263 98.148352 
L 180.797302 101.159192 
L 183.994819 103.205657 
L 187.797323 105.826233 
L 192.481352 109.345051 
L 195.874697 112.120753 
L 199.913384 115.694757 
L 203.952071 119.609501 
L 207.990758 123.923509 
L 212.029444 128.709526 
L 214.461942 131.856162 
L 218.087475 137.017623 
L 220.106818 140.17194 
L 222.433758 144.134949 
L 224.612494 148.227879 
L 226.576111 152.320808 
L 228.334889 156.413737 
L 230.203535 161.39662 
L 231.259465 164.599596 
L 232.445477 168.692525 
L 233.445988 172.785455 
L 234.276018 176.878384 
L 234.92478 180.971313 
L 235.404857 185.064242 
L 235.715445 189.157172 
L 235.855738 193.250101 
L 235.824922 197.34303 
L 235.622179 201.43596 
L 235.246688 205.528889 
L 234.697618 209.621818 
L 233.96948 213.714747 
L 233.055105 217.807677 
L 231.95688 221.900606 
L 230.203535 227.298002 
L 229.938646 228.04 
L 229.938646 228.04 
" style="fill:none;stroke:#8fb1fe;"/>
   </g>
   <g id="LineCollection_13">
    <path clip-path="url(#p524ca39d89)" d="M 56.54 87.865035 
L 60.578687 86.137877 
L 64.617374 84.571709 
L 70.675404 82.515158 
L 77.087206 80.694545 
L 82.791465 79.367741 
L 88.849495 78.24173 
L 94.907525 77.40335 
L 100.965556 76.837656 
L 107.023586 76.544021 
L 113.081616 76.519128 
L 119.139646 76.759971 
L 125.197677 77.26837 
L 131.255707 78.041198 
L 137.313737 79.084738 
L 143.371768 80.405414 
L 149.429798 82.01459 
L 155.487828 83.918565 
L 161.545859 86.132505 
L 165.584545 87.79042 
L 169.623232 89.599785 
L 173.661919 91.569179 
L 177.700606 93.707842 
L 181.739293 96.025742 
L 186.66672 99.112727 
L 189.816667 101.245083 
L 195.242215 105.252121 
L 197.89404 107.369102 
L 202.556834 111.391515 
L 206.873601 115.484444 
L 210.810873 119.577374 
L 214.411507 123.670303 
L 218.087475 128.265039 
L 220.718434 131.856162 
L 224.145505 137.004654 
L 226.164848 140.333224 
L 228.288815 144.134949 
L 230.367951 148.227879 
L 232.24597 152.320808 
L 234.242222 157.244059 
L 235.420805 160.506667 
L 236.736922 164.599596 
L 238.280909 170.321077 
L 238.842944 172.785455 
L 239.641222 176.878384 
L 240.300253 181.156547 
L 240.742401 185.064242 
L 241.046049 189.157172 
L 241.187616 193.250101 
L 241.166363 197.34303 
L 240.981552 201.43596 
L 240.632437 205.528889 
L 240.115269 209.621818 
L 239.424063 213.714747 
L 238.280909 218.97866 
L 237.520198 221.900606 
L 236.261566 226.104658 
L 235.610858 228.04 
L 235.610858 228.04 
" style="fill:none;stroke:#97b8ff;"/>
   </g>
   <g id="LineCollection_14">
    <path clip-path="url(#p524ca39d89)" d="M 56.54 82.632782 
L 62.59803 80.240758 
L 68.656061 78.181562 
L 74.714091 76.435056 
L 80.772121 74.99043 
L 86.830152 73.830405 
L 92.888182 72.943119 
L 98.946212 72.322547 
L 105.004242 71.966812 
L 111.062273 71.866857 
L 117.120303 72.021195 
L 123.178333 72.42835 
L 129.236364 73.096969 
L 135.294394 74.021212 
L 141.352424 75.20958 
L 147.410455 76.664148 
L 153.468485 78.402393 
L 157.507172 79.723396 
L 163.565202 81.951498 
L 167.603889 83.611612 
L 173.661919 86.376685 
L 178.577113 88.880404 
L 183.758636 91.790112 
L 188.974627 95.019798 
L 193.855354 98.344536 
L 197.89404 101.332913 
L 202.747395 105.252121 
L 207.366493 109.345051 
L 211.583603 113.43798 
L 215.443997 117.530909 
L 218.986396 121.623838 
L 222.244112 125.716768 
L 225.229405 129.809697 
L 228.184192 134.23155 
L 230.488098 137.995556 
L 232.783803 142.088485 
L 234.875679 146.181414 
L 236.772806 150.274343 
L 238.483731 154.367273 
L 240.300253 159.298172 
L 241.363751 162.553131 
L 242.549932 166.646061 
L 243.565461 170.73899 
L 244.423314 174.831919 
L 245.114546 178.924848 
L 245.650462 183.017778 
L 246.030379 187.110707 
L 246.253614 191.203636 
L 246.319478 195.296566 
L 246.227277 199.389495 
L 245.976316 203.482424 
L 245.565893 207.575354 
L 244.995302 211.668283 
L 244.262634 215.761212 
L 243.355271 219.854141 
L 242.282357 223.947071 
L 241.024125 228.04 
L 241.024125 228.04 
" style="fill:none;stroke:#9fbfff;"/>
   </g>
   <g id="LineCollection_15">
    <path clip-path="url(#p524ca39d89)" d="M 56.54 77.656484 
L 62.59803 75.377818 
L 68.656061 73.415602 
L 74.714091 71.751359 
L 80.772121 70.368022 
L 86.830152 69.264092 
L 92.889613 68.415758 
L 98.946212 67.83199 
L 105.004242 67.496619 
L 111.062273 67.4084 
L 117.120303 67.565946 
L 123.178333 67.967875 
L 129.236364 68.61615 
L 135.294394 69.517701 
L 141.352424 70.666998 
L 147.410455 72.079492 
L 153.468485 73.758886 
L 159.526515 75.714098 
L 165.584545 77.958284 
L 171.642576 80.505448 
L 176.409902 82.74101 
L 181.739293 85.491033 
L 187.665559 88.880404 
L 191.83601 91.500289 
L 196.990392 95.019798 
L 201.932727 98.718932 
L 205.971414 102.006715 
L 210.010101 105.552598 
L 214.048788 109.393175 
L 218.087475 113.572295 
L 222.126162 118.142965 
L 224.96566 121.623838 
L 228.184192 125.883529 
L 230.911703 129.809697 
L 234.242222 135.072098 
L 236.261566 138.567201 
L 238.280909 142.346882 
L 240.300253 146.48329 
L 242.319596 151.07521 
L 244.394833 156.413737 
L 246.420392 162.553131 
L 248.077876 168.692525 
L 248.984592 172.785455 
L 250.057002 178.924848 
L 250.580962 183.017778 
L 250.950797 187.110707 
L 251.170927 191.203636 
L 251.240725 195.296566 
L 251.159557 199.389495 
L 250.926788 203.482424 
L 250.39697 208.762069 
L 249.997897 211.668283 
L 249.295916 215.761212 
L 248.377626 220.104727 
L 247.406719 223.947071 
L 246.212452 228.04 
L 246.212452 228.04 
" style="fill:none;stroke:#a7c5fe;"/>
   </g>
   <g id="LineCollection_16">
    <path clip-path="url(#p524ca39d89)" d="M 56.54 72.890152 
L 60.578687 71.406647 
L 66.636717 69.431875 
L 72.694747 67.745656 
L 78.752778 66.332001 
L 84.810808 65.190224 
L 90.868838 64.296476 
L 96.926869 63.659032 
L 102.984899 63.262428 
L 109.042929 63.10535 
L 115.10096 63.186493 
L 121.15899 63.504563 
L 127.21702 64.058275 
L 133.275051 64.854901 
L 139.333081 65.892706 
L 145.391111 67.17924 
L 151.449141 68.71669 
L 157.507172 70.516443 
L 163.565202 72.590582 
L 169.623232 74.951946 
L 175.681263 77.614187 
L 181.739293 80.591837 
L 185.77798 82.768785 
L 191.83601 86.345193 
L 195.874697 88.944085 
L 201.612338 92.973333 
L 205.971414 96.321083 
L 210.010101 99.6632 
L 214.048788 103.261858 
L 218.229828 107.298586 
L 222.138846 111.391515 
L 226.164848 115.98737 
L 230.203535 121.044185 
L 232.222879 123.765869 
L 234.993793 127.763232 
L 238.280909 132.950583 
L 240.300253 136.425899 
L 242.319596 140.171188 
L 244.338939 144.251866 
L 246.358283 148.756342 
L 248.588273 154.367273 
L 250.670973 160.506667 
L 252.416313 166.715509 
L 253.777542 172.785455 
L 254.513477 176.878384 
L 255.333157 183.017778 
L 255.827053 189.157172 
L 255.993172 195.296566 
L 255.829506 201.43596 
L 255.334028 207.575354 
L 254.504698 213.714747 
L 253.755387 217.807677 
L 252.416313 223.657768 
L 251.788264 225.993535 
L 251.194277 228.04 
L 251.194277 228.04 
" style="fill:none;stroke:#afcafc;"/>
   </g>
   <g id="LineCollection_17">
    <path clip-path="url(#p524ca39d89)" d="M 256.455 226.417202 
L 256.000329 228.04 
" style="fill:none;stroke:#b7cff9;"/>
    <path clip-path="url(#p524ca39d89)" d="M 56.54 68.313762 
L 62.59803 66.227886 
L 69.043155 64.322828 
L 74.714091 62.901474 
L 80.772121 61.633639 
L 86.830152 60.616232 
L 92.888182 59.844073 
L 98.946212 59.312014 
L 105.004242 59.012721 
L 111.062273 58.944965 
L 117.120303 59.107526 
L 123.178333 59.499192 
L 130.109482 60.229899 
L 135.294394 60.976649 
L 141.352424 62.065329 
L 147.410455 63.39951 
L 153.468485 64.977683 
L 159.526515 66.810548 
L 165.584545 68.909439 
L 171.642576 71.286373 
L 177.700606 73.954102 
L 183.11676 76.601616 
L 187.797323 79.102444 
L 194.001662 82.74101 
L 199.913384 86.586704 
L 203.952071 89.445779 
L 208.58224 92.973333 
L 213.523264 97.066263 
L 218.087475 101.181251 
L 222.244768 105.252121 
L 226.164848 109.407318 
L 230.203535 114.065554 
L 234.242222 119.162677 
L 236.261566 121.905527 
L 238.897547 125.716768 
L 242.319596 131.118651 
L 245.088849 135.949091 
L 247.230359 140.04202 
L 249.193585 144.134949 
L 250.985646 148.227879 
L 252.613289 152.320808 
L 254.751853 158.460202 
L 256.455 164.267259 
L 256.455 164.267259 
" style="fill:none;stroke:#b7cff9;"/>
   </g>
   <g id="LineCollection_18">
    <path clip-path="url(#p524ca39d89)" d="M 56.54 63.910045 
L 62.59803 61.904542 
L 68.656061 60.170709 
L 74.714091 58.702508 
L 80.772121 57.48312 
L 86.830152 56.504564 
L 92.888182 55.763326 
L 98.946212 55.254477 
L 105.004242 54.97123 
L 111.062273 54.912431 
L 117.120303 55.076932 
L 123.178333 55.463594 
L 129.763562 56.13697 
L 135.294394 56.910554 
L 142.406242 58.183434 
L 147.410455 59.272869 
L 153.468485 60.808183 
L 159.526515 62.588854 
L 165.584545 64.625448 
L 171.642576 66.929148 
L 177.700606 69.511795 
L 184.002415 72.508687 
L 189.816667 75.582536 
L 195.108182 78.648081 
L 199.913384 81.675709 
L 204.490158 84.787475 
L 210.0276 88.880404 
L 215.085338 92.973333 
L 219.74271 97.066263 
L 224.145505 101.262814 
L 228.184192 105.431851 
L 232.222879 109.951575 
L 236.261566 114.873722 
L 238.300586 117.530909 
L 242.319596 123.195024 
L 245.270834 127.763232 
L 248.377626 133.041636 
L 251.017442 137.995556 
L 253.00443 142.088485 
L 254.824636 146.181414 
L 256.455 150.199185 
L 256.455 150.199185 
" style="fill:none;stroke:#bfd3f6;"/>
   </g>
   <g id="LineCollection_19">
    <path clip-path="url(#p524ca39d89)" d="M 56.54 59.656435 
L 62.59803 57.723664 
L 68.656061 56.051722 
L 74.714091 54.635693 
L 80.772121 53.45961 
L 86.830152 52.51735 
L 92.888182 51.803149 
L 98.946212 51.315935 
L 105.004242 51.04759 
L 111.062273 50.997024 
L 117.120303 51.163157 
L 123.178333 51.544917 
L 129.236364 52.142684 
L 135.294394 52.964539 
L 141.806616 54.090505 
L 147.410455 55.271351 
L 153.468485 56.76811 
L 159.526515 58.501588 
L 165.584545 60.481659 
L 171.642576 62.718755 
L 177.700606 65.223904 
L 183.758636 68.008775 
L 188.621532 70.462222 
L 193.855354 73.331721 
L 199.913384 76.967605 
L 205.971414 80.974488 
L 211.234469 84.787475 
L 216.068131 88.585493 
L 220.106818 92.004466 
L 224.145505 95.663738 
L 228.184192 99.593482 
L 232.222879 103.829138 
L 236.261566 108.412625 
L 238.718791 111.391515 
L 242.319596 116.066797 
L 244.836363 119.577374 
L 248.377626 124.927758 
L 251.32299 129.809697 
L 254.435657 135.50992 
L 256.455 139.582573 
L 256.455 139.582573 
" style="fill:none;stroke:#c6d6f1;"/>
   </g>
   <g id="LineCollection_20">
    <path clip-path="url(#p524ca39d89)" d="M 56.54 55.539036 
L 62.59803 53.672287 
L 68.707936 52.04404 
L 74.714091 50.689223 
L 80.772121 49.551947 
L 86.830152 48.643667 
L 92.910905 47.951111 
L 98.946212 47.486132 
L 105.004242 47.231656 
L 111.062273 47.188679 
L 117.120303 47.356179 
L 123.178333 47.733145 
L 129.236364 48.323884 
L 135.294394 49.128205 
L 141.352424 50.144043 
L 147.410455 51.383995 
L 153.468485 52.84598 
L 159.526515 54.536663 
L 165.584545 56.465295 
L 171.642576 58.64163 
L 177.700606 61.075966 
L 183.758636 63.779178 
L 189.816667 66.769182 
L 195.874697 70.06575 
L 200.021583 72.508687 
L 205.971414 76.305745 
L 210.010101 79.090503 
L 214.945817 82.74101 
L 220.106818 86.872625 
L 224.774976 90.926869 
L 229.14542 95.019798 
L 233.205269 99.112727 
L 236.983121 103.205657 
L 240.504171 107.298586 
L 244.338939 112.117421 
L 248.291543 117.530909 
L 251.037912 121.623838 
L 254.435657 127.130566 
L 256.455 130.684109 
L 256.455 130.684109 
" style="fill:none;stroke:#cdd9ec;"/>
   </g>
   <g id="LineCollection_21">
    <path clip-path="url(#p524ca39d89)" d="M 56.54 51.545618 
L 62.59803 49.738971 
L 69.624497 47.951111 
L 74.714091 46.852655 
L 80.772121 45.750237 
L 86.830152 44.873838 
L 92.888182 44.208931 
L 98.946212 43.755953 
L 105.004242 43.514419 
L 111.062273 43.478452 
L 117.120303 43.647091 
L 123.178333 44.021645 
L 129.236364 44.604704 
L 135.294394 45.392319 
L 141.352424 46.390328 
L 147.410455 47.601087 
L 153.468485 49.031627 
L 159.526515 50.683398 
L 165.584545 52.565084 
L 171.642576 54.685829 
L 177.700606 57.05527 
L 183.758636 59.683569 
L 189.816667 62.586268 
L 195.874697 65.783265 
L 200.472778 68.415758 
L 205.971414 71.817731 
L 210.091879 74.555152 
L 216.068131 78.849018 
L 221.046702 82.74101 
L 226.164848 87.068451 
L 230.394989 90.926869 
L 234.574412 95.019798 
L 238.469506 99.112727 
L 242.319596 103.460874 
L 246.358283 108.393436 
L 250.163644 113.43798 
L 253.018631 117.530909 
L 256.455 122.867887 
L 256.455 122.867887 
" style="fill:none;stroke:#d4dbe6;"/>
   </g>
   <g id="LineCollection_22">
    <path clip-path="url(#p524ca39d89)" d="M 56.54 47.66537 
L 62.632236 45.904646 
L 68.656061 44.402601 
L 74.714091 43.116723 
L 80.772121 42.048966 
L 86.830152 41.199253 
L 92.888182 40.558386 
L 98.946212 40.122128 
L 105.004242 39.88953 
L 111.062273 39.859649 
L 117.120303 40.03155 
L 123.178333 40.4043 
L 129.236364 40.976975 
L 135.716882 41.811717 
L 141.352424 42.730952 
L 147.410455 43.914762 
L 153.468485 45.316022 
L 159.526515 46.93232 
L 165.584545 48.771048 
L 171.642576 50.840795 
L 177.700606 53.1506 
L 183.758636 55.709979 
L 189.816667 58.53425 
L 195.874697 61.639665 
L 201.932727 65.04262 
L 207.990758 68.765122 
L 214.048788 72.83798 
L 220.106818 77.296095 
L 224.384514 80.694545 
L 229.182142 84.787475 
L 234.242222 89.453503 
L 238.280909 93.467496 
L 242.319596 97.773635 
L 246.358283 102.409136 
L 250.39697 107.420628 
L 254.435657 112.887696 
L 256.455 115.813645 
L 256.455 115.813645 
" style="fill:none;stroke:#dadce0;"/>
   </g>
   <g id="LineCollection_23">
    <path clip-path="url(#p524ca39d89)" d="M 56.54 43.88914 
L 62.59803 42.192425 
L 68.656061 40.723906 
L 74.714091 39.473172 
L 80.772121 38.44015 
L 86.830152 37.612228 
L 92.888182 36.993979 
L 98.946212 36.574784 
L 105.004242 36.353747 
L 111.062273 36.329974 
L 117.120303 36.502579 
L 123.178333 36.870679 
L 129.236364 37.433397 
L 135.294394 38.196206 
L 141.352424 39.158305 
L 147.410455 40.322443 
L 153.955684 41.811717 
L 159.526515 43.274999 
L 165.584545 45.074319 
L 171.642576 47.09716 
L 177.700606 49.352018 
L 184.208463 52.04404 
L 189.816667 54.601457 
L 195.874697 57.6224 
L 201.932727 60.929198 
L 207.990758 64.539541 
L 214.048788 68.481732 
L 220.106818 72.787703 
L 225.058074 76.601616 
L 230.203535 80.871204 
L 234.588656 84.787475 
L 238.867489 88.880404 
L 242.865509 92.973333 
L 246.606594 97.066263 
L 250.39697 101.510466 
L 254.435657 106.62109 
L 256.455 109.335399 
L 256.455 109.335399 
" style="fill:none;stroke:#dfdbd9;"/>
   </g>
   <g id="LineCollection_24">
    <path clip-path="url(#p524ca39d89)" d="M 56.54 40.213234 
L 62.59803 38.562996 
L 68.656061 37.133392 
L 76.090257 35.672323 
L 80.772121 34.914367 
L 86.830152 34.112254 
L 92.888182 33.508952 
L 98.946212 33.105814 
L 105.004242 32.895619 
L 111.062273 32.877523 
L 117.120303 33.050682 
L 123.178333 33.41426 
L 129.236364 33.971911 
L 135.294394 34.723559 
L 141.39066 35.672323 
L 147.410455 36.812023 
L 153.468485 38.155484 
L 159.748092 39.765253 
L 166.687442 41.811717 
L 172.821477 43.858182 
L 178.357486 45.904646 
L 183.758636 48.089657 
L 189.816667 50.777562 
L 196.59815 54.090505 
L 201.932727 56.940082 
L 207.990758 60.44884 
L 214.123431 64.322828 
L 220.106818 68.44115 
L 226.164848 72.987119 
L 230.632974 76.601616 
L 236.261566 81.512526 
L 240.300253 85.303821 
L 244.338939 89.347554 
L 248.377626 93.673253 
L 252.416313 98.315239 
L 256.455 103.316063 
L 256.455 103.316063 
" style="fill:none;stroke:#e5d8d1;"/>
   </g>
   <g id="LineCollection_25">
    <path clip-path="url(#p524ca39d89)" d="M 56.54 36.625627 
L 62.59803 35.018073 
L 68.656061 33.624102 
L 74.714091 32.445703 
L 80.772121 31.465168 
L 86.830152 30.688796 
L 92.888182 30.10452 
L 98.946212 29.711506 
L 105.004242 29.509228 
L 111.062273 29.496417 
L 117.120303 29.67176 
L 123.178333 30.035544 
L 129.236364 30.58649 
L 135.294394 31.323792 
L 141.352424 32.255269 
L 148.619178 33.625859 
L 153.468485 34.699177 
L 159.526515 36.219429 
L 165.584545 37.94497 
L 171.642576 39.883193 
L 177.700606 42.04185 
L 183.758636 44.429073 
L 189.816667 47.053402 
L 196.022789 49.997576 
L 201.932727 53.064387 
L 207.990758 56.480871 
L 214.098696 60.229899 
L 220.222363 64.322828 
L 226.164848 68.642035 
L 232.222879 73.434805 
L 236.261566 76.865668 
L 240.499417 80.694545 
L 244.744039 84.787475 
L 248.722448 88.880404 
L 252.456287 92.973333 
L 256.455 97.669338 
L 256.455 97.669338 
" style="fill:none;stroke:#ead4c8;"/>
   </g>
   <g id="LineCollection_26">
    <path clip-path="url(#p524ca39d89)" d="M 56.54 33.11933 
L 62.59803 31.551065 
L 68.656061 30.198316 
L 74.714091 29.046485 
L 80.772121 28.094426 
L 86.830152 27.334728 
L 92.888182 26.769893 
L 98.946212 26.39146 
L 105.004242 26.19864 
L 111.062273 26.190649 
L 117.120303 26.366708 
L 123.178333 26.726042 
L 129.236364 27.26788 
L 135.294394 27.997827 
L 141.352424 28.913765 
L 147.410455 30.018261 
L 154.599023 31.579394 
L 159.526515 32.809746 
L 165.584545 34.504251 
L 171.642576 36.405111 
L 177.700606 38.519649 
L 183.758636 40.855534 
L 189.816667 43.42081 
L 195.874697 46.228386 
L 201.932727 49.292461 
L 207.990758 52.624905 
L 214.048788 56.24364 
L 220.188594 60.229899 
L 226.164848 64.442985 
L 232.222879 69.083053 
L 236.394218 72.508687 
L 241.066361 76.601616 
L 246.358283 81.588873 
L 250.39697 85.675663 
L 254.435657 90.036071 
L 256.455 92.328656 
L 256.455 92.328656 
" style="fill:none;stroke:#efcfbf;"/>
   </g>
   <g id="LineCollection_27">
    <path clip-path="url(#p524ca39d89)" d="M 56.54 29.690094 
L 57.131702 29.532929 
L 58.559343 29.15878 
L 60.578687 28.650979 
L 62.59803 28.164642 
L 64.617374 27.699738 
L 65.588199 27.486465 
L 66.636717 27.259149 
L 68.656061 26.842356 
L 70.675404 26.446627 
L 72.694747 26.071934 
L 74.714091 25.718247 
L 76.402732 25.44 
" style="fill:none;stroke:#f2cab5;"/>
    <path clip-path="url(#p524ca39d89)" d="M 140.112551 25.44 
L 141.352424 25.638346 
L 143.371768 25.981466 
L 145.391111 26.344581 
L 147.410455 26.727663 
L 149.429798 27.130685 
L 151.128387 27.486465 
L 151.449141 27.554461 
L 153.468485 28.002839 
L 155.487828 28.471317 
L 157.507172 28.959866 
L 159.526515 29.468459 
L 159.772697 29.532929 
L 161.545859 30.00296 
L 163.565202 30.558513 
L 165.584545 31.134272 
L 167.092671 31.579394 
L 167.603889 31.732144 
L 169.623232 32.356134 
L 171.642576 33.000493 
L 173.542368 33.625859 
L 173.661919 33.665704 
L 175.681263 34.359608 
L 177.700606 35.074048 
L 179.344283 35.672323 
L 179.719949 35.81079 
L 181.739293 36.576134 
L 183.758636 37.362183 
L 184.651023 37.718788 
L 185.77798 38.174892 
L 187.797323 39.013252 
L 189.564533 39.765253 
L 189.816667 39.873933 
L 191.83601 40.765857 
L 193.855354 41.678863 
L 194.142448 41.811717 
L 195.874697 42.623835 
L 197.89404 43.591911 
L 198.437327 43.858182 
L 199.913384 44.591223 
L 201.932727 45.615717 
L 202.490326 45.904646 
L 203.952071 46.672264 
L 205.971414 47.754575 
L 206.330747 47.951111 
L 207.990758 48.871425 
L 209.982796 49.997576 
L 210.010101 50.013225 
L 212.029444 51.193408 
L 213.45785 52.04404 
L 214.048788 52.400879 
L 216.068131 53.64317 
L 216.782143 54.090505 
L 218.087475 54.919917 
L 219.969186 56.13697 
L 220.106818 56.227269 
L 222.126162 57.575791 
L 223.020594 58.183434 
L 224.145505 58.958814 
L 225.958793 60.229899 
L 226.164848 60.376481 
L 228.184192 61.837218 
L 228.781439 62.276364 
L 230.203535 63.337725 
L 231.502487 64.322828 
L 232.222879 64.877499 
L 234.130084 66.369293 
L 234.242222 66.458366 
L 236.261566 68.087632 
L 236.662076 68.415758 
L 238.280909 69.762883 
L 239.108757 70.462222 
L 240.300253 71.484846 
L 241.475622 72.508687 
L 242.319596 73.255796 
L 243.766141 74.555152 
L 244.338939 75.078161 
L 245.983587 76.601616 
L 246.358283 76.954528 
L 248.131046 78.648081 
L 248.377626 78.887666 
L 250.211435 80.694545 
L 250.39697 80.880532 
L 252.22751 82.74101 
L 252.416313 82.936293 
L 254.18188 84.787475 
L 254.435657 85.058346 
L 256.077011 86.833939 
L 256.455 87.250335 
" style="fill:none;stroke:#f2cab5;"/>
   </g>
   <g id="LineCollection_28">
    <path clip-path="url(#p524ca39d89)" d="M 56.54 26.337463 
L 58.559343 25.816472 
L 60.080296 25.44 
" style="fill:none;stroke:#f5c4ac;"/>
    <path clip-path="url(#p524ca39d89)" d="M 156.438715 25.44 
L 157.507172 25.696038 
L 159.526515 26.199844 
L 161.545859 26.723422 
L 163.565202 27.266745 
L 164.353006 27.486465 
L 165.584545 27.834084 
L 167.603889 28.424106 
L 169.623232 29.034029 
L 171.222722 29.532929 
L 171.642576 29.665483 
L 173.661919 30.323349 
L 175.681263 31.001275 
L 177.35375 31.579394 
L 177.700606 31.700768 
L 179.719949 32.427922 
L 181.739293 33.175297 
L 182.924409 33.625859 
L 183.758636 33.946973 
L 185.77798 34.744906 
L 187.797323 35.563224 
L 188.0599 35.672323 
L 189.816667 36.411462 
L 191.83601 37.281712 
L 192.826562 37.718788 
L 193.855354 38.178535 
L 195.874697 39.101942 
L 197.29316 39.765253 
L 197.89404 40.049873 
L 199.913384 41.027705 
L 201.498326 41.811717 
L 201.932727 42.029413 
L 203.952071 43.062984 
L 205.47433 43.858182 
L 205.971414 44.121292 
L 207.990758 45.211964 
L 209.248345 45.904646 
L 210.010101 46.329859 
L 212.029444 47.479045 
L 212.843409 47.951111 
L 214.048788 48.659694 
L 216.068131 49.868859 
L 216.279184 49.997576 
L 218.087475 51.115618 
L 219.562712 52.04404 
L 220.106818 52.391254 
L 222.126162 53.702709 
L 222.713073 54.090505 
L 224.145505 55.050381 
L 225.740003 56.13697 
L 226.164848 56.430647 
L 228.184192 57.849984 
L 228.650904 58.183434 
L 230.203535 59.308908 
L 231.453924 60.229899 
L 232.222879 60.804661 
L 234.161076 62.276364 
L 234.242222 62.338904 
L 236.261566 63.919778 
L 236.768604 64.322828 
L 238.280909 65.543288 
L 239.28918 66.369293 
L 240.300253 67.210407 
L 241.727884 68.415758 
L 242.319596 68.92319 
L 244.088271 70.462222 
L 244.338939 70.683826 
L 246.358283 72.494874 
L 246.373467 72.508687 
L 248.377626 74.361438 
L 248.584265 74.555152 
L 250.39697 76.282469 
L 250.727315 76.601616 
L 252.416313 78.260703 
L 252.805356 78.648081 
L 254.435657 80.299067 
L 254.820984 80.694545 
L 256.455 82.400685 
" style="fill:none;stroke:#f5c4ac;"/>
   </g>
   <g id="LineCollection_29">
    <path clip-path="url(#p524ca39d89)" d="M 168.491602 25.44 
L 169.623232 25.778348 
L 171.642576 26.40187 
L 173.661919 27.044999 
L 175.006907 27.486465 
L 175.681263 27.710471 
L 177.700606 28.401251 
L 179.719949 29.111791 
L 180.884248 29.532929 
L 181.739293 29.84597 
L 183.758636 30.605418 
L 185.77798 31.384784 
L 186.269493 31.579394 
L 187.797323 32.191765 
L 189.816667 33.021339 
L 191.253216 33.625859 
L 191.83601 33.874159 
L 193.855354 34.755096 
L 195.874697 35.656299 
L 195.909797 35.672323 
L 197.89404 36.589584 
L 199.913384 37.543538 
L 200.276432 37.718788 
L 201.932727 38.528504 
L 203.952071 39.536449 
L 204.401097 39.765253 
L 205.971414 40.575743 
L 207.990758 41.638963 
L 208.312425 41.811717 
L 210.010101 42.735381 
L 212.029444 43.855208 
L 212.034706 43.858182 
L 214.048788 45.011708 
L 215.579529 45.904646 
L 216.068131 46.193489 
L 218.087475 47.409233 
L 218.971643 47.951111 
L 220.106818 48.656274 
L 222.126162 49.932701 
L 222.227029 49.997576 
L 224.145505 51.248464 
L 225.345371 52.04404 
L 226.164848 52.594983 
L 228.184192 53.975261 
L 228.350044 54.090505 
L 230.203535 55.396638 
L 231.237478 56.13697 
L 232.222879 56.852669 
L 234.02656 58.183434 
L 234.242222 58.344868 
L 236.261566 59.880206 
L 236.714523 60.229899 
L 238.280909 61.457043 
L 239.311166 62.276364 
L 240.300253 63.074732 
L 241.823825 64.322828 
L 242.319596 64.735138 
L 244.256142 66.369293 
L 244.338939 66.440241 
L 246.358283 68.195733 
L 246.607819 68.415758 
L 248.377626 70.000734 
L 248.885798 70.462222 
L 250.39697 71.856436 
L 251.094285 72.508687 
L 252.416313 73.765302 
L 253.236087 74.555152 
L 254.435657 75.729957 
L 255.313862 76.601616 
L 256.455 77.753201 
" style="fill:none;stroke:#f6bda2;"/>
   </g>
   <g id="LineCollection_30">
    <path clip-path="url(#p524ca39d89)" d="M 178.506104 25.44 
L 179.719949 25.862668 
L 181.739293 26.58544 
L 183.758636 27.327681 
L 184.179443 27.486465 
L 185.77798 28.096881 
L 187.797323 28.88771 
L 189.40482 29.532929 
L 189.816667 29.700244 
L 191.83601 30.540751 
L 193.855354 31.40106 
L 194.264385 31.579394 
L 195.874697 32.290095 
L 197.89404 33.201394 
L 198.814211 33.625859 
L 199.913384 34.139194 
L 201.932727 35.102651 
L 203.102028 35.672323 
L 203.952071 36.091663 
L 205.971414 37.108489 
L 207.159419 37.718788 
L 207.990758 38.151297 
L 210.010101 39.222742 
L 211.01309 39.765253 
L 212.029444 40.322076 
L 214.048788 41.449438 
L 214.685771 41.811717 
L 216.068131 42.608182 
L 218.087475 43.792803 
L 218.196934 43.858182 
L 220.106818 45.014008 
L 221.553196 45.904646 
L 222.126162 46.262187 
L 224.145505 47.544174 
L 224.775757 47.951111 
L 226.164848 48.860175 
L 227.874447 49.997576 
L 228.184192 50.206484 
L 230.203535 51.590931 
L 230.853934 52.04404 
L 232.222879 53.011025 
L 233.727294 54.090505 
L 234.242222 54.465209 
L 236.261566 55.95762 
L 236.500546 56.13697 
L 238.280909 57.492239 
L 239.175411 58.183434 
L 240.300253 59.06525 
L 241.764122 60.229899 
L 242.319596 60.67835 
L 244.270409 62.276364 
L 244.338939 62.333341 
L 246.358283 64.03665 
L 246.692797 64.322828 
L 248.377626 65.7861 
L 249.03984 66.369293 
L 250.39697 67.582913 
L 251.315599 68.415758 
L 252.416313 69.429315 
L 253.522952 70.462222 
L 254.435657 71.327674 
L 255.664622 72.508687 
L 256.455 73.280509 
" style="fill:none;stroke:#f7b599;"/>
   </g>
   <g id="LineCollection_31">
    <path clip-path="url(#p524ca39d89)" d="M 187.262145 25.44 
L 187.797323 25.647335 
L 189.816667 26.449308 
L 191.83601 27.270641 
L 192.354257 27.486465 
L 193.855354 28.119083 
L 195.874697 28.98975 
L 197.106661 29.532929 
L 197.89404 29.884295 
L 199.913384 30.805399 
L 201.574568 31.579394 
L 201.932727 31.748317 
L 203.952071 32.720998 
L 205.792925 33.625859 
L 205.971414 33.714682 
L 207.990758 34.740122 
L 209.791179 35.672323 
L 210.010101 35.787097 
L 212.029444 36.866516 
L 213.594322 37.718788 
L 214.048788 37.969448 
L 216.068131 39.104108 
L 217.223697 39.765253 
L 218.087475 40.265812 
L 220.106818 41.457023 
L 220.697648 41.811717 
L 222.126162 42.680472 
L 224.03001 43.858182 
L 224.145505 43.930569 
L 226.164848 45.217928 
L 227.224426 45.904646 
L 228.184192 46.534993 
L 230.203535 47.882911 
L 230.304069 47.951111 
L 232.222879 49.270413 
L 233.264036 49.997576 
L 234.242222 50.690138 
L 236.125231 52.04404 
L 236.261566 52.143431 
L 238.280909 53.638345 
L 238.882606 54.090505 
L 240.300253 55.170861 
L 241.549446 56.13697 
L 242.319596 56.741116 
L 244.131728 58.183434 
L 244.338939 58.350753 
L 246.358283 60.004956 
L 246.629019 60.229899 
L 248.377626 61.704131 
L 249.04699 62.276364 
L 250.39697 63.447695 
L 251.391842 64.322828 
L 252.416313 65.237669 
L 253.666522 66.369293 
L 254.435657 67.076198 
L 255.873819 68.415758 
L 256.455 68.965561 
" style="fill:none;stroke:#f7ad90;"/>
   </g>
   <g id="LineCollection_32">
    <path clip-path="url(#p524ca39d89)" d="M 195.138232 25.44 
L 195.874697 25.754085 
L 197.89404 26.634819 
L 199.804872 27.486465 
L 199.913384 27.535406 
L 201.932727 28.466035 
L 203.952071 29.416092 
L 204.19534 29.532929 
L 205.971414 30.396261 
L 207.990758 31.397505 
L 208.350424 31.579394 
L 210.010101 32.42899 
L 212.029444 33.482575 
L 212.298902 33.625859 
L 214.048788 34.567881 
L 216.063244 35.672323 
L 216.068131 35.675036 
L 218.087475 36.816771 
L 219.654992 37.718788 
L 220.106818 37.982088 
L 222.126162 39.179681 
L 223.096789 39.765253 
L 224.145505 40.406062 
L 226.164848 41.660834 
L 226.403653 41.811717 
L 228.184192 42.951343 
L 229.578318 43.858182 
L 230.203535 44.270227 
L 232.222879 45.622538 
L 232.637536 45.904646 
L 234.242222 47.010953 
L 235.585073 47.951111 
L 236.261566 48.431145 
L 238.280909 49.886012 
L 238.433438 49.997576 
L 240.300253 51.381733 
L 241.180466 52.04404 
L 242.319596 52.913079 
L 243.840747 54.090505 
L 244.338939 54.481558 
L 246.358283 56.089468 
L 246.417098 56.13697 
L 248.377626 57.743012 
L 248.907847 58.183434 
L 250.39697 59.438286 
L 251.323597 60.229899 
L 252.416313 61.177131 
L 253.667363 62.276364 
L 254.435657 62.961499 
L 255.942007 64.322828 
L 256.455 64.793459 
" style="fill:none;stroke:#f6a586;"/>
   </g>
   <g id="LineCollection_33">
    <path clip-path="url(#p524ca39d89)" d="M 202.359575 25.44 
L 203.952071 26.181143 
L 205.971414 27.140201 
L 206.686006 27.486465 
L 207.990758 28.126244 
L 210.010101 29.135927 
L 210.788968 29.532929 
L 212.029444 30.172859 
L 214.048788 31.234294 
L 214.693282 31.579394 
L 216.068131 32.324564 
L 218.087475 33.438916 
L 218.420228 33.625859 
L 220.106818 34.585106 
L 221.985671 35.672323 
L 222.126162 35.754637 
L 224.145505 36.958412 
L 225.399897 37.718788 
L 226.164848 38.188355 
L 228.184192 39.448599 
L 228.683368 39.765253 
L 230.203535 40.741944 
L 231.842355 41.811717 
L 232.222879 42.06334 
L 234.242222 43.419891 
L 234.88464 43.858182 
L 236.261566 44.809953 
L 237.821457 45.904646 
L 238.280909 46.231379 
L 240.300253 47.68912 
L 240.657845 47.951111 
L 242.319596 49.185046 
L 243.398113 49.997576 
L 244.338939 50.716078 
L 246.053175 52.04404 
L 246.358283 52.283678 
L 248.377626 53.89229 
L 248.623006 54.090505 
L 250.39697 55.543651 
L 251.111442 56.13697 
L 252.416313 57.236038 
L 253.526042 58.183434 
L 254.435657 58.971232 
L 255.869736 60.229899 
L 256.455 60.751121 
" style="fill:none;stroke:#f59c7d;"/>
   </g>
   <g id="LineCollection_34">
    <path clip-path="url(#p524ca39d89)" d="M 209.061939 25.44 
L 210.010101 25.90886 
L 212.029444 26.926745 
L 213.119204 27.486465 
L 214.048788 27.969607 
L 216.068131 29.038667 
L 216.985007 29.532929 
L 218.087475 30.134406 
L 220.106818 31.255778 
L 220.679471 31.579394 
L 222.126162 32.406918 
L 224.145505 33.581777 
L 224.219996 33.625859 
L 226.164848 34.790977 
L 227.612112 35.672323 
L 228.184192 36.02506 
L 230.203535 37.290602 
L 230.875929 37.718788 
L 232.222879 38.587391 
L 234.021119 39.765253 
L 234.242222 39.911933 
L 236.261566 41.27258 
L 237.049653 41.811717 
L 238.280909 42.66496 
L 239.97731 43.858182 
L 240.300253 44.088321 
L 242.319596 45.548825 
L 242.804468 45.904646 
L 244.338939 47.045705 
L 245.539286 47.951111 
L 246.358283 48.577205 
L 248.190357 49.997576 
L 248.377626 50.144748 
L 250.39697 51.75401 
L 250.755954 52.04404 
L 252.416313 53.404069 
L 253.243119 54.090505 
L 254.435657 55.094496 
L 255.657553 56.13697 
L 256.455 56.827018 
" style="fill:none;stroke:#f29274;"/>
   </g>
   <g id="LineCollection_35">
    <path clip-path="url(#p524ca39d89)" d="M 215.347566 25.44 
L 216.068131 25.817223 
L 218.087475 26.893691 
L 219.179956 27.486465 
L 220.106818 27.995362 
L 222.126162 29.123549 
L 222.846464 29.532929 
L 224.145505 30.280125 
L 226.164848 31.461178 
L 226.363634 31.579394 
L 228.184192 32.675256 
L 229.738217 33.625859 
L 230.203535 33.914006 
L 232.222879 35.18468 
L 232.985774 35.672323 
L 234.242222 36.485471 
L 236.118888 37.718788 
L 236.261566 37.813739 
L 238.280909 39.178343 
L 239.136567 39.765253 
L 240.300253 40.573656 
L 242.056494 41.811717 
L 242.319596 41.999594 
L 244.338939 43.462758 
L 244.876928 43.858182 
L 246.358283 44.961276 
L 247.607496 45.904646 
L 248.377626 46.493962 
L 250.255698 47.951111 
L 250.39697 48.062198 
L 252.416313 49.672062 
L 252.819152 49.997576 
L 254.435657 51.321627 
L 255.306004 52.04404 
L 256.455 53.010944 
" style="fill:none;stroke:#ef886b;"/>
   </g>
   <g id="LineCollection_36">
    <path clip-path="url(#p524ca39d89)" d="M 221.283567 25.44 
L 222.126162 25.905488 
L 224.145505 27.040296 
L 224.926214 27.486465 
L 226.164848 28.202749 
L 228.184192 29.389816 
L 228.423698 29.532929 
L 230.203535 30.609238 
L 231.782663 31.579394 
L 232.222879 31.853138 
L 234.242222 33.128785 
L 235.017047 33.625859 
L 236.261566 34.434088 
L 238.13966 35.672323 
L 238.280909 35.766611 
L 240.300253 37.135042 
L 241.149122 37.718788 
L 242.319596 38.533852 
L 244.062627 39.765253 
L 244.338939 39.962954 
L 246.358283 41.428678 
L 246.878624 41.811717 
L 248.377626 42.929461 
L 249.606042 43.858182 
L 250.39697 44.463989 
L 252.252402 45.904646 
L 252.416313 46.033606 
L 254.435657 47.644028 
L 254.815629 47.951111 
L 256.455 49.293839 
" style="fill:none;stroke:#eb7d62;"/>
   </g>
   <g id="LineCollection_37">
    <path clip-path="url(#p524ca39d89)" d="M 226.923376 25.44 
L 228.184192 26.172917 
L 230.203535 27.365823 
L 230.404502 27.486465 
L 232.222879 28.591014 
L 233.749601 29.532929 
L 234.242222 29.840505 
L 236.261566 31.120974 
L 236.97362 31.579394 
L 238.280909 32.431256 
L 240.087171 33.625859 
L 240.300253 33.768518 
L 242.319596 35.140651 
L 243.090822 35.672323 
L 244.338939 36.543473 
L 245.999103 37.718788 
L 246.358283 37.976276 
L 248.377626 39.444466 
L 248.812752 39.765253 
L 250.39697 40.948088 
L 251.538026 41.811717 
L 252.416313 42.485059 
L 254.183487 43.858182 
L 254.435657 44.056688 
L 256.455 45.667624 
" style="fill:none;stroke:#e67259;"/>
   </g>
   <g id="LineCollection_38">
    <path clip-path="url(#p524ca39d89)" d="M 232.310068 25.44 
L 234.242222 26.618773 
L 235.642905 27.486465 
L 236.261566 27.874257 
L 238.280909 29.159404 
L 238.859113 29.532929 
L 240.300253 30.47509 
L 241.964921 31.579394 
L 242.319596 31.817535 
L 244.338939 33.19325 
L 244.964953 33.625859 
L 246.358283 34.600555 
L 247.869107 35.672323 
L 248.377626 36.037551 
L 250.39697 37.508118 
L 250.682317 37.718788 
L 252.416313 39.015105 
L 253.40637 39.765253 
L 254.435657 40.555068 
L 256.051795 41.811717 
L 256.455 42.129284 
" style="fill:none;stroke:#e16751;"/>
   </g>
   <g id="LineCollection_39">
    <path clip-path="url(#p524ca39d89)" d="M 237.466194 25.44 
L 238.280909 25.952638 
L 240.300253 27.242325 
L 240.676916 27.486465 
L 242.319596 28.563804 
L 243.77619 29.532929 
L 244.338939 29.911835 
L 246.358283 31.291019 
L 246.774602 31.579394 
L 248.377626 32.703238 
L 249.675635 33.625859 
L 250.39697 34.144876 
L 252.416313 35.617734 
L 252.490149 35.672323 
L 254.435657 37.128567 
L 255.213827 37.718788 
L 256.455 38.672025 
" style="fill:none;stroke:#da5a49;"/>
   </g>
   <g id="LineCollection_40">
    <path clip-path="url(#p524ca39d89)" d="M 242.430209 25.44 
L 244.338939 26.6957 
L 245.524057 27.486465 
L 246.358283 28.049686 
L 248.377626 29.432231 
L 248.522671 29.532929 
L 250.39697 30.849756 
L 251.421505 31.579394 
L 252.416313 32.296445 
L 254.236172 33.625859 
L 254.435657 33.77337 
L 256.455 35.286633 
" style="fill:none;stroke:#d44e41;"/>
   </g>
   <g id="LineCollection_41">
    <path clip-path="url(#p524ca39d89)" d="M 247.211411 25.44 
L 248.377626 26.229442 
L 250.20924 27.486465 
L 250.39697 27.616825 
L 252.416313 29.038435 
L 253.10937 29.532929 
L 254.435657 30.490549 
L 255.92393 31.579394 
L 256.455 31.972636 
" style="fill:none;stroke:#cc403a;"/>
   </g>
   <g id="LineCollection_42">
    <path clip-path="url(#p524ca39d89)" d="M 251.836769 25.44 
L 252.416313 25.843332 
L 254.435657 27.267683 
L 254.741732 27.486465 
L 256.455 28.725563 
" style="fill:none;stroke:#c43032;"/>
   </g>
   <g id="LineCollection_43">
    <path clip-path="url(#p524ca39d89)" d="M 256.31911 25.44 
L 256.455 25.537152 
" style="fill:none;stroke:#bb1b2c;"/>
   </g>
   <g id="LineCollection_44"/>
   <g id="line2d_11">
    <path clip-path="url(#p524ca39d89)" d="M 56.54 126.74 
L 256.455 126.74 
" style="fill:none;stroke:#000000;stroke-linecap:square;stroke-width:1.5;"/>
   </g>
   <g id="line2d_12">
    <path clip-path="url(#p524ca39d89)" d="M 156.4975 228.04 
L 156.4975 25.44 
" style="fill:none;stroke:#000000;stroke-linecap:square;stroke-width:1.5;"/>
   </g>
   <g id="line2d_13">
    <path clip-path="url(#p524ca39d89)" d="M 176.489 126.74 
L 176.446197 125.414933 
L 176.31797 124.095539 
L 176.104869 122.78747 
L 175.807806 121.496326 
L 175.428054 120.227636 
L 174.967238 118.986834 
L 174.427331 117.779231 
L 173.810647 116.61 
L 173.119825 115.484147 
L 172.357823 114.406493 
L 171.527906 113.381654 
L 170.633625 112.414017 
L 169.678812 111.507726 
L 168.667554 110.666661 
L 167.604182 109.894426 
L 166.49325 109.194325 
L 165.339514 108.569358 
L 164.147916 108.022201 
L 162.923557 107.555196 
L 161.671681 107.170343 
L 160.397648 106.86929 
L 159.106914 106.653327 
L 157.805007 106.523378 
L 156.4975 106.48 
L 156.4975 106.48 
L 155.189993 106.523378 
L 153.888086 106.653327 
L 152.597352 106.86929 
L 151.323319 107.170343 
L 150.071443 107.555196 
L 148.847084 108.022201 
L 147.655486 108.569358 
L 146.50175 109.194325 
L 145.390818 109.894426 
L 144.327446 110.666661 
L 143.316188 111.507726 
L 142.361375 112.414017 
L 141.467094 113.381654 
L 140.637177 114.406493 
L 139.875175 115.484147 
L 139.184353 116.61 
L 138.567669 117.779231 
L 138.027762 118.986834 
L 137.566946 120.227636 
L 137.187194 121.496326 
L 136.890131 122.78747 
L 136.67703 124.095539 
L 136.548803 125.414933 
L 136.506 126.74 
L 136.506 126.74 
L 136.548803 128.065067 
L 136.67703 129.384461 
L 136.890131 130.69253 
L 137.187194 131.983674 
L 137.566946 133.252364 
L 138.027762 134.493166 
L 138.567669 135.700769 
L 139.184353 136.87 
L 139.875175 137.995853 
L 140.637177 139.073507 
L 141.467094 140.098346 
L 142.361375 141.065983 
L 143.316188 141.972274 
L 144.327446 142.813339 
L 145.390818 143.585574 
L 146.50175 144.285675 
L 147.655486 144.910642 
L 148.847084 145.457799 
L 150.071443 145.924804 
L 151.323319 146.309657 
L 152.597352 146.61071 
L 153.888086 146.826673 
L 155.189993 146.956622 
L 156.4975 147 
L 156.4975 147 
L 157.805007 146.956622 
L 159.106914 146.826673 
L 160.397648 146.61071 
L 161.671681 146.309657 
L 162.923557 145.924804 
L 164.147916 145.457799 
L 165.339514 144.910642 
L 166.49325 144.285675 
L 167.604182 143.585574 
L 168.667554 142.813339 
L 169.678812 141.972274 
L 170.633625 141.065983 
L 171.527906 140.098346 
L 172.357823 139.073507 
L 173.119825 137.995853 
L 173.810647 136.87 
L 174.427331 135.700769 
L 174.967238 134.493166 
L 175.428054 133.252364 
L 175.807806 131.983674 
L 176.104869 130.69253 
L 176.31797 129.384461 
L 176.446197 128.065067 
L 176.489 126.74 
" style="fill:none;stroke:#a22396;stroke-linecap:square;stroke-width:1.5;"/>
   </g>
   <g id="patch_3">
    <path d="M 56.54 228.04 
L 56.54 25.44 
" style="fill:none;stroke:#000000;stroke-linecap:square;stroke-linejoin:miter;stroke-width:0.8;"/>
   </g>
   <g id="patch_4">
    <path d="M 256.455 228.04 
L 256.455 25.44 
" style="fill:none;stroke:#000000;stroke-linecap:square;stroke-linejoin:miter;stroke-width:0.8;"/>
   </g>
   <g id="patch_5">
    <path d="M 56.54 228.04 
L 256.455 228.04 
" style="fill:none;stroke:#000000;stroke-linecap:square;stroke-linejoin:miter;stroke-width:0.8;"/>
   </g>
   <g id="patch_6">
    <path d="M 56.54 25.44 
L 256.455 25.44 
" style="fill:none;stroke:#000000;stroke-linecap:square;stroke-linejoin:miter;stroke-width:0.8;"/>
   </g>
   <g id="text_13">
    <!-- L2 constraint w/loss function -->
    <defs>
     <path d="M 9.8125 72.90625 
L 19.671875 72.90625 
L 19.671875 8.296875 
L 55.171875 8.296875 
L 55.171875 0 
L 9.8125 0 
z
" id="DejaVuSans-76"/>
     <path id="DejaVuSans-32"/>
     <path d="M 48.78125 52.59375 
L 48.78125 44.1875 
Q 44.96875 46.296875 41.140625 47.34375 
Q 37.3125 48.390625 33.40625 48.390625 
Q 24.65625 48.390625 19.8125 42.84375 
Q 14.984375 37.3125 14.984375 27.296875 
Q 14.984375 17.28125 19.8125 11.734375 
Q 24.65625 6.203125 33.40625 6.203125 
Q 37.3125 6.203125 41.140625 7.25 
Q 44.96875 8.296875 48.78125 10.40625 
L 48.78125 2.09375 
Q 45.015625 0.34375 40.984375 -0.53125 
Q 36.96875 -1.421875 32.421875 -1.421875 
Q 20.0625 -1.421875 12.78125 6.34375 
Q 5.515625 14.109375 5.515625 27.296875 
Q 5.515625 40.671875 12.859375 48.328125 
Q 20.21875 56 33.015625 56 
Q 37.15625 56 41.109375 55.140625 
Q 45.0625 54.296875 48.78125 52.59375 
z
" id="DejaVuSans-99"/>
     <path d="M 30.609375 48.390625 
Q 23.390625 48.390625 19.1875 42.75 
Q 14.984375 37.109375 14.984375 27.296875 
Q 14.984375 17.484375 19.15625 11.84375 
Q 23.34375 6.203125 30.609375 6.203125 
Q 37.796875 6.203125 41.984375 11.859375 
Q 46.1875 17.53125 46.1875 27.296875 
Q 46.1875 37.015625 41.984375 42.703125 
Q 37.796875 48.390625 30.609375 48.390625 
z
M 30.609375 56 
Q 42.328125 56 49.015625 48.375 
Q 55.71875 40.765625 55.71875 27.296875 
Q 55.71875 13.875 49.015625 6.21875 
Q 42.328125 -1.421875 30.609375 -1.421875 
Q 18.84375 -1.421875 12.171875 6.21875 
Q 5.515625 13.875 5.515625 27.296875 
Q 5.515625 40.765625 12.171875 48.375 
Q 18.84375 56 30.609375 56 
z
" id="DejaVuSans-111"/>
     <path d="M 54.890625 33.015625 
L 54.890625 0 
L 45.90625 0 
L 45.90625 32.71875 
Q 45.90625 40.484375 42.875 44.328125 
Q 39.84375 48.1875 33.796875 48.1875 
Q 26.515625 48.1875 22.3125 43.546875 
Q 18.109375 38.921875 18.109375 30.90625 
L 18.109375 0 
L 9.078125 0 
L 9.078125 54.6875 
L 18.109375 54.6875 
L 18.109375 46.1875 
Q 21.34375 51.125 25.703125 53.5625 
Q 30.078125 56 35.796875 56 
Q 45.21875 56 50.046875 50.171875 
Q 54.890625 44.34375 54.890625 33.015625 
z
" id="DejaVuSans-110"/>
     <path d="M 44.28125 53.078125 
L 44.28125 44.578125 
Q 40.484375 46.53125 36.375 47.5 
Q 32.28125 48.484375 27.875 48.484375 
Q 21.1875 48.484375 17.84375 46.4375 
Q 14.5 44.390625 14.5 40.28125 
Q 14.5 37.15625 16.890625 35.375 
Q 19.28125 33.59375 26.515625 31.984375 
L 29.59375 31.296875 
Q 39.15625 29.25 43.1875 25.515625 
Q 47.21875 21.78125 47.21875 15.09375 
Q 47.21875 7.46875 41.1875 3.015625 
Q 35.15625 -1.421875 24.609375 -1.421875 
Q 20.21875 -1.421875 15.453125 -0.5625 
Q 10.6875 0.296875 5.421875 2 
L 5.421875 11.28125 
Q 10.40625 8.6875 15.234375 7.390625 
Q 20.0625 6.109375 24.8125 6.109375 
Q 31.15625 6.109375 34.5625 8.28125 
Q 37.984375 10.453125 37.984375 14.40625 
Q 37.984375 18.0625 35.515625 20.015625 
Q 33.0625 21.96875 24.703125 23.78125 
L 21.578125 24.515625 
Q 13.234375 26.265625 9.515625 29.90625 
Q 5.8125 33.546875 5.8125 39.890625 
Q 5.8125 47.609375 11.28125 51.796875 
Q 16.75 56 26.8125 56 
Q 31.78125 56 36.171875 55.265625 
Q 40.578125 54.546875 44.28125 53.078125 
z
" id="DejaVuSans-115"/>
     <path d="M 18.3125 70.21875 
L 18.3125 54.6875 
L 36.8125 54.6875 
L 36.8125 47.703125 
L 18.3125 47.703125 
L 18.3125 18.015625 
Q 18.3125 11.328125 20.140625 9.421875 
Q 21.96875 7.515625 27.59375 7.515625 
L 36.8125 7.515625 
L 36.8125 0 
L 27.59375 0 
Q 17.1875 0 13.234375 3.875 
Q 9.28125 7.765625 9.28125 18.015625 
L 9.28125 47.703125 
L 2.6875 47.703125 
L 2.6875 54.6875 
L 9.28125 54.6875 
L 9.28125 70.21875 
z
" id="DejaVuSans-116"/>
     <path d="M 41.109375 46.296875 
Q 39.59375 47.171875 37.8125 47.578125 
Q 36.03125 48 33.890625 48 
Q 26.265625 48 22.1875 43.046875 
Q 18.109375 38.09375 18.109375 28.8125 
L 18.109375 0 
L 9.078125 0 
L 9.078125 54.6875 
L 18.109375 54.6875 
L 18.109375 46.1875 
Q 20.953125 51.171875 25.484375 53.578125 
Q 30.03125 56 36.53125 56 
Q 37.453125 56 38.578125 55.875 
Q 39.703125 55.765625 41.0625 55.515625 
z
" id="DejaVuSans-114"/>
     <path d="M 34.28125 27.484375 
Q 23.390625 27.484375 19.1875 25 
Q 14.984375 22.515625 14.984375 16.5 
Q 14.984375 11.71875 18.140625 8.90625 
Q 21.296875 6.109375 26.703125 6.109375 
Q 34.1875 6.109375 38.703125 11.40625 
Q 43.21875 16.703125 43.21875 25.484375 
L 43.21875 27.484375 
z
M 52.203125 31.203125 
L 52.203125 0 
L 43.21875 0 
L 43.21875 8.296875 
Q 40.140625 3.328125 35.546875 0.953125 
Q 30.953125 -1.421875 24.3125 -1.421875 
Q 15.921875 -1.421875 10.953125 3.296875 
Q 6 8.015625 6 15.921875 
Q 6 25.140625 12.171875 29.828125 
Q 18.359375 34.515625 30.609375 34.515625 
L 43.21875 34.515625 
L 43.21875 35.40625 
Q 43.21875 41.609375 39.140625 45 
Q 35.0625 48.390625 27.6875 48.390625 
Q 23 48.390625 18.546875 47.265625 
Q 14.109375 46.140625 10.015625 43.890625 
L 10.015625 52.203125 
Q 14.9375 54.109375 19.578125 55.046875 
Q 24.21875 56 28.609375 56 
Q 40.484375 56 46.34375 49.84375 
Q 52.203125 43.703125 52.203125 31.203125 
z
" id="DejaVuSans-97"/>
     <path d="M 9.421875 54.6875 
L 18.40625 54.6875 
L 18.40625 0 
L 9.421875 0 
z
M 9.421875 75.984375 
L 18.40625 75.984375 
L 18.40625 64.59375 
L 9.421875 64.59375 
z
" id="DejaVuSans-105"/>
     <path d="M 4.203125 54.6875 
L 13.1875 54.6875 
L 24.421875 12.015625 
L 35.59375 54.6875 
L 46.1875 54.6875 
L 57.421875 12.015625 
L 68.609375 54.6875 
L 77.59375 54.6875 
L 63.28125 0 
L 52.6875 0 
L 40.921875 44.828125 
L 29.109375 0 
L 18.5 0 
z
" id="DejaVuSans-119"/>
     <path d="M 25.390625 72.90625 
L 33.6875 72.90625 
L 8.296875 -9.28125 
L 0 -9.28125 
z
" id="DejaVuSans-47"/>
     <path d="M 9.421875 75.984375 
L 18.40625 75.984375 
L 18.40625 0 
L 9.421875 0 
z
" id="DejaVuSans-108"/>
     <path d="M 37.109375 75.984375 
L 37.109375 68.5 
L 28.515625 68.5 
Q 23.6875 68.5 21.796875 66.546875 
Q 19.921875 64.59375 19.921875 59.515625 
L 19.921875 54.6875 
L 34.71875 54.6875 
L 34.71875 47.703125 
L 19.921875 47.703125 
L 19.921875 0 
L 10.890625 0 
L 10.890625 47.703125 
L 2.296875 47.703125 
L 2.296875 54.6875 
L 10.890625 54.6875 
L 10.890625 58.5 
Q 10.890625 67.625 15.140625 71.796875 
Q 19.390625 75.984375 28.609375 75.984375 
z
" id="DejaVuSans-102"/>
     <path d="M 8.5 21.578125 
L 8.5 54.6875 
L 17.484375 54.6875 
L 17.484375 21.921875 
Q 17.484375 14.15625 20.5 10.265625 
Q 23.53125 6.390625 29.59375 6.390625 
Q 36.859375 6.390625 41.078125 11.03125 
Q 45.3125 15.671875 45.3125 23.6875 
L 45.3125 54.6875 
L 54.296875 54.6875 
L 54.296875 0 
L 45.3125 0 
L 45.3125 8.40625 
Q 42.046875 3.421875 37.71875 1 
Q 33.40625 -1.421875 27.6875 -1.421875 
Q 18.265625 -1.421875 13.375 4.4375 
Q 8.5 10.296875 8.5 21.578125 
z
M 31.109375 56 
z
" id="DejaVuSans-117"/>
    </defs>
    <g transform="translate(70.374062 19.44)scale(0.12 -0.12)">
     <use xlink:href="#DejaVuSans-76"/>
     <use x="55.712891" xlink:href="#DejaVuSans-50"/>
     <use x="119.335938" xlink:href="#DejaVuSans-32"/>
     <use x="151.123047" xlink:href="#DejaVuSans-99"/>
     <use x="206.103516" xlink:href="#DejaVuSans-111"/>
     <use x="267.285156" xlink:href="#DejaVuSans-110"/>
     <use x="330.664062" xlink:href="#DejaVuSans-115"/>
     <use x="382.763672" xlink:href="#DejaVuSans-116"/>
     <use x="421.972656" xlink:href="#DejaVuSans-114"/>
     <use x="463.085938" xlink:href="#DejaVuSans-97"/>
     <use x="524.365234" xlink:href="#DejaVuSans-105"/>
     <use x="552.148438" xlink:href="#DejaVuSans-110"/>
     <use x="615.527344" xlink:href="#DejaVuSans-116"/>
     <use x="654.736328" xlink:href="#DejaVuSans-32"/>
     <use x="686.523438" xlink:href="#DejaVuSans-119"/>
     <use x="768.310547" xlink:href="#DejaVuSans-47"/>
     <use x="802.001953" xlink:href="#DejaVuSans-108"/>
     <use x="829.785156" xlink:href="#DejaVuSans-111"/>
     <use x="890.966797" xlink:href="#DejaVuSans-115"/>
     <use x="943.066406" xlink:href="#DejaVuSans-115"/>
     <use x="995.166016" xlink:href="#DejaVuSans-32"/>
     <use x="1026.953125" xlink:href="#DejaVuSans-102"/>
     <use x="1062.158203" xlink:href="#DejaVuSans-117"/>
     <use x="1125.537109" xlink:href="#DejaVuSans-110"/>
     <use x="1188.916016" xlink:href="#DejaVuSans-99"/>
     <use x="1243.896484" xlink:href="#DejaVuSans-116"/>
     <use x="1283.105469" xlink:href="#DejaVuSans-105"/>
     <use x="1310.888672" xlink:href="#DejaVuSans-111"/>
     <use x="1372.070312" xlink:href="#DejaVuSans-110"/>
    </g>
   </g>
  </g>
 </g>
 <defs>
  <clipPath id="p524ca39d89">
   <rect height="202.6" width="199.915" x="56.54" y="25.44"/>
  </clipPath>
 </defs>
</svg>
